<?xml version="1.0" encoding="UTF-8"?><svg id="Layer_1" xmlns="http://www.w3.org/2000/svg" viewBox="0 0 1640 1000"><path d="M1640,85.58c-87.34,27.78-150.62,109.54-150.62,206.08,0,16.46,1.85,32.48,5.33,47.88-14.29-7.21-30.44-11.27-47.55-11.27-44.25,0-82.15,27.18-97.93,65.76-30.02-21.2-66.65-33.66-106.2-33.66-24.43,0-47.74,4.76-69.07,13.4-15.13-27.14-44.12-45.49-77.4-45.49-5.99,0-11.83.6-17.49,1.73.65-5.04.98-10.17.98-15.39,0-65.96-53.47-119.43-119.43-119.43s-119.43,53.47-119.43,119.43c0,19.23,4.55,37.39,12.62,53.48-1.56-.09-3.14-.14-4.72-.14-18.27,0-35.17,5.79-49.02,15.61-46.68-61.72-120.71-101.61-204.06-101.61-122.16,0-224.29,85.67-249.65,200.2-27.22-23.26-62.54-37.31-101.15-37.31-.22,0-.44,0-.65,0,19.92-34.27,31.33-74.09,31.33-116.58,0-128.31-104.02-232.33-232.33-232.33-14.9,0-29.47,1.42-43.6,4.1v899.95h1640V85.58Z" fill="#de2216" stroke-width="0"/><path d="M399.21,293.87c-7.1-.06-13.64-.28-20.76-.09-4.35.12-8.75.12-13.14.11" fill="none" stroke="#de2216" stroke-linecap="round" stroke-linejoin="round" stroke-width="2"/><path d="M516.89,294.47c-.81,0-1.62,0-2.44,0-6.03.01-11.9-.29-17.91-.32-4.69-.02-9.4.02-14.09.02-6.93,0-13.87,0-20.8,0" fill="none" stroke="#de2216" stroke-linecap="round" stroke-linejoin="round" stroke-width="2"/><path d="M217.36,174.07h97.9" fill="none" stroke="#de2216" stroke-linecap="round" stroke-linejoin="round" stroke-width="2"/><path d="M551.35,254.85c-5.72-.11-11.2.06-16.93.09-6.35.03-12.7-.01-19.05,0-10.12.02-20.18-.32-30.33-.31-11.27.01-22.53,0-33.8,0-11.83,0-23.52.22-35.33.32-.31,0-.62,0-.93,0" fill="none" stroke="#de2216" stroke-linecap="round" stroke-linejoin="round" stroke-width="2"/><path d="M406.14,260.82c4.26-.09,8.52-.17,12.82-.16,6.69.02,13.32-.25,20.01-.24,7.99,0,15.89-.03,23.87-.07,13.84-.07,27.7.02,41.54,0,11.29-.01,22.49.33,33.77.31,11.57-.03,23.03.32,34.59.3" fill="none" stroke="#de2216" stroke-linecap="round" stroke-linejoin="round" stroke-width="2"/><path d="M232.92,193.58c10.5.1,21.04-.16,31.53.1,5.68.14,10.91.06,16.59,0,5.82-.07,11.57.1,17.4.02,7.75-.11,15.28-.09,23.04,0,1.34.01,2.68.01,4.02.01" fill="none" stroke="#de2216" stroke-linecap="round" stroke-linejoin="round" stroke-width="2"/><path d="M452.66,241.68c-4.89-.01-9.79-.17-14.68-.24" fill="none" stroke="#de2216" stroke-linecap="round" stroke-linejoin="round" stroke-width="2"/><path d="M580.15,241.43c-41.15.57-82.15.57-123.36.25" fill="none" stroke="#de2216" stroke-linecap="round" stroke-linejoin="round" stroke-width="2"/><path d="M587.23,248.3c-4.14,0-8.26,0-12.4.07-10.73.2-21.3.24-32.06.23-13.21-.02-26.37.31-39.59.31-13.57,0-27.12.11-40.66-.22-12.28-.29-24.48-.36-36.76-.38" fill="none" stroke="#de2216" stroke-linecap="round" stroke-linejoin="round" stroke-width="2"/><path d="M541.16,206.45c2.37,0,4.75,0,7.12-.01,12.04,0,24.08.06,36.12,0" fill="none" stroke="#de2216" stroke-linecap="round" stroke-linejoin="round" stroke-width="2"/><path d="M585.58,212.27c-8.96-.37-18.15-.15-27.17-.38-10.78-.28-21.44.15-32.2.25-4.03.04-8.06-.02-12.09-.08" fill="none" stroke="#de2216" stroke-linecap="round" stroke-linejoin="round" stroke-width="2"/><path d="M490.77,218.84c17.4.09,34.77.3,52.19.4,11.98.07,23.93.15,35.93.15" fill="none" stroke="#de2216" stroke-linecap="round" stroke-linejoin="round" stroke-width="2"/><path d="M583.6,226.49c-5.22.04-10.29.33-15.54.32-4.92,0-9.92-.07-14.84-.02-5.99.06-11.8.33-17.83.32-6.98-.01-13.96-.01-20.94,0-6.03.01-11.9-.29-17.91-.32-4.69-.02-9.4.02-14.09.02-4.44,0-8.88,0-13.33,0" fill="none" stroke="#de2216" stroke-linecap="round" stroke-linejoin="round" stroke-width="2"/><path d="M450.52,235.08c.08,0,.17,0,.25,0,10.28,0,20.65-.12,30.9.12,5.53.13,11,.06,16.53.1,4.37.04,8.68.27,13.07.26,10.98-.02,22.03-.06,32.98-.36" fill="none" stroke="#de2216" stroke-linecap="round" stroke-linejoin="round" stroke-width="2"/><path d="M541.25,267.24c-21.3,0-42.48-.3-63.79-.3-12.57,0-25.15-.01-37.73,0-11.97,0-23.83-.32-35.79-.31-2,0-3.99,0-5.99,0" fill="none" stroke="#de2216" stroke-linecap="round" stroke-linejoin="round" stroke-width="2"/><path d="M389.5,273.02c24.04.27,48.04.8,72.11.78,7.53,0,15.07,0,22.6,0,7.27,0,14.37-.21,21.62-.26,6.68-.05,13.29.15,19.95.22,7.49.08,14.98.03,22.48.03,12.04,0,24.08.06,36.12,0" fill="none" stroke="#de2216" stroke-linecap="round" stroke-linejoin="round" stroke-width="2"/><path d="M585.58,279.63c-8.96-.37-18.15-.15-27.17-.38-10.78-.28-21.44.15-32.2.25-10.68.1-21.36-.44-31.92-.09-4.46.15-8.95.04-13.43.14-6.34.14-12.37.25-18.75.24-12.68-.02-25.38.12-38.03.36-12.22.24-24.31-.02-36.5.3-2.45.06-4.91.1-7.37.14" fill="none" stroke="#de2216" stroke-linecap="round" stroke-linejoin="round" stroke-width="2"/><path d="M405.24,286.14c-10.48,0-20.97-.04-31.45-.02" fill="none" stroke="#de2216" stroke-linecap="round" stroke-linejoin="round" stroke-width="2"/><path d="M547.29,286.62c-1.44,0-2.88-.02-4.33-.02-22.84-.13-45.61-.45-68.46-.45" fill="none" stroke="#de2216" stroke-linecap="round" stroke-linejoin="round" stroke-width="2"/><path d="M345.92,481.77c.19,0,.38,0,.57,0" fill="none" stroke="#de2216" stroke-linecap="round" stroke-linejoin="round" stroke-width="2"/><path d="M354.05,293.86c-11.56,0-23.11,0-34.67,0-15.16,0-30.55-.24-45.67.14-.1,0-.2,0-.3,0" fill="none" stroke="#de2216" stroke-linecap="round" stroke-linejoin="round" stroke-width="2"/><path d="M352.32,280.69c-1.4,0-2.79,0-4.19,0-7.3,0-14.61.06-21.91-.03-7.93-.09-15.69-.31-23.64-.13-10.47.24-21.02.21-31.55.18" fill="none" stroke="#de2216" stroke-linecap="round" stroke-linejoin="round" stroke-width="2"/><path d="M353.15,286.46c-6.14.16-12.29.31-18.43.29-20.85-.04-41.57.59-62.37.72" fill="none" stroke="#de2216" stroke-linecap="round" stroke-linejoin="round" stroke-width="2"/><path d="M426.25,346.49c-.72.01-1.44.02-2.16.04-12.22.24-24.31-.02-36.5.3-13.11.35-26.3.23-39.45.22-7.3,0-14.61.06-21.91-.03-7.93-.09-15.69-.31-23.64-.13-9.1.21-18.26.21-27.42.19" fill="none" stroke="#de2216" stroke-linecap="round" stroke-linejoin="round" stroke-width="2"/><path d="M349.86,266.64c-7.01,0-14.02,0-21.03,0h-61.18" fill="none" stroke="#de2216" stroke-linecap="round" stroke-linejoin="round" stroke-width="2"/><path d="M337.04,254.93c-24.31-.03-48.63,0-72.94,0" fill="none" stroke="#de2216" stroke-linecap="round" stroke-linejoin="round" stroke-width="2"/><path d="M347.27,254.93c-1.58,0-3.17,0-4.75,0" fill="none" stroke="#de2216" stroke-linecap="round" stroke-linejoin="round" stroke-width="2"/><path d="M348.69,261.09c-1.9-.02-3.81-.04-5.76-.07-7.16-.09-14.27.1-21.44.02-7.76-.09-15.28-.11-23.04,0-5.83.08-11.58-.08-17.4-.02-5.15.06-9.93.12-15.01.03" fill="none" stroke="#de2216" stroke-linecap="round" stroke-linejoin="round" stroke-width="2"/><path d="M451.41,326.78c-4.14.02-8.28.02-12.45.02-6.69,0-13.32.26-20.01.24-6.45-.02-12.82.18-19.26.27-7.02.1-14.1.03-21.13.03-5.54,0-11.09-.07-16.62.07-6.48.17-12.51.07-19.02,0-7.16-.09-14.27.1-21.44.02-7.76-.09-15.28-.11-23.04,0-5.83.08-11.58-.08-17.4-.02-1.75.02-3.44.04-5.13.06" fill="none" stroke="#de2216" stroke-linecap="round" stroke-linejoin="round" stroke-width="2"/><path d="M312.8,333.01c-12.31,0-24.62,0-36.93,0" fill="none" stroke="#de2216" stroke-linecap="round" stroke-linejoin="round" stroke-width="2"/><path d="M362.58,333.02c-14.73-.01-29.47,0-44.2,0" fill="none" stroke="#de2216" stroke-linecap="round" stroke-linejoin="round" stroke-width="2"/><path d="M442.34,333.31c-25.22-.19-50.43-.26-75.65-.29" fill="none" stroke="#de2216" stroke-linecap="round" stroke-linejoin="round" stroke-width="2"/><path d="M263.57,247.99c-.63,0-1.26,0-1.88,0" fill="none" stroke="#de2216" stroke-linecap="round" stroke-linejoin="round" stroke-width="2"/><path d="M313.94,339.13c-12.75-.12-25.51-.23-38.26-.19" fill="none" stroke="#de2216" stroke-linecap="round" stroke-linejoin="round" stroke-width="2"/><path d="M433.86,339.99c-38.86,0-76.86-1.99-115.76-.82" fill="none" stroke="#de2216" stroke-linecap="round" stroke-linejoin="round" stroke-width="2"/><path d="M460.2,321c-2.99,0-5.97,0-8.96,0-11.83,0-23.52.22-35.33.32-11.79.1-23.79.09-35.59,0-13.99-.11-27.89.01-41.88,0-20.87-.03-41.75-.01-62.62,0" fill="none" stroke="#de2216" stroke-linecap="round" stroke-linejoin="round" stroke-width="2"/><path d="M309.98,307.81c-11.65,0-23.3,0-34.96,0" fill="none" stroke="#de2216" stroke-linecap="round" stroke-linejoin="round" stroke-width="2"/><path d="M483.26,308.13c-56.26-.13-111.26-.13-167.69-.32" fill="none" stroke="#de2216" stroke-linecap="round" stroke-linejoin="round" stroke-width="2"/><path d="M469.92,315.18c-2.47-.03-4.93-.06-7.4-.12-13.78-.33-27.46-.38-41.26-.38-5.14,0-10.28,0-15.42,0-5.88,0-11.77-.24-17.64-.13-8.76.16-17.21.12-25.96-.11-9.41-.25-19.1-.07-28.54-.07-19.37,0-38.82-.12-58.21-.06" fill="none" stroke="#de2216" stroke-linecap="round" stroke-linejoin="round" stroke-width="2"/><path d="M307.96,300.99c-11.21,0-22.41.09-33.62.2" fill="none" stroke="#de2216" stroke-linecap="round" stroke-linejoin="round" stroke-width="2"/><path d="M354.75,301.12c-13.5-.12-27-.14-40.5-.14" fill="none" stroke="#de2216" stroke-linecap="round" stroke-linejoin="round" stroke-width="2"/><path d="M288.37,272.56c-6.39-.02-12.78,0-19.17.04" fill="none" stroke="#de2216" stroke-linecap="round" stroke-linejoin="round" stroke-width="2"/><path d="M351.04,272.88c-19.07.04-38.13-.18-57.19-.3" fill="none" stroke="#de2216" stroke-linecap="round" stroke-linejoin="round" stroke-width="2"/><path d="M311.28,167.26c-7.86,0-15.72,0-23.57,0-5.8,0-11.55.29-17.34.2-4.58-.07-8.73-.13-13.3-.01-10.52.26-21.3.06-31.85.06-4.64,0-9.27,0-13.91,0" fill="none" stroke="#de2216" stroke-linecap="round" stroke-linejoin="round" stroke-width="2"/><path d="M295.36,180.56c7.84.01,15.68.04,23.52.06" fill="none" stroke="#de2216" stroke-linecap="round" stroke-linejoin="round" stroke-width="2"/><path d="M223.06,180.72c22.95.04,45.89-.19,68.84-.17" fill="none" stroke="#de2216" stroke-linecap="round" stroke-linejoin="round" stroke-width="2"/><path d="M273.71,226.64c-7,.18-13.98.28-20.96.37" fill="none" stroke="#de2216" stroke-linecap="round" stroke-linejoin="round" stroke-width="2"/><path d="M287.71,234.61c-5.8,0-11.55.29-17.34.2-4.58-.07-8.73-.13-13.3-.01-.24,0-.48,0-.72.01" fill="none" stroke="#de2216" stroke-linecap="round" stroke-linejoin="round" stroke-width="2"/><path d="M336.4,219.39c-.56,0-1.11,0-1.67,0-23.18-.05-46.2.75-69.35.75-5.46,0-10.7-.07-16.09.03" fill="none" stroke="#de2216" stroke-linecap="round" stroke-linejoin="round" stroke-width="2"/><path d="M328.1,199.28h-91.26" fill="none" stroke="#de2216" stroke-linecap="round" stroke-linejoin="round" stroke-width="2"/><path d="M313.4,205.39c-24.19-.22-48.38-.11-72.57.06" fill="none" stroke="#de2216" stroke-linecap="round" stroke-linejoin="round" stroke-width="2"/><path d="M330.84,205.52c-3.96-.02-7.91-.05-11.87-.08" fill="none" stroke="#de2216" stroke-linecap="round" stroke-linejoin="round" stroke-width="2"/><path d="M334.07,213.33c-2.61,0-5.23,0-7.84-.03-7.93-.09-15.69-.31-23.64-.13-13.96.32-28.06.16-42.04.16-5.01,0-10.01-.01-15.02-.02" fill="none" stroke="#de2216" stroke-linecap="round" stroke-linejoin="round" stroke-width="2"/><path d="M228.47,187.58h36.49c19.18,0,38.35-.01,57.53,0" fill="none" stroke="#de2216" stroke-linecap="round" stroke-linejoin="round" stroke-width="2"/><path d="M348.37,473.96c-3.39,0-6.78.01-10.16.01-.76,0-1.51,0-2.26,0" fill="none" stroke="#de2216" stroke-linecap="round" stroke-linejoin="round" stroke-width="2"/><path d="M316.51,462.08c1.65.01,3.3.03,4.97.04,7.17.08,14.28-.11,21.44-.02,2.99.04,5.88.07,8.76.09" fill="none" stroke="#de2216" stroke-linecap="round" stroke-linejoin="round" stroke-width="2"/><path d="M350.05,467.73c-7.07,0-14.15,0-21.22,0h-2.31" fill="none" stroke="#de2216" stroke-linecap="round" stroke-linejoin="round" stroke-width="2"/><path d="M419.7,352.52h-14.46c-11.43,0-22.87-.06-34.3-.02-12.07.05-24.15.65-36.22.63-20.12-.04-40.12.55-60.2.71" fill="none" stroke="#de2216" stroke-linecap="round" stroke-linejoin="round" stroke-width="2"/><path d="M333.71,381.73c-21.29,0-42.66-.15-63.96-.04" fill="none" stroke="#de2216" stroke-linecap="round" stroke-linejoin="round" stroke-width="2"/><path d="M393.28,381.89c-1.69-.01-3.38-.01-5.07.02" fill="none" stroke="#de2216" stroke-linecap="round" stroke-linejoin="round" stroke-width="2"/><path d="M338.44,388.66c-23.48-.03-46.96,0-70.45,0" fill="none" stroke="#de2216" stroke-linecap="round" stroke-linejoin="round" stroke-width="2"/><path d="M342.92,394.76c-7.16-.09-14.27.1-21.44.02-7.76-.09-15.28-.11-23.04,0-5.83.08-11.58-.08-17.4-.02-5.08.06-9.8.12-14.79.04" fill="none" stroke="#de2216" stroke-linecap="round" stroke-linejoin="round" stroke-width="2"/><path d="M328.83,400.37h-64.31" fill="none" stroke="#de2216" stroke-linecap="round" stroke-linejoin="round" stroke-width="2"/><path d="M398.64,375.15c-1.25,0-2.5,0-3.75,0h-123.7" fill="none" stroke="#de2216" stroke-linecap="round" stroke-linejoin="round" stroke-width="2"/><path d="M290.31,360.16c-5.53.02-11.06.07-16.59.21" fill="none" stroke="#de2216" stroke-linecap="round" stroke-linejoin="round" stroke-width="2"/><path d="M411.91,360.27c-36.91-.27-72.91-.27-109.82-.09" fill="none" stroke="#de2216" stroke-linecap="round" stroke-linejoin="round" stroke-width="2"/><path d="M365.19,427.62c-3.29-.01-6.59-.03-9.86-.03-11.99,0-23.97,0-35.96,0-15.16,0-30.55-.24-45.67.14-6.77.17-13.52.27-20.27.36" fill="none" stroke="#de2216" stroke-linecap="round" stroke-linejoin="round" stroke-width="2"/><path d="M338.21,406.63c-14.84,0-29.54-.22-44.36-.32-10.47-.06-20.93-.01-31.38.06" fill="none" stroke="#de2216" stroke-linecap="round" stroke-linejoin="round" stroke-width="2"/><path d="M361.42,435.88c-1.55-.01-3.1-.02-4.64-.03-23.01-.23-46.05-.12-69.07-.16-5.8,0-11.55.29-17.34.2-4.58-.07-8.73-.13-13.3-.01-2.51.06-5.04.1-7.58.11" fill="none" stroke="#de2216" stroke-linecap="round" stroke-linejoin="round" stroke-width="2"/><path d="M358.66,442.51h-112.73" fill="none" stroke="#de2216" stroke-linecap="round" stroke-linejoin="round" stroke-width="2"/><path d="M356.14,449.05c-7.46-.07-15.03.03-22.43.03-17.52,0-35.09-.11-52.63-.09" fill="none" stroke="#de2216" stroke-linecap="round" stroke-linejoin="round" stroke-width="2"/><path d="M369.05,419.88c-11.44.1-22.89.63-34.33.61-23.18-.05-46.2.75-69.35.75-2.97,0-5.88-.02-8.79-.03" fill="none" stroke="#de2216" stroke-linecap="round" stroke-linejoin="round" stroke-width="2"/><path d="M326.23,414.38c-7.93-.09-15.69-.31-23.64-.13-13.96.32-28.06.16-42.04.16-.37,0-.75,0-1.12,0" fill="none" stroke="#de2216" stroke-linecap="round" stroke-linejoin="round" stroke-width="2"/><path d="M404.2,368.62c-15.82.03-31.64.03-47.42-.13-23.01-.23-46.05-.12-69.07-.16-5.1,0-10.17.21-15.26.2" fill="none" stroke="#de2216" stroke-linecap="round" stroke-linejoin="round" stroke-width="2"/><path d="M231.25,78.57c-16.95-.04-33.9-.07-50.82.06-15.35.11-30.71-.15-46.05.07-7.11.11-14.03-.06-21.15-.09-8.49-.04-16.94.09-25.42-.06-16.47-.28-33.01-.34-49.51-.24-8.91.05-17.76.11-26.67.08-3.89-.01-7.76.02-11.62.04" fill="none" stroke="#de2216" stroke-linecap="round" stroke-linejoin="round" stroke-width="2"/><path d="M263.73,106.72h-113.71c-12.28,0-24.52.03-36.77-.15" fill="none" stroke="#de2216" stroke-linecap="round" stroke-linejoin="round" stroke-width="2"/><path d="M255.95,113.34c-40.95-.34-82.95-.34-124.37-.13" fill="none" stroke="#de2216" stroke-linecap="round" stroke-linejoin="round" stroke-width="2"/><path d="M270.12,113.26c-3.34.02-6.68.03-10.02.05" fill="none" stroke="#de2216" stroke-linecap="round" stroke-linejoin="round" stroke-width="2"/><path d="M164.52,71.25c-54.52.75-109.52-1.25-164.52.44" fill="none" stroke="#de2216" stroke-linecap="round" stroke-linejoin="round" stroke-width="2"/><path d="M220.48,70.82c-17.28.02-34.56.24-51.84.39" fill="none" stroke="#de2216" stroke-linecap="round" stroke-linejoin="round" stroke-width="2"/><path d="M149.56,86.11c-49.56-.11-99.56-2.11-149.56-.82" fill="none" stroke="#de2216" stroke-linecap="round" stroke-linejoin="round" stroke-width="2"/><path d="M240.29,85.65c-28.85.55-57.7.57-86.55.48" fill="none" stroke="#de2216" stroke-linecap="round" stroke-linejoin="round" stroke-width="2"/><path d="M306.2,159.11c-10.85-.05-21.74-.09-32.49.18-13.54.34-27.02.39-40.54.7-9.69.22-19.52.15-29.3.1" fill="none" stroke="#de2216" stroke-linecap="round" stroke-linejoin="round" stroke-width="2"/><path d="M276.53,120.22c-3.85,0-7.71,0-11.56,0h-44.09c-15.81,0-31.74.18-47.53-.07-8.96-.14-17.9-.19-26.84-.21" fill="none" stroke="#de2216" stroke-linecap="round" stroke-linejoin="round" stroke-width="2"/><path d="M174.68,92.7c-57.68,1.3-116.68-.7-174.68-.36" fill="none" stroke="#de2216" stroke-linecap="round" stroke-linejoin="round" stroke-width="2"/><path d="M248.3,92.37c-23.38.33-46.75.32-70.13.33" fill="none" stroke="#de2216" stroke-linecap="round" stroke-linejoin="round" stroke-width="2"/><path d="M167.53,100.03c-26.71-.02-53.43,0-80.14.05" fill="none" stroke="#de2216" stroke-linecap="round" stroke-linejoin="round" stroke-width="2"/><path d="M230.01,100.15c-19.91-.06-39.81-.1-59.72-.12" fill="none" stroke="#de2216" stroke-linecap="round" stroke-linejoin="round" stroke-width="2"/><path d="M256.83,100.09c-7.79.19-15.59.13-23.38.08" fill="none" stroke="#de2216" stroke-linecap="round" stroke-linejoin="round" stroke-width="2"/><path d="M218.07,138.18c-10.78-.02-21.47.31-32.26.31-2.73,0-5.44,0-8.16.02" fill="none" stroke="#de2216" stroke-linecap="round" stroke-linejoin="round" stroke-width="2"/><path d="M260.55,145.97c-24.31,0-48.66-.14-72.95-.02" fill="none" stroke="#de2216" stroke-linecap="round" stroke-linejoin="round" stroke-width="2"/><path d="M265.37,152.8c-6.06,0-11.85-.1-17.89.06-6.75.18-13.63.28-20.4.35-10.14.11-20.27.25-30.41.3" fill="none" stroke="#de2216" stroke-linecap="round" stroke-linejoin="round" stroke-width="2"/><path d="M281.84,126.32c-.26,0-.53,0-.79,0-5.69.06-10.91.15-16.59,0-12.94-.32-25.95.17-38.88-.23-7.1-.22-14.26.03-21.4-.06-5.27-.07-10.51-.09-15.79-.08-10.1,0-20.29.11-30.43.05" fill="none" stroke="#de2216" stroke-linecap="round" stroke-linejoin="round" stroke-width="2"/><path d="M211.05,64.57h-84.72c-14.47,0-29.09-.17-43.53.07-14.02.23-28.06.38-42.11.17-13.57-.21-27.11-.24-40.69-.24" fill="none" stroke="#de2216" stroke-linecap="round" stroke-linejoin="round" stroke-width="2"/><path d="M100.49,32.61c-9.49.22-19.02.03-28.48.3-4.56.13-9.07.12-13.65.11-4.38,0-8.77.18-13.13.1-4.88-.09-9.72-.04-14.59-.08-3.49-.03-6.93-.24-10.43-.26-6.73-.05-13.47-.03-20.21-.08" fill="none" stroke="#de2216" stroke-linecap="round" stroke-linejoin="round" stroke-width="2"/><path d="M105.83,52.58c-5.33-.03-10.59-.28-15.92-.33-29.95-.27-59.95.18-89.91.29" fill="none" stroke="#de2216" stroke-linecap="round" stroke-linejoin="round" stroke-width="2"/><path d="M191.1,52.92c-5.93,0-11.86-.03-17.76-.12" fill="none" stroke="#de2216" stroke-linecap="round" stroke-linejoin="round" stroke-width="2"/><path d="M88.66,45.4c-7.65-.13-15.3-.02-22.96-.13-7.43-.11-14.75-.3-22.19-.26-14.54.08-28.99.63-43.51.84" fill="none" stroke="#de2216" stroke-linecap="round" stroke-linejoin="round" stroke-width="2"/><path d="M191.11,58.6c-64.11-1.6-127.11.4-191.11.33" fill="none" stroke="#de2216" stroke-linecap="round" stroke-linejoin="round" stroke-width="2"/><path d="M201.33,58.66c-2.5-.02-4.99-.04-7.49-.05" fill="none" stroke="#de2216" stroke-linecap="round" stroke-linejoin="round" stroke-width="2"/><path d="M110.93,39.19c-6.62-.11-13.3-.17-19.94-.18-4.65.07-9.3.09-13.95.08-5.6-.11-11.21-.18-16.82-.2-20.08-.03-40.19-.2-60.23.18" fill="none" stroke="#de2216" stroke-linecap="round" stroke-linejoin="round" stroke-width="2"/><path d="M162.36,39.37h-12.35" fill="none" stroke="#de2216" stroke-linecap="round" stroke-linejoin="round" stroke-width="2"/><path d="M8.55,17.93c2.21,0,4.42,0,6.63-.03,7.61-.08,15.17-.3,22.79-.3,13.89,0,27.91.21,41.87.43" fill="none" stroke="#de2216" stroke-linecap="round" stroke-linejoin="round" stroke-width="2"/><path d="M0,24.98c3.09-.03,6.19-.1,9.28-.11,9.02,0,18.02.18,27.04.17,12.56-.01,25.03.32,37.56.3,7.06,0,14.07-.03,21.11.08,7.16.1,14.16-.06,21.3.14,1.63.04,3.25.07,4.87.09" fill="none" stroke="#de2216" stroke-linecap="round" stroke-linejoin="round" stroke-width="2"/><path d="M425.21,301.22c-22.41.04-44.91.14-67.31-.08" fill="none" stroke="#de2216" stroke-linecap="round" stroke-linejoin="round" stroke-width="2"/><path d="M497.45,301.68c-5.27-.04-10.5.02-15.77-.1-10.25-.24-20.62-.12-30.9-.12" fill="none" stroke="#de2216" stroke-linecap="round" stroke-linejoin="round" stroke-width="2"/><path d="M303.23,456c11.74,0,23.47,0,35.21.01,5.09,0,10.16,0,15.24-.02" fill="none" stroke="#de2216" stroke-linecap="round" stroke-linejoin="round" stroke-width="2"/><path d="M602.64,180.86l.02-.04" fill="none" stroke="#de2216" stroke-linecap="round" stroke-linejoin="round" stroke-width="2"/><line x1="602.64" y1="180.86" x2="602.67" y2="180.82" fill="none" stroke="#de2216" stroke-linecap="round" stroke-linejoin="round" stroke-width="2"/><path d="M602.67,180.82l.02-.04-.02.04" fill="none" stroke="#de2216" stroke-linecap="round" stroke-linejoin="round" stroke-width="2"/><path d="M975.9,138.16c-35.9-.16-71.9-.16-107.83-.14" fill="none" stroke="#de2216" stroke-linecap="round" stroke-linejoin="round" stroke-width="2"/><path d="M1054.97,138.95c-24.53-.26-49.05-.79-73.58-.8" fill="none" stroke="#de2216" stroke-linecap="round" stroke-linejoin="round" stroke-width="2"/><path d="M1164.98,360.62c1.77-.04,3.54-.08,5.32-.1,4.92-.05,9.92.01,14.84.02,5.24.01,10.31-.28,15.54-.32" fill="none" stroke="#de2216" stroke-linecap="round" stroke-linejoin="round" stroke-width="2"/><path d="M1168.43,321.22c-5.72-.11-11.2.06-16.93.09-6.35.03-12.7-.01-19.05,0-10.12.02-20.18-.32-30.33-.31-7.41,0-14.82,0-22.23,0" fill="none" stroke="#de2216" stroke-linecap="round" stroke-linejoin="round" stroke-width="2"/><path d="M1079.46,326.73c.16,0,.31,0,.47,0,13.84-.07,27.7.02,41.54,0,11.29-.01,22.49.33,33.77.31,11.57-.03,23.03.32,34.59.3" fill="none" stroke="#de2216" stroke-linecap="round" stroke-linejoin="round" stroke-width="2"/><path d="M1158.34,333.61c-10.64,0-21.24-.07-31.85-.15" fill="none" stroke="#de2216" stroke-linecap="round" stroke-linejoin="round" stroke-width="2"/><path d="M1140.81,340.12c.69,0,1.38.02,2.08.03,7.49.08,14.98.03,22.48.03,12.04,0,24.08.06,36.12,0" fill="none" stroke="#de2216" stroke-linecap="round" stroke-linejoin="round" stroke-width="2"/><path d="M1202.67,346c-8.96-.37-18.15-.15-27.17-.38-8.73-.23-17.38.01-26.07.16" fill="none" stroke="#de2216" stroke-linecap="round" stroke-linejoin="round" stroke-width="2"/><path d="M1157.89,352.95c.72,0,1.43.01,2.15.02,11.98.07,23.93.15,35.93.15" fill="none" stroke="#de2216" stroke-linecap="round" stroke-linejoin="round" stroke-width="2"/><path d="M850.61,361.06c-.12,0-.24,0-.36,0-12.9.29-26.03.07-38.96.07-10.09,0-20.19,0-30.28,0" fill="none" stroke="#de2216" stroke-linecap="round" stroke-linejoin="round" stroke-width="2"/><path d="M955.73,167.29c-27.17-.1-54.42-.52-81.58.15" fill="none" stroke="#de2216" stroke-linecap="round" stroke-linejoin="round" stroke-width="2"/><path d="M1067.86,167.73c-35.86.27-72.86.27-108.64-.43" fill="none" stroke="#de2216" stroke-linecap="round" stroke-linejoin="round" stroke-width="2"/><path d="M1219.75,516.61l.02-.04-.02.04" fill="none" stroke="#de2216" stroke-linecap="round" stroke-linejoin="round" stroke-width="2"/><path d="M1002.24,174.07c-61.24-.07-122.24-.07-182.94,0" fill="none" stroke="#de2216" stroke-linecap="round" stroke-linejoin="round" stroke-width="2"/><path d="M1088.35,174.34c-26.85-.23-53.7-.26-80.55-.26" fill="none" stroke="#de2216" stroke-linecap="round" stroke-linejoin="round" stroke-width="2"/><path d="M766.46,347.05c10.35,0,20.7.09,31.05.01,16.04-.12,32.1-.1,48.17-.06" fill="none" stroke="#de2216" stroke-linecap="round" stroke-linejoin="round" stroke-width="2"/><path d="M1085.78,159.46c-2.35,0-4.69,0-7.04,0-7.59.01-15.02-.27-22.58-.32-13.27-.09-26.58.14-39.85.03-7.1-.06-13.64-.28-20.76-.09-7.66.2-15.44.07-23.12.07-11.99,0-23.97,0-35.96,0-15.16,0-30.55-.24-45.67.14" fill="none" stroke="#de2216" stroke-linecap="round" stroke-linejoin="round" stroke-width="2"/><path d="M1219.73,516.65l.02-.04" fill="none" stroke="#de2216" stroke-linecap="round" stroke-linejoin="round" stroke-width="2"/><path d="M957,145.98c-34,.02-69,.02-102.63-.05" fill="none" stroke="#de2216" stroke-linecap="round" stroke-linejoin="round" stroke-width="2"/><path d="M1065.61,145.12c-34.61-.12-70.61,1.88-105.18.86" fill="none" stroke="#de2216" stroke-linecap="round" stroke-linejoin="round" stroke-width="2"/><path d="M927.52,152.24c-20.97.31-41.99.07-62.95.62" fill="none" stroke="#de2216" stroke-linecap="round" stroke-linejoin="round" stroke-width="2"/><path d="M1075.15,151.44c-48.15-1.44-95.15.56-143.48.74" fill="none" stroke="#de2216" stroke-linecap="round" stroke-linejoin="round" stroke-width="2"/><line x1="1219.73" y1="516.65" x2="1219.75" y2="516.61" fill="none" stroke="#de2216" stroke-linecap="round" stroke-linejoin="round" stroke-width="2"/><path d="M880.71,131.93h65.2c25.04,0,50.08.03,75.13,0,6.66,0,13.29.09,19.93.18" fill="none" stroke="#de2216" stroke-linecap="round" stroke-linejoin="round" stroke-width="2"/><path d="M837.95,187.58c77.05.42,153.05,1.42,230.37-.3" fill="none" stroke="#de2216" stroke-linecap="round" stroke-linejoin="round" stroke-width="2"/><path d="M806.99,187.63c8.49.01,16.98-.03,25.47-.05" fill="none" stroke="#de2216" stroke-linecap="round" stroke-linejoin="round" stroke-width="2"/><path d="M993.67,180.92c28.64.05,57.3-.27,85.94.41" fill="none" stroke="#de2216" stroke-linecap="round" stroke-linejoin="round" stroke-width="2"/><path d="M813.04,180.67c58.96.33,118.96.33,177.91.24" fill="none" stroke="#de2216" stroke-linecap="round" stroke-linejoin="round" stroke-width="2"/><path d="M1128.14,212.02c1.16.01,2.32.03,3.48.04" fill="none" stroke="#de2216" stroke-linecap="round" stroke-linejoin="round" stroke-width="2"/><path d="M1090.58,212.34c10.66-.18,21.33-.37,31.99-.35" fill="none" stroke="#de2216" stroke-linecap="round" stroke-linejoin="round" stroke-width="2"/><path d="M1023.27,212.92c20.44-.02,40.89-.33,61.33-.5" fill="none" stroke="#de2216" stroke-linecap="round" stroke-linejoin="round" stroke-width="2"/><path d="M1009.69,205.7c23,.28,45.98.76,69.01.74,7.53,0,15.07,0,22.6,0,7.27,0,14.37-.21,21.62-.26,1.68-.01,3.35,0,5.02,0" fill="none" stroke="#de2216" stroke-linecap="round" stroke-linejoin="round" stroke-width="2"/><path d="M1077.87,193.01c13.57-.07,27.14,0,40.72,0" fill="none" stroke="#de2216" stroke-linecap="round" stroke-linejoin="round" stroke-width="2"/><path d="M802.46,193.32c89.54-.32,180.54,1.68,270.64-.29" fill="none" stroke="#de2216" stroke-linecap="round" stroke-linejoin="round" stroke-width="2"/><path d="M991.73,199.29c9.77,0,19.54,0,29.31-.01,11.95-.02,23.82.32,35.79.31,12.57,0,25.15,0,37.73,0,9.69,0,19.34.06,29,.13" fill="none" stroke="#de2216" stroke-linecap="round" stroke-linejoin="round" stroke-width="2"/><path d="M916.11,120.21c13.14,0,26.28,0,39.42.01,13.99.02,27.89-.11,41.88,0,2.69.02,5.38.04,8.08.05" fill="none" stroke="#de2216" stroke-linecap="round" stroke-linejoin="round" stroke-width="2"/><path d="M1102.07,286.16c30.93-1.16,62.93,1.84,93.9.58" fill="none" stroke="#de2216" stroke-linecap="round" stroke-linejoin="round" stroke-width="2"/><path d="M1076.65,286.14c6.85,0,13.69,0,20.54,0" fill="none" stroke="#de2216" stroke-linecap="round" stroke-linejoin="round" stroke-width="2"/><path d="M774.51,354.57c10.16.03,20.32.05,30.48.05,13.08,0,26.11-.18,39.17-.33,1.26-.01,2.54-.04,3.81-.05" fill="none" stroke="#de2216" stroke-linecap="round" stroke-linejoin="round" stroke-width="2"/><path d="M1079.89,308.06c2.82,0,5.64-.01,8.46.01,26.71.23,53.54-.17,80.23-.48,9.61-.11,19.08.24,28.65.22" fill="none" stroke="#de2216" stroke-linecap="round" stroke-linejoin="round" stroke-width="2"/><path d="M1154.99,314.98c16.44-.07,32.89-.34,49.32-.3" fill="none" stroke="#de2216" stroke-linecap="round" stroke-linejoin="round" stroke-width="2"/><path d="M1080.06,315.07c24.05.56,48.1.09,72.15-.07" fill="none" stroke="#de2216" stroke-linecap="round" stroke-linejoin="round" stroke-width="2"/><path d="M894.84,126.36c1.09-.01,2.18-.03,3.29-.04,5.82-.07,11.57.1,17.4.02,7.75-.11,15.28-.09,23.04,0,7.17.08,14.28-.11,21.44-.02,6.51.08,12.55.18,19.02,0,5.53-.14,11.08-.08,16.62-.07,7.03,0,14.11.08,21.13-.03,2.95-.04,5.89-.11,8.83-.17" fill="none" stroke="#de2216" stroke-linecap="round" stroke-linejoin="round" stroke-width="2"/><path d="M677.31,240.95c5.61.02,11.22.09,16.82.2,4.65.02,9.3,0,13.95-.08,6.64,0,13.31.07,19.94.18,8.68.14,17.36.17,26.04.18" fill="none" stroke="#de2216" stroke-linecap="round" stroke-linejoin="round" stroke-width="2"/><path d="M740.51,234.59c-7.66-.04-15.35-.09-22.94.08-9.49.22-19.02.03-28.48.3-4.56.13-9.07.12-13.65.11-4.38,0-8.77.18-13.13.1-4.88-.09-9.72-.04-14.59-.08-3.49-.03-6.93-.24-10.43-.26" fill="none" stroke="#de2216" stroke-linecap="round" stroke-linejoin="round" stroke-width="2"/><path d="M661.07,227.14c21.19.17,42.38.36,63.57.39" fill="none" stroke="#de2216" stroke-linecap="round" stroke-linejoin="round" stroke-width="2"/><path d="M626.36,226.94c9.48,0,18.96.17,28.44.17" fill="none" stroke="#de2216" stroke-linecap="round" stroke-linejoin="round" stroke-width="2"/><path d="M705.33,220.23c-16.73-.27-33.59-.56-50.27-.57-7.62,0-15.18.21-22.79.3" fill="none" stroke="#de2216" stroke-linecap="round" stroke-linejoin="round" stroke-width="2"/><path d="M1219.75,449.26l.02-.04-.02.04" fill="none" stroke="#de2216" stroke-linecap="round" stroke-linejoin="round" stroke-width="2"/><path d="M1219.73,449.3l.02-.04" fill="none" stroke="#de2216" stroke-linecap="round" stroke-linejoin="round" stroke-width="2"/><line x1="1219.73" y1="449.3" x2="1219.75" y2="449.26" fill="none" stroke="#de2216" stroke-linecap="round" stroke-linejoin="round" stroke-width="2"/><path d="M821.8,280.65c8.11-.02,16.23-.04,24.34-.02" fill="none" stroke="#de2216" stroke-linecap="round" stroke-linejoin="round" stroke-width="2"/><path d="M781.46,280.71c12.52.04,25.03-.01,37.55-.05" fill="none" stroke="#de2216" stroke-linecap="round" stroke-linejoin="round" stroke-width="2"/><path d="M628.7,280.45c49.3,1.55,99.3.55,148.57.24" fill="none" stroke="#de2216" stroke-linecap="round" stroke-linejoin="round" stroke-width="2"/><path d="M848.73,272.86c-4.52.02-9.05.04-13.58.03-10.78-.02-21.47.31-32.26.31-12.19,0-24.22.14-36.39.28-11.71.13-23.44-.11-35.14.09-7.42.13-14.7.34-22.15.26-4.73-.05-9.41-.24-14.14-.3-7.5-.1-15,.03-22.5-.05-6.82-.08-13.57-.26-20.4-.22" fill="none" stroke="#de2216" stroke-linecap="round" stroke-linejoin="round" stroke-width="2"/><path d="M693.64,301.26c7.97-.12,15.96-.04,23.93-.22,10.23-.23,20.67-.05,30.93-.05,10.83,0,21.67,0,32.5,0,9.64,0,19.25.26,28.88.24,10.7-.01,21.4,0,32.09,0" fill="none" stroke="#de2216" stroke-linecap="round" stroke-linejoin="round" stroke-width="2"/><path d="M707.44,307.45c.21,0,.42,0,.64,0,6.64,0,13.31.07,19.94.18,13.03.21,26.03.18,39.08.18" fill="none" stroke="#de2216" stroke-linecap="round" stroke-linejoin="round" stroke-width="2"/><path d="M885.9,205.24c-30.9-1.24-60.9,1.76-92.34.62" fill="none" stroke="#de2216" stroke-linecap="round" stroke-linejoin="round" stroke-width="2"/><path d="M912.65,205.24c-7.99-.07-15.98-.05-23.97-.01" fill="none" stroke="#de2216" stroke-linecap="round" stroke-linejoin="round" stroke-width="2"/><path d="M897.31,213.36c-6.57,0-13.14-.04-19.68-.04-26.7,0-53.45-.19-80.12,0-2.87.02-5.74.02-8.61.02" fill="none" stroke="#de2216" stroke-linecap="round" stroke-linejoin="round" stroke-width="2"/><path d="M675.81,294.66c5.05.06,10.1.11,15.16.11,7.06,0,14.07-.03,21.11.08,7.16.1,14.16-.06,21.3.14,12.08.33,24.01-.25,36.07-.23,13.95.02,27.89,0,41.84,0,10.48,0,21.08.13,31.58.03" fill="none" stroke="#de2216" stroke-linecap="round" stroke-linejoin="round" stroke-width="2"/><path d="M822.54,199.28h-24.49" fill="none" stroke="#de2216" stroke-linecap="round" stroke-linejoin="round" stroke-width="2"/><path d="M843.54,199.17c-5.37.03-10.74.07-16.1.11" fill="none" stroke="#de2216" stroke-linecap="round" stroke-linejoin="round" stroke-width="2"/><path d="M929.58,199.28c-26.88-.23-53.76-.27-80.64-.14" fill="none" stroke="#de2216" stroke-linecap="round" stroke-linejoin="round" stroke-width="2"/><path d="M850.25,227.34c9.81-.22,19.6-.31,29.4-.47" fill="none" stroke="#de2216" stroke-linecap="round" stroke-linejoin="round" stroke-width="2"/><path d="M781.33,227.4c9.98,0,19.97,0,29.95,0" fill="none" stroke="#de2216" stroke-linecap="round" stroke-linejoin="round" stroke-width="2"/><path d="M681.4,213.01c-8.67-.05-17.35-.04-26.03.01-8.91.05-17.76.11-26.67.08" fill="none" stroke="#de2216" stroke-linecap="round" stroke-linejoin="round" stroke-width="2"/><path d="M777.99,234.62c1,0,2.01,0,3.01,0,9.64,0,19.25.26,28.88.24" fill="none" stroke="#de2216" stroke-linecap="round" stroke-linejoin="round" stroke-width="2"/><path d="M844.22,287.92s-.04,0-.06,0c-13.06.14-26.09.33-39.17.33-30.46-.01-60.9-.08-91.32-.53-19.45-.29-39.16-.69-58.62-.7-2.63,0-5.24.03-7.86.07" fill="none" stroke="#de2216" stroke-linecap="round" stroke-linejoin="round" stroke-width="2"/><path d="M772.67,247.99c8.96.01,17.92.02,26.88.02" fill="none" stroke="#de2216" stroke-linecap="round" stroke-linejoin="round" stroke-width="2"/><path d="M758.1,339.89c2.8,0,5.6,0,8.4-.04,12.17-.13,24.2-.28,36.39-.28,10.79,0,21.48-.32,32.26-.31,2.87,0,5.75,0,8.62,0" fill="none" stroke="#de2216" stroke-linecap="round" stroke-linejoin="round" stroke-width="2"/><path d="M706.99,254.31c5.33.05,10.6.3,15.92.33,6.91.04,13.84-.02,20.75-.02,15.63,0,31.15,0,46.76.23,15.79.25,31.72.07,47.53.07h19.23" fill="none" stroke="#de2216" stroke-linecap="round" stroke-linejoin="round" stroke-width="2"/><path d="M765.71,247.97c-20-.04-40-.16-59.97-.5-7.65-.13-15.3-.02-22.96-.13-7.43-.11-14.75-.3-22.19-.26" fill="none" stroke="#de2216" stroke-linecap="round" stroke-linejoin="round" stroke-width="2"/><path d="M739.96,266.63c37.04.37,74.04.37,111.3,0" fill="none" stroke="#de2216" stroke-linecap="round" stroke-linejoin="round" stroke-width="2"/><path d="M657.77,266.87c25.55.4,51.11-.33,76.67-.25" fill="none" stroke="#de2216" stroke-linecap="round" stroke-linejoin="round" stroke-width="2"/><path d="M725.77,260.45c-12.24.08-24.49.2-36.73.21" fill="none" stroke="#de2216" stroke-linecap="round" stroke-linejoin="round" stroke-width="2"/><path d="M853.93,260.96c-40.93.04-80.93.04-121.93-.54" fill="none" stroke="#de2216" stroke-linecap="round" stroke-linejoin="round" stroke-width="2"/><path d="M821.26,327.12c6.88.09,13.78-.13,20.63.05" fill="none" stroke="#de2216" stroke-linecap="round" stroke-linejoin="round" stroke-width="2"/><path d="M740.67,326.78c7.96,0,15.92.04,23.89.19" fill="none" stroke="#de2216" stroke-linecap="round" stroke-linejoin="round" stroke-width="2"/><path d="M784.67,220.87c6.77.01,13.55.02,20.32.02,13.08,0,26.11-.18,39.17-.33,6.77-.07,13.65-.18,20.4-.35,6.04-.16,11.83-.06,17.89-.06,1.72,0,3.44-.01,5.16-.02" fill="none" stroke="#de2216" stroke-linecap="round" stroke-linejoin="round" stroke-width="2"/><path d="M1188.47,368.61c-6.11.02-12.16.07-17.53.14" fill="none" stroke="#de2216" stroke-linecap="round" stroke-linejoin="round" stroke-width="2"/><path d="M1161.33,301.58c-10.94.3-21.99.34-32.98.36-4.39,0-8.69-.22-13.07-.26-5.53-.05-11,.03-16.53-.1-6.44-.15-12.93-.16-19.41-.14" fill="none" stroke="#de2216" stroke-linecap="round" stroke-linejoin="round" stroke-width="2"/><path d="M1078.32,294.16c.14,0,.28,0,.42,0,6.93,0,13.87,0,20.8,0,4.69,0,9.4-.04,14.09-.02,6.01.03,11.88.33,17.91.32,6.98-.01,13.96-.01,20.94,0,6.02,0,11.84-.26,17.83-.32,4.92-.05,9.92.01,14.84.02,5.24.01,10.31-.28,15.54-.32" fill="none" stroke="#de2216" stroke-linecap="round" stroke-linejoin="round" stroke-width="2"/><path d="M1130.84,241.63c-25.27.22-50.55.18-75.82-.19" fill="none" stroke="#de2216" stroke-linecap="round" stroke-linejoin="round" stroke-width="2"/><path d="M1146.17,241.48c-3.25.04-6.5.07-9.75.1" fill="none" stroke="#de2216" stroke-linecap="round" stroke-linejoin="round" stroke-width="2"/><path d="M1150.94,254.94c-6.16.02-12.33-.01-18.5,0-10.12.02-20.18-.32-30.33-.31-11.27.01-22.53,0-33.8,0-1.47,0-2.92.01-4.39.02" fill="none" stroke="#de2216" stroke-linecap="round" stroke-linejoin="round" stroke-width="2"/><path d="M1148.85,248.65c-9.52.09-19.03.26-28.58.25-13.57,0-27.12.11-40.66-.22-6.54-.16-13.06-.25-19.58-.3" fill="none" stroke="#de2216" stroke-linecap="round" stroke-linejoin="round" stroke-width="2"/><path d="M1159.98,260.69c-1.58,0-3.16-.02-4.75-.02-11.29.03-22.49-.32-33.77-.31-13.84.01-27.7-.08-41.54,0-4.29.02-8.57.04-12.84.05" fill="none" stroke="#de2216" stroke-linecap="round" stroke-linejoin="round" stroke-width="2"/><path d="M1119.83,226.89c6.67.17,13.32.22,19.99.22" fill="none" stroke="#de2216" stroke-linecap="round" stroke-linejoin="round" stroke-width="2"/><path d="M1041.24,226.49c24.8-.11,49.67-.03,74.47.32" fill="none" stroke="#de2216" stroke-linecap="round" stroke-linejoin="round" stroke-width="2"/><path d="M787.66,368.38c7.41.07,14.81.22,22.21.21,9.66-.01,19.33,0,28.99,0" fill="none" stroke="#de2216" stroke-linecap="round" stroke-linejoin="round" stroke-width="2"/><path d="M1131.14,235.56c-27.18.07-54.41-.36-81.59-.67" fill="none" stroke="#de2216" stroke-linecap="round" stroke-linejoin="round" stroke-width="2"/><path d="M1143.69,235.49c-2.56.02-5.12.04-7.67.05" fill="none" stroke="#de2216" stroke-linecap="round" stroke-linejoin="round" stroke-width="2"/><path d="M1174.07,267.18c-5.64.03-11,.06-15.73.06-21.3,0-42.48-.3-63.79-.3-8.13,0-16.26,0-24.39,0" fill="none" stroke="#de2216" stroke-linecap="round" stroke-linejoin="round" stroke-width="2"/><path d="M1185.72,273.82c-6.79,0-13.57-.02-20.36-.02-7.49,0-14.99.05-22.48-.03-6.67-.07-13.28-.27-19.95-.22-7.25.05-14.36.27-21.62.26-7.53-.01-15.07-.01-22.6,0-1.93,0-3.87,0-5.8-.01" fill="none" stroke="#de2216" stroke-linecap="round" stroke-linejoin="round" stroke-width="2"/><path d="M802.81,381.74c-1.09,0-2.17,0-3.26,0-.29,0-.58,0-.86,0" fill="none" stroke="#de2216" stroke-linecap="round" stroke-linejoin="round" stroke-width="2"/><path d="M837.95,321.31h3.46" fill="none" stroke="#de2216" stroke-linecap="round" stroke-linejoin="round" stroke-width="2"/><path d="M731.92,321.03c3.92,0,7.84-.02,11.75-.02" fill="none" stroke="#de2216" stroke-linecap="round" stroke-linejoin="round" stroke-width="2"/><path d="M814.95,375.16h-21.49" fill="none" stroke="#de2216" stroke-linecap="round" stroke-linejoin="round" stroke-width="2"/><path d="M1194.15,279.43c-6.21-.07-12.47-.02-18.65-.19-10.78-.28-21.44.15-32.2.25-10.68.1-21.36-.44-31.92-.09-4.46.15-8.95.04-13.43.14-6.34.14-12.37.25-18.75.24-1.43,0-2.86,0-4.3,0" fill="none" stroke="#de2216" stroke-linecap="round" stroke-linejoin="round" stroke-width="2"/><path d="M1059.67,218.79h-27.75" fill="none" stroke="#de2216" stroke-linecap="round" stroke-linejoin="round" stroke-width="2"/><path d="M1135.63,219.05c-24.16-.21-48.33-.26-72.49-.26" fill="none" stroke="#de2216" stroke-linecap="round" stroke-linejoin="round" stroke-width="2"/><path d="M1510.06,199.28h-86.03" fill="none" stroke="#de2216" stroke-linecap="round" stroke-linejoin="round" stroke-width="2"/><path d="M1465.44,193.42c15.79.14,31.58.46,47.37.28" fill="none" stroke="#de2216" stroke-linecap="round" stroke-linejoin="round" stroke-width="2"/><path d="M1446.64,193.39c4.18-.03,8.36-.03,12.54-.01" fill="none" stroke="#de2216" stroke-linecap="round" stroke-linejoin="round" stroke-width="2"/><path d="M1426.05,193.31c4.79,0,9.58.07,14.37.09" fill="none" stroke="#de2216" stroke-linecap="round" stroke-linejoin="round" stroke-width="2"/><path d="M1342.35,280.66c1.68,0,3.36,0,5.05,0,7.12.04,14.04.2,21.15.09,15.34-.23,30.7.04,46.05-.07,24.99-.19,50.05-.04,75.07-.02" fill="none" stroke="#de2216" stroke-linecap="round" stroke-linejoin="round" stroke-width="2"/><path d="M1428.12,187.63c8.98,0,17.97-.06,26.92-.06h44.09c5.64,0,11.28,0,16.92,0" fill="none" stroke="#de2216" stroke-linecap="round" stroke-linejoin="round" stroke-width="2"/><path d="M1421.96,205.83c10.12-.03,20.16-.31,30.28-.29,18.4.03,36.76-.23,55.13-.31" fill="none" stroke="#de2216" stroke-linecap="round" stroke-linejoin="round" stroke-width="2"/><path d="M1443.54,153.41c5.9-.06,11.8-.13,17.71-.2,6.77-.07,13.65-.18,20.4-.35,6.04-.16,11.83-.06,17.89-.06,13.61,0,27.17-.27,40.75-.49" fill="none" stroke="#de2216" stroke-linecap="round" stroke-linejoin="round" stroke-width="2"/><path d="M1528.01,137.87c8.49.05,16.94.14,25.4.22" fill="none" stroke="#de2216" stroke-linecap="round" stroke-linejoin="round" stroke-width="2"/><path d="M1447.66,145.9c15.68.01,31.38.07,47.06.07,13.99,0,28.09.16,42.04-.16,3.12-.07,6.21-.07,9.29-.05" fill="none" stroke="#de2216" stroke-linecap="round" stroke-linejoin="round" stroke-width="2"/><path d="M1485.88,159.67c16.31-.22,32.6-.64,48.91-.59" fill="none" stroke="#de2216" stroke-linecap="round" stroke-linejoin="round" stroke-width="2"/><path d="M1440.11,160.09c13.43.07,26.85-.14,40.28-.34" fill="none" stroke="#de2216" stroke-linecap="round" stroke-linejoin="round" stroke-width="2"/><path d="M1480.26,174.07c14.62,0,29.25,0,43.87,0" fill="none" stroke="#de2216" stroke-linecap="round" stroke-linejoin="round" stroke-width="2"/><path d="M1433.6,174.07c14.16,0,28.32,0,42.48,0" fill="none" stroke="#de2216" stroke-linecap="round" stroke-linejoin="round" stroke-width="2"/><path d="M1497.23,167.37c10.51.02,21.02-.12,31.53-.12" fill="none" stroke="#de2216" stroke-linecap="round" stroke-linejoin="round" stroke-width="2"/><path d="M1436.54,167.5c18.91,0,37.82.18,56.72-.1" fill="none" stroke="#de2216" stroke-linecap="round" stroke-linejoin="round" stroke-width="2"/><path d="M1380.58,260.58c.36,0,.71,0,1.07.02,13.56.26,27.32.08,40.9.07,5.28,0,10.52.01,15.79.08,7.14.09,14.29-.16,21.4.06,10.58.33,21.21.06,31.81.13" fill="none" stroke="#de2216" stroke-linecap="round" stroke-linejoin="round" stroke-width="2"/><path d="M1398.38,254.75c3.04.03,6.08.06,9.12.11,15.79.25,31.72.07,47.53.07h37.46" fill="none" stroke="#de2216" stroke-linecap="round" stroke-linejoin="round" stroke-width="2"/><path d="M1412.56,248c1.36,0,2.72,0,4.07,0,25.71,0,51.48.18,77.16,0" fill="none" stroke="#de2216" stroke-linecap="round" stroke-linejoin="round" stroke-width="2"/><path d="M1387.72,273.43c34.28-.43,68.28-.43,102.5-.74" fill="none" stroke="#de2216" stroke-linecap="round" stroke-linejoin="round" stroke-width="2"/><path d="M1353.66,273.52c9.97-.07,19.95.06,29.92-.04" fill="none" stroke="#de2216" stroke-linecap="round" stroke-linejoin="round" stroke-width="2"/><path d="M1376.33,266.64c37.67.36,76.67.36,114.5,0" fill="none" stroke="#de2216" stroke-linecap="round" stroke-linejoin="round" stroke-width="2"/><path d="M1366.58,266.64h4.87" fill="none" stroke="#de2216" stroke-linecap="round" stroke-linejoin="round" stroke-width="2"/><path d="M1426.96,234.86c10.81-.01,21.61,0,32.42,0s21.33.2,31.85-.06c1.97-.05,3.85-.06,5.73-.06" fill="none" stroke="#de2216" stroke-linecap="round" stroke-linejoin="round" stroke-width="2"/><path d="M1419.81,213.31c24.94-.14,49.94.01,74.9.01,3.09,0,6.2,0,9.3.02" fill="none" stroke="#de2216" stroke-linecap="round" stroke-linejoin="round" stroke-width="2"/><path d="M1561.84,32.56c9.71.01,19.41.04,29.11.14,16.32.16,32.7.16,49.05.12" fill="none" stroke="#de2216" stroke-linecap="round" stroke-linejoin="round" stroke-width="2"/><path d="M1571.91,52.87c22.69.03,45.39.14,68.09.07" fill="none" stroke="#de2216" stroke-linecap="round" stroke-linejoin="round" stroke-width="2"/><path d="M1530.18,52.86c12.29,0,24.58,0,36.87,0" fill="none" stroke="#de2216" stroke-linecap="round" stroke-linejoin="round" stroke-width="2"/><path d="M1605.41,39.37c11.53,0,23.06.01,34.59-.01" fill="none" stroke="#de2216" stroke-linecap="round" stroke-linejoin="round" stroke-width="2"/><path d="M1550.2,39.37h50.34" fill="none" stroke="#de2216" stroke-linecap="round" stroke-linejoin="round" stroke-width="2"/><path d="M1591.69,45.92c16.1.21,32.21.33,48.31.33" fill="none" stroke="#de2216" stroke-linecap="round" stroke-linejoin="round" stroke-width="2"/><path d="M1540.08,45.88c15.39.04,30.78-.04,46.17,0" fill="none" stroke="#de2216" stroke-linecap="round" stroke-linejoin="round" stroke-width="2"/><path d="M1533.3,58.97c35.7.03,70.7.03,106.7-.21" fill="none" stroke="#de2216" stroke-linecap="round" stroke-linejoin="round" stroke-width="2"/><path d="M1522.17,58.97c1.85.01,3.71.03,5.56.04" fill="none" stroke="#de2216" stroke-linecap="round" stroke-linejoin="round" stroke-width="2"/><path d="M1508.44,70.51c6.52-.03,13.04-.03,19.57,0,14.82.09,29.52.31,44.36.32,11.44,0,22.91-.06,34.35-.01,11.1.04,22.19.19,33.28.35" fill="none" stroke="#de2216" stroke-linecap="round" stroke-linejoin="round" stroke-width="2"/><path d="M1515.27,64.57h47.73c25.04,0,50.08.03,75.13,0,.63,0,1.25,0,1.88,0" fill="none" stroke="#de2216" stroke-linecap="round" stroke-linejoin="round" stroke-width="2"/><path d="M1577.58,24.44c3.97,0,7.95,0,11.92,0,7.68,0,15.46.13,23.12-.07,7.11-.19,13.65.04,20.76.09,2.21.02,4.41.02,6.62.02" fill="none" stroke="#de2216" stroke-linecap="round" stroke-linejoin="round" stroke-width="2"/><path d="M1499.72,78.63c12.34.03,24.74.11,37.03-.17,7.94-.18,15.71.04,23.64.13,7.3.09,14.61.03,21.91.03,13.15,0,26.33.12,39.45-.22,6.1-.16,12.17-.18,18.25-.18" fill="none" stroke="#de2216" stroke-linecap="round" stroke-linejoin="round" stroke-width="2"/><path d="M1594.86,16.86c3.42-.08,6.84-.14,10.25-.15,11.43-.05,22.87.02,34.3.02h.59" fill="none" stroke="#de2216" stroke-linecap="round" stroke-linejoin="round" stroke-width="2"/><path d="M1610.02,11.23c3.91-.04,7.82-.09,11.73-.19,6.1-.16,12.17-.18,18.25-.18" fill="none" stroke="#de2216" stroke-linecap="round" stroke-linejoin="round" stroke-width="2"/><path d="M1551.83,106.72h41.71" fill="none" stroke="#de2216" stroke-linecap="round" stroke-linejoin="round" stroke-width="2"/><path d="M1559.08,91.8c21.39,0,42.82-.38,64.21-.12" fill="none" stroke="#de2216" stroke-linecap="round" stroke-linejoin="round" stroke-width="2"/><path d="M1486.47,92.31c22.37-.31,44.71-.52,67.08-.52" fill="none" stroke="#de2216" stroke-linecap="round" stroke-linejoin="round" stroke-width="2"/><path d="M1479.57,100.21c3.91,0,7.81-.03,11.67-.12,4.57-.11,8.72-.06,13.3.01,5.8.09,11.54-.21,17.34-.2,23.03.03,46.06-.07,69.07.16,4.74.05,9.48.07,14.22.1" fill="none" stroke="#de2216" stroke-linecap="round" stroke-linejoin="round" stroke-width="2"/><path d="M1499.13,120.22c24.49,0,48.99-.03,73.48,0,.42,0,.83,0,1.25,0" fill="none" stroke="#de2216" stroke-linecap="round" stroke-linejoin="round" stroke-width="2"/><path d="M1498.62,126.33c5.68.14,10.91.06,16.59,0,5.82-.07,11.57.1,17.4.02,7.75-.11,15.28-.09,23.04,0,3.55.04,7.09.01,10.62-.01" fill="none" stroke="#de2216" stroke-linecap="round" stroke-linejoin="round" stroke-width="2"/><path d="M1497.73,113.28c23.34-.19,46.79,0,70.14,0,5.15,0,10.37-.05,15.59-.06" fill="none" stroke="#de2216" stroke-linecap="round" stroke-linejoin="round" stroke-width="2"/><path d="M1492.94,85.42c2.18,0,4.37.02,6.6.02,23.15,0,46.18-.79,69.35-.75,12.06.02,24.15-.58,36.22-.63,11.43-.05,22.87.02,34.3.02h.59" fill="none" stroke="#de2216" stroke-linecap="round" stroke-linejoin="round" stroke-width="2"/><path d="M1497.04,180.64c7.68-.06,15.36-.08,23.04-.08" fill="none" stroke="#de2216" stroke-linecap="round" stroke-linejoin="round" stroke-width="2"/><path d="M1480.32,180.73c4.18-.01,8.36-.03,12.55-.05" fill="none" stroke="#de2216" stroke-linecap="round" stroke-linejoin="round" stroke-width="2"/><path d="M1430.83,180.67c14.64.03,29.27.08,43.91.07" fill="none" stroke="#de2216" stroke-linecap="round" stroke-linejoin="round" stroke-width="2"/><path d="M1243.44,294.29c9.02,0,18.02.18,27.04.17,12.56-.01,25.03.32,37.56.3,7.06,0,14.07-.03,21.11.08,7.16.1,14.16-.06,21.3.14,12.08.33,24.01-.25,36.07-.23,13.95.02,27.89,0,41.84,0,12.94,0,26.07.22,38.96-.07,7.37-.17,14.73-.26,22.08-.36" fill="none" stroke="#de2216" stroke-linecap="round" stroke-linejoin="round" stroke-width="2"/><path d="M1303.38,287.29c-10.43-.15-20.87-.27-31.24-.27-7.62,0-15.18.21-22.79.3" fill="none" stroke="#de2216" stroke-linecap="round" stroke-linejoin="round" stroke-width="2"/><path d="M1467.72,307.81h22.28" fill="none" stroke="#de2216" stroke-linecap="round" stroke-linejoin="round" stroke-width="2"/><path d="M1376.33,307.89c28.61.07,57.22.02,85.82-.08" fill="none" stroke="#de2216" stroke-linecap="round" stroke-linejoin="round" stroke-width="2"/><path d="M1294.4,307.32c25.45.31,50.91.48,76.36.55" fill="none" stroke="#de2216" stroke-linecap="round" stroke-linejoin="round" stroke-width="2"/><path d="M1462.12,301.23c-69.12-.23-139.12-.23-207.74-.02" fill="none" stroke="#de2216" stroke-linecap="round" stroke-linejoin="round" stroke-width="2"/><path d="M1489.61,301.19c-7.33.15-14.67.1-22,.06" fill="none" stroke="#de2216" stroke-linecap="round" stroke-linejoin="round" stroke-width="2"/><path d="M1249.14,280.45c-1.12,0-2.23,0-3.35,0-3.32-.01-6.63.01-9.94.03" fill="none" stroke="#de2216" stroke-linecap="round" stroke-linejoin="round" stroke-width="2"/><path d="M1245.79,346.83c8.91.03,17.76-.03,26.67-.08,16.51-.1,33.04-.03,49.51.24,8.49.14,16.94.01,25.42.06,7.12.04,14.04.2,21.15.09,6.15-.09,12.31-.1,18.46-.08" fill="none" stroke="#de2216" stroke-linecap="round" stroke-linejoin="round" stroke-width="2"/><path d="M1334.62,340.18c-21.78.25-43.58-.69-65.37-.56" fill="none" stroke="#de2216" stroke-linecap="round" stroke-linejoin="round" stroke-width="2"/><path d="M1399.39,339.68c-19.52.18-39.04.03-58.56.4" fill="none" stroke="#de2216" stroke-linecap="round" stroke-linejoin="round" stroke-width="2"/><path d="M1254.61,360.74c-3.72-.04-7.44-.07-11.16-.07" fill="none" stroke="#de2216" stroke-linecap="round" stroke-linejoin="round" stroke-width="2"/><path d="M1343.3,354.26c-31.3.74-63.3-2.26-93.95-.56" fill="none" stroke="#de2216" stroke-linecap="round" stroke-linejoin="round" stroke-width="2"/><path d="M1377.46,354.52c-9.76-.05-19.52-.11-29.28-.21" fill="none" stroke="#de2216" stroke-linecap="round" stroke-linejoin="round" stroke-width="2"/><path d="M1494.6,339.03c-.31,0-.62,0-.94,0" fill="none" stroke="#de2216" stroke-linecap="round" stroke-linejoin="round" stroke-width="2"/><path d="M1254.61,360.74c5.29.05,10.58.11,15.88.11,12.56-.01,25.03.32,37.56.3,7.06,0,14.07-.03,21.11.08,7.16.1,14.16-.06,21.3.14,6.67.18,13.29.09,19.92-.03" fill="none" stroke="#de2216" stroke-linecap="round" stroke-linejoin="round" stroke-width="2"/><path d="M1499.27,226.82c-10.65.19-21.28.28-31.94.52-12.9.29-26.03.07-38.96.07" fill="none" stroke="#de2216" stroke-linecap="round" stroke-linejoin="round" stroke-width="2"/><path d="M1422.08,220.89c13.08,0,26.11-.18,39.17-.33,6.77-.07,13.65-.18,20.4-.35,6.04-.16,11.83-.06,17.89-.06.66,0,1.31,0,1.96,0" fill="none" stroke="#de2216" stroke-linecap="round" stroke-linejoin="round" stroke-width="2"/><path d="M1421.38,288.24c-29.56-.01-59.12-.08-88.67-.5" fill="none" stroke="#de2216" stroke-linecap="round" stroke-linejoin="round" stroke-width="2"/><path d="M1489.42,287.48c-20.84,0-41.69.7-62.53.76" fill="none" stroke="#de2216" stroke-linecap="round" stroke-linejoin="round" stroke-width="2"/><path d="M1306.13,327.04c25.22,0,50.32-.54,75.52-.07,13.56.26,27.32.08,40.9.07,5.28,0,10.52.01,15.79.08,7.14.09,14.29-.16,21.4.06,10.83.33,21.72.05,32.58.14" fill="none" stroke="#de2216" stroke-linecap="round" stroke-linejoin="round" stroke-width="2"/><path d="M1415.81,333.01h-55.31c-14.47,0-29.09-.17-43.53.07-14.02.23-28.06.38-42.11.17" fill="none" stroke="#de2216" stroke-linecap="round" stroke-linejoin="round" stroke-width="2"/><path d="M1493.35,333.01h-14.84" fill="none" stroke="#de2216" stroke-linecap="round" stroke-linejoin="round" stroke-width="2"/><path d="M1324.08,320.69c5.33.05,10.6.3,15.92.33,6.91.04,13.84-.02,20.75-.02,15.63,0,31.15,0,46.76.23,15.79.25,31.72.07,47.53.07h36.37" fill="none" stroke="#de2216" stroke-linecap="round" stroke-linejoin="round" stroke-width="2"/><path d="M1381.88,314.35c-34.88-1.35-68.88.65-104.2-.9" fill="none" stroke="#de2216" stroke-linecap="round" stroke-linejoin="round" stroke-width="2"/><path d="M1490.58,314.4c-34.58-.4-68.58-.4-103.84-.04" fill="none" stroke="#de2216" stroke-linecap="round" stroke-linejoin="round" stroke-width="2"/><path d="M1640,3.81c-2.19-.03-4.38-.06-6.57-.09" fill="none" stroke="#de2216" stroke-linecap="round" stroke-linejoin="round" stroke-width="2"/><path d="M1298.27,368.8c2.63,0,5.26-.03,7.9-.11,9.47-.27,19-.08,28.48-.3,9.81-.22,19.8-.07,29.65-.06" fill="none" stroke="#de2216" stroke-linecap="round" stroke-linejoin="round" stroke-width="2"/><path d="M1314.79,374.87c3.46,0,6.92-.02,10.38-.07,6.64,0,13.31.07,19.94.18,4.75.08,9.5.12,14.25.14" fill="none" stroke="#de2216" stroke-linecap="round" stroke-linejoin="round" stroke-width="2"/><path d="M1328.34,381.27c9,.14,18,.23,27,.3" fill="none" stroke="#de2216" stroke-linecap="round" stroke-linejoin="round" stroke-width="2"/><path d="M1351.77,388.38c-3.68.01-7.36.01-11.04,0" fill="none" stroke="#de2216" stroke-linecap="round" stroke-linejoin="round" stroke-width="2"/></svg>