<?xml version="1.0" encoding="UTF-8"?><svg id="Layer_2" xmlns="http://www.w3.org/2000/svg" viewBox="0 0 322.75 178.95"><g id="Layer_1-2"><path d="M315.93,178.45H6.82l-6.32-6.32V6.82L6.82.5h309.12l6.32,6.32v165.32l-6.32,6.32Z" fill="#e5dbc6" stroke="#272727" stroke-linecap="round" stroke-linejoin="round"/><path d="M306.91,79.25h7.49c1.3,0,2.36-1.06,2.36-2.36V15.58l-9.59-9.59H15.58L5.99,15.58v61.31c0,1.3,1.06,2.36,2.36,2.36h7.49c5.64,0,10.5,4.41,10.59,10.06s-4.52,10.38-10.22,10.38h-7.86c-1.3,0-2.36,1.06-2.36,2.36v61.31l9.59,9.59h291.58l9.59-9.59v-61.31c0-1.3-1.06-2.36-2.36-2.36h-7.86c-5.7,0-10.31-4.66-10.22-10.38.09-5.64,4.94-10.06,10.59-10.06Z" fill="#de2216" stroke-width="0"/><path d="M310.39,90.54c.19-.67.22-1.41.02-2.17-.35-1.36-1.45-2.45-2.8-2.8-.77-.2-1.51-.17-2.18.02-.58.17-.76.91-.34,1.33l3.96,3.96c.43.43,1.16.24,1.33-.33Z" fill="#272727" stroke-width="0"/><path d="M302.7,88.31c-.19.67-.22,1.41-.02,2.18.35,1.36,1.45,2.45,2.81,2.8.77.2,1.51.17,2.18-.02.58-.17.76-.91.33-1.33l-3.96-3.96c-.43-.43-1.16-.24-1.33.33Z" fill="#272727" stroke-width="0"/><path d="M12.28,90.2c.16.82.59,1.61,1.3,2.25,1.05.93,2.57,1.23,3.89.77.91-.32,1.6-.89,2.07-1.59.22-.33.02-.79-.37-.86l-6.21-1.23c-.39-.08-.75.27-.67.66Z" fill="#272727" stroke-width="0"/><path d="M20.13,88.64c-.16-.82-.59-1.62-1.31-2.26-1.05-.93-2.57-1.23-3.89-.77-.91.32-1.6.89-2.06,1.59-.22.33-.02.79.37.86l6.21,1.23c.39.08.75-.27.67-.66Z" fill="#272727" stroke-width="0"/></g></svg>