<?xml version="1.0" encoding="UTF-8"?><svg id="Layer_2" xmlns="http://www.w3.org/2000/svg" width="100%" height="100%" preserveAspectRatio="none" viewBox="0 0 304.81 74.17"><g id="Layer_1-2"><rect x="2.07" y="1.79" width="300" height="70" rx="35" ry="35" fill="#cecac6" stroke-width="0"/><path d="M102.59,1.11c3.76-.23,7.65-.15,10.82.68,0,.23,4.73-.69,7.97,0h8.12c5.15.15,11.52.4,16.52,0,6.25,0,11.8.14,16.63,0" fill="none" stroke="#231f20" stroke-linecap="round" stroke-linejoin="round" stroke-width="2"/><path d="M89.8,1.21c1.74-.06,3.65.05,6.13.59,2.03-.28,4.32-.54,6.66-.68" fill="none" stroke="#231f20" stroke-linecap="round" stroke-linejoin="round" stroke-width="2"/><path d="M65.69,1.79c2.18,0,4.66.03,7.12.05s4.92.02,7.05-.05" fill="none" stroke="#231f20" stroke-linecap="round" stroke-linejoin="round" stroke-width="2"/><path d="M12.2,61.64c-1.49-1.42-2.83-2.95-3.38-4.18-2.52-.87-3.1-4.86-4.97-9.61-1.21-4.83-2.61-6.73-1.78-11.06-2.1-.57-.54-.3,0,0,.04-.83-1.04-1.62.21-3.81,1.36-.5.24-1.92.6-3.69-1.19.98-.9-2.46.53-2.78,2.07-.48-.06-4.16,1.78-4.17,1.03-1.15,1.76-2.36,2.32-3.45s.96-2.07,1.32-2.77c1.15-3.62,3.19-1.77,3.97-4.13.76-1.76,4.3-1.46,3.6-3.44,1.62.52,2.38-1.81,4.86-3.23,1.65.1,2.68-2.36,4.75-1.74,2.58-1.64,2.62-.47,5.64-1.84.94-.14,3.75.31,5.42.05,1.23.68,1.36.91,3.55,0,2.67-.66,5.77.47,8.51.26" fill="none" stroke="#231f20" stroke-linecap="round" stroke-linejoin="round" stroke-width="2"/><path d="M94.69,71.66c-1.25-.02-2.45,0-3.3.13h-14.92c-3.93,2.26-9.25,1.34-13.11,0-4.72.41-6.15,1.32-10.9,0" fill="none" stroke="#231f20" stroke-linecap="round" stroke-linejoin="round" stroke-width="2"/><path d="M267.07,71.79s.07.26-1.84,0c-.99.66-4.51,1.06-5.26,0-2.76.65-4.52-.03-8.28,0-2.82.53-6.46-.52-10.9,0-5.52,1.42-9.21.16-13.11,0-5.7-.7-7.79-1.56-14.92,0h-33.67c-7.34,1.56-10.07.83-17.94,0-3.09.36-6.22.31-9.28.2s-6.05-.29-8.87-.2c-3.94.36-5.96.84-9.09.47-2.23-.36-6.19.18-8.85-.47-.84.19-1.57.25-2.26.24" fill="none" stroke="#231f20" stroke-linecap="round" stroke-linejoin="round" stroke-width="2"/><path d="M298.05,21.56c1.16,1.61,2.24,3.01,2.23,4.17-.15.24,2.37,3.94,1.24,5.26.94,2.58.88,3.12.54,5.8,1.92.69,2.71-2.09,0,0-.42,2.11-.2,4.1-.21,5.96s-.24,3.57-1.58,5.1c-.09,4.09-3.49,6.71-4.97,9.61-3.13,3.13-4.78,5.49-7.58,7.58" fill="none" stroke="#231f20" stroke-linecap="round" stroke-linejoin="round" stroke-width="2"/><path d="M212.74,1.79c6.11-.71,9.45-.11,14.92,0,4.78-.34,8.82.46,13.11,0h26.29c3.87,0,7.52,1.52,11.06,1.78,4.16-1,7.81,2.34,9.61,4.97,1.42.57,2.7,1.67,3.88,2.96" fill="none" stroke="#231f20" stroke-linecap="round" stroke-linejoin="round" stroke-width="2"/></g></svg>