<?xml version="1.0" encoding="UTF-8"?>
<svg id="Layer_1" data-name="Layer 1" xmlns="http://www.w3.org/2000/svg" viewBox="0 0 1440 1800">
  <path d="M1436.7,1198.38v13.92c-2.55,4.22.79,6.56,0,10.3.43,3.86-1.66,8.56,0,12.79-.7,4.12.77,9.33,0,15.09,1.13,2.17-3.7,11.63,0,17.18-1.69,6.77-1.36,13.33,0,19.08,2.04,9.55-.13,12.21,0,20.78-.9,6.48-.71,14.33,0,22.27-.01,7.6-.28,15.92,0,23.57,2.35,8.77-2,16.83,0,24.67-.84,8.88,2.65,15.44,0,25.57-.3,9.04,1.25,16.6,0,26.26,1.89,9.37-.67,18.66,0,26.76-1.64,8.6-.48,16.74,0,27.06.49,9.65-1.9,18.87,0,27.16.62,8.09-.68,16.42,0,27.06-.8,9.84,1.08,16,0,26.76,2.02,6.49-1.49,16.68,0,26.26-.07,11.25-1.15,13.95,0,25.57,5.91,13.53-3.91,16.15,0,24.67-1.38,7.38,1.71,15.23,0,23.57-2.58,8.81-.71,15.04,0,22.27,2.43,8.93.23,14.05,0,20.78.15,7.39-.16,11.38,0,19.08-2.91,2.91,1.5,9.97,0,17.18-4.42,3.17,3.5,8.01,0,15.09-.89,2.69-2.08,10.14,0,12.79-.24,5.48-.02,8.11,0,10.3v13.92h-16.92c-3.74-.33-4.35-1.34-7.23,0-3.11.9-3.72.09-8.42,0-5.1-2.46-5.01-1.8-9.58,0-3.27,2.98-4.33-.44-10.71,0-3.45-3.57-9.37.14-11.79,0-6.64.21-7.34-2.69-12.85,0-1.65.02-10.75,2.84-13.86,0-5.11-.73-8.97.67-14.84,0-5.81-.22-10.72.69-15.78,0-4.38-.24-10.12-1.17-16.69,0-6.12-.77-13.3.11-17.56,0-6.29,1.01-12.6.19-18.39,0-6.41.53-12.44,1.06-19.19,0-4.7.15-14,.06-19.95,0-5.35.63-15.48-1.33-20.68,0-7.23-1.09-15.19.13-21.37,0-8.58,1.2-14.46.62-22.02,0-5.6,1.11-13.09-1.01-22.63,0-8.24-.09-16.52.63-23.21,0-8.41-.76-17.15-.39-23.76,0-6.06.88-15.9-.63-24.27,0-7.44.82-16.12.14-24.74,0-8.23-1.48-18.04,1.12-25.17,0-8.41.02-17.47-.97-25.57,0-7.9.42-15.74-.15-25.93,0-8.68-.13-18.6,1.68-26.26,0-7-.08-19.67.1-26.55,0-10.1-1-17.63-.92-26.8,0-9.08-1.65-18.46.88-27.02,0-8.4.03-19.46,1.15-27.2,0-9.47.72-18.03-.88-27.35,0-9,.16-18.67-.05-27.46,0-8.16-1.99-18.98.7-27.53,0-11.24.75-19.68-.01-27.57,0-9.58,1.26-17.51.86-27.57,0-8.8-.05-19.51,1.35-27.53,0-9.63-.19-17.62-.92-27.46,0-9.41-1.37-17.49-.38-27.35,0-9.77-.68-17.53-.93-27.2,0-9.28.79-19.59.21-27.02,0-8.73-.31-17.63-.49-26.8,0-8.84-.17-18.25.81-26.55,0-7.46.89-19.01-.48-26.26,0-7.91.45-16.36.22-25.93,0-8.62-.44-17.21-.72-25.57,0-9.53.4-15.74,1.33-25.17,0-8.93-1.27-16.99.25-24.74,0-7.37.14-16.82-.56-24.27,0-9.04-1.01-14.35-.44-23.76,0-9.47.02-16.89-1.71-23.21,0-5.41,1.44-16.82,1.27-22.63,0-6.54,1.7-14.43-1.76-22.02,0-5.65.17-13.22-.93-21.37,0-8.77-.65-14.01.06-20.68,0-6.98-.11-14.16-1.61-19.95,0-6.41-2.38-13.1-.72-19.19,0-7.2-.79-13.53-1.6-18.39,0-6.61,1.33-10.31-.34-17.56,0-6.39.47-9.16.2-16.69,0-7.13-.8-13.13.51-15.78,0-5.32-1.9-11.59-.33-14.84,0-11.24,4.65-8.37,4.34-13.86,0,3.62-4.85-6.7-3.21-12.85,0-2.42,2.07-6.1-1.02-11.79,0-5.27.97-6.35.08-10.71,0-4.53-4.56-4.08,4.5-9.58,0-.78-2.42-3.94,2.23-8.42,0-3.39-.22-5.02,0-7.23,0H2.98v-1.61c0-1.06.98-2.28,0-4.71-4.35-1.07,2.79-4.71,0-7.6-.63-7.76-.64-3.91,0-10.3,4.95-2.78-2.28-8.35,0-12.79,4.01-2.07-.65-10.54,0-15.09,3.77-4.97,3.87-7.58,0-17.18,8.26-3.94.64-12.88,0-19.08.5-6.44,2.01-10.93,0-20.78,1.61-8.54-.94-16.36,0-22.27,1.18-6.56.79-16.67,0-23.57.81-9.29-.12-15.44,0-24.67.14-9.22,1.85-16.88,0-25.57.24-9.78.05-19.06,0-26.26.56-6.7,2.02-17.13,0-26.76-.27-6.51-.82-18.73,0-27.06.3-10.73.89-18.35,0-27.16,1.15-10.66,3.04-15.61,0-27.06-.33-9.47,3.05-17.56,0-26.76.49-9.33-1.32-16.32,0-26.26.31-6.5.55-17.28,0-25.57,1.06-8.88-.16-16.56,0-24.67.72-6.31-.47-15.76,0-23.57.91-7.49.39-16.57,0-22.27-1.06-7.47-.66-13.65,0-20.78,1.46-4.72-.3-14.98,0-19.08,1.24-7.31-.15-12.65,0-17.18,3.37-6.27.04-12.25,0-15.09.16-2.65,1.55-10.37,0-12.79.73-5.03-1.38-7,0-10.3.59-1.64,0-5.54,0-7.6v-20.24c-2.14-7.01,3.05-1.57,0-10.3,3.17-6.1-.58-10.45,0-12.79,2.37-4.03-.38-4.84,0-15.09,2.6-9.44-2.17-8.99,0-17.18,1.35-6.34-6.21-9.8,0-19.08,3.62-3.86,1.89-14.79,0-20.78,3.93-8.29,1.19-15.28,0-22.27-.48-10.36-.04-19.79,0-23.57.34-9.65-3.02-17.33,0-24.67.31-8.45,1.52-16.78,0-25.57-.58-8.75.07-17.11,0-26.26-.21-10.72-1.63-17.94,0-26.76,1.27-9.17-.76-18.27,0-27.06.5-7.2-.14-18.25,0-27.16.86-9.27-1.66-17.71,0-27.06,1.91-7.71,1.94-19.91,0-26.76.17-7.95,1.54-16.77,0-26.26-.04-8.01,1.1-16.3,0-25.57-.43-8.94,1.24-16.07,0-24.67-1.46-8.67,1.35-15.62,0-23.57.93-7.74,1.19-14.75,0-22.27-1.82-9.21,2.5-14.88,0-20.78,2.03-5.93,2.96-9.59,0-19.08-.72-4.52-3.53-9.26,0-17.18,1.34-4.47,1.85-9.39,0-15.09,4.51-3.08.45-9.36,0-12.79-1.74-2.95-.65-6.25,0-10.3-2.34-3.27,0-5.54,0-7.6v-12.64c0-2.06-.78-5.37,0-7.6.57-2.63-2.87-7.4,0-10.3-.29-6.68-4.55-8.56,0-12.79-2.99-9.74,3.55-9.41,0-15.09-3.9-7.05,2.85-7.73,0-17.18-1.73-3.61-1.52-8.14,0-19.08.7-6.49-4.78-14.29,0-20.78.52-5.87.6-13.31,0-22.27,2.43-6.81-2.27-14,0-23.57,2.09-9.2-1.62-13.85,0-24.67-.41-6.06-1.89-18.54,0-25.57-1.19-10.27.23-17.26,0-26.26-3.27-10.83-.26-17.1,0-26.76.61-6.28,1.22-18.51,0-27.06,1.08-6.42.68-19.24,0-27.16-.2-6.95-.91-20.49,0-27.06.84-10.05,1.7-19.44,0-26.76,2.41-8.73.4-16.86,0-26.26.44-7.91.7-17.49,0-25.57.36-7.77.43-17.29,0-24.67-.25-8.28.59-15.97,0-23.57,1.22-6.12.51-12.89,0-22.27-.01-7.61,1.17-12.7,0-20.78,1.69-6.64-.38-14.86,0-19.08.22-3.66-.11-11.25,0-17.18-1.18-3.44,1.6-9.21,0-15.09-.19-3.05.04-8.21,0-12.79-.76-5.5,1.21-7.69,0-10.3V2.87h11.21c2.78,1.32,2.79-1.59,6.15,0,2.77-1.92,2.72,2.52,7.41,0,3.56-.98,5.77,2.33,8.63,0,3.61-1.48,6.87,2.62,9.82,0,.08,1.04,6.5,1.57,10.97,0,8.49-1.36,8.82-2.7,12.08,0,5.46,1.65,6.63,2.82,13.16,0,3.1,1.31,10.21,1.47,14.19,0,5.35.82,10.88-.45,15.19,0,4.63,1.61,11.26-1.07,16.15,0,5.89.4,12.02.41,17.07,0,5.92-.14,12.03-2.16,17.96,0,6.69-1.54,14.74.29,18.81,0,7.5-.77,14.5-1.31,19.62,0,6.49-.5,15.88.22,20.39,0,5.16-.81,11.95-.64,21.13,0,7.23,1.81,14.54-.97,21.82,0,8-.63,17.58.07,22.48,0,7.69.41,11.62.67,23.1,0,5.02-.86,14.55-.3,23.69,0,7.66,1.72,13.94,1.13,24.23,0,8.47-.82,15.65,1.77,24.74,0,8.02.62,18.13.72,25.21,0,10.3.14,16.63,1.46,25.65,0,8.94.46,18.01-1.27,26.04,0,8.09-1.6,17.41-1.1,26.4,0,9,2.2,16.97,2.32,26.72,0,7.62,1.21,22.78,1.58,27,0,6.79,1.85,17.49.36,27.25,0,9.82,3.59,18.3-1.09,27.46,0,8.15-.35,17.32,2.11,27.63,0,9.02-.08,18.69-1.45,27.76,0,7.49,1.07,18.26.92,27.85,0,9.03-.45,21.08.63,27.91,0,7.27-2.3,16.61-1.5,27.93,0,9.37-2.12,18.21.22,27.91,0,10.02,1.99,18.57-.19,27.85,0,9.39.46,19,.96,27.76,0,7.13-.97,19.36.54,27.63,0,11.08-.51,18.51-.52,27.46,0,7.64-.03,17.8-1.31,27.25,0,10.4,1.1,19.25-1.55,27,0,9.97-1.49,17.79-.64,26.72,0,10.05.22,18.28.65,26.4,0,9.62,1.02,18.5-.6,26.04,0,8.34-.72,17.48-1.59,25.65,0,7.84-.04,16.12.18,25.21,0,8.7.71,15.28,1.1,24.74,0,6.58-.18,16.97.25,24.23,0,8.25,1.86,14.21.5,23.69,0,6.44-.72,16.17-.89,23.1,0,8.36.64,14.12,1.63,22.48,0,4.99-1.66,14.94-.1,21.82,0,8.65.8,12.28,2.33,21.13,0,5.88,1.81,13.96-2.59,20.39,0,10.9-3.07,11.98-1.45,19.62,0,8.5-.4,10.86-.11,18.81,0,7.82-1.06,13.09,1.19,17.96,0,5.05-2.7,9.33-3.6,17.07,0,3.97-.39,7.84-3.32,16.15,0,4.95.66,9.31,2.3,15.19,0,4.58-.13,9.17,2.68,14.19,0,3.93-.14,9.37.07,13.16,0,.99-.96,5.91.25,12.08,0,4.07-4.08,6.94.99,10.97,0,3.01,2.04,6.83-1.9,9.82,0-.05-3.98,2.95-1.45,8.63,0,9.14-2.71,7.46-.51,7.41,0,4.49-1.37,3.29,1.14,6.15,0,1.9,3.25,3.06,3.5,4.85,0,4.76-1,4.84,3.21,3.51,0-4.15.87,6.07-2.52,2.13,0-1.1,2.86,1.8,1.63.72,0,2.66,2.73-.42,3.08,0,6.32-.76,1.53,0,4.61,0,7.6-.52,3.21-.66,6.56,0,10.3,3.3,3.49,1.5,12.55,0,12.79.74,3.62,2.47,8.73,0,15.09-1.32,3.86-.46,10.82,0,17.18-3.72,6.56,2.44,12.03,0,19.08.18,6.53.62,13.74,0,20.78-1.96,4.55-1.18,15.13,0,22.27.85,7.85-.9,14.96,0,23.57-.37,6.06-.1,15.8,0,24.67-.39,10.48-.61,15.19,0,25.57,1.73,10.26.04,18.73,0,26.26.23,9.16-1.46,17.47,0,26.76.02,9.18,0,19.82,0,27.06.36,7.7.09,18.04,0,27.16.05,9.6,1.12,17.89,0,27.06-.05,8.76.84,18.34,0,26.76,1.2,8.95,1.17,16.65,0,26.26-2.99,7.5.96,17.61,0,25.57-1.23,8.61-1.31,18.4,0,24.67-.35,6.87-.69,17.65,0,23.57,0,6.84-1.98,15.39,0,22.27-.58,5.81-1.03,13.97,0,20.78-3.37,5.78,2.56,12.02,0,19.08,2-.12-1.28,15.73,0,17.18-1.39,4.02,2.96,9.76,0,15.09-.21,4.9.42,10,0,12.79.56,4.84-4.17,8.04,0,10.3v20.24c-.67.41.69,6.34,0,7.6.62,3.34,5.97,5.09,0,10.3,2.39,1.32.34,6.73,0,12.79.98,5.2.29,8.64,0,15.09,3.97,5.2-3.83,10.81,0,17.18-.29,8.31,1.22,11.16,0,19.08.92,4.73-.27,15.95,0,20.78,1.94,7.7,2.41,14.21,0,22.27-1.43,7.35-.38,16.12,0,23.57.27,7.19.19,16.8,0,24.67-.68,8.16,1.71,17.2,0,25.57.47,8.64-.62,18.86,0,26.26,1.09,9.45.79,18.93,0,26.76,1.1,9.87,1.59,18.48,0,27.06-1.45,8.8,0,17.62,0,27.16-1.18,10.33-1.21,16.55,0,27.06-1.06,9.27-.8,17.35,0,26.76,1.59,7.15-.75,17.21,0,26.26-.51,8.57,2.61,14.99,0,25.57-1.71,6.85-.94,15.23,0,24.67,3.66,7.59-1.71,16.47,0,23.57.2,10.05-3.03,13.53,0,22.27,2.09,6.22,1.1,15.96,0,20.78-.11,4.89,4.11,10.9,0,19.08-2.2,6.4,3.06,9.27,0,17.18,1,6.01-1.87,11.09,0,15.09.87,6.54-.24,8.23,0,12.79v24.22" fill="#e5e1dc" stroke-width="0"/>
  <g>
    <path d="M1436.7,1198.38v13.92c-2.55,4.22.79,6.56,0,10.3.43,3.86-1.66,8.56,0,12.79-.7,4.12.77,9.33,0,15.09,1.13,2.17-3.7,11.63,0,17.18-1.69,6.77-1.36,13.33,0,19.08,2.04,9.55-.13,12.21,0,20.78-.9,6.48-.71,14.33,0,22.27-.01,7.6-.28,15.92,0,23.57,2.35,8.77-2,16.83,0,24.67-.84,8.88,2.65,15.44,0,25.57-.3,9.04,1.25,16.6,0,26.26,1.89,9.37-.67,18.66,0,26.76-1.64,8.6-.48,16.74,0,27.06.49,9.65-1.9,18.87,0,27.16.62,8.09-.68,16.42,0,27.06-.8,9.84,1.08,16,0,26.76,2.02,6.49-1.49,16.68,0,26.26-.07,11.25-1.15,13.95,0,25.57,5.91,13.53-3.91,16.15,0,24.67-1.38,7.38,1.71,15.23,0,23.57-2.58,8.81-.71,15.04,0,22.27,2.43,8.93.23,14.05,0,20.78.15,7.39-.16,11.38,0,19.08-2.91,2.91,1.5,9.97,0,17.18-4.42,3.17,3.5,8.01,0,15.09-.89,2.69-2.08,10.14,0,12.79-.24,5.48-.02,8.11,0,10.3v13.92h-16.92c-3.74-.33-4.35-1.34-7.23,0-3.11.9-3.72.09-8.42,0-5.1-2.46-5.01-1.8-9.58,0-3.27,2.98-4.33-.44-10.71,0-3.45-3.57-9.37.14-11.79,0-6.64.21-7.34-2.69-12.85,0-1.65.02-10.75,2.84-13.86,0-5.11-.73-8.97.67-14.84,0-5.81-.22-10.72.69-15.78,0-4.38-.24-10.12-1.17-16.69,0-6.12-.77-13.3.11-17.56,0-6.29,1.01-12.6.19-18.39,0-6.41.53-12.44,1.06-19.19,0-4.7.15-14,.06-19.95,0-5.35.63-15.48-1.33-20.68,0-7.23-1.09-15.19.13-21.37,0-8.58,1.2-14.46.62-22.02,0-5.6,1.11-13.09-1.01-22.63,0-8.24-.09-16.52.63-23.21,0-8.41-.76-17.15-.39-23.76,0-6.06.88-15.9-.63-24.27,0-7.44.82-16.12.14-24.74,0-8.23-1.48-18.04,1.12-25.17,0-8.41.02-17.47-.97-25.57,0-7.9.42-15.74-.15-25.93,0-8.68-.13-18.6,1.68-26.26,0-7-.08-19.67.1-26.55,0-10.1-1-17.63-.92-26.8,0-9.08-1.65-18.46.88-27.02,0-8.4.03-19.46,1.15-27.2,0-9.47.72-18.03-.88-27.35,0-9,.16-18.67-.05-27.46,0-8.16-1.99-18.98.7-27.53,0-11.24.75-19.68-.01-27.57,0-9.58,1.26-17.51.86-27.57,0-8.8-.05-19.51,1.35-27.53,0-9.63-.19-17.62-.92-27.46,0-9.41-1.37-17.49-.38-27.35,0-9.77-.68-17.53-.93-27.2,0-9.28.79-19.59.21-27.02,0-8.73-.31-17.63-.49-26.8,0-8.84-.17-18.25.81-26.55,0-7.46.89-19.01-.48-26.26,0-7.91.45-16.36.22-25.93,0-8.62-.44-17.21-.72-25.57,0-9.53.4-15.74,1.33-25.17,0-8.93-1.27-16.99.25-24.74,0-7.37.14-16.82-.56-24.27,0-9.04-1.01-14.35-.44-23.76,0-9.47.02-16.89-1.71-23.21,0-5.41,1.44-16.82,1.27-22.63,0-6.54,1.7-14.43-1.76-22.02,0-5.65.17-13.22-.93-21.37,0-8.77-.65-14.01.06-20.68,0-6.98-.11-14.16-1.61-19.95,0-6.41-2.38-13.1-.72-19.19,0-7.2-.79-13.53-1.6-18.39,0-6.61,1.33-10.31-.34-17.56,0-6.39.47-9.16.2-16.69,0-7.13-.8-13.13.51-15.78,0-5.32-1.9-11.59-.33-14.84,0-11.24,4.65-8.37,4.34-13.86,0,3.62-4.85-6.7-3.21-12.85,0-2.42,2.07-6.1-1.02-11.79,0-5.27.97-6.35.08-10.71,0-4.53-4.56-4.08,4.5-9.58,0-.78-2.42-3.94,2.23-8.42,0-3.39-.22-5.02,0-7.23,0H2.98v-1.61c0-1.06.98-2.28,0-4.71-4.35-1.07,2.79-4.71,0-7.6-.63-7.76-.64-3.91,0-10.3,4.95-2.78-2.28-8.35,0-12.79,4.01-2.07-.65-10.54,0-15.09,3.77-4.97,3.87-7.58,0-17.18,8.26-3.94.64-12.88,0-19.08.5-6.44,2.01-10.93,0-20.78,1.61-8.54-.94-16.36,0-22.27,1.18-6.56.79-16.67,0-23.57.81-9.29-.12-15.44,0-24.67.14-9.22,1.85-16.88,0-25.57.24-9.78.05-19.06,0-26.26.56-6.7,2.02-17.13,0-26.76-.27-6.51-.82-18.73,0-27.06.3-10.73.89-18.35,0-27.16,1.15-10.66,3.04-15.61,0-27.06-.33-9.47,3.05-17.56,0-26.76.49-9.33-1.32-16.32,0-26.26.31-6.5.55-17.28,0-25.57,1.06-8.88-.16-16.56,0-24.67.72-6.31-.47-15.76,0-23.57.91-7.49.39-16.57,0-22.27-1.06-7.47-.66-13.65,0-20.78,1.46-4.72-.3-14.98,0-19.08,1.24-7.31-.15-12.65,0-17.18,3.37-6.27.04-12.25,0-15.09.16-2.65,1.55-10.37,0-12.79.73-5.03-1.38-7,0-10.3.59-1.64,0-5.54,0-7.6v-6.32" fill="none" stroke="#272727" stroke-linecap="round" stroke-linejoin="round"/>
    <g>
      <path d="M216.75,1198.38c-6.37,1.05-14.1.64-19.95,0-6.12.25-12.97-.23-19.19,0-6.03.29-13.72-.36-18.39,0-6.67.29-10.86.98-17.56,0-7.32.42-9.63-.37-16.69,0-4.88-1.44-10.27-.87-15.78,0-3.66,1.39-10.11-.98-14.84,0-5.99,2.14-10.36,2.16-13.86,0-3.47,2.66-8.06.79-12.85,0-4.7.18-5.7.3-11.79,0-2.76-.91-5.36,1.34-10.71,0-2.89-1.81-5.53.51-9.58,0-2.81,2.52-4.19.09-8.42,0,.27.82-6.61,2.19-7.23,0-2.25.85-2.49-1.37-5.99,0-1.82-.33-2.42,1.24-4.73,0-1.81-.66-2.5,0-3.42,0h-2.78v-13.92c-2.14-7.01,3.05-1.57,0-10.3,3.17-6.1-.58-10.45,0-12.79,2.37-4.03-.38-4.84,0-15.09,2.6-9.44-2.17-8.99,0-17.18,1.35-6.34-6.21-9.8,0-19.08,3.62-3.86,1.89-14.79,0-20.78,3.93-8.29,1.19-15.28,0-22.27-.48-10.36-.04-19.79,0-23.57.34-9.65-3.02-17.33,0-24.67.31-8.45,1.52-16.78,0-25.57-.58-8.75.07-17.11,0-26.26-.21-10.72-1.63-17.94,0-26.76,1.27-9.17-.76-18.27,0-27.06.5-7.2-.14-18.25,0-27.16.86-9.27-1.66-17.71,0-27.06,1.91-7.71,1.94-19.91,0-26.76.17-7.95,1.54-16.77,0-26.26-.04-8.01,1.1-16.3,0-25.57-.43-8.94,1.24-16.07,0-24.67-1.46-8.67,1.35-15.62,0-23.57.93-7.74,1.19-14.75,0-22.27-1.82-9.21,2.5-14.88,0-20.78,2.03-5.93,2.96-9.59,0-19.08-.72-4.52-3.53-9.26,0-17.18,1.34-4.47,1.85-9.39,0-15.09,4.51-3.08.45-9.36,0-12.79-1.74-2.95-.65-6.25,0-10.3-2.34-3.27,0-5.54,0-7.6v-6.32h2.78" fill="none" stroke="#272727" stroke-linecap="round" stroke-linejoin="round"/>
      <path d="M350.42,1198.38c-7.1.67-14.53-.89-23.76,0-7.54.65-15.04.63-23.21,0" fill="none" stroke="#272727" stroke-linecap="round" stroke-linejoin="round"/>
      <path d="M910.77,1198.38c-9.45-.48-18.95.49-26.8,0-8.78-.63-17.61-1.16-27.02,0-6.37-.39-18.68-.2-27.2,0-8.05.71-16.72.02-27.35,0-8.5,2.17-19.48.22-27.46,0-10.86,1.19-17.83.41-27.53,0-9.42-1.3-18.01-.75-27.57,0-7.83-.84-17.47,1.23-27.57,0-7.66,1.17-20.25.21-27.53,0-8.8.85-19.21,1.11-27.46,0-7.77,1.26-17.9-2.43-27.35,0" fill="none" stroke="#272727" stroke-linecap="round" stroke-linejoin="round"/>
      <path d="M1436.7,600.62v6.32c-.67.41.69,6.34,0,7.6.62,3.34,5.97,5.09,0,10.3,2.39,1.32.34,6.73,0,12.79.98,5.2.29,8.64,0,15.09,3.97,5.2-3.83,10.81,0,17.18-.29,8.31,1.22,11.16,0,19.08.92,4.73-.27,15.95,0,20.78,1.94,7.7,2.41,14.21,0,22.27-1.43,7.35-.38,16.12,0,23.57.27,7.19.19,16.8,0,24.67-.68,8.16,1.71,17.2,0,25.57.47,8.64-.62,18.86,0,26.26,1.09,9.45.79,18.93,0,26.76,1.1,9.87,1.59,18.48,0,27.06-1.45,8.8,0,17.62,0,27.16-1.18,10.33-1.21,16.55,0,27.06-1.06,9.27-.8,17.35,0,26.76,1.59,7.15-.75,17.21,0,26.26-.51,8.57,2.61,14.99,0,25.57-1.71,6.85-.94,15.23,0,24.67,3.66,7.59-1.71,16.47,0,23.57.2,10.05-3.03,13.53,0,22.27,2.09,6.22,1.1,15.96,0,20.78-.11,4.89,4.11,10.9,0,19.08-2.2,6.4,3.06,9.27,0,17.18,1,6.01-1.87,11.09,0,15.09.87,6.54-.24,8.23,0,12.79v24.22" fill="none" stroke="#272727" stroke-linecap="round" stroke-linejoin="round"/>
    </g>
    <g>
      <path d="M9.18,600.62H2.98v-6.32c0-2.06-.78-5.37,0-7.6.57-2.63-2.87-7.4,0-10.3-.29-6.68-4.55-8.56,0-12.79-2.99-9.74,3.55-9.41,0-15.09-3.9-7.05,2.85-7.73,0-17.18-1.73-3.61-1.52-8.14,0-19.08.7-6.49-4.78-14.29,0-20.78.52-5.87.6-13.31,0-22.27,2.43-6.81-2.27-14,0-23.57,2.09-9.2-1.62-13.85,0-24.67-.41-6.06-1.89-18.54,0-25.57-1.19-10.27.23-17.26,0-26.26-3.27-10.83-.26-17.1,0-26.76.61-6.28,1.22-18.51,0-27.06,1.08-6.42.68-19.24,0-27.16-.2-6.95-.91-20.49,0-27.06.84-10.05,1.7-19.44,0-26.76,2.41-8.73.4-16.86,0-26.26.44-7.91.7-17.49,0-25.57.36-7.77.43-17.29,0-24.67-.25-8.28.59-15.97,0-23.57,1.22-6.12.51-12.89,0-22.27-.01-7.61,1.17-12.7,0-20.78,1.69-6.64-.38-14.86,0-19.08.22-3.66-.11-11.25,0-17.18-1.18-3.44,1.6-9.21,0-15.09-.19-3.05.04-8.21,0-12.79-.76-5.5,1.21-7.69,0-10.3V2.87h11.21c2.78,1.32,2.79-1.59,6.15,0,2.77-1.92,2.72,2.52,7.41,0,3.56-.98,5.77,2.33,8.63,0,3.61-1.48,6.87,2.62,9.82,0,.08,1.04,6.5,1.57,10.97,0,8.49-1.36,8.82-2.7,12.08,0,5.46,1.65,6.63,2.82,13.16,0,3.1,1.31,10.21,1.47,14.19,0,5.35.82,10.88-.45,15.19,0,4.63,1.61,11.26-1.07,16.15,0,5.89.4,12.02.41,17.07,0,5.92-.14,12.03-2.16,17.96,0,6.69-1.54,14.74.29,18.81,0,7.5-.77,14.5-1.31,19.62,0,6.49-.5,15.88.22,20.39,0,5.16-.81,11.95-.64,21.13,0,7.23,1.81,14.54-.97,21.82,0,8-.63,17.58.07,22.48,0,7.69.41,11.62.67,23.1,0,5.02-.86,14.55-.3,23.69,0,7.66,1.72,13.94,1.13,24.23,0,8.47-.82,15.65,1.77,24.74,0,8.02.62,18.13.72,25.21,0,10.3.14,16.63,1.46,25.65,0,8.94.46,18.01-1.27,26.04,0,8.09-1.6,17.41-1.1,26.4,0,9,2.2,16.97,2.32,26.72,0,7.62,1.21,22.78,1.58,27,0,6.79,1.85,17.49.36,27.25,0,9.82,3.59,18.3-1.09,27.46,0,8.15-.35,17.32,2.11,27.63,0,9.02-.08,18.69-1.45,27.76,0,7.49,1.07,18.26.92,27.85,0,9.03-.45,21.08.63,27.91,0,7.27-2.3,16.61-1.5,27.93,0,9.37-2.12,18.21.22,27.91,0,10.02,1.99,18.57-.19,27.85,0,9.39.46,19,.96,27.76,0,7.13-.97,19.36.54,27.63,0,11.08-.51,18.51-.52,27.46,0,7.64-.03,17.8-1.31,27.25,0,10.4,1.1,19.25-1.55,27,0,9.97-1.49,17.79-.64,26.72,0,10.05.22,18.28.65,26.4,0,9.62,1.02,18.5-.6,26.04,0,8.34-.72,17.48-1.59,25.65,0,7.84-.04,16.12.18,25.21,0,8.7.71,15.28,1.1,24.74,0,6.58-.18,16.97.25,24.23,0,8.25,1.86,14.21.5,23.69,0,6.44-.72,16.17-.89,23.1,0,8.36.64,14.12,1.63,22.48,0,4.99-1.66,14.94-.1,21.82,0,8.65.8,12.28,2.33,21.13,0,5.88,1.81,13.96-2.59,20.39,0,10.9-3.07,11.98-1.45,19.62,0,8.5-.4,10.86-.11,18.81,0,7.82-1.06,13.09,1.19,17.96,0,5.05-2.7,9.33-3.6,17.07,0,3.97-.39,7.84-3.32,16.15,0,4.95.66,9.31,2.3,15.19,0,4.58-.13,9.17,2.68,14.19,0,3.93-.14,9.37.07,13.16,0,.99-.96,5.91.25,12.08,0,4.07-4.08,6.94.99,10.97,0,3.01,2.04,6.83-1.9,9.82,0-.05-3.98,2.95-1.45,8.63,0,9.14-2.71,7.46-.51,7.41,0,4.49-1.37,3.29,1.14,6.15,0,1.9,3.25,3.06,3.5,4.85,0,4.76-1,4.84,3.21,3.51,0-4.15.87,6.07-2.52,2.13,0-1.1,2.86,1.8,1.63.72,0,2.66,2.73-.42,3.08,0,6.32-.76,1.53,0,4.61,0,7.6-.52,3.21-.66,6.56,0,10.3,3.3,3.49,1.5,12.55,0,12.79.74,3.62,2.47,8.73,0,15.09-1.32,3.86-.46,10.82,0,17.18-3.72,6.56,2.44,12.03,0,19.08.18,6.53.62,13.74,0,20.78-1.96,4.55-1.18,15.13,0,22.27.85,7.85-.9,14.96,0,23.57-.37,6.06-.1,15.8,0,24.67-.39,10.48-.61,15.19,0,25.57,1.73,10.26.04,18.73,0,26.26.23,9.16-1.46,17.47,0,26.76.02,9.18,0,19.82,0,27.06.36,7.7.09,18.04,0,27.16.05,9.6,1.12,17.89,0,27.06-.05,8.76.84,18.34,0,26.76,1.2,8.95,1.17,16.65,0,26.26-2.99,7.5.96,17.61,0,25.57-1.23,8.61-1.31,18.4,0,24.67-.35,6.87-.69,17.65,0,23.57,0,6.84-1.98,15.39,0,22.27-.58,5.81-1.03,13.97,0,20.78-3.37,5.78,2.56,12.02,0,19.08,2-.12-1.28,15.73,0,17.18-1.39,4.02,2.96,9.76,0,15.09-.21,4.9.42,10,0,12.79.56,4.84-4.17,8.04,0,10.3v13.92h-10.92c-1.79,0-4.68,1.58-5.99,0-3.38-.03-4.02,2.65-7.23,0-1.43,1.15-7.19-1.04-8.42,0-2.14,1.14-8.13-1.51-9.58,0-1.85.56-8.64,1.7-10.71,0-3.36.35-8.94,4.77-11.79,0-5.57-.03-10.47.72-12.85,0-4.57-3.32-8.65-.29-13.86,0-8,1.69-10.91,1.08-14.84,0-5.53-.86-11.64-.08-15.78,0-5.73,1.15-10.31,1.4-16.69,0-8.11.91-11.82.61-17.56,0-5.72.68-12.31.92-18.39,0-6.57-1.35-11.72-2.67-19.19,0-5.44,2-11.21-1.75-19.95,0-7.79-.49-14.83.94-20.68,0-6.95-.6-13.76.06-21.37,0-7.28.7-15.57-1.31-22.02,0-6.51.1-17.1-.33-22.63,0-8.28-.03-16.52-.19-23.21,0-6.48.34-17.24-2.41-23.76,0-7.62-.22-18.25.07-24.27,0-7.74-.8-19,2.06-24.74,0-8.29-1.28-20.22,2.73-25.17,0-8.53,1.7-17.72-1.09-25.57,0" fill="none" stroke="#272727" stroke-linecap="round" stroke-linejoin="round"/>
      <path d="M774.94,600.62c-8.41.05-17.85.09-27.53,0" fill="none" stroke="#272727" stroke-linecap="round" stroke-linejoin="round"/>
      <path d="M937.32,600.62c-7.68.37-18.38,1.95-26.55,0-10.04.54-17.8-1.35-26.8,0-7.65-.12-19.41-1.44-27.02,0-9.42-.09-17.13.44-27.2,0" fill="none" stroke="#272727" stroke-linecap="round" stroke-linejoin="round"/>
    </g>
  </g>
</svg>