<svg data-name="Layer 2" xmlns="http://www.w3.org/2000/svg" preserveAspectRatio="none" stroke-width="2" viewBox="0 0 1438.11 602.12"><g data-name="Layer 1"><path d="M1435.66 418.61c-1.15-11.61-.07-14.32 0-25.57-1.49-9.58 2.02-19.77 0-26.26 1.08-10.76-.8-16.92 0-26.76-.68-10.64.62-18.97 0-27.06-1.9-8.29.49-17.51 0-27.16-.48-10.32-1.64-18.46 0-27.06-.67-8.1 1.89-17.39 0-26.76 1.25-9.66-.3-17.22 0-26.26 2.65-10.12-.84-16.68 0-25.57-2-7.84 2.35-15.89 0-24.67-.28-7.65-.01-15.97 0-23.57-.71-7.95-.9-15.79 0-22.27-.13-8.57 2.04-11.23 0-20.77-1.36-5.75-1.69-12.31 0-19.08-3.7-5.55 1.13-15.01 0-17.18.77-5.75-.7-10.97 0-15.09-1.66-4.23.43-8.93 0-12.79.79-3.73-2.55-6.08 0-10.3V.6H1.94v6.22c0 2.06.59 5.96 0 7.6-1.38 3.29.73 5.27 0 10.3 1.55 2.42.16 10.14 0 12.79.04 2.84 3.37 8.82 0 15.09-.15 4.54 1.24 9.87 0 17.18-.3 4.1 1.46 14.35 0 19.08-.66 7.13-1.06 13.31 0 20.78.39 5.7.91 14.78 0 22.27-.47 7.81.72 17.25 0 23.57-.16 8.11 1.06 15.79 0 24.67.55 8.29.31 19.06 0 25.57-1.32 9.94.49 16.94 0 26.26 3.05 9.2-.33 17.3 0 26.76 3.04 11.45 1.15 16.4 0 27.06.89 8.82.3 16.43 0 27.16-.82 8.34-.27 20.55 0 27.06 2.02 9.63.56 20.06 0 26.76.05 7.2.24 16.49 0 26.26 1.85 8.69.14 16.34 0 25.57-.12 9.23.81 15.38 0 24.67.79 6.9 1.18 17.01 0 23.57-.94 5.92 1.61 13.73 0 22.27 2.01 9.84.5 14.33 0 20.78.64 6.2 8.26 15.14 0 19.08 3.87 9.6 3.77 12.21 0 17.18-.65 4.55 4.01 13.01 0 15.09-2.28 4.44 4.95 10.01 0 12.79-.64 6.39-.63 2.54 0 10.3 2.79 2.89-4.35 6.53 0 7.6.98 2.43 0 3.64 0 4.71v1.61h16.92c2.21 0 3.83-.22 7.23 0 4.48 2.23 7.64-2.42 8.42 0 5.5 4.5 5.05-4.56 9.58 0 4.36.07 5.43.97 10.71 0 5.69-1.02 9.37 2.07 11.79 0 6.14-3.21 16.46-4.85 12.85 0 5.49 4.34 2.62 4.65 13.86 0 3.25-.33 9.52-1.9 14.84 0 2.65.51 8.65-.8 15.78 0 7.53.2 10.3.47 16.69 0 7.25-.34 10.95 1.33 17.56 0 4.87-1.6 11.2-.79 18.39 0 6.09-.72 12.78-2.38 19.19 0 5.79-1.61 12.97-.11 19.95 0 6.66.06 11.91-.65 20.68 0 8.14-.93 15.72.17 21.37 0 7.59-1.76 15.48 1.7 22.02 0 5.81 1.27 17.23 1.44 22.63 0 6.33-1.71 13.74.02 23.21 0 9.41-.44 14.72-1.01 23.76 0 7.45-.56 16.9.14 24.27 0 7.75.25 15.81-1.27 24.74 0 9.44 1.33 15.65.4 25.17 0 8.36-.72 16.95-.44 25.57 0 9.57.22 18.02.45 25.93 0 7.25-.48 18.8.89 26.26 0 8.3.81 17.71-.17 26.55 0 9.18-.49 18.07-.31 26.8 0 7.43.21 17.74.79 27.02 0 9.68-.93 17.43-.68 27.2 0 9.86-.38 17.94-1.37 27.35 0 9.84-.92 17.82-.19 27.46 0 8.02 1.35 18.73-.05 27.53 0 10.05.86 17.98 1.26 27.57 0 7.88-.01 16.32.75 27.57 0 8.55.7 19.37-1.99 27.53 0 8.79-.05 18.46.16 27.46 0 9.32-.88 17.87.72 27.35 0 7.74 1.15 18.81.03 27.2 0 8.56.88 17.94-1.65 27.02 0 9.17-.92 16.7-1 26.8 0 6.88.1 19.55-.08 26.55 0 7.67 1.68 17.58-.13 26.26 0 10.2-.15 18.03.42 25.93 0 8.1-.97 17.16.02 25.57 0 7.13 1.12 16.95-1.48 25.17 0 8.62.14 17.29.82 24.74 0 8.36-.63 18.21.88 24.27 0 6.61-.39 15.35-.76 23.76 0 6.69.63 14.97-.09 23.21 0 9.54-1.01 17.04 1.11 22.63 0 7.56.62 13.44 1.2 22.02 0 6.18.13 14.13-1.09 21.37 0 5.19-1.33 15.33.63 20.68 0 5.95.06 15.25.15 19.95 0 6.75 1.06 12.78.53 19.19 0 5.8.19 12.11 1.01 18.39 0 4.26.11 11.44-.77 17.56 0 6.57-1.17 12.31-.24 16.69 0 5.07.69 9.97-.22 15.78 0 5.87.67 9.73-.73 14.84 0 3.12 2.84 12.22.02 13.86 0 5.51-2.69 6.21.21 12.85 0 2.43.14 8.35-3.57 11.79 0 6.38-.44 7.44 2.98 10.71 0 4.57-1.8 4.48-2.46 9.58 0 4.7.09 5.32.9 8.42 0 2.87-1.34 3.48-.33 7.23 0h16.92v-13.92c-.02-2.19-.24-4.82 0-10.3-2.08-2.65-.89-10.1 0-12.79 3.5-7.08-4.42-11.92 0-15.09 1.5-7.22-2.91-14.27 0-17.18-.16-7.7.15-11.68 0-19.08.23-6.72 2.43-11.84 0-20.78-.71-7.23-2.58-13.46 0-22.27 1.71-8.33-1.38-16.19 0-23.57-3.91-8.52 5.91-11.14 0-24.67Z" fill="#e5e1dc"/><path d="M1435.66.5v13.92c-2.55 4.22.79 6.56 0 10.3.43 3.86-1.66 8.56 0 12.79-.7 4.12.77 9.33 0 15.09 1.13 2.17-3.7 11.63 0 17.18-1.69 6.77-1.36 13.33 0 19.08 2.04 9.55-.13 12.21 0 20.78-.9 6.48-.71 14.33 0 22.27-.01 7.6-.28 15.92 0 23.57 2.35 8.77-2 16.83 0 24.67-.84 8.88 2.65 15.44 0 25.57-.3 9.04 1.25 16.6 0 26.26 1.89 9.37-.67 18.66 0 26.76-1.64 8.6-.48 16.74 0 27.06.49 9.65-1.9 18.87 0 27.16.62 8.09-.68 16.42 0 27.06-.8 9.84 1.08 16 0 26.76 2.02 6.49-1.49 16.68 0 26.26-.07 11.25-1.15 13.95 0 25.57 5.91 13.53-3.91 16.15 0 24.67-1.38 7.38 1.71 15.23 0 23.57-2.58 8.81-.71 15.04 0 22.27 2.43 8.93.23 14.05 0 20.78.15 7.39-.16 11.38 0 19.08-2.91 2.91 1.5 9.97 0 17.18-4.42 3.17 3.5 8.01 0 15.09-.89 2.69-2.08 10.14 0 12.79-.24 5.48-.02 8.11 0 10.3v13.92h-16.92c-3.74-.33-4.35-1.34-7.23 0-3.11.9-3.72.09-8.42 0-5.1-2.46-5.01-1.8-9.58 0-3.27 2.98-4.33-.44-10.71 0-3.45-3.57-9.37.14-11.79 0-6.64.21-7.34-2.69-12.85 0-1.65.02-10.75 2.84-13.86 0-5.11-.73-8.97.67-14.84 0-5.81-.22-10.72.69-15.78 0-4.38-.24-10.12-1.17-16.69 0-6.12-.77-13.3.11-17.56 0-6.29 1.01-12.6.19-18.39 0-6.41.53-12.44 1.06-19.19 0-4.7.15-14 .06-19.95 0-5.35.63-15.48-1.33-20.68 0-7.23-1.09-15.19.13-21.37 0-8.58 1.2-14.46.62-22.02 0-5.6 1.11-13.09-1.01-22.63 0-8.24-.09-16.52.63-23.21 0-8.41-.76-17.15-.39-23.76 0-6.06.88-15.9-.63-24.27 0-7.44.82-16.12.14-24.74 0-8.23-1.48-18.04 1.12-25.17 0-8.41.02-17.47-.97-25.57 0-7.9.42-15.74-.15-25.93 0-8.68-.13-18.6 1.68-26.26 0-7-.08-19.67.1-26.55 0-10.1-1-17.63-.92-26.8 0-9.08-1.65-18.46.88-27.02 0-8.4.03-19.46 1.15-27.2 0-9.47.72-18.03-.88-27.35 0-9 .16-18.67-.05-27.46 0-8.16-1.99-18.98.7-27.53 0-11.24.75-19.68-.01-27.57 0-9.58 1.26-17.51.86-27.57 0-8.8-.05-19.51 1.35-27.53 0-9.63-.19-17.62-.92-27.46 0-9.41-1.37-17.49-.38-27.35 0-9.77-.68-17.53-.93-27.2 0-9.28.79-19.59.21-27.02 0-8.73-.31-17.63-.49-26.8 0-8.84-.17-18.25.81-26.55 0-7.46.89-19.01-.48-26.26 0-7.91.45-16.36.22-25.93 0-8.62-.44-17.21-.72-25.57 0-9.53.4-15.74 1.33-25.17 0-8.93-1.27-16.99.25-24.74 0-7.37.14-16.82-.56-24.27 0-9.04-1.01-14.35-.44-23.76 0-9.47.02-16.89-1.71-23.21 0-5.41 1.44-16.82 1.27-22.63 0-6.54 1.7-14.43-1.76-22.02 0-5.65.17-13.22-.93-21.37 0-8.77-.65-14.01.06-20.68 0-6.98-.11-14.16-1.61-19.95 0-6.41-2.38-13.1-.72-19.19 0-7.2-.79-13.53-1.6-18.39 0-6.61 1.33-10.31-.34-17.56 0-6.39.47-9.16.2-16.69 0-7.13-.8-13.13.51-15.78 0-5.32-1.9-11.59-.33-14.84 0-11.24 4.65-8.37 4.34-13.86 0 3.62-4.85-6.7-3.21-12.85 0-2.42 2.07-6.1-1.02-11.79 0-5.27.97-6.35.08-10.71 0-4.53-4.56-4.08 4.5-9.58 0-.78-2.42-3.94 2.23-8.42 0-3.39-.22-5.02 0-7.23 0H1.94v-1.61c0-1.06.98-2.28 0-4.71-4.35-1.07 2.79-4.71 0-7.6-.63-7.76-.64-3.91 0-10.3 4.95-2.78-2.28-8.35 0-12.79 4.01-2.07-.65-10.54 0-15.09 3.77-4.97 3.87-7.58 0-17.18 8.26-3.94.64-12.88 0-19.08.5-6.44 2.01-10.93 0-20.78 1.61-8.54-.94-16.36 0-22.27 1.18-6.56.79-16.67 0-23.57.81-9.29-.12-15.44 0-24.67.14-9.22 1.85-16.88 0-25.57.24-9.78.05-19.06 0-26.26.56-6.7 2.02-17.13 0-26.76-.27-6.51-.82-18.73 0-27.06.3-10.73.89-18.35 0-27.16 1.15-10.66 3.04-15.61 0-27.06-.33-9.47 3.05-17.56 0-26.76.49-9.33-1.32-16.32 0-26.26.31-6.5.55-17.28 0-25.57 1.06-8.88-.16-16.56 0-24.67.72-6.31-.47-15.76 0-23.57.91-7.49.39-16.57 0-22.27-1.06-7.47-.66-13.65 0-20.78 1.46-4.72-.3-14.98 0-19.08 1.24-7.31-.15-12.65 0-17.18 3.37-6.27.04-12.25 0-15.09.16-2.65 1.55-10.37 0-12.79.73-5.03-1.38-7 0-10.3.59-1.64 0-5.54 0-7.6V.5" fill="none" stroke="#373737" stroke-linecap="round" stroke-linejoin="round"/></g></svg>