<?xml version="1.0" encoding="UTF-8"?>
<svg xmlns="http://www.w3.org/2000/svg" viewBox="0 0 706.98 535.56" width="100%" height="100%" preserveAspectRatio="none">
  <g id="Layer_2_copy_2" data-name="Layer 2 copy 2">
    <path d="M3.44,32.82c.3-.66,1.38-2.02,0-7.73-.02-5.33-.23-10.12,0-14.35.35-2.95-.09-7.68,0-7.73-1.71,1.32,2.96,1.3,9.49,0,5.9.65,11.95,1.94,17.63,0,5.24.31,9.28,1.18,9.49,0" fill="none" stroke="#373737" stroke-linecap="round" stroke-linejoin="round" stroke-width="2"/>
    <path d="M36.67,532.02c.62-.82-5.19,1.04-8.56,0-4.58-.56-8.66-1.79-15.9,0-2.83-1.61-8.38,1.06-8.56,0,.66.42-1.01-.64,0-7.34,1.98-4.82,2.18-11.58,0-16.16.06-7.31.72-10.02,0-16.16.04-7.93.19-6.36,0-7.34" fill="none" stroke="#373737" stroke-linecap="round" stroke-linejoin="round" stroke-width="2"/>
    <path d="M702.62,488.57c1.9,1.42.59,5.35,0,10.95,1.84,4.83-.74,15.48,0,20.33.2,5.22.32,10.53,0,10.95.04-.42-5.58-2.14-10.73,0-6.65-.14-13.39,2.07-19.93,0-7.11,2.38-11.8.22-10.73,0" fill="none" stroke="#373737" stroke-linecap="round" stroke-linejoin="round" stroke-width="2"/>
    <path d="M643.96,4.31h9.36c5.98,1.78,14.58-.37,20.6,0,8.62,1.33,15.98-.35,20.6,0,6.53-2.34,8.04.25,9.36,0-2.02-1.9.18,3.41,0,8.21-.27,4.45.8,12.11,0,18.05-.07,7.94.54,12.67,0,18.05-.29,5.65,0,8.21,0,8.21" fill="none" stroke="#373737" stroke-linecap="round" stroke-linejoin="round" stroke-width="2"/>
  </g>
</svg>