<svg data-name="Layer 2" xmlns="http://www.w3.org/2000/svg" preserveAspectRatio="none" viewBox="0 0 1438.67 603.32" stroke-width="2"><g data-name="Layer 1"><path d="M1436.31 39.88c1.5-.24 3.3-9.3 0-12.79-.66-3.74-.52-7.08 0-10.3 0-2.99-.76-6.08 0-7.6-.42-3.24 2.66-3.59 0-6.32 1.08 1.63-1.82 2.86-.72 0 2.94-1.88-2.03-.46-2.99 0-.65-.18-1.51-.25-2.65 0-1.78 3.5-2.95 3.25-4.85 0-2.85 1.14-1.65-1.37-6.15 0 .05-.51 1.73-2.71-7.41 0-5.68-1.45-8.69-3.98-8.63 0-2.99-1.9-6.81 2.04-9.82 0-4.03.99-6.9-4.08-10.97 0-6.18.25-11.09-.96-12.08 0-3.78.07-9.22-.14-13.16 0-5.02 2.68-9.61-.13-14.19 0-5.88 2.3-10.24.66-15.19 0-8.31-3.32-12.18-.39-16.15 0-7.74-3.6-12.03-2.7-17.07 0-4.87 1.19-10.14-1.06-17.96 0-7.94-.11-10.31-.4-18.81 0-7.64-1.45-8.71-3.07-19.62 0-6.43-2.59-14.51 1.81-20.39 0-8.84 2.33-12.47.8-21.13 0-6.88-.1-16.83-1.66-21.82 0-8.36 1.63-14.12.64-22.48 0-6.93-.89-16.67-.72-23.1 0-9.48.5-15.44 1.86-23.69 0-7.26.25-17.66-.18-24.23 0-9.46 1.1-16.05.71-24.74 0-9.1.18-17.37-.04-25.21 0-8.17-1.59-17.3-.72-25.65 0-7.54-.6-16.42 1.02-26.04 0-8.12.65-16.36.22-26.4 0-8.93-.64-16.75-1.49-26.72 0-7.75-1.55-16.61 1.1-27 0-9.45-1.31-19.61-.03-27.25 0-8.95-.52-16.38-.51-27.46 0-8.27.54-20.5-.97-27.63 0-8.76.96-18.37.46-27.76 0-9.28-.19-17.83 1.99-27.85 0-9.7.22-18.54-2.12-27.91 0-11.32-1.5-20.66-2.3-27.93 0-6.83.63-18.88-.45-27.91 0-9.59.92-20.36 1.07-27.85 0-9.07-1.45-18.74-.08-27.76 0-10.31 2.11-19.48-.35-27.63 0-9.15-1.09-17.64 3.59-27.46 0-9.76.36-20.46 1.85-27.25 0-4.23 1.58-19.38 1.21-27 0-9.75 2.32-17.72 2.2-26.72 0-8.99-1.1-18.31-1.6-26.4 0-8.04-1.27-17.11.46-26.04 0-9.02 1.46-15.34.14-25.65 0-7.09.72-17.2.62-25.21 0-9.1 1.77-16.27-.82-24.74 0-10.29 1.13-16.57 1.72-24.23 0-9.14-.3-18.67-.86-23.69 0-11.48.67-15.41.41-23.1 0-4.9.07-14.48-.63-22.48 0-7.28-.97-14.59 1.81-21.82 0-9.18-.64-15.97-.81-21.13 0-4.51.22-13.9-.5-20.39 0-5.12-1.31-12.12-.77-19.62 0-4.07.29-12.12-1.54-18.81 0-5.93-2.16-12.04-.14-17.96 0-5.06.41-11.18.4-17.07 0-4.89-1.07-11.52 1.61-16.15 0-4.31-.45-9.84.82-15.19 0-3.98 1.47-11.09 1.31-14.19 0-6.52 2.82-7.69 1.65-13.16 0-3.27-2.7-3.59-1.36-12.08 0-4.47 1.57-10.89 1.04-10.97 0-2.95 2.62-6.21-1.48-9.82 0-2.86 2.33-5.07-.98-8.63 0-4.69 2.52-4.64-1.92-7.41 0-3.35-1.59-3.36 1.32-6.15 0H2.59v13.92c1.21 2.61-.76 4.8 0 10.3.04 4.59-.19 9.74 0 12.79 1.6 5.87-1.18 11.65 0 15.09-.11 5.93.22 13.52 0 17.18-.38 4.22 1.69 12.44 0 19.08 1.17 8.08-.01 13.17 0 20.78.51 9.38 1.22 16.15 0 22.27.59 7.6-.25 15.28 0 23.57.43 7.38.36 16.89 0 24.67.7 8.07.44 17.66 0 25.57.4 9.4 2.41 17.53 0 26.26 1.7 7.33.84 16.72 0 26.76-.91 6.57-.2 20.11 0 27.06.68 7.92 1.08 20.74 0 27.16 1.22 8.55.61 20.78 0 27.06-.26 9.67-3.27 15.93 0 26.76.23 9-1.19 15.99 0 26.26-1.89 7.02-.41 19.5 0 25.57-1.62 10.81 2.09 15.46 0 24.67-2.27 9.57 2.43 16.76 0 23.57.6 8.96.52 16.41 0 22.27-4.78 6.49.7 14.28 0 20.78-1.52 10.94-1.73 15.47 0 19.08 2.85 9.46-3.9 10.13 0 17.18 3.55 5.68-2.99 5.34 0 15.09-4.55 4.23-.29 6.11 0 12.79-2.87 2.9.57 7.66 0 10.3-.78 2.23 0 5.54 0 7.6v6.32h1433.72v-13.92c-4.17-2.25.56-5.46 0-10.3.42-2.79-.21-7.89 0-12.79 2.96-5.33-1.39-11.07 0-15.09-1.28-1.45 2-17.3 0-17.18 2.56-7.06-3.37-13.3 0-19.08-1.03-6.81-.58-14.97 0-20.78-1.98-6.88 0-15.43 0-22.27-.69-5.92-.35-16.7 0-23.57-1.31-6.27-1.23-16.05 0-24.67.96-7.96-2.99-18.06 0-25.57 1.17-9.62 1.2-17.32 0-26.26.84-8.43-.05-18 0-26.76 1.12-9.17.05-17.46 0-27.06.09-9.12.36-19.46 0-27.16 0-7.24.02-17.89 0-27.06-1.46-9.3.23-17.6 0-26.76.04-7.53 1.73-16 0-26.26-.61-10.38-.39-15.09 0-25.57-.1-8.87-.37-18.61 0-24.67-.9-8.61.85-15.72 0-23.57-1.18-7.15-1.96-17.72 0-22.27.62-7.03.18-14.25 0-20.78 2.44-7.05-3.72-12.52 0-19.08-.46-6.36-1.32-13.32 0-17.18 2.47-6.36.74-11.47 0-15.09Z" fill="#e5e1dc"/><g fill="none" stroke="#373737" stroke-linecap="round" stroke-linejoin="round"><path d="M8.79 600.62h-6.2v-6.32c0-2.06-.78-5.37 0-7.6.57-2.63-2.87-7.4 0-10.3-.29-6.68-4.55-8.56 0-12.79-2.99-9.74 3.55-9.41 0-15.09-3.9-7.05 2.85-7.73 0-17.18-1.73-3.61-1.52-8.14 0-19.08.7-6.49-4.78-14.29 0-20.78.52-5.87.6-13.31 0-22.27 2.43-6.81-2.27-14 0-23.57 2.09-9.2-1.62-13.85 0-24.67-.41-6.06-1.89-18.54 0-25.57-1.19-10.27.23-17.26 0-26.26-3.27-10.83-.26-17.1 0-26.76.61-6.28 1.22-18.51 0-27.06 1.08-6.42.68-19.24 0-27.16-.2-6.95-.91-20.49 0-27.06.84-10.05 1.7-19.44 0-26.76 2.41-8.73.4-16.86 0-26.26.44-7.91.7-17.49 0-25.57.36-7.77.43-17.29 0-24.67-.25-8.28.59-15.97 0-23.57 1.22-6.12.51-12.89 0-22.27-.01-7.61 1.17-12.7 0-20.78 1.69-6.64-.38-14.86 0-19.08.22-3.66-.11-11.25 0-17.18-1.18-3.44 1.6-9.21 0-15.09-.19-3.05.04-8.21 0-12.79-.76-5.5 1.21-7.69 0-10.3V2.87H13.8c2.78 1.32 2.79-1.59 6.15 0 2.77-1.92 2.72 2.52 7.41 0 3.56-.98 5.77 2.33 8.63 0 3.61-1.48 6.87 2.62 9.82 0 .08 1.04 6.5 1.57 10.97 0 8.49-1.36 8.82-2.7 12.08 0 5.46 1.65 6.63 2.82 13.16 0 3.1 1.31 10.21 1.47 14.19 0 5.35.82 10.88-.45 15.19 0 4.63 1.61 11.26-1.07 16.15 0 5.89.4 12.02.41 17.07 0 5.92-.14 12.03-2.16 17.96 0 6.69-1.54 14.74.29 18.81 0 7.5-.77 14.5-1.31 19.62 0 6.49-.5 15.88.22 20.39 0 5.16-.81 11.95-.64 21.13 0 7.23 1.81 14.54-.97 21.82 0 8-.63 17.58.07 22.48 0 7.69.41 11.62.67 23.1 0 5.02-.86 14.55-.3 23.69 0 7.66 1.72 13.94 1.13 24.23 0 8.47-.82 15.65 1.77 24.74 0 8.02.62 18.13.72 25.21 0 10.3.14 16.63 1.46 25.65 0 8.94.46 18.01-1.27 26.04 0 8.09-1.6 17.41-1.1 26.4 0 9 2.2 16.97 2.32 26.72 0 7.62 1.21 22.78 1.58 27 0 6.79 1.85 17.49.36 27.25 0 9.82 3.59 18.3-1.09 27.46 0 8.15-.35 17.32 2.11 27.63 0 9.02-.08 18.69-1.45 27.76 0 7.49 1.07 18.26.92 27.85 0 9.03-.45 21.08.63 27.91 0 7.27-2.3 16.61-1.5 27.93 0 9.37-2.12 18.21.22 27.91 0 10.02 1.99 18.57-.19 27.85 0 9.39.46 19 .96 27.76 0 7.13-.97 19.36.54 27.63 0 11.08-.51 18.51-.52 27.46 0 7.64-.03 17.8-1.31 27.25 0 10.4 1.1 19.25-1.55 27 0 9.97-1.49 17.79-.64 26.72 0 10.05.22 18.28.65 26.4 0 9.62 1.02 18.5-.6 26.04 0 8.34-.72 17.48-1.59 25.65 0 7.84-.04 16.12.18 25.21 0 8.7.71 15.28 1.1 24.74 0 6.58-.18 16.97.25 24.23 0 8.25 1.86 14.21.5 23.69 0 6.44-.72 16.17-.89 23.1 0 8.36.64 14.12 1.63 22.48 0 4.99-1.66 14.94-.1 21.82 0 8.65.8 12.28 2.33 21.13 0 5.88 1.81 13.96-2.59 20.39 0 10.9-3.07 11.98-1.45 19.62 0 8.5-.4 10.86-.11 18.81 0 7.82-1.06 13.09 1.19 17.96 0 5.05-2.7 9.33-3.6 17.07 0 3.97-.39 7.84-3.32 16.15 0 4.95.66 9.31 2.3 15.19 0 4.58-.13 9.17 2.68 14.19 0 3.93-.14 9.37.07 13.16 0 .99-.96 5.91.25 12.08 0 4.07-4.08 6.94.99 10.97 0 3.01 2.04 6.83-1.9 9.82 0-.05-3.98 2.95-1.45 8.63 0 9.14-2.71 7.46-.51 7.41 0 4.49-1.37 3.29 1.14 6.15 0 1.9 3.25 3.06 3.5 4.85 0 4.76-1 4.84 3.21 3.51 0-4.15.87 6.07-2.52 2.13 0-1.1 2.86 1.8 1.63.72 0 2.66 2.73-.42 3.08 0 6.32-.76 1.53 0 4.61 0 7.6-.52 3.21-.66 6.56 0 10.3 3.3 3.49 1.5 12.55 0 12.79.74 3.62 2.47 8.73 0 15.09-1.32 3.86-.46 10.82 0 17.18-3.72 6.56 2.44 12.03 0 19.08.18 6.53.62 13.74 0 20.78-1.96 4.55-1.18 15.13 0 22.27.85 7.85-.9 14.96 0 23.57-.37 6.06-.1 15.8 0 24.67-.39 10.48-.61 15.19 0 25.57 1.73 10.26.04 18.73 0 26.26.23 9.16-1.46 17.47 0 26.76.02 9.18 0 19.82 0 27.06.36 7.7.09 18.04 0 27.16.05 9.6 1.12 17.89 0 27.06-.05 8.76.84 18.34 0 26.76 1.2 8.95 1.17 16.65 0 26.26-2.99 7.5.96 17.61 0 25.57-1.23 8.61-1.31 18.4 0 24.67-.35 6.87-.69 17.65 0 23.57 0 6.84-1.98 15.39 0 22.27-.58 5.81-1.03 13.97 0 20.78-3.37 5.78 2.56 12.02 0 19.08 2-.12-1.28 15.73 0 17.18-1.39 4.02 2.96 9.76 0 15.09-.21 4.9.42 10 0 12.79.56 4.84-4.17 8.04 0 10.3v13.92h-10.92c-1.79 0-4.68 1.58-5.99 0-3.38-.03-4.02 2.65-7.23 0-1.43 1.15-7.19-1.04-8.42 0-2.14 1.14-8.13-1.51-9.58 0-1.85.56-8.64 1.7-10.71 0-3.36.35-8.94 4.77-11.79 0-5.57-.03-10.47.72-12.85 0-4.57-3.32-8.65-.29-13.86 0-8 1.69-10.91 1.08-14.84 0-5.53-.86-11.64-.08-15.78 0-5.73 1.15-10.31 1.4-16.69 0-8.11.91-11.82.61-17.56 0-5.72.68-12.31.92-18.39 0-6.57-1.35-11.72-2.67-19.19 0-5.44 2-11.21-1.75-19.95 0-7.79-.49-14.83.94-20.68 0-6.95-.6-13.76.06-21.37 0-7.28.7-15.57-1.31-22.02 0-6.51.1-17.1-.33-22.63 0-8.28-.03-16.52-.19-23.21 0-6.48.34-17.24-2.41-23.76 0-7.62-.22-18.25.07-24.27 0-7.74-.8-19 2.06-24.74 0-8.29-1.28-20.22 2.73-25.17 0-8.53 1.7-17.72-1.09-25.57 0"/><path d="M774.54 600.62c-8.41.05-17.85.09-27.53 0M936.93 600.62c-7.68.37-18.38 1.95-26.55 0-10.04.54-17.8-1.35-26.8 0-7.65-.12-19.41-1.44-27.02 0-9.42-.09-17.13.44-27.2 0"/></g></g></svg>