<svg data-name="Layer 2" xmlns="http://www.w3.org/2000/svg" preserveAspectRatio="none" stroke-width="2" viewBox="0 0 1440 600.36"><g data-name="Layer 1"><path d="M1436.7 598.25v-24.22c-.24-4.56.87-6.25 0-12.79-1.87-4 1-9.08 0-15.09 3.06-7.92-2.2-10.78 0-17.18 4.11-8.18-.11-14.19 0-19.08 1.1-4.82 2.09-14.55 0-20.78-3.03-8.74.2-12.23 0-22.27-1.71-7.1 3.66-15.98 0-23.57-.94-9.44-1.71-17.81 0-24.67 2.61-10.58-.51-17 0-25.57-.75-9.05 1.59-19.11 0-26.26-.8-9.41-1.06-17.5 0-26.76-1.21-10.52-1.18-16.73 0-27.06 0-9.55-1.45-18.36 0-27.16 1.59-8.58 1.1-17.19 0-27.06.79-7.84 1.09-17.31 0-26.76-.62-7.4.47-17.62 0-26.26 1.71-8.37-.68-17.41 0-25.57.19-7.86.27-17.47 0-24.67-.38-7.45-1.43-16.22 0-23.57 2.41-8.06 1.94-14.57 0-22.27-.27-4.83.92-16.04 0-20.78 1.22-7.92-.29-10.77 0-19.08-3.83-6.37 3.97-11.99 0-17.18.29-6.45.98-9.89 0-15.09.34-6.06 2.39-11.47 0-12.79 5.97-5.2.62-6.96 0-10.3.69-1.26-.67-7.19 0-7.6V.5H2.98v6.32c0 2.06-2.34 4.33 0 7.6-.65 4.04-1.74 7.34 0 10.3.45 3.43 4.51 9.71 0 12.79 1.85 5.7 1.34 10.61 0 15.09-3.53 7.92-.72 12.67 0 17.18 2.96 9.49 2.03 13.15 0 19.08 2.5 5.89-1.82 11.57 0 20.78 1.19 7.52.93 14.53 0 22.27 1.35 7.95-1.46 14.9 0 23.57 1.24 8.6-.43 15.73 0 24.67 1.1 9.27-.04 17.55 0 25.57 1.54 9.49.17 18.31 0 26.26 1.94 6.85 1.91 19.06 0 26.76-1.66 9.35.86 17.79 0 27.06-.14 8.91.5 19.96 0 27.16-.76 8.79 1.27 17.89 0 27.06-1.63 8.83-.21 16.05 0 26.76.07 9.15-.58 17.51 0 26.26 1.52 8.78.31 17.12 0 25.57-3.02 7.34.34 15.02 0 24.67-.04 3.78-.48 13.21 0 23.57 1.19 6.99 3.93 13.99 0 22.27 1.89 5.99 3.62 16.91 0 20.78-6.21 9.28 1.35 12.74 0 19.08-2.17 8.19 2.6 7.74 0 17.18-.38 10.25 2.37 11.05 0 15.09-.58 2.34 3.17 6.69 0 12.79 3.05 8.72-2.14 3.29 0 10.3v14.02H1436.7v-.1Z" fill="#DDD9D4"/><g fill="none" stroke="#373737" stroke-linecap="round" stroke-linejoin="round"><path d="M216.75 598.25c-6.37 1.05-14.1.64-19.95 0-6.12.25-12.97-.23-19.19 0-6.03.29-13.72-.36-18.39 0-6.67.29-10.86.98-17.56 0-7.32.42-9.63-.37-16.69 0-4.88-1.44-10.27-.87-15.78 0-3.66 1.39-10.11-.98-14.84 0-5.99 2.14-10.36 2.16-13.86 0-3.47 2.66-8.06.79-12.85 0-4.7.18-5.7.3-11.79 0-2.76-.91-5.36 1.34-10.71 0-2.89-1.81-5.53.51-9.58 0-2.81 2.52-4.19.09-8.42 0 .27.82-6.61 2.19-7.23 0-2.25.85-2.49-1.37-5.99 0-1.82-.33-2.42 1.24-4.73 0-1.81-.66-2.5 0-3.42 0H2.99v-13.92c-2.14-7.01 3.05-1.57 0-10.3 3.17-6.1-.58-10.45 0-12.79 2.37-4.03-.38-4.84 0-15.09 2.6-9.44-2.17-8.99 0-17.18 1.35-6.34-6.21-9.8 0-19.08 3.62-3.86 1.89-14.79 0-20.78 3.93-8.29 1.19-15.28 0-22.27-.48-10.36-.04-19.79 0-23.57.34-9.65-3.02-17.33 0-24.67.31-8.45 1.52-16.78 0-25.57-.58-8.75.07-17.11 0-26.26-.21-10.72-1.63-17.94 0-26.76 1.27-9.17-.76-18.27 0-27.06.5-7.2-.14-18.25 0-27.16.86-9.27-1.66-17.71 0-27.06 1.91-7.71 1.94-19.91 0-26.76.17-7.95 1.54-16.77 0-26.26-.04-8.01 1.1-16.3 0-25.57-.43-8.94 1.24-16.07 0-24.67-1.46-8.67 1.35-15.62 0-23.57.93-7.74 1.19-14.75 0-22.27-1.82-9.21 2.5-14.88 0-20.78 2.03-5.93 2.96-9.59 0-19.08-.72-4.52-3.53-9.26 0-17.18 1.34-4.47 1.85-9.39 0-15.09 4.51-3.08.45-9.36 0-12.79-1.74-2.95-.65-6.25 0-10.3-2.34-3.27 0-5.54 0-7.6V.5h2.78M350.42 598.25c-7.1.67-14.53-.89-23.76 0-7.54.65-15.04.63-23.21 0M910.77 598.25c-9.45-.48-18.95.49-26.8 0-8.78-.63-17.61-1.16-27.02 0-6.37-.39-18.68-.2-27.2 0-8.05.71-16.72.02-27.35 0-8.5 2.17-19.48.22-27.46 0-10.86 1.19-17.83.41-27.53 0-9.42-1.3-18.01-.75-27.57 0-7.83-.84-17.47 1.23-27.57 0-7.66 1.17-20.25.21-27.53 0-8.8.85-19.21 1.11-27.46 0-7.77 1.26-17.9-2.43-27.35 0M1436.7.5v6.32c-.67.41.69 6.34 0 7.6.62 3.34 5.97 5.09 0 10.3 2.39 1.32.34 6.73 0 12.79.98 5.2.29 8.64 0 15.09 3.97 5.2-3.83 10.81 0 17.18-.29 8.31 1.22 11.16 0 19.08.92 4.73-.27 15.95 0 20.78 1.94 7.7 2.41 14.21 0 22.27-1.43 7.35-.38 16.12 0 23.57.27 7.19.19 16.8 0 24.67-.68 8.16 1.71 17.2 0 25.57.47 8.64-.62 18.86 0 26.26 1.09 9.45.79 18.93 0 26.76 1.1 9.87 1.59 18.48 0 27.06-1.45 8.8 0 17.62 0 27.16-1.18 10.33-1.21 16.55 0 27.06-1.06 9.27-.8 17.35 0 26.76 1.59 7.15-.75 17.21 0 26.26-.51 8.57 2.61 14.99 0 25.57-1.71 6.85-.94 15.23 0 24.67 3.66 7.59-1.71 16.47 0 23.57.2 10.05-3.03 13.53 0 22.27 2.09 6.22 1.1 15.96 0 20.78-.11 4.89 4.11 10.9 0 19.08-2.2 6.4 3.06 9.27 0 17.18 1 6.01-1.87 11.09 0 15.09.87 6.54-.24 8.23 0 12.79v24.22"/></g></g></svg>