<?xml version="1.0" encoding="UTF-8"?>
<svg id="Layer_2" data-name="Layer 2" xmlns="http://www.w3.org/2000/svg" width="100%" height="100%" preserveAspectRatio="none" viewBox="0 0 1440 2450">
  <defs>
    <style>
      .cls-1 {
        fill: #e5e1dc;
        stroke: #231f20;
        stroke-miterlimit: 10;
        stroke-width: 2px;
      }
    </style>
  </defs>
  <g id="Layer_1-2" data-name="Layer 1">
    <path class="cls-1" d="M1435.56,2446.04h-10.9c-3.57,0-7.66,2.17-13.2,0-1.95,2.95-12.65,1.09-17.97,0-2.72,2.71-10.64,1.82-9.78,1.52-5.29-.28-8.05-1.29-12.68-1.52-2.64,1.86-4.49.41-11.21-.73.2,2.35-6.65-3.31-15.44.73-5.06-1.42-8.58-2.51-14.7-.7-4.92-.1-10.26-2.02-15.87.7-3.82,3.39-9.5-.24-16.07.44-2.75,1.45-11.08.2-18.11-.44-7.04-.1-15.84,1.51-17.47.42-8.05,1.39-15.21,2.21-20.04-.42-6.66,1.09-10.79-.45-18.7-.45-9.22.27-16.18-2.88-21.85.45-11.14-3.03-15.21-1.12-20.92-1.26-5.21.74-11.58.98-22.38,1.26-7.39-2.37-15.14,1.19-22.42.09-6.49.29-14.72.96-23.34-.09-5.83.64-13.81,2.74-23.18.65-9.13-1.3-17.99-2.03-24.75-.65-4.29,1.23-16.92-.64-23.73-1.28-8.37.11-15.61,1.88-26.08,1.28-7.5,1.29-15.33,2.83-26.05,1.45-8.82,1.08-19.02-2.43-25.36-1.45-9.72,2.04-17.95,1.46-25.43,1.02-9.15.39-18.24-2.4-27.28-1.02-8.63-2.1-21.41-1.87-27.21-.47-6.15,1.46-17.1,2.09-26.51.47-9.66,1.52-17.9.19-27.04-.87-8.54,2.45-18.89,1.57-27.41.87-10.94.86-19.37.16-28.32.83-8.94,1.21-16.39.35-26.56-.83-8.49-.06-17.43,1.3-27.86,1.07-9,.92-19.83-1.01-27.17-1.07-5.65-1.72-20.39-3.26-26.72-1.41-7.24.74-22.75,2.95-28.16,1.41-10.18.34-18.08.85-25.66.26-7.92-.28-18.56,2.59-28.79-.26-5.86.21-16.68-.13-25.83.29-9.52-.1-17.07-1.46-27.9-.29-7.68.63-20.9,1.32-26.78-.5-11.49-1.59-16.16-.8-25.93.5-7.88,1.15-16.54,1.8-24.57.36-8.74-.09-17.03,1.6-26.84-.36-8.68-.68-16.33-.64-25.68-.69-10.51.43-16.8-.31-24.14.69-7.24.69-14.74-1.89-23.58-.35-7.64.54-15.42-.97-24.35.35-8.3,3.69-14.13.96-23.18-1.21-7.55,1.34-15.12-1.07-22.58,1.21-8.61.67-17.88-.61-22.9-.26-8.2-3.6-13.42-.56-20.41.26-6.63-.87-12.76-4.06-20.7-1.74-6.19,2.67-13.78-.94-19.85,1.74-7.15-6.3-12.62-4.11-18.46-1.07-5.9,1.15-15.49,3.35-19.06,1.07-5.29-.65-15.56.89-17.36-.69-5.28,2.19-14.71-2.93-16.82.69-5.71-1.62-10.44,3.16-16.44-.17-3.41,2.23-8.95,5.68-14.13.17-2.63.97-10.2-1.82-13.39-1.81-12.07.7-11.94.95-13.27,1.81-1.17-1.39-3.91-1.64-11.23-1.15-.64-4.8-2.6,4.93-11.23,1.15-7.6-4.88-16.68,1.25-17.97,0-8.07,2.79-9.63,0-13.2,0H4.5s.14-4.73,0-14.67c2.31-4.38,2.12-8.98,0-11.14-1.96-4.03,3.88-4.64,0-14.1.04-3.15-.57-14.13,0-16.95.11-4.26.39-4.86.01-11.15,1.88-3.19,1.33-4.38-.01-8.55-1.63-4.17-3.21-8.31-1.54-9.73.16-.54-3.45-6.89,1.54-12.62.97-3.05,1.66-4.97-.15-11.84-.68-5.66-.8-8.36.15-13.06.12-4.19-2.41-6.83-.76-11.9,0-3.71-.43-8.03.76-15.44,3.58-4.03,1.41-9.76,2.51-15.31.81-4.79-.36-7.3-2.51-14.37.72-4.22,2.99-11.06-.21-15.84.94-5.78,1.12-8.79.21-16.08-2.91-4.83-.19-10.8-.16-16.35-1.45-4.28.66-7.42.16-17.72.86-6.36-2.9-9.96-1.56-16.98-3.37-3.48,2.42-11.21,1.56-19.12.13-8.82.14-16.26-.89-19.74-1.4-11.96-.66-15.06.89-18.3-.04-8.58-.91-15.02-1.54-20.38.11-2.07,1.37-7.14,1.54-19.49.6-9.96-1.41-13.31-.05-20.89,1.05-6.63-.77-13.89.05-20.71.34-9.61-2.42-16.82.39-22.99.64-7.73,1.87-14.29-.39-20.25,1.53-4.25-1.2-13.63,1.12-21.59-1.83-9.57,3.42-14.5-1.12-23.18.23-9.09-2.08-13.83-1.06-22.66-1.71-8.11-1.03-15.87,1.06-23.53-1.14-7.97-.87-16.95.9-23.76-1.65-7.1-.12-16.67-.9-23.75-1.28-10.41.43-13.77-.38-25.26,2.75-9.21-2.83-13.47.38-23.48,2.56-8.72-1.27-15.26.76-24.82-.15-1.13.67-16.65-.76-25.04-1.8-8.65.67-12.71.35-22.77,0-8.85.84-17.35-.35-28.11,1.97-9.95.46-17.64,1.49-26.01.24-9.12-2.38-16.1-1.49-25.78,2.32-9.24,4.34-16.81,2.05-25.96,2.07-7.66-2.39-13.11-2.05-26.65-1.87-8.58-3.05-17.5-.47-27.73,2.93-9.43-.26-19.85.47-25.59-2.92-6.27,2.33-15.72.35-24.17,3.32-11.92.03-19.39-.35-29.77.67-10.78.33-19.52-1.94-28.31-1.42-11,1.38-16.61,1.94-26.14,1.72-8.63,2.61-14.85-.08-25.3-2.5-10.08-1.5-16.16.08-29.55,2.3-9.92,2-18.29.42-29.43-1.79-6.44-.57-17.72-.42-25.73.46-9.76,1.24-15.23.42-26.03,1.23-9.79-.78-19.82-.42-29.34,3.6-12.02,3.14-24.24.24-30.42-1.87-9.42.28-17.53-.24-25.04.95-9.39,1.31-20.62.59-30.3-1.06-9.77,1.32-17.85-.59-25.16,2.52-7.95-2.53-16.64-1.09-26.11.62-10.85,1.98-18.97,1.09-29.25,4.11-6.17-1.99-14.82-1.14-27.37-1.95-9.41-2.82-20.68,1.14-27.79.66-9.69-1.24-16.99.29-26.54,1.35-9.44-.82-18.09-.29-28.31,2.56-8.46-4.3-17.89,1.52-26.56-.43-8.3-.38-16.4-1.52-27.89,5.83-11.77,3.8-19.9,1.36-28.2-.98-8.38-1.53-16.68-1.36-25.74-.42-6.28,1.6-15.11.64-24.31.21-10.02,2.13-18.8-.64-29.01-.95-9.78-.92-19.32-.06-26.37,1.42-9.5-3.22-15.45.06-26.25,1.02-7.13-.75-12.13-1.72-24.11-2.22-4.89-.46-16.86,1.72-27.69-.51-9.81.25-15.83,1.56-24.81,1.17-6.53.06-15.54-1.56-26.07-2.01-8.58,1.73-17.49.3-24.78-1.32-7.46-.74-16.73-.3-25.08,2.3-11.21-2.27-17.93.33-25.13,3.51-4.58.28-13.76-.33-23.61-.3-8.1-1.82-13.72-.38-23.37.34-7.07.43-15.91.38-24.15,1.61-11.52,1.04-14.82-1.12-22.94-.22-4.79-1.96-14.85,1.12-23.25.44-4.89-.66-16.33.13-23.39-.56-7.19-.35-14.74-.13-21.38-1.46-5.87,1.4-14.48.42-21.09.18-8.24-.56-11.32-.42-22.15-1.59-5.59-.66-13.82-2.11-20.1,2.5-8.25,2-15.61,2.11-21.51.55-4.9-.68-15.36-.69-18.96,1.83-8.64-1.93-12.7.69-20.91.7-5.95,2.19-11.04.81-18.18,2.51-4.72-1.06-11.5-.81-19.86-1.56-7.37.46-13.7-.44-17.83-.03-9-1.49-11.56.44-18.27.31-4.71-1.68-11.52-.23-18.02,2.02-6.49-.81-16.16.23-16.04.33-2.26,2.31-11,.33-15.75-.03-4.85.69-10.33-.33-16.18-4.97-3.41.24-10.56,2.06-13.85,1.36-5.87-.45-12.46-2.06-15.84,2.45-3.93.7-8.99.68-14.19,2.29-6.04.76-12.4-.68-13.15-1.8,1.92.47-8.16.42-12.62-1.35-.61-.83-9.73-.42-12.28,4.15-5.28,4.27-7.95,1.48-10.27,1.37-2.76-3.05-7.79-1.48-12.08,3.05-2.88-5.09-5.89-1.71-11.63-2.77-.22-2.42-4.89,1.71-8.07-5.55-14.9-1.53-12.5,0-16.95-1.86-6.96-.15-10.84,0-14.1.49-2.12-2.39-11.33,0-11.14V4.83h2.77c1.83,0,4.3-.21,8.13,0,2.4,1.9,7.6-4.27,13.2,0,5.56-2.25,11.98-.16,17.97,0,7.1-.73,7.39,2.71,13.03.12,2.81,1.49,6.38-2.39,9.43-.12,4.92-.42,7.15-1.04,12.92-.15,5.17,2.32,9.92,1.43,13.73.15,4.01-.08,10.65-.12,14.41.22,4.63,3.31,12.94.73,16.15-.22,6.26.42,11.89,7.39,16.12.41,6.58-3.96,8.74-2.85,18.06-.41,4.11-1.64,12.66-5.39,19.3-.69,4.49-.1,14.63-2.95,18.21.69,6.92-1.51,14.3.15,21.29-.9,5.32-2.5,14.67,2.96,19.26.9,4.42.89,7.89-2.48,20.06,1.57,13.43.08,16.33,1.7,23.25-1.57,8.23-.14,13.33,2.79,23.54.77,9.84.42,17.76-3.07,22.22-.77,7.63-1.41,16.02,2.47,23.2-.32,8.22.74,17.05,1.27,24.73.32,7.36-.46,17.57.93,23.99.18,8.78.72,18.27.52,25.83-.18,10.28,1.25,15.78-.19,25.57-.27,11.14.15,13.63,1.32,25.84.27,10.19-.85,19.44-1.18,27.04-.77,9.01,1.56,14.45,1.91,25.67.77,11.6-.42,14.88.08,25.6-.6,10.99,2.42,18.85,4.46,28.12.6,10.29-2.09,16.87-1.13,27.98-2.48,10.21-3.89,21.02,1.82,26.47,2.48,8.98-.12,14.12.99,27.02.54,7.79,1.56,16.57.12,27.86-.54,10.14,1.01,20.12-1.2,28.19-.07,9.66-1.22,16.77.42,26.84.07,8.75,1.21,17.04,1.86,27.46.57,10.69.15,20.62.84,27.42-.57,12.27,1.11,15.13.48,27.23.13,10.77,2.2,16.58.23,27.22-.13,10.18-2.07,17.57-1.33,26.71-.13,8.35-3.39,14.76.39,27.01.13,8.39,1.52,15.87-1.02,26.05.89,6.36-3.57,19.81-2.1,26.66-.89,8.52-1.05,19.75-.62,26.27-.39,9.98,1.57,15.36,1.1,25.14.39,11.15-.18,15.56.86,25.61-.56,5.55-2.76,14.29-1.98,24.21.56,8.46,1.64,13.47-.18,22.04-.12,5.92.67,18.88,2.06,25.89.12,7.86-.07,13.62.07,22.32-.67,8.55-.36,18.74-1.61,23.44.67,4.81,1.16,14.92-.46,21.49-.09,5.12,1.63,16.92-.89,21.82.09,9.77-2.34,11.3-.45,20.17-.77,6.43-.52,12.44.49,20.38.77,9.49-.17,13.72.57,20.34.32,7,.44,11.9.25,17.17-.32,7.06,3.01,13.92.58,16.74.69,5.78-.31,10.65,2.24,17.45-.69,3.48,2.14,11.03,2.28,15.26,2.14,5.61,4.83,7.15-2.16,15.31-2.14,5.52-6.05,11.61,1.89,13.21-1.68,7.45-3.19,6.98,4.68,13.45,1.68-3.56-.89,7.69,0,12.41-1.41,9.52-4.34,9.72-1.91,10.05,1.41,2.87-3.37,14.48,5.21,17.97,0,1.13.22,11.64-1.92,13.2,0,4,.94,6.3,0,8.13,0h2.77s-1.01,5.77,0,14.67c-.54,7.08-2.51,4.7,0,11.14-1.93,2.75,2.61,9.44,0,14.1,1.05,4.47,5.52,16.13,0,16.95-1.65,1.74.67,8.76-1.01,10.52-.85.65,2.48,7.41,1.01,9.18-2.17,2.28,1.36,6.63-.69,10.56-1,1.81,2.06,5.74.69,11.79-2.76,3.27-2.26,5.02-1.51,10.62-1.76,2.42-2.81,10.25,1.51,14.28.84,2.85,1.83,6.78,1.04,12.24.2,2.9-3.41,8.54-1.04,15.11-.32,5.1-3.43,9.57-.24,13.32-1.02,9.03-1.99,10.86.24,16.37.06,4.36-.8,11.15,1.47,16.06,0,6.03,1.09,9.64-1.47,15.86,2.27,4.02.53,10.2.21,15.83-1.17.27,1.89,8.82-.21,18.24-.27,5.56-6.81,12.08-1.32,18.27,2.66,5.95,5.3,11.04,1.32,17.84-1.42,7.56.49,10.57-.11,18.27.12,5.08.03,17.44.11,19.77-.13,7.58,1.81,12.92-.31,18.98.1,6.61.88,12.95.31,20.89-4.49,9.69.82,13.52-.49,20.11,2.51,7.4-.84,14.61.49,21.5-.39,6.61,2.07,13.62,1.37,21.5.79,6.79.61,13.79-1.37,21.74-.67,3.2-.67,11.43-1.25,18.33-.49,6.01-.81,17.53,1.25,26.43.27,9.72.11,17.11-1,23.86-.14,7.02.19,12.73,1,22.33-2.11,7.83.34,14.12.69,23.06-.53,5.58.46,16.52-.69,24.45.77,2.07.4,13.96-.26,22.86,2.02,7.72-1.48,18.29.26,25.88-2.61,7.96.58,18.3-1.36,24.89-1.09,4.86-.64,17.82,1.36,24.97,1.94,8.49,2.58,19.57-.85,26.04,1.17,5.47.58,12.42.85,24.84.43,7.73,1.78,14.75.41,25.85-1.17,6.57-.23,18.58-.41,25.95.27,10.77-4.06,18.05.04,27.27-2.2,8.4-2.08,16.58-.04,25.35,2.16,10.62,1.84,15.76,1.7,25.68,3.42,8.83-.07,20.07-1.7,27.65-1.98,10.2.19,19.04.71,27.59-.32,9.42-1.39,20.6-.71,26.35,2.86,9.49-.24,18.21.18,27.74-2.28,6.93-2.66,19.86-.18,26.7.84,5.85.56,16.17-.38,26.22-.52,9.44,1.6,18.15.38,28.63,2.33,10.05-.96,16.99.28,27.83-.33,8.33-.83,19.1-.28,27.33-.14,10.09-.43,22.3.23,28.89-4.27,13.18,1.02,16.23-.23,26.48-1.66,5,1.52,16.02.75,28.04-1.46,7.22-2.96,17.95-.75,27.42-2.41,11.32,2.2,17.75.46,28.55.77,8.24-1.99,17.36-.46,26.91.46,8.88-.45,20.52.15,27.75,1.34,7.57,1.18,15.99-.15,27.61-.37,8.87-.22,17.51.16,26.71.77,12.79-1.56,20.33-.16,28.45-1.51,9.6-1.08,22.71-.18,27.4-.7,11.46.48,19.43.18,27.45-1.54,11.75.93,15.52.21,27.5.68,7.64,1.89,14.72-.21,26.95-1.65,8.58.85,17.21.37,28.01,1.13,9.8.58,14.33-.37,25.92.99,6.31-1.1,15.74-.9,25.94-.73,6.72-.72,16.9.9,27.39-.68,8.22-2.28,19.44-.3,27.13.17,13.53,1.46,14.28.3,25.48-1.65,7.74,1.39,16.35.34,27.05,1,9.75,1.44,18.93-.34,24.75-1.08,6.58-.65,13.65-.49,25.31-.12,3.74-.67,14.84.49,25.57.19,9.14.81,18.8.19,27.28-1.83,6.39,1.57,15.85-.19,22.58.7,7.07-.47,17.81,2.74,23.85-1.59,10.16.4,15.83-2.74,24.89-.39,6.71-.22,16.8.7,25.41-.85,4.93,1.3,17.66-.7,22.11.85,11.14,2.48,15.17,2.53,24.93-1.59,4.61-1.95,17.17-2.53,21.26-3.29,9.15-.81,11.85-1.06,22.78-.04,7.54,2.75,15.51,1.06,21.99.86,6.28,3,14.02,1.39,21.11-1.81,6.28.31,15.51-1.39,22.13.07,3.61,2.68,14.03,1.28,20.18-1.95,7.52,0,17.47-1.28,21.43-.57,7.24.72,15.27.07,20.96,2.11,5.2,1.63,13.07-.07,18.92.73,6.17.4,9.91.65,18.62-.74,7.3,1.17,14-.65,19.42.93,7.43-.31,11.19-.11,17.47,2.71,6.65-2.09,11.25.11,18.63,2.4,7.65.41,9.79,2.59,17.98,3.25,5.68-3.89,10.63-2.59,16.08,1.56,8.2,1.06,12.38-1.25,15.78-1.44,5.99-5.21,11,1.25,16.14.65,3.46.73,9.86-.24,15.78,1.86,7.53,1.76,10.08.24,13.9.38,6.61,2.25,9.96,2.69,15.37,2.35,4.7-2.49,7.79-2.69,11.97,2.05,2.07.94,11.99.65,14.44,2.92,7.65-2.3,5.99-.65,10.46.47,3.35-3.7,1.98-.18,10.8-2.1-1.86-.41,8.94.18,11.55,1.07,3.02-1.54,6.08-1,10.6-.33,5.13-1,6.13,1,9.1,0,7.44-.8,10.3,0,16.95-3.93,3.73,3.98,7.34,0,14.1-.58,3.29,0,7.93,0,11.14v14.67Z"/>
  </g>
</svg>