<?xml version="1.0" encoding="UTF-8"?>
<svg data-name="Layer 2" xmlns="http://www.w3.org/2000/svg" width="100%" height="100%" preserveAspectRatio="none" enable-background="new 0 0 1436.204 1355.777" viewBox="0 0 1436.204 1355.777" xml:space="preserve">
  <defs>
    <style>
      .cls-1 {
        fill: #e5e1dc;
        stroke: #272727;
        stroke-linecap: round;
        stroke-linejoin: round;
        stroke-width: 2px;
      }
    </style>
  </defs>
  <g id="Layer_1_copy" data-name="Layer 1 copy">
    <path id="newspaper--fill" class="cls-1" d="M1433.059,1352.1878h-.9852c-.2218-.3651-1.1649-.267-2.9153,0-1.159-.121-2.3365.8037-4.7846,0-1.6348-1.7014-6.7569.2582-6.5934,0-2.1691-1.0848-6.2081-3.2482-8.3414,0-3.1624-.7054-6.869.6819-10.0288,0-5.5286,1.1251-7.1273-.3966-11.6555,0-.8149-.3852-2.9495-.5419-6.7185-.2951-.8742-.4691-6.2014-2.4171-6.503.2951-2.1065.1854-4.7764,1.6218-7.7513.9503-2.8525-1.2797-6.1166.6942-6.9757-.9503-.683.3204-3.9734.2955-7.2233.8213-2.9642.454-6.01.0585-8.9484-.8213-2.2201.7238-5.2459-.298-8.334-.1548-3.6653-.2859-5.9917-.3036-9.2217.1548-1.8656.0507-5.6615-1.2122-9.1527-.7634-3.5249-.2688-7.2213-.432-9.7265.7634-3.6967.4779-6.7015.166-10.1039-.1522-3.184.5062-7.3146-1.0732-10.038.1522-3.6449.4747-6.6981.4587-10.2516-.0395-3.5704.2029-6.8421-1.4421-11.0924.0395-3.8215.8932-6.9366,1.0207-11.3403-.1594-2.3822-1.4723-8.0482-.5001-11.1451.1594-4.6285,1.1864-7.9474-1.2164-12.5779-.554-4.6751-.902-7.3392.5953-10.9883.554-1.1133.8932-6.6231.7623-11.9661.1199-4.4913.5776-9.0598,1.626-12.6201-.1199-4.1073-.405-9.2751-.9754-13.2034-.0964-4.9348-1.0153-8.3559-.1084-12.3423.0964-2.1537-.1658-10.7218.7639-13.3612-.294-6.3517.1515-9.5045-.5107-13.0832.294-2.3729-.6523-4.8889-.5459-7.3297-.3565s-4.8066.4617-6.8792.1412c-2.3358-2.6661-3.9114.1556-7.1491-.3959-.8718-.9007-5.3664,1.3554-5.9246.6113-1.8418.2027-1.9818.7631-6.5789.1321-2.1805-.7934-5.5393-.895-6.7323.2386-2.3866-1.2284-5.356-1.342-7.0971-.1734-1.757.3247-3.3922.2146-7.6517-.1973-.7714,1.8378-6.5759-.4694-7.4971.1948-.9694-1.2274-3.8142.1533-7.2571-.1144-3.5604-.0866-4.6429.6082-6.9454.0959-2.5106-.3982-4.1452.0532-7.0771-.1764-3.2484-.1297-4.2641.8484-7.2919-.0854-2.0943.0609-4.2517-.0045-7.4276-.1091-1.6736-.0112-4.3291-.1176-7.4261-.0118-3.075-.0454-4.5562.805-7.2873.2063-2.6203.3163-4.8794.3274-7.187.3811-2.1709-.6659-5.3876.0263-7.4935.0079-2.8616-.5233-5.8035.3712-7.7066.0283-2.635.3066-5.0352.2-7.6412-.4173-2.0834.3062-5.1807-.0381-7.8629.0804-2.3579.4853-4.9162.432-7.6234.0892-3.0676.63-5.566.4958-7.7241.4133-2.1856.0151-4.5376.1813-7.3527-.5829-2.016-.6314-5.6118-.306-7.6393-.1075-3.1648,1.4092-4.8329-.0582-7.6472.0411-3.0087-.1601-4.3759,1.6225-7.6756-.0573-2.1905-1.2352-5.2996-.8475-8.0751.1237-3.5962-.2874-5.4113.5974-8.5268-.5404-3.8179-.5188-5.0848-.7494-7.6123-.0404-1.7875-.9387-4.8385.7913-7.0261-.3878-2.4162-.6235-4.1265,1.9233-8.2855.9686-1.3384.5601-4.1457,1.5042-7.4503-.043-2.6346.576-4.9109.8135-8.1391.063-3.1755-.6162-5.4762-.5503-7.8442.106-2.351.4677-5.5004-1.1913-8.3699-.1261-1.6268.1559-3.4582-.5014-6.8662-.189-1.7431.2081-4.3367.3831-9.1709.5354-4.2816-.1765-6.2996.558-9.1601.0738-2.4794-.4134-4.8689.2126-6.8984-.4203-2.7856.8055-4.6935.7609-7.5793.1097-1.7261-.9989-6.232.0575-8.2826-.1123-2.8269-.7137-6.2366-2.3544-8.9819-.7331-2.7851.2527-4.5071.3122-7.4833.7357-2.3774.6897-5.0989.6048-6.9949-.2084-3.5613.1727-4.5398.3069-8.1526-.0139-2.0521-.4078-3.697-1.034-8.676-.2894-2.9575.8968-6.0216-1.2743-8.6745.5117-2.2733-.5803-6.4274-.0303-7.9837.0612-2.7611,3.2574-6.4761.5723-8.314.1588-1.521-.0158-4.2699.5599-8.2916.2688-5.6462-.9228-5.472,1.1821-8.0188-.4887-3.2447-.7861-6.549-.3403-7.9428-.003.3556,2.6907-4.4254-1.7711-8.3802.4829-1.9867-1.9587-5.4193,3.8256-7.9848.4921-3.0623,1.8839-5.2386.6232-8.3497-.9721-2.7301-.9624-5.3665-1.748-8.3325-.1016-3.7945.0955-6.5932-.3996-7.9282.1358-3.4336-.6858-6.2468-.5772-8.1094-.3085-.8538,1.7644-6.9128.6744-8.2763.2744-.8643-.1837-5.3194-.651-8.2949-.25-2.2484-.4361-4.6591.5316-8.2333-.1659-3.3746-.0738-4.9306.056-7.6428.2567-3.377-.1215-5.3162.1737-8.4037.1592-2.7234-.1859-5.0045.3222-8.0993-.3895-2.6004.7716-5.8162.3288-8.2157.2785-2.7038,1.0406-6.0658-.2109-8.3187.3057-2.4158.5314-4.8439-.6809-7.8084-.1947-2.4218.7268-5.3609.5774-8.5152.4805-3.1578.9909-5.8464-1.0293-8.6305-.5174-2.3348-1.372-4.8469-.3396-7.8639-.2639-2.3966-.1877-5.0881.695-7.2393.3008-3.6824-.2007-6.7605.9603-9.0797.8639-3.0359.7059-5.2219.4533-7.7862.2273-2.2326.2985-4.5486.3162-7.362.1765-2.6684-.5029-4.7599-.7585-7.7672-1.2677-1.6718.0864-4.5626-.2692-7.0298.1053-3.0566-.1138-4.7547-.1637-8.2178.4951-2.2035.4062-5.3636-.872-8.2979-.1347-2.6164-.0144-5.839-.3347-8.135-.4657-3.8304,1.2396-5.9678.6467-8.6223.6892-1.9998.0454-4.5869-.1818-7.6877-.321-2.8234-.6693-5.1624-.5021-7.8234-.9819-2.2725.3791-5.0205.4406-7.1721.6137-2.2159.3683-4.6611-.0526-7.9675.1828-2.2882-.0512-5.815.1493-8.1467-.3952-1.7824.3728-4.2139,1.097-7.5728.6286-3.2848-.1596-5.0488.765-7.1826-.4162-2.6992-.1677-4.7365-1.1791-7.9671-.8554-2.9359-.683-5.0276-.6605-7.7778.7968-2.3811-.4181-4.6582-.9096-7.4466-1.246-3.0863.368-5.3864,1.0473-7.1817,1.3046-2.3822-.8078-4.9093-.7477-7.6724.0525-2.935-.3813-5.5058.0815-7.5404.2201-1.5409-1.1015-5.0759,1.3539-7.5444-.0317-2.5962.0363-2.8491,1.4277-7.0589-.241-3.9953-.4082-5.8645.714-8.3712.2464-4.2734-.7756-4.7018.7465-8.2288-.2464-2.9275.427-6.3358.0491-8.4283-.0642-2.3976-1.043-5.6675-.4043-7.9628.0642-2.2447.054-4.3902,1.5596-7.6373.6327-3.3846-1.25-5.0624.9624-8.1634-.6273-5.036-.7134-4.5533-.7348-8.0163.0418-4.0111.5934-5.9367.3808-8.2949-.0472-3.318,1.2904-4.7543,1.558-7.163.0888-3.2751-.1707-5.0036.8957-8.2602-.3233-2.1454.3711-4.3455-.4942-8.1434-.7205-4.892.1561-5.0801,1.6447-7.5784.955-2.7675-.5111-4.5607,2.0166-8.2947.729-2.2409-1.5384-3.9561-.8409-7.2365-.5624-2.2698,1.6164-4.8669,1.0256-7.4181-.1455-4.426.545-5.6168.6573-7.141-.0211-1.2519.4758-4.8791.4875-7.7824.2962-2.562-.3646-5.665-.3063-7.1227-.1734-2.2927-.4916-5.4083-.2307-7.259-.3194-2.7112-.4561-4.2433.0189-6.7835.1967-2.9957-.29-4.7013.0724-7.4373-.0152-1.9311.084-4.199.1519-6.6653.2734-2.2523-.3228-3.5726-.5735-6.3226-.712-2.237.2179-4.2341-.3688-7.2919.4538-1.467-.1945-3.8645-.1813-6.4068.2308-1.7523.553-4.3858.3365-6.7564-.0672-2.5474-.1132-4.9612.0364-7.3214.4545-1.7082-.2341-4.5527.2489-5.9139-.6182-2.3409.4012-4.0662.2107-6.3996.1904-1.6662-.1541-4.3383-.0299-7.4628.3563-3.0172.5247-6.8331-.548-11.1298-.5467-2.7922.5537-4.4533-.1662-7.0583.0326-2.3674-.5123-4.0039-.4532-5.7754-.9841-3.1347.2959-7.7818-.1651-10.6643.9515-1.8516,1.1273-7.4352,2.7567-11.8424.5023-3.9606,2.6494-8.273,3.083-10.0734-.5023-3.5636-1.611-7.5396-1.1816-10.225-.9046-6.5596,3.1038-7.9528,2.2115-10.0207.9046-2.3833.8577-6.0799-1.2691-9.1992.1191-.205,1.9415-3.9398-1.4091-9.2886-.1191.9207,2.597-4.9787-.8207-7.82.2216-3.0226,1.0004-6.3155-1.3933-8.8219-.2216-3.3115-.8563-4.5381.4248-8.2524-.4441-2.8022-.5553-4.0934-1.0001-6.4558.4441-.6218-.6007-4.5928-.0794-5.5517-.0285-1.1071.9858-4.7223-.1634-7.1349.0285-4.5348.931-6.5505.3502-10.577,0H3.9028v-2.9269c-.2555-1.8941-.6955-5.8891,0-8.565,2.8577-3.7718-.6017-7.545,0-13.8796-3.0413-8.0348,1.5534-15.1795,0-18.8706-.2997-8.307,2.84-11.9917,0-23.5382,1.2372-9.1323-.566-17.1139,0-27.8821-.0985-9.7128-.0064-17.8677,0-31.9026-2.2496-9.6944-.2831-23.0748,0-35.5995-.8645-3.9905-1.278-7.8488-1.4034-11.8204-.4515-4.1751.6567-8.9875.3255-12.5001.3466-4.0808.9562-10.3085,1.0779-14.6524.0914-2.9629,1.116-4.7144-.1388-9.111-.433-3.7463.33-3.3259.1388-6.3075-.8294-1.809.2079-5.4866.1298-8.0369-1.1114-2.6813-.5973-5.3003-.1298-7.7934.4105-2.9271-.7082-4.9581-.5226-8.0161-.8704-2.0706-.0631-3.5832.9459-7.8853.6997-1.517,2.305-4.6408,1.2629-8.001.1919-2.5987-.6067-6.1744-1.6862-8.9255-.2389-2.9492-.7307-4.7615.1419-8.0403.7442-2.2873.1617-5.0066-.109-8.8745-.1359-2.8963-1.7066-4.8795-1.7148-7.9821-.1657-2.815-.1355-5.7064,1.6819-9.3736,1.551-2.5559,2.0296-4.9973,1.3995-7.7165-.3324-3.0848-.4511-6.6882-1.2961-10.3084.0607-4.398.2038-6.1097-.0927-8.965.3743-2.9278.2908-5.6996-.0107-8.5866-.1922-2.8548-.4932-5.2949.2803-8.8083-.6888-3.005-.6076-7.3391.1976-10.2852.1019-3.9642.5149-6.0843.3343-9.4409.2395-3.2009-.8633-5.0333-.8122-8.2117.5943-3.1668-1.0675-7.7751.5061-11.678-.478-2.0037-.2579-5.0831-.1526-6.3451.1807-2.1579-.5809-4.3624-.6105-6.3159-1.4768-2.8567-1.288-4.3181-.6895-6.7785.0224-1.9166.2503-4.2272.9466-6.6617.8923-2.3895.6564-3.6399,1.3143-6.1971.3888-2.6704.0778-4.0164-.1497-6.5087.3132-2.3909.1149-3.9289-.3744-6.6007.4174-1.942-.2944-5.0475-.5148-6.8099-.3819-2.82-.3904-4.8575-.379-6.4478-.3526-2.0426-.2775-4.1675.1037-6.1115,1.1249-1.8434.696-4.2503.7416-7.9382-.1044-3.0235-.2167-6.2359-.7416-9.0057-.8749-2.9893-.6174-5.3536-.5735-8.331.2168-2.6045-.4272-5.2058.5735-8.7436-.0938-3.7713.3104-5.7934.5259-8.6675.2929-2.6619.451-5.2727.3393-8.5842-.0102-3.6238-.5797-5.7721-.2136-8.2117.2584-2.5125-.5535-5.5579-.6516-9.0341.5256-3.2599.4964-5.3208.6916-8.1874-.1574-1.9364-.1881-5.3121.2228-7.7582.1263-3.598-.291-5.9681-.5949-9.4469-.4432-3.6201.26-5.6359-.3194-9.4961.791-2.4981.7503-5.3298.204-8.7818-1.0642-2.6958.4869-4.5772.528-8.1545-.6784-1.7808.2154-5.954-.3745-8.8667-.2469-2.4008.0445-6.1854-.3574-9.3889.3738-3.631-.6708-7.1593-.6008-10.1656.2876-2.3629-1.2754-5.9771-.3991-8.1949-.9137-1.9372-.9796-5.6141-.4712-8.3233-.3646-3.4743.3157-5.4108,1.4711-8.7232-.6294-2.5923.8308-6.2056.2607-10.1117-.6854-3.547-.0009-5.4858-.0498-9.1724.2847-4.0331-1.0376-6.447-.115-8.4814.1037-3.0924-.7432-5.4203-.0959-7.7689.4774-4.9804-.3494-12.1481,1.2058-17.8896-.3369-5.7985.029-13.105-1.2058-17.6842-.306-5.0472.1387-11.7665.3271-17.162-.2313-5.7689,1.2548-11.304-.3271-18.3633.4785-3.8164.0548-6.3071.7839-9.5902-.4749-3.9226,1.3201-5.7919-.7839-8.737.9041-2.6624.1039-6.1861.6437-9.1655-.1781-2.6323-.5113-7.484-.6437-9.113,1.1085-2.5343.0902-5.9835.2299-8.6899.4585-2.4952.3334-6.4062-.271-9.0509-1.5719-3.9622-2.062-5.7748-2.7418-9.4112-.4645-3.7044.4117-5.0356,2.7829-9.2103-.5422-3.5446-1.1468-8.576-.7501-11.6796-.3221-4.148-.4978-6.9056-.229-9.2242-.657-3.4118-.1597-6.0616.482-8.8433,1.2285-1.7478-.3827-4.8848.4971-6.2746.1265-3.4257-.6196-7.168-.6562-10.2686.0663-4.5707.5731-5.9062-.1111-8.131,1.0118-2.9105-.7807-5.1798.2943-8.0764.893-2.8332.5395-4.6912.4729-9.1076.4184-3.5214.4605-7.4772-.6423-10.4976-.6353-4.02,1.0578-6.7418.4297-8.8797.4169-3.3019-.4762-4.9515-.0035-7.5066-.0623-3.5827-.0066-4.3772.2161-8.1644.008-3.9144-1.0622-7.1017-.7235-10.4015-.4736-3.0053.1461-6.4933.2379-8.6377.5601-2.6399,1.2398-4.6591.5842-7.1412-.2452-2.9272-.1853-5.5017-.0986-8.2353.4221-3.1796.0019-5.9134.6459-8.5772.0492-2.7614.0849-5.5698.1322-9.6403.5955-2.928.8601-5.79.608-8.1992-.8797-2.8811-.9106-4.4324-1.3861-7.269-.7119-3.6418-1.1394-6.2343-1.9798-9.1004.1746-1.9928-.4886-5.7263.6416-8.3577.4766-1.6913,1.5366-4.9179.8414-7.7767.498-2.589-.4023-4.8605.4969-7.6235-.3828-2.2791-.0019-5.0139-.8395-8.9272-.8664-4.3636-.2307-5.9928.1392-8.5992.7732-2.4935.7002-5.6178-.0279-8.073-.2761-3.3031,1.124-4.8393.7282-6.3342.0959-2.8884-.4718-4.1748-.0644-7.3309-.2767-2.6228-.5033-4.4524.375-7.7958-.175-3.4494-.3842-5.8765-.2907-8.276.1586-2.1536.1018-4.0314-.0199-7.509-.728-2.3031-1.2441-5.7798-1.0262-7.9417-.2811-2.8058.5847-4.6581-.1835-7.076.7681-1.884.1998-4.1845.7198-7.33,1.4141-3.3149.8007-5.5126.49-7.4447-.2685-1.1409-1.2647-4.7457.1403-7.1607-.2138-2.7335-.5951-5.2708.1962-7.4926.032-4.2067-1.8628-6.502-.3396-7.0232-.3382-2.6121-.2495-3.495.0031-6.8992-.6446-5.5185,1.7804-8.2847-.1681-12.3736,1.3043-2.7819-1.0596-4.6847.5077-6.9624,1.2198-1.6864,1.3568-2.5639-.3396-7.9255,1.0067-2.5443,2.1527-6.0614,1.5342-8.4485-.8138-1.6287-.0461-4.3675-.0181-6.4947.5392-5.778-1.0359-6.0707-1.5161-10.907-3.0357-3.1839-.6877-9.3512-.6919-13.0691.792-3.3347,1.7646-6.7414.6919-11.2725-.9209-4.0841.7295-8.8501,1.1426-12.8049,1.2771-2.1217-.0752-8.0908-1.1426-9.9307,2.562-2.1263.5438-4.0536,1.5263-9.0928-1.5381-1.5529-2.9057-8.0733-1.5263-11.9395,1.9231-6.2008,2.0342-5.5418.5722-9.2958-1.1093-.6634,1.4723-5.809-.5722-9.9358.3765-4.0101-.1721-5.9785.9671-8.9092-.8822-2.9495,1.8363-6.1335-.9671-8.4243.1594-2.9965-.4845-4.802-.5499-4.8752-.3763-1.8294,1.4194-5.0463.5499-10.463-.1009-1.4259-.0449-4.3087.1826-6.8076-.1274-2.7829.4273-5.3491-.1826-6.4379-1.1628-2.6469-2.0504-7.685,0-11.0555.4083-3.8228.3921-6.7308,0-8.7682V2.6931h11.0751c2.4419,1.0768,4.4658.9361,8.3796,0,3.0746-.6217,6.5799.2256,10.577,0,2.1476-1.2805,3.9498-1.1065,5.6188-.0743,3.0285-.8229,4.9512-1.0123,7.0678.0743,2.0136-.4188,4.0309.5977,6.3309.4714,1.5414.2309,4.5139.8096,8.3773-.4714,1.2663.4417,6.3476.1936,7.5787-.5821,3.3486-1.8735,4.473.0077,9.0632.5821,3.1899-.6292,5.4607.8758,8.8422-.7181,2.3117-1.8946,6.8735-.6826,9.6456.7181,2.7467-.6503,7.4503-.1787,10.4763-.1617,3.377,1.7707,8.6797,1.1158,9.7694.1617,4.8898,1.749,8.3438.4756,11.7525.0493,5.0935-.6313,7.9681-2.9046,10.1633-.0493,2.9789.7658,6.0113-.431,11.4183-.0976,4.0393.0344,7.4729-.5055,12.0796.0976,3.7938-.3776,6.5965-1.2395,11.9799-.5817,5.4188-.3724,8.7757.0677,13.0123.5817,6.2215.1951,9.2078.2437,13.315.0489,4.3068-.6354,8.7279-.1481,13.0836-.0489,4.7969,2.2977,8.2283-1.0199,13.7737.0661,4.6591-.0269,9.626-.3415,13.9433-.0661,5.2186.4397,10.1816-.1923,14.9268.0097,3.6022,1.0043,8.6269-.0835,14.0208-.0097,5.3459-.8696,9.6085.6805,14.8656.4697,5.8297.1565,10.3436.1044,15.2247-.4697,5.6637-.6014,10.8138.1936,15.6226-.1025,5.8221-1.3697,11.0991.1588,15.5225.1025,5.8698-.297,11.998.812,16.3052-.2396,5.6058-.528,10.787.4998,15.8067.2396,5.7803,1.1658,10.0672,1.2447,16.6635.0204,5.4909-.169,10.2385-.3556,16.3274-.0204,6.6797.1635,11.149,1.0483,16.9303-.1308,5.4905-.0849,10.9432-.4989,16.8517.1308,5.8987-.9038,11.214-.1651,16.9838-.0544,6.6412.5875,10.9698-.127,17.5013.0544,7.1383-.7496,11.6914.5612,18.1086.0792,6.1607-.1263,11.9105.8514,16.9918-.0792,6.6177-.601,12.5484.437,19.0063.0529,5.6485-.9166,11.2828-1.1412,16.6216-.0529,6.2499-.4297,13.1692.6864,18.1807-.3056,6.9872.1177,13.0845-1.3777,17.8866.3056,6.0559.8502,10.205.5649,17.1787-.1711,5.2645-.0539,11.8605-.106,19.2402.1711,6.4333-1.3676,12.0939-.6386,18.8737-.3996,5.273,1.02,12.1611,1.8117,17.8089.3996,5.8344.9813,13.2019-.7364,18.5796-.3273,6.6453-.0716,12.8345-.7729,18.2788.3273,5.8758-.9798,11.0831-.2647,17.9215-.0719,6.6328-.0649,15.6101,1.398,19.0248.0719,6.0908-.7238,11.3243-.0815,18.1248-.2184,5.9791-.4447,11.0597-.1692,18.8214.2184,5.9584-.1054,12.253-.0236,17.9422.1558,6.9486.4563,11.8191-.138,18.9162-.1558,6.0816,1.0623,12.1068.2756,18.6356.117,6.2203.1635,11.8841-.5655,18.047-.117,5.8962.0624,11.3464,1.7378,18.1641.2109,5.7628-.2932,12.1172-.4837,18.2548-.2109,5.9313-.3658,13.5578-.326,17.5476.1961,6.8957-.2096,12.5193-1.4619,18.5197-.1961,5.2743.7511,13.1576.13,17.7428.3877,6.3426-.3423,12.1878-.8839,17.885-.3877,6.3449-.388,11.2858.5601,17.3988-.0795,6.4613.8733,11.7562-1.0877,17.7017.0795,6.3511.5421,12.6617-.1072,17.8251.1014,4.7088-.5945,10.2476.5088,16.66-.1014,6.8165-1.0623,12.5226.32,17.4252.099,5.5226-1.1774,9.5964-.1285,16.3568-.099,6.6669-.2479,11.5049.3435,16.6605.6788,4.5715.4638,10.1315.3918,16.3304-.6788,5.8096.646,11.9346.4382,16.3679.5285,3.4357-.7812,10.7266,1.0616,15.744-.5285,4.3041-.6403,12.3049-1.1751,15.8179-.7812,4.7379-1.0027,9.4901-.4831,15.3271.7812,3.8713-.3622,9.1956-.3036,14.7654-.2833,4.5609-1.0772,8.7771-.251,15.3248.2833,5.4219-.4881,10.9656.3432,15.1028.4297,5.4364.1584,9.0175,1.7527,13.8448-.4297,3.8482.4253,8.9911.5677,13.1995.3507,4.7236.0414,9.5607-.4602,14.5176-.3507,6.2799,1.0172,10.7913,1.0446,13.541.5191,4.7383.6655,9.0279-1.0771,12.8576-.5191,4.207-.1916,7.8488,1.1225,13.1725.1275,3.2276-.5407,6.6987-.7901,11.8197-.1275,4.5522-.8423,6.9523,1.3633,11.515-.0854,5.4255-.8718,8.31-.5374,11.9829.0854,3.2181.9147,8.6562.1169,12.1045-.0986,3.1877.8257,8.3406,1.1336,9.8113.0986,4.1394.9758,6.8373-1.0199,10.6798.421,4.0877.5018,7.5477.7923,9.5659-.421,3.2765,1.0797,8.836-.276,10.1092-.5661,1.1198-1.2469,6.6266-1.2802,8.3786.5661,3.3175,1.5387,6.1232,1.8941,8.5871,1.0351,3.7543-.0063,4.8985-1.3578,8.0548-1.0351,5.31-.5701,4.5471-.8791,9.2365-1.2894,3.0223.2516,4.2368,1.2664,5.4717,1.2894.8707,3.8956,3.9765,3.8103,6.5493,1.5691,2.9661.5544,4.4547-.5836,6.1373-1.5691,2.0974-.3799,10.2574,3.3778,10.577,0,.5625.1395,5.2263.6811,8.3796,0,1.1645-.284,4.0499.1636,6.0942,0h4.9809v20.3752c-.7864,3.257.4092,8.0233,0,11.0555-1.0224,5.6469,1.7181,8.2446,0,13.2455.2762,5.8215.6176,12.4943,0,15.3382-1.1602,5.5815.7817,11.2313,0,17.3336-.0501,5.503.3051,11.6442,0,19.2316-2.6829,4.7862,1.4247,14.2985,0,21.0322-.1085,3.7349.7132,16.0573,0,22.7356,2.0942,8.3721,1.2599,16.0462,0,24.3416,1.046,3.9371,1.4497,8.3712,1.3901,12.8353.3928,3.9729-1.0534,8.4938-1.3901,13.015.9385,4.4946,1.144,10.6819.6717,13.4556-.6405,5.9927-.4716,10.7224-.6717,13.806-1.2551,3.5618.7479,4.1657-.4401,6.7703-1.6111,4.4926-1.4481,4.7339.148,6.9829-.8116,1.3059-.5826,4.612-.3614,7.0006,3.0536,4.1392,1.0512,5.2936.6534,7.8219-.4205,1.2696,1.1029,3.5548,1.2653,7.2748.2393,1.2895,1.3083,6.4073-.5831,7.9293-.1616,2.1573-.5675,5.3606-.3752,7.7691-.5751,2.3162.2519,4.5155-.307,6.8191-1.8669,2.4243.2169,2.9432.4659,5.5442.9216,2.6601-.3842,4.1001.0866,8.2754.067.4862-1.0164,4.8031-1.0708,7.5453-.7064,3.0358.0542,7.3714.5183,9.5468-.3707,2.233,1.5445,3.3923,1.3202,6.9424-1.0519,2.947.3517,4.1843-.2031,8.3199-.7406,3.7976,2.3509,4.8902.0716,7.8773.8851,1.7887-1.2803,4.6305-1.1887,8.7941-1.3721,1.8902-.8437,4.5776.1801,8.381,1.0248,2.4015,1.2087,6.5484,1.2881,8.3492.1812,2.6754-.9687,4.6292.4357,7.18-.9083.8563-.3313,5.16-1.9039,8.9481-.0768,1.7843.7948,4.2896.9445,8.0253.6449,2.7436-.1347,7.4556.4559,8.9534.568,4.3221-.4459,5.6104.3952,8.3768-1.3208,3.6295-.3086,7.9405-1.7956,8.3302.0135,1.6563,1.2452,4.0091.5633,8.355-.8492,3.7343-.5381,6.2356-.5633,8.7676-.9761,2.48,1.7364,6.1798.0157,7.3988-.295,3.8868.1478,5.2302-.0157,9.8941.3452,3.4921-.0643,4.2524.3757,7.244.3281,3.9115-.3635,5.7509-.0417,7.8793-.191,2.8119.1423,4.4036-.2087,8.1507-1.3637,2.0098,1.0207,3.4625-.1252,8.0581-1.5574,6.9892.8961,10.4538-.364,16.8254-.3155,5.2283-.3287,10.7179.364,15.8315-.1195,7.0069-1.0348,11.6182-.5317,18.3976-.7495,4.8724-.1433,9.8221.5317,14.6451-.0057,4.651-.4385,10.8203-.5705,16.283.8999,5.876-.0387,12.2806.5705,17.0697-.3251,3.2811,1.0041,6.8543.4298,9.1176-.3882,2.4449-.5243,5.7537-.0199,8.8912-.3944,2.336-.3411,6.0681-.2249,8.2835.1815,1.7761.2579,5.2605-.1851,7.2946.3979,1.8601-.3215,4.8127.1282,8.9274.4426,3.565.1371,5.998.3152,9.0973.1003,2.5214,1.5804,5.932.7684,8.7373-.059,3.5623-.9167,3.5888-1.2118,6.9835.0707,1.5183,2.0688,4.8327.6726,6.7874,1.8839,3.9441,2.0035,6.1088-.0667,8.3455.6207,2.7278.729,5.8078.5523,9.0028s-.6385,6.5049-1.1582,9.6928c-.7625,5.0453-.8153,11.6899-.296,16.8395.2604,4.9499-.1621,11.2984.296,16.9962-.0736,3.6874-.1947,6.0145-.3467,8.7664-.7272,2.84,1.3037,5.7132.3153,8.5704-.5699,3.619-1.1572,7.6331.4079,8.7428.6262,5.0211.5084,3.6877-.3765,7.6876.4665,3.4383-.4275,4.2202.1153,7.4492-1.2601,1.2942-1.8835,3.3893-.1096,7.8196-1.4298.4816.409,4.3671.4058,8.1765-1.0198,2.8561-1.5008,6.8334-.4114,10.1777-1.908,5.2844-1.5971,5.4169-.6019,8.5779.2151,2.4381.6847,4.8655.0409,8.1146.2258,2.0312.8907,6.042.1413,8.2861,1.5003,2.0214.9445,5.1862.4196,8.4246.4334,2.772.7043,5.3163.184,8.5459-.2452,3.5186-.8414,6.1413-.0391,8.4587-1.5671,2.7635-.4907,4.9277.0667,8.3089-.7237,3.1656-.1849,6.7069-.2116,7.7942,1.1818,2.753.0469,5.2044-.6421,8.6097-.2334,3.703-.9194,5.2989.0747,8.4304-.1068,2.6168.6486,6.4069.3147,8.1943-1.0789,1.8557-.4619,5.7103.2527,7.502.688,3.7774-1.3666,6.3262-.8032,8.8909-.1972,2.0245.6197,5.4076.4896,7.7146-1.1538,2.3479.6668,5.6193.0033,8.2433.1237,2.5267.4575,5.0719.3102,7.4406-.7567,3.1873-.5829,5.2422-.3467,6.8459.6835,1.1079-.3734,4.1701.2028,6.7919.9851,3.1031,1.4149,4.444.1272,6.6281-.6101,2.3245-.2712,3.7661.0304,6.7823.8047,4.4199.3265,8.9523-.0137,11.3327-.4682,3.1462-1.7849,9.5377-.5864,12.1818-.553,1.7141.7876,4.6768.4692,6.6728.5197,1.6549.0539,4.5956-.3783,6.5086-.026,4.3338-1.0531,8.3175.4954,12.1176-.1432,3.2447.5853,5.848-.0419,8.8449.6461,2.5094-.7776,6.2324-.9639,9.1889.3165,2.5651,1.972,5.9301,1.4371,9.1491.0662,2.6519.1302,5.6642-.4313,9.2634,1.2477,2.1887-.4433,6.0572.4134,9.2479.4865,1.2905-.5195,6.6313-.2503,8.5486-1.9061,1.5003-.9412,4.1998-.1621,8.7057.3654,3.557,1.1768,6.6189-.001,8.7755-.502,1.1427.2711,4.103.5577,8.0008.4462,2.7671,3.302,6.3593.058,8.1351.6813,3.9549-.8065,4.6166.5305,9.5254,1.8396,2.5355-.8736,6.4323-1.1462,8.3136,1.1438,3.2421-1.8798,6.0231.0227,8.4691-.0614,2.9583.1085,5.7231-.0227,7.9878.0229,3.8599-1.5341,3.315.2161,7.9085-1.1432,2.9974.0848,6.4675-.2161,8.1723.5434,4.2778-.0774,10.1248.2159,13.7419-.9548,3.9344.942,9.202.1752,13.5-.2953,3.4398-1.3508,8.2988-.3912,12.6877,1.0955,5.632-.7563,12.395.1143,18.0358-.3948,6.8365.9301,12.9886-.1143,18.9431.3074,5.949-.4457,10.1536-.2977,16.908-.4868,5.5934.7004,10.9187.2977,16.8252.7352,5.49-.1138,11.5822-.132,16.8307-.1093,5.0813.9629,8.2432.132,13.3618,1.663,5.9725.4961,8.884.5215,13.7522-.1587,4.728-1.7415,8.2332-.5215,12.6046-.0271,3.4489.6573,5.9012.5169,10.67,1.433,4.7706.3457,9.2433-.5169,11.5561.1355,4.226.0409,7.5288.6227,10.0334.6114,3.0652.1916,4.3832-.6227,7.7671-.3669,3.6873.422,5.1064-.4106,8.1001-.0653,2.7025-.2145,3.0933.4106,4.9797.5324,1.8055,0,6.2449,0,8.0642v2.7536Z"/>
  </g>
</svg>