<?xml version="1.0" encoding="UTF-8"?>
<svg id="Layer_2" data-name="Layer 2" xmlns="http://www.w3.org/2000/svg" viewBox="0 0 6940.61 1032.27">
  <defs>
    <style>
      .cls-1, .cls-2 {
        stroke-linecap: round;
        stroke-linejoin: round;
      }

      .cls-1, .cls-2, .cls-3, .cls-4, .cls-5 {
        stroke: #cb352c;
      }

      .cls-1, .cls-3, .cls-4, .cls-6 {
        fill: #e5dbc6;
      }

      .cls-2, .cls-5 {
        fill: none;
      }

      .cls-3 {
        stroke-width: 2px;
      }

      .cls-3, .cls-4, .cls-5 {
        stroke-miterlimit: 10;
      }

      .cls-7 {
        fill: #cb352c;
      }

      .cls-7, .cls-6 {
        stroke-width: 0px;
      }
    </style>
  </defs>
  <g id="Layer_1-2" data-name="Layer 1">
    <rect class="cls-6" x="117.08" y="155.95" width="6560" height="750"/>
    <g id="Cloud-3">
      <path class="cls-2" d="M5846.29,209.97c-6.18-1.3-12.59-1.99-19.16-1.99-51.03,0-92.4,41.37-92.4,92.4,0,18.24,5.28,35.24,14.4,49.56"/>
      <path class="cls-2" d="M6097.61,171.26c-15.94-57.51-68.67-99.73-131.26-99.73-75.22,0-136.2,60.98-136.2,136.2,0,.1,0,.2,0,.31"/>
      <path class="cls-2" d="M6058.77,173.8c8.53-2.1,17.45-3.21,26.63-3.21,43.28,0,80.78,24.75,99.12,60.87"/>
      <path class="cls-2" d="M6175.22,241.78c6.77-10.99,18.91-18.31,32.76-18.31,17.85,0,32.85,12.16,37.19,28.64"/>
      <path class="cls-2" d="M6240.48,260.67c14.81-30.85,46.35-52.15,82.86-52.15,50.74,0,91.87,41.13,91.87,91.87,0,11.03-1.94,21.6-5.51,31.4"/>
      <path class="cls-2" d="M6412.92,320.8c7.57-5.49,16.88-8.73,26.95-8.73,25.37,0,45.93,20.56,45.93,45.93,0,4.18-.56,8.23-1.61,12.08"/>
      <path class="cls-2" d="M5764.08,350.32c-3.03-.41-6.11-.62-9.25-.62-38.05,0-68.9,30.85-68.9,68.9s30.85,68.9,68.9,68.9c0,0,761.21,0,761.21,0,34.81,0,63.02-28.22,63.02-63.02s-28.22-63.02-63.02-63.02c-20.85,0-39.34,10.13-50.81,25.74"/>
      <path class="cls-2" d="M5685.93,417.4c7.47,29.97,34.57,52.17,66.85,52.17,0,0,761.21,0,761.21,0,34.19,0,62.02-27.23,63-61.18,1.35,5.13,2.07,10.53,2.07,16.08,0,34.81-28.22,63.02-63.02,63.02,0,0-761.21,0-761.21,0-38.05,0-68.9-30.85-68.9-68.9,0-.39,0-.77,0-1.16"/>
      <path class="cls-2" d="M6222.76,407.07c-8.96,9.88-21.4,16.69-35.69,18.36-30.4,3.54-58-17.45-62.98-47.31-1.08.25-2.19.44-3.32.57-16.81,1.96-32.02-10.08-33.98-26.88-.43-3.7-.19-7.32.64-10.74,3.01,17.77,18.27,30.73,35.99,31.15-.37-5.83.15-11.53,1.46-16.96.99,5.83,2.68,11.37,4.98,16.56.53,1.2,1.09,2.37,1.68,3.53,12.9,25.21,40.5,41.03,70.29,37.56,7.44-.87,14.47-2.88,20.94-5.83Z"/>
      <path class="cls-2" d="M6192.91,226.38c-4.06,1.7-7.89,4.13-11.29,7.3-15.48,14.42-16.34,38.66-1.92,54.14,6.57,7.06,15.19,11.08,24.08,11.99-4.16-2.32-8.04-5.32-11.46-8.99-17.06-18.32-16.62-46.66.59-64.44Z"/>
      <path class="cls-2" d="M5908.68,85.76c-13.56,5.68-26.36,13.81-37.75,24.42-51.76,48.2-54.63,129.24-6.43,180.99,21.98,23.6,50.78,37.03,80.52,40.1-13.91-7.76-26.88-17.78-38.32-30.07-57.03-61.23-55.56-156,1.98-215.44Z"/>
    </g>
    <g id="Cloud-2">
      <path class="cls-2" d="M1580.3,588.7c-3.12-6.65-4.86-14.07-4.86-21.9,0-22.79,14.77-42.13,35.26-48.97"/>
      <path class="cls-2" d="M1646.85,537.51c-35.1-8.48-61.18-40.1-61.18-77.81,0-44.21,35.84-80.05,80.05-80.05,3.59,0,7.13.24,10.6.7"/>
      <path class="cls-2" d="M1823.71,241.56c-4.76-.48-9.59-.72-14.48-.72-77.69,0-140.96,61.73-143.44,138.81"/>
      <path class="cls-2" d="M1758.75,249.98c-6.29-14.8-9.77-31.08-9.77-48.18,0-61.02,44.35-111.69,102.57-121.53"/>
      <path class="cls-2" d="M2032.99,150.76c9.32-15.26,14.61-33.22,14.42-52.42-.54-54.58-45.23-98.38-99.81-97.84-47.76.48-87.26,34.75-96.03,79.87"/>
      <path class="cls-2" d="M2178.64,186.24c2.75-8.43,4.23-17.43,4.23-26.78,0-47.67-38.65-86.32-86.32-86.32-18.6,0-35.82,5.88-49.91,15.88"/>
      <path class="cls-2" d="M2167.9,180.12c8.96,4.49,17.26,10.09,24.73,16.61"/>
      <path class="cls-2" d="M2246.23,161.23c-4.22-1.16-8.67-1.77-13.26-1.77-21.31,0-39.52,13.31-46.75,32.07"/>
      <path class="cls-2" d="M2377.47,205.16c2.69-7.85,4.15-16.27,4.15-25.03,0-42.62-34.55-77.18-77.18-77.18-35.46,0-65.34,23.92-74.38,56.51"/>
      <path class="cls-2" d="M2370.37,202.84c47.92,13.92,83.34,57.22,85.46,109.11"/>
      <path class="cls-2" d="M2455.83,311.96c56.63,25.1,96.13,81.81,96.13,147.74,0,17.07-2.65,33.52-7.56,48.97"/>
      <path class="cls-2" d="M2505.05,480.79c42.67,18.87,72.44,61.57,72.44,111.23,0,15.55-2.92,30.41-8.24,44.07"/>
      <path class="cls-2" d="M1577.04,579.63c-64.12,1.73-115.56,54.24-115.56,118.78s53.2,118.82,118.82,118.82h1006.38c54.56,0,98.8-44.23,98.8-98.8s-44.23-98.8-98.8-98.8c-4.24,0-8.42.27-12.52.79"/>
      <path class="cls-2" d="M1590.57,433.1c-3.17,8.59-4.9,17.88-4.9,27.57,0,44.05,35.71,79.76,79.76,79.76,20.08,0,38.43-7.42,52.45-19.68-9.44,3.05-19.51,4.7-29.97,4.7-52.12,0-94.68-40.9-97.35-92.35Z"/>
      <path class="cls-2" d="M2183.74,688.2c-18.41,12.9-41.39,19.45-65.49,16.86-51.27-5.5-88.79-50.29-85.85-101.21-1.87,0-3.76-.09-5.67-.3-28.35-3.05-48.86-28.49-45.82-56.84.67-6.24,2.42-12.09,5.05-17.4-1.68,30.32,18.56,57.31,47.52,64.6,1.56-9.72,4.55-18.89,8.73-27.33-.55,9.94.16,19.68,2.01,29.07.42,2.16.9,4.3,1.45,6.42,11.8,46.24,51.25,82.51,101.49,87.91,12.55,1.35,24.85.66,36.58-1.78Z"/>
      <path class="cls-2" d="M1575.74,562.26c-.61,5.42-.3,11.04,1.07,16.65,6.24,25.49,31.96,41.09,57.45,34.85,11.62-2.84,21.19-9.74,27.56-18.81-5.03,3.1-10.62,5.48-16.68,6.96-30.16,7.38-60.58-10.26-69.41-39.65Z"/>
      <path class="cls-2" d="M1818.94,241.16c-3.2-.22-6.44-.32-9.7-.32-17.77,0-34.79,3.23-50.49,9.13-3.3-7.76-5.83-15.93-7.48-24.41,5.42-1.11,11.04-1.69,16.78-1.69,19.15,0,36.8,6.45,50.89,17.29Z"/>
      <path class="cls-2" d="M2685.47,718.43c0,54.56-44.23,98.79-98.79,98.79h-1006.38c-65.62,0-118.82-53.19-118.82-118.82,0-3.67.17-7.31.5-10.9,13.71,50.47,59.85,87.59,114.67,87.59h1006.38c50.26,0,91.76-37.54,97.98-86.11,2.9,9.3,4.46,19.19,4.46,29.44Z"/>
    </g>
    <g id="Cloud-1">
      <path class="cls-2" d="M3812.34,454.09c-4.17-10.68-6.46-22.3-6.46-34.45,0-52.34,42.43-94.77,94.77-94.77,16.36,0,31.74,4.14,45.17,11.44"/>
      <path class="cls-2" d="M3941.23,333.98c20.37-41.84,63.29-70.67,112.95-70.67s93.32,29.33,113.47,71.74"/>
      <path class="cls-2" d="M4164.93,329.69c11.19-13.07,27.8-21.35,46.35-21.35,11.5,0,22.26,3.18,31.44,8.71"/>
      <path class="cls-2" d="M4238.64,351.16c0-79.14,64.16-143.3,143.3-143.3,64.58,0,119.18,42.72,137.09,101.44"/>
      <path class="cls-2" d="M4506.53,314.42c11.35-5.78,24.2-9.03,37.8-9.03,31.09,0,58.22,17,72.58,42.22"/>
      <path class="cls-2" d="M4613.79,342.55c4.36-1.64,9.08-2.54,14.02-2.54,5.94,0,11.58,1.3,16.64,3.64"/>
      <path class="cls-2" d="M4642.25,359.58c1.84-44.71,38.67-80.39,83.83-80.39s83.9,37.56,83.9,83.9c0,13.46-3.17,26.18-8.8,37.45"/>
      <path class="cls-2" d="M3810.43,448.7c-9.48-7.05-21.23-11.22-33.95-11.22-31.47,0-56.98,25.51-56.98,56.98s25.51,56.98,56.98,56.98h1033.5c41.81,0,75.7-33.89,75.7-75.7s-33.89-75.7-75.7-75.7c-10.79,0-21.06,2.26-30.35,6.33"/>
      <path class="cls-2" d="M4885.68,475.73c0,41.81-33.89,75.7-75.7,75.7h-1033.5c-31.47,0-56.98-25.51-56.98-56.97,0-3.45.3-6.82.89-10.1,4.78,26.64,28.07,46.87,56.09,46.87h1033.5c38.37,0,70.08-28.56,75.02-65.59.44,3.3.67,6.67.67,10.09Z"/>
      <path class="cls-2" d="M4196.7,429.66c-3.68-.83-7.33-2.01-10.89-3.57-2.02-.88-4.01-1.87-5.96-2.99-11.4-6.52-19.89-16.16-25.02-27.23-8.05-17.32-7.84-38.16,2.36-56,5.68-9.94,13.74-17.67,23.05-22.89-.34.57-.67,1.14-1,1.71-10.78,18.85-13.98,39.96-10.55,59.81,2.84,16.4,10.19,31.93,21.53,44.61,2.03,2.28,4.19,4.46,6.49,6.54Z"/>
      <path class="cls-2" d="M4042.19,476.55c-2.55,2.79-5.39,5.36-8.5,7.68-1.76,1.32-3.61,2.55-5.55,3.69-11.32,6.66-23.9,9.25-36.05,8.21-19.03-1.61-37.02-12.13-47.44-29.84-5.81-9.87-8.53-20.7-8.44-31.37.32.58.65,1.15.99,1.72,11.02,18.72,27.76,31.97,46.69,38.84,15.65,5.67,32.78,7,49.41,3.45,2.99-.63,5.95-1.43,8.9-2.39Z"/>
      <path class="cls-2" d="M4560.91,470.68c-5.36,1.08-10.9,1.65-16.58,1.65-7.42,0-14.6-.97-21.45-2.79-13.86-3.67-26.31-10.82-36.34-20.46-15.83-15.19-25.68-36.56-25.68-60.22s10.11-45.61,26.32-60.84c-3.61,11.04-5.57,22.83-5.57,35.08,0,24.4,7.77,46.99,20.96,65.43,9.05,12.65,20.65,23.35,34.06,31.34,7.56,4.51,15.7,8.16,24.28,10.81Z"/>
    </g>
    <g id="Background">
      <path class="cls-6" d="M6940.55,470.07c-244.44,28.51-488.87,57.01-733.31,85.52-296.69,34.6-595,69.26-893.35,54.76-302.58-14.71-601.02-79.83-903.62-94.23-261.65-12.45-523.42,13.14-785.2,22.41-733.5,25.98-1469.03-76.16-2200.68-17.95C948.94,558.41,476.22,663.85.03,636.64v395.63h6940.53V470.07Z"/>
      <path class="cls-5" d="M.03,636.64c476.2,27.2,948.91-78.23,1424.38-116.06,731.65-58.22,1467.18,43.93,2200.68,17.95,261.78-9.27,523.55-34.86,785.2-22.41,302.59,14.4,601.04,79.52,903.62,94.23,298.35,14.5,596.66-20.16,893.35-54.76,244.44-28.51,488.87-57.01,733.31-85.52"/>
    </g>
    <g id="Tracks">
      <g>
        <rect class="cls-6" x="103.39" y="770.04" width="78.3" height="12"/>
        <line class="cls-3" x1="103.39" y1="770.49" x2="181.69" y2="770.49"/>
        <line class="cls-4" x1="103.39" y1="782.49" x2="181.69" y2="782.49"/>
        <path class="cls-4" d="M151.67,786.96h-18.28c-.69,0-1.13-.65-.98-1.44l1.17-6.43c.11-.6.67-1.07,1.24-1.07h15.41c.58,0,1.14.47,1.24,1.07l1.17,6.43c.14.79-.3,1.44-.98,1.44Z"/>
        <path class="cls-7" d="M143.52,776.08h-.42v-.28h-1.14v.28h-.42c-.13,0-.24.11-.24.24v1.09c0,.13.11.24.24.24h1.98c.13,0,.24-.11.24-.24v-1.09c0-.13-.11-.24-.24-.24Z"/>
      </g>
      <g>
        <rect class="cls-6" x="181.69" y="770.04" width="78.3" height="12"/>
        <line class="cls-3" x1="181.69" y1="770.49" x2="259.99" y2="770.49"/>
        <line class="cls-4" x1="181.69" y1="782.49" x2="259.99" y2="782.49"/>
        <path class="cls-4" d="M229.97,786.96h-18.28c-.69,0-1.13-.65-.98-1.44l1.17-6.43c.11-.6.67-1.07,1.24-1.07h15.41c.58,0,1.14.47,1.24,1.07l1.17,6.43c.14.79-.3,1.44-.98,1.44Z"/>
        <path class="cls-7" d="M221.82,776.08h-.42v-.28h-1.14v.28h-.42c-.13,0-.24.11-.24.24v1.09c0,.13.11.24.24.24h1.98c.13,0,.24-.11.24-.24v-1.09c0-.13-.11-.24-.24-.24Z"/>
      </g>
      <g>
        <rect class="cls-6" x="259.99" y="770.04" width="78.3" height="12"/>
        <line class="cls-3" x1="259.99" y1="770.49" x2="338.29" y2="770.49"/>
        <line class="cls-4" x1="259.99" y1="782.49" x2="338.29" y2="782.49"/>
        <path class="cls-4" d="M308.27,786.96h-18.28c-.69,0-1.13-.65-.98-1.44l1.17-6.43c.11-.6.67-1.07,1.24-1.07h15.41c.58,0,1.14.47,1.24,1.07l1.17,6.43c.14.79-.3,1.44-.98,1.44Z"/>
        <path class="cls-7" d="M300.12,776.08h-.42v-.28h-1.14v.28h-.42c-.13,0-.24.11-.24.24v1.09c0,.13.11.24.24.24h1.98c.13,0,.24-.11.24-.24v-1.09c0-.13-.11-.24-.24-.24Z"/>
      </g>
      <g>
        <rect class="cls-6" x="338.29" y="770.04" width="78.3" height="12"/>
        <line class="cls-3" x1="338.29" y1="770.49" x2="416.59" y2="770.49"/>
        <line class="cls-4" x1="338.29" y1="782.49" x2="416.59" y2="782.49"/>
        <path class="cls-4" d="M386.57,786.96h-18.28c-.69,0-1.13-.65-.98-1.44l1.17-6.43c.11-.6.67-1.07,1.24-1.07h15.41c.58,0,1.14.47,1.24,1.07l1.17,6.43c.14.79-.3,1.44-.98,1.44Z"/>
        <path class="cls-7" d="M378.42,776.08h-.42v-.28h-1.14v.28h-.42c-.13,0-.24.11-.24.24v1.09c0,.13.11.24.24.24h1.98c.13,0,.24-.11.24-.24v-1.09c0-.13-.11-.24-.24-.24Z"/>
      </g>
      <g>
        <rect class="cls-6" x="416.59" y="770.04" width="78.3" height="12"/>
        <line class="cls-3" x1="416.59" y1="770.49" x2="494.89" y2="770.49"/>
        <line class="cls-4" x1="416.59" y1="782.49" x2="494.89" y2="782.49"/>
        <path class="cls-4" d="M464.87,786.96h-18.28c-.69,0-1.13-.65-.98-1.44l1.17-6.43c.11-.6.67-1.07,1.24-1.07h15.41c.58,0,1.14.47,1.24,1.07l1.17,6.43c.14.79-.3,1.44-.98,1.44Z"/>
        <path class="cls-7" d="M456.72,776.08h-.42v-.28h-1.14v.28h-.42c-.13,0-.24.11-.24.24v1.09c0,.13.11.24.24.24h1.98c.13,0,.24-.11.24-.24v-1.09c0-.13-.11-.24-.24-.24Z"/>
      </g>
      <g>
        <rect class="cls-6" x="494.89" y="770.04" width="78.3" height="12"/>
        <line class="cls-3" x1="494.89" y1="770.49" x2="573.19" y2="770.49"/>
        <line class="cls-4" x1="494.89" y1="782.49" x2="573.19" y2="782.49"/>
        <path class="cls-4" d="M543.18,786.96h-18.28c-.69,0-1.13-.65-.98-1.44l1.17-6.43c.11-.6.67-1.07,1.24-1.07h15.41c.58,0,1.14.47,1.24,1.07l1.17,6.43c.14.79-.3,1.44-.98,1.44Z"/>
        <path class="cls-7" d="M535.02,776.08h-.42v-.28h-1.14v.28h-.42c-.13,0-.24.11-.24.24v1.09c0,.13.11.24.24.24h1.98c.13,0,.24-.11.24-.24v-1.09c0-.13-.11-.24-.24-.24Z"/>
      </g>
      <g>
        <rect class="cls-6" x="573.19" y="770.04" width="78.3" height="12"/>
        <line class="cls-3" x1="573.19" y1="770.49" x2="651.49" y2="770.49"/>
        <line class="cls-4" x1="573.19" y1="782.49" x2="651.49" y2="782.49"/>
        <path class="cls-4" d="M621.48,786.96h-18.28c-.69,0-1.13-.65-.98-1.44l1.17-6.43c.11-.6.67-1.07,1.24-1.07h15.41c.58,0,1.14.47,1.24,1.07l1.17,6.43c.14.79-.3,1.44-.98,1.44Z"/>
        <path class="cls-7" d="M613.32,776.08h-.42v-.28h-1.14v.28h-.42c-.13,0-.24.11-.24.24v1.09c0,.13.11.24.24.24h1.98c.13,0,.24-.11.24-.24v-1.09c0-.13-.11-.24-.24-.24Z"/>
      </g>
      <g>
        <rect class="cls-6" x="651.49" y="770.04" width="78.3" height="12"/>
        <line class="cls-3" x1="651.49" y1="770.49" x2="729.79" y2="770.49"/>
        <line class="cls-4" x1="651.49" y1="782.49" x2="729.79" y2="782.49"/>
        <path class="cls-4" d="M699.78,786.96h-18.28c-.69,0-1.13-.65-.98-1.44l1.17-6.43c.11-.6.67-1.07,1.24-1.07h15.41c.58,0,1.14.47,1.24,1.07l1.17,6.43c.14.79-.3,1.44-.98,1.44Z"/>
        <path class="cls-7" d="M691.62,776.08h-.42v-.28h-1.14v.28h-.42c-.13,0-.24.11-.24.24v1.09c0,.13.11.24.24.24h1.98c.13,0,.24-.11.24-.24v-1.09c0-.13-.11-.24-.24-.24Z"/>
      </g>
      <g>
        <rect class="cls-6" x="729.79" y="770.04" width="78.3" height="12"/>
        <line class="cls-3" x1="729.79" y1="770.49" x2="808.09" y2="770.49"/>
        <line class="cls-4" x1="729.79" y1="782.49" x2="808.09" y2="782.49"/>
        <path class="cls-4" d="M778.08,786.96h-18.28c-.69,0-1.13-.65-.98-1.44l1.17-6.43c.11-.6.67-1.07,1.24-1.07h15.41c.58,0,1.14.47,1.24,1.07l1.17,6.43c.14.79-.3,1.44-.98,1.44Z"/>
        <path class="cls-7" d="M769.92,776.08h-.42v-.28h-1.14v.28h-.42c-.13,0-.24.11-.24.24v1.09c0,.13.11.24.24.24h1.98c.13,0,.24-.11.24-.24v-1.09c0-.13-.11-.24-.24-.24Z"/>
      </g>
      <g>
        <rect class="cls-6" x="808.09" y="770.04" width="78.3" height="12"/>
        <line class="cls-3" x1="808.09" y1="770.49" x2="886.39" y2="770.49"/>
        <line class="cls-4" x1="808.09" y1="782.49" x2="886.39" y2="782.49"/>
        <path class="cls-4" d="M856.38,786.96h-18.28c-.69,0-1.13-.65-.98-1.44l1.17-6.43c.11-.6.67-1.07,1.24-1.07h15.41c.58,0,1.14.47,1.24,1.07l1.17,6.43c.14.79-.3,1.44-.98,1.44Z"/>
        <path class="cls-7" d="M848.23,776.08h-.42v-.28h-1.14v.28h-.42c-.13,0-.24.11-.24.24v1.09c0,.13.11.24.24.24h1.98c.13,0,.24-.11.24-.24v-1.09c0-.13-.11-.24-.24-.24Z"/>
      </g>
      <g>
        <rect class="cls-6" x="886.39" y="770.04" width="78.3" height="12"/>
        <line class="cls-3" x1="886.39" y1="770.49" x2="964.69" y2="770.49"/>
        <line class="cls-4" x1="886.39" y1="782.49" x2="964.69" y2="782.49"/>
        <path class="cls-4" d="M934.68,786.96h-18.28c-.69,0-1.13-.65-.98-1.44l1.17-6.43c.11-.6.67-1.07,1.24-1.07h15.41c.58,0,1.14.47,1.24,1.07l1.17,6.43c.14.79-.3,1.44-.98,1.44Z"/>
        <path class="cls-7" d="M926.53,776.08h-.42v-.28h-1.14v.28h-.42c-.13,0-.24.11-.24.24v1.09c0,.13.11.24.24.24h1.98c.13,0,.24-.11.24-.24v-1.09c0-.13-.11-.24-.24-.24Z"/>
      </g>
      <g>
        <rect class="cls-6" x="964.69" y="770.04" width="78.3" height="12"/>
        <line class="cls-3" x1="964.69" y1="770.49" x2="1042.99" y2="770.49"/>
        <line class="cls-4" x1="964.69" y1="782.49" x2="1042.99" y2="782.49"/>
        <path class="cls-4" d="M1012.98,786.96h-18.28c-.69,0-1.13-.65-.98-1.44l1.17-6.43c.11-.6.67-1.07,1.24-1.07h15.41c.58,0,1.14.47,1.24,1.07l1.17,6.43c.14.79-.3,1.44-.98,1.44Z"/>
        <path class="cls-7" d="M1004.83,776.08h-.42v-.28h-1.14v.28h-.42c-.13,0-.24.11-.24.24v1.09c0,.13.11.24.24.24h1.98c.13,0,.24-.11.24-.24v-1.09c0-.13-.11-.24-.24-.24Z"/>
      </g>
      <g>
        <rect class="cls-6" x="1042.99" y="770.04" width="78.3" height="12"/>
        <line class="cls-3" x1="1042.99" y1="770.49" x2="1121.29" y2="770.49"/>
        <line class="cls-4" x1="1042.99" y1="782.49" x2="1121.29" y2="782.49"/>
        <path class="cls-4" d="M1091.28,786.96h-18.28c-.69,0-1.13-.65-.98-1.44l1.17-6.43c.11-.6.67-1.07,1.24-1.07h15.41c.58,0,1.14.47,1.24,1.07l1.17,6.43c.14.79-.3,1.44-.98,1.44Z"/>
        <path class="cls-7" d="M1083.13,776.08h-.42v-.28h-1.14v.28h-.42c-.13,0-.24.11-.24.24v1.09c0,.13.11.24.24.24h1.98c.13,0,.24-.11.24-.24v-1.09c0-.13-.11-.24-.24-.24Z"/>
      </g>
      <g>
        <rect class="cls-6" x="1121.29" y="770.04" width="78.3" height="12"/>
        <line class="cls-3" x1="1121.29" y1="770.49" x2="1199.59" y2="770.49"/>
        <line class="cls-4" x1="1121.29" y1="782.49" x2="1199.59" y2="782.49"/>
        <path class="cls-4" d="M1169.58,786.96h-18.28c-.69,0-1.13-.65-.98-1.44l1.17-6.43c.11-.6.67-1.07,1.24-1.07h15.41c.58,0,1.14.47,1.24,1.07l1.17,6.43c.14.79-.3,1.44-.98,1.44Z"/>
        <path class="cls-7" d="M1161.43,776.08h-.42v-.28h-1.14v.28h-.42c-.13,0-.24.11-.24.24v1.09c0,.13.11.24.24.24h1.98c.13,0,.24-.11.24-.24v-1.09c0-.13-.11-.24-.24-.24Z"/>
      </g>
      <g>
        <rect class="cls-6" x="1199.59" y="770.04" width="78.3" height="12"/>
        <line class="cls-3" x1="1199.59" y1="770.49" x2="1277.89" y2="770.49"/>
        <line class="cls-4" x1="1199.59" y1="782.49" x2="1277.89" y2="782.49"/>
        <path class="cls-4" d="M1247.88,786.96h-18.28c-.69,0-1.13-.65-.98-1.44l1.17-6.43c.11-.6.67-1.07,1.24-1.07h15.41c.58,0,1.14.47,1.24,1.07l1.17,6.43c.14.79-.3,1.44-.98,1.44Z"/>
        <path class="cls-7" d="M1239.73,776.08h-.42v-.28h-1.14v.28h-.42c-.13,0-.24.11-.24.24v1.09c0,.13.11.24.24.24h1.98c.13,0,.24-.11.24-.24v-1.09c0-.13-.11-.24-.24-.24Z"/>
      </g>
      <g>
        <rect class="cls-6" x="1277.89" y="770.04" width="78.3" height="12"/>
        <line class="cls-3" x1="1277.89" y1="770.49" x2="1356.19" y2="770.49"/>
        <line class="cls-4" x1="1277.89" y1="782.49" x2="1356.19" y2="782.49"/>
        <path class="cls-4" d="M1326.18,786.96h-18.28c-.69,0-1.13-.65-.98-1.44l1.17-6.43c.11-.6.67-1.07,1.24-1.07h15.41c.58,0,1.14.47,1.24,1.07l1.17,6.43c.14.79-.3,1.44-.98,1.44Z"/>
        <path class="cls-7" d="M1318.03,776.08h-.42v-.28h-1.14v.28h-.42c-.13,0-.24.11-.24.24v1.09c0,.13.11.24.24.24h1.98c.13,0,.24-.11.24-.24v-1.09c0-.13-.11-.24-.24-.24Z"/>
      </g>
      <g>
        <rect class="cls-6" x="1356.19" y="770.04" width="78.3" height="12"/>
        <line class="cls-3" x1="1356.19" y1="770.49" x2="1434.49" y2="770.49"/>
        <line class="cls-4" x1="1356.19" y1="782.49" x2="1434.49" y2="782.49"/>
        <path class="cls-4" d="M1404.48,786.96h-18.28c-.69,0-1.13-.65-.98-1.44l1.17-6.43c.11-.6.67-1.07,1.24-1.07h15.41c.58,0,1.14.47,1.24,1.07l1.17,6.43c.14.79-.3,1.44-.98,1.44Z"/>
        <path class="cls-7" d="M1396.33,776.08h-.42v-.28h-1.14v.28h-.42c-.13,0-.24.11-.24.24v1.09c0,.13.11.24.24.24h1.98c.13,0,.24-.11.24-.24v-1.09c0-.13-.11-.24-.24-.24Z"/>
      </g>
      <g>
        <rect class="cls-6" x="1434.49" y="770.04" width="78.3" height="12"/>
        <line class="cls-3" x1="1434.49" y1="770.49" x2="1512.79" y2="770.49"/>
        <line class="cls-4" x1="1434.49" y1="782.49" x2="1512.79" y2="782.49"/>
        <path class="cls-4" d="M1482.78,786.96h-18.28c-.69,0-1.13-.65-.98-1.44l1.17-6.43c.11-.6.67-1.07,1.24-1.07h15.41c.58,0,1.14.47,1.24,1.07l1.17,6.43c.14.79-.3,1.44-.98,1.44Z"/>
        <path class="cls-7" d="M1474.63,776.08h-.42v-.28h-1.14v.28h-.42c-.13,0-.24.11-.24.24v1.09c0,.13.11.24.24.24h1.98c.13,0,.24-.11.24-.24v-1.09c0-.13-.11-.24-.24-.24Z"/>
      </g>
      <g>
        <rect class="cls-6" x="1512.79" y="770.04" width="78.3" height="12"/>
        <line class="cls-3" x1="1512.79" y1="770.49" x2="1591.09" y2="770.49"/>
        <line class="cls-4" x1="1512.79" y1="782.49" x2="1591.09" y2="782.49"/>
        <path class="cls-4" d="M1561.08,786.96h-18.28c-.69,0-1.13-.65-.98-1.44l1.17-6.43c.11-.6.67-1.07,1.24-1.07h15.41c.58,0,1.14.47,1.24,1.07l1.17,6.43c.14.79-.3,1.44-.98,1.44Z"/>
        <path class="cls-7" d="M1552.93,776.08h-.42v-.28h-1.14v.28h-.42c-.13,0-.24.11-.24.24v1.09c0,.13.11.24.24.24h1.98c.13,0,.24-.11.24-.24v-1.09c0-.13-.11-.24-.24-.24Z"/>
      </g>
      <g>
        <rect class="cls-6" x="1591.09" y="770.04" width="78.3" height="12"/>
        <line class="cls-3" x1="1591.09" y1="770.49" x2="1669.39" y2="770.49"/>
        <line class="cls-4" x1="1591.09" y1="782.49" x2="1669.39" y2="782.49"/>
        <path class="cls-4" d="M1639.38,786.96h-18.28c-.69,0-1.13-.65-.98-1.44l1.17-6.43c.11-.6.67-1.07,1.24-1.07h15.41c.58,0,1.14.47,1.24,1.07l1.17,6.43c.14.79-.3,1.44-.98,1.44Z"/>
        <path class="cls-7" d="M1631.23,776.08h-.42v-.28h-1.14v.28h-.42c-.13,0-.24.11-.24.24v1.09c0,.13.11.24.24.24h1.98c.13,0,.24-.11.24-.24v-1.09c0-.13-.11-.24-.24-.24Z"/>
      </g>
      <g>
        <rect class="cls-6" x="1669.39" y="770.04" width="78.3" height="12"/>
        <line class="cls-3" x1="1669.39" y1="770.49" x2="1747.69" y2="770.49"/>
        <line class="cls-4" x1="1669.39" y1="782.49" x2="1747.69" y2="782.49"/>
        <path class="cls-4" d="M1717.68,786.96h-18.28c-.69,0-1.13-.65-.98-1.44l1.17-6.43c.11-.6.67-1.07,1.24-1.07h15.41c.58,0,1.14.47,1.24,1.07l1.17,6.43c.14.79-.3,1.44-.98,1.44Z"/>
        <path class="cls-7" d="M1709.53,776.08h-.42v-.28h-1.14v.28h-.42c-.13,0-.24.11-.24.24v1.09c0,.13.11.24.24.24h1.98c.13,0,.24-.11.24-.24v-1.09c0-.13-.11-.24-.24-.24Z"/>
      </g>
      <g>
        <rect class="cls-6" x="1747.69" y="770.04" width="78.3" height="12"/>
        <line class="cls-3" x1="1747.69" y1="770.49" x2="1825.99" y2="770.49"/>
        <line class="cls-4" x1="1747.69" y1="782.49" x2="1825.99" y2="782.49"/>
        <path class="cls-4" d="M1795.98,786.96h-18.28c-.69,0-1.13-.65-.98-1.44l1.17-6.43c.11-.6.67-1.07,1.24-1.07h15.41c.58,0,1.14.47,1.24,1.07l1.17,6.43c.14.79-.3,1.44-.98,1.44Z"/>
        <path class="cls-7" d="M1787.83,776.08h-.42v-.28h-1.14v.28h-.42c-.13,0-.24.11-.24.24v1.09c0,.13.11.24.24.24h1.98c.13,0,.24-.11.24-.24v-1.09c0-.13-.11-.24-.24-.24Z"/>
      </g>
      <g>
        <rect class="cls-6" x="1825.99" y="770.04" width="78.3" height="12"/>
        <line class="cls-3" x1="1825.99" y1="770.49" x2="1904.29" y2="770.49"/>
        <line class="cls-4" x1="1825.99" y1="782.49" x2="1904.29" y2="782.49"/>
        <path class="cls-4" d="M1874.28,786.96h-18.28c-.69,0-1.13-.65-.98-1.44l1.17-6.43c.11-.6.67-1.07,1.24-1.07h15.41c.58,0,1.14.47,1.24,1.07l1.17,6.43c.14.79-.3,1.44-.98,1.44Z"/>
        <path class="cls-7" d="M1866.13,776.08h-.42v-.28h-1.14v.28h-.42c-.13,0-.24.11-.24.24v1.09c0,.13.11.24.24.24h1.98c.13,0,.24-.11.24-.24v-1.09c0-.13-.11-.24-.24-.24Z"/>
      </g>
      <g>
        <rect class="cls-6" x="1904.29" y="770.04" width="78.3" height="12"/>
        <line class="cls-3" x1="1904.29" y1="770.49" x2="1982.59" y2="770.49"/>
        <line class="cls-4" x1="1904.29" y1="782.49" x2="1982.59" y2="782.49"/>
        <path class="cls-4" d="M1952.58,786.96h-18.28c-.69,0-1.13-.65-.98-1.44l1.17-6.43c.11-.6.67-1.07,1.24-1.07h15.41c.58,0,1.14.47,1.24,1.07l1.17,6.43c.14.79-.3,1.44-.98,1.44Z"/>
        <path class="cls-7" d="M1944.43,776.08h-.42v-.28h-1.14v.28h-.42c-.13,0-.24.11-.24.24v1.09c0,.13.11.24.24.24h1.98c.13,0,.24-.11.24-.24v-1.09c0-.13-.11-.24-.24-.24Z"/>
      </g>
      <g>
        <rect class="cls-6" x="1982.59" y="770.04" width="78.3" height="12"/>
        <line class="cls-3" x1="1982.59" y1="770.49" x2="2060.89" y2="770.49"/>
        <line class="cls-4" x1="1982.59" y1="782.49" x2="2060.89" y2="782.49"/>
        <path class="cls-4" d="M2030.88,786.96h-18.28c-.69,0-1.13-.65-.98-1.44l1.17-6.43c.11-.6.67-1.07,1.24-1.07h15.41c.58,0,1.14.47,1.24,1.07l1.17,6.43c.14.79-.3,1.44-.98,1.44Z"/>
        <path class="cls-7" d="M2022.73,776.08h-.42v-.28h-1.14v.28h-.42c-.13,0-.24.11-.24.24v1.09c0,.13.11.24.24.24h1.98c.13,0,.24-.11.24-.24v-1.09c0-.13-.11-.24-.24-.24Z"/>
      </g>
      <g>
        <rect class="cls-6" x="2060.89" y="770.04" width="78.3" height="12"/>
        <line class="cls-3" x1="2060.89" y1="770.49" x2="2139.19" y2="770.49"/>
        <line class="cls-4" x1="2060.89" y1="782.49" x2="2139.19" y2="782.49"/>
        <path class="cls-4" d="M2109.18,786.96h-18.28c-.69,0-1.13-.65-.98-1.44l1.17-6.43c.11-.6.67-1.07,1.24-1.07h15.41c.58,0,1.14.47,1.24,1.07l1.17,6.43c.14.79-.3,1.44-.98,1.44Z"/>
        <path class="cls-7" d="M2101.03,776.08h-.42v-.28h-1.14v.28h-.42c-.13,0-.24.11-.24.24v1.09c0,.13.11.24.24.24h1.98c.13,0,.24-.11.24-.24v-1.09c0-.13-.11-.24-.24-.24Z"/>
      </g>
      <g>
        <rect class="cls-6" x="2139.19" y="770.04" width="78.3" height="12"/>
        <line class="cls-3" x1="2139.19" y1="770.49" x2="2217.49" y2="770.49"/>
        <line class="cls-4" x1="2139.19" y1="782.49" x2="2217.49" y2="782.49"/>
        <path class="cls-4" d="M2187.48,786.96h-18.28c-.69,0-1.13-.65-.98-1.44l1.17-6.43c.11-.6.67-1.07,1.24-1.07h15.41c.58,0,1.14.47,1.24,1.07l1.17,6.43c.14.79-.3,1.44-.98,1.44Z"/>
        <path class="cls-7" d="M2179.33,776.08h-.42v-.28h-1.14v.28h-.42c-.13,0-.24.11-.24.24v1.09c0,.13.11.24.24.24h1.98c.13,0,.24-.11.24-.24v-1.09c0-.13-.11-.24-.24-.24Z"/>
      </g>
      <g>
        <rect class="cls-6" x="2217.49" y="770.04" width="78.3" height="12"/>
        <line class="cls-3" x1="2217.49" y1="770.49" x2="2295.79" y2="770.49"/>
        <line class="cls-4" x1="2217.49" y1="782.49" x2="2295.79" y2="782.49"/>
        <path class="cls-4" d="M2265.78,786.96h-18.28c-.69,0-1.13-.65-.98-1.44l1.17-6.43c.11-.6.67-1.07,1.24-1.07h15.41c.58,0,1.14.47,1.24,1.07l1.17,6.43c.14.79-.3,1.44-.98,1.44Z"/>
        <path class="cls-7" d="M2257.63,776.08h-.42v-.28h-1.14v.28h-.42c-.13,0-.24.11-.24.24v1.09c0,.13.11.24.24.24h1.98c.13,0,.24-.11.24-.24v-1.09c0-.13-.11-.24-.24-.24Z"/>
      </g>
      <g>
        <rect class="cls-6" x="2295.79" y="770.04" width="78.3" height="12"/>
        <line class="cls-3" x1="2295.79" y1="770.49" x2="2374.09" y2="770.49"/>
        <line class="cls-4" x1="2295.79" y1="782.49" x2="2374.09" y2="782.49"/>
        <path class="cls-4" d="M2344.08,786.96h-18.28c-.69,0-1.13-.65-.98-1.44l1.17-6.43c.11-.6.67-1.07,1.24-1.07h15.41c.58,0,1.14.47,1.24,1.07l1.17,6.43c.14.79-.3,1.44-.98,1.44Z"/>
        <path class="cls-7" d="M2335.93,776.08h-.42v-.28h-1.14v.28h-.42c-.13,0-.24.11-.24.24v1.09c0,.13.11.24.24.24h1.98c.13,0,.24-.11.24-.24v-1.09c0-.13-.11-.24-.24-.24Z"/>
      </g>
      <g>
        <rect class="cls-6" x="2374.09" y="770.04" width="78.3" height="12"/>
        <line class="cls-3" x1="2374.09" y1="770.49" x2="2452.39" y2="770.49"/>
        <line class="cls-4" x1="2374.09" y1="782.49" x2="2452.39" y2="782.49"/>
        <path class="cls-4" d="M2422.38,786.96h-18.28c-.69,0-1.13-.65-.98-1.44l1.17-6.43c.11-.6.67-1.07,1.24-1.07h15.41c.58,0,1.14.47,1.24,1.07l1.17,6.43c.14.79-.3,1.44-.98,1.44Z"/>
        <path class="cls-7" d="M2414.23,776.08h-.42v-.28h-1.14v.28h-.42c-.13,0-.24.11-.24.24v1.09c0,.13.11.24.24.24h1.98c.13,0,.24-.11.24-.24v-1.09c0-.13-.11-.24-.24-.24Z"/>
      </g>
      <g>
        <rect class="cls-6" x="2452.39" y="770.04" width="78.3" height="12"/>
        <line class="cls-3" x1="2452.39" y1="770.49" x2="2530.69" y2="770.49"/>
        <line class="cls-4" x1="2452.39" y1="782.49" x2="2530.69" y2="782.49"/>
        <path class="cls-4" d="M2500.68,786.96h-18.28c-.69,0-1.13-.65-.98-1.44l1.17-6.43c.11-.6.67-1.07,1.24-1.07h15.41c.58,0,1.14.47,1.24,1.07l1.17,6.43c.14.79-.3,1.44-.98,1.44Z"/>
        <path class="cls-7" d="M2492.53,776.08h-.42v-.28h-1.14v.28h-.42c-.13,0-.24.11-.24.24v1.09c0,.13.11.24.24.24h1.98c.13,0,.24-.11.24-.24v-1.09c0-.13-.11-.24-.24-.24Z"/>
      </g>
      <g>
        <rect class="cls-6" x="2530.69" y="770.04" width="78.3" height="12"/>
        <line class="cls-3" x1="2530.69" y1="770.49" x2="2608.99" y2="770.49"/>
        <line class="cls-4" x1="2530.69" y1="782.49" x2="2608.99" y2="782.49"/>
        <path class="cls-4" d="M2578.98,786.96h-18.28c-.69,0-1.13-.65-.98-1.44l1.17-6.43c.11-.6.67-1.07,1.24-1.07h15.41c.58,0,1.14.47,1.24,1.07l1.17,6.43c.14.79-.3,1.44-.98,1.44Z"/>
        <path class="cls-7" d="M2570.83,776.08h-.42v-.28h-1.14v.28h-.42c-.13,0-.24.11-.24.24v1.09c0,.13.11.24.24.24h1.98c.13,0,.24-.11.24-.24v-1.09c0-.13-.11-.24-.24-.24Z"/>
      </g>
      <g>
        <rect class="cls-6" x="2608.99" y="770.04" width="78.3" height="12"/>
        <line class="cls-3" x1="2608.99" y1="770.49" x2="2687.29" y2="770.49"/>
        <line class="cls-4" x1="2608.99" y1="782.49" x2="2687.29" y2="782.49"/>
        <path class="cls-4" d="M2657.28,786.96h-18.28c-.69,0-1.13-.65-.98-1.44l1.17-6.43c.11-.6.67-1.07,1.24-1.07h15.41c.58,0,1.14.47,1.24,1.07l1.17,6.43c.14.79-.3,1.44-.98,1.44Z"/>
        <path class="cls-7" d="M2649.13,776.08h-.42v-.28h-1.14v.28h-.42c-.13,0-.24.11-.24.24v1.09c0,.13.11.24.24.24h1.98c.13,0,.24-.11.24-.24v-1.09c0-.13-.11-.24-.24-.24Z"/>
      </g>
      <g>
        <rect class="cls-6" x="2687.29" y="770.04" width="78.3" height="12"/>
        <line class="cls-3" x1="2687.29" y1="770.49" x2="2765.59" y2="770.49"/>
        <line class="cls-4" x1="2687.29" y1="782.49" x2="2765.59" y2="782.49"/>
        <path class="cls-4" d="M2735.58,786.96h-18.28c-.69,0-1.13-.65-.98-1.44l1.17-6.43c.11-.6.67-1.07,1.24-1.07h15.41c.58,0,1.14.47,1.24,1.07l1.17,6.43c.14.79-.3,1.44-.98,1.44Z"/>
        <path class="cls-7" d="M2727.43,776.08h-.42v-.28h-1.14v.28h-.42c-.13,0-.24.11-.24.24v1.09c0,.13.11.24.24.24h1.98c.13,0,.24-.11.24-.24v-1.09c0-.13-.11-.24-.24-.24Z"/>
      </g>
      <g>
        <rect class="cls-6" x="2765.59" y="770.04" width="78.3" height="12"/>
        <line class="cls-3" x1="2765.59" y1="770.49" x2="2843.89" y2="770.49"/>
        <line class="cls-4" x1="2765.59" y1="782.49" x2="2843.89" y2="782.49"/>
        <path class="cls-4" d="M2813.88,786.96h-18.28c-.69,0-1.13-.65-.98-1.44l1.17-6.43c.11-.6.67-1.07,1.24-1.07h15.41c.58,0,1.14.47,1.24,1.07l1.17,6.43c.14.79-.3,1.44-.98,1.44Z"/>
        <path class="cls-7" d="M2805.73,776.08h-.42v-.28h-1.14v.28h-.42c-.13,0-.24.11-.24.24v1.09c0,.13.11.24.24.24h1.98c.13,0,.24-.11.24-.24v-1.09c0-.13-.11-.24-.24-.24Z"/>
      </g>
      <g>
        <rect class="cls-6" x="2843.89" y="770.04" width="78.3" height="12"/>
        <line class="cls-3" x1="2843.89" y1="770.49" x2="2922.19" y2="770.49"/>
        <line class="cls-4" x1="2843.89" y1="782.49" x2="2922.19" y2="782.49"/>
        <path class="cls-4" d="M2892.18,786.96h-18.28c-.69,0-1.13-.65-.98-1.44l1.17-6.43c.11-.6.67-1.07,1.24-1.07h15.41c.58,0,1.14.47,1.24,1.07l1.17,6.43c.14.79-.3,1.44-.98,1.44Z"/>
        <path class="cls-7" d="M2884.03,776.08h-.42v-.28h-1.14v.28h-.42c-.13,0-.24.11-.24.24v1.09c0,.13.11.24.24.24h1.98c.13,0,.24-.11.24-.24v-1.09c0-.13-.11-.24-.24-.24Z"/>
      </g>
      <g>
        <rect class="cls-6" x="2922.19" y="770.04" width="78.3" height="12"/>
        <line class="cls-3" x1="2922.19" y1="770.49" x2="3000.49" y2="770.49"/>
        <line class="cls-4" x1="2922.19" y1="782.49" x2="3000.49" y2="782.49"/>
        <path class="cls-4" d="M2970.48,786.96h-18.28c-.69,0-1.13-.65-.98-1.44l1.17-6.43c.11-.6.67-1.07,1.24-1.07h15.41c.58,0,1.14.47,1.24,1.07l1.17,6.43c.14.79-.3,1.44-.98,1.44Z"/>
        <path class="cls-7" d="M2962.33,776.08h-.42v-.28h-1.14v.28h-.42c-.13,0-.24.11-.24.24v1.09c0,.13.11.24.24.24h1.98c.13,0,.24-.11.24-.24v-1.09c0-.13-.11-.24-.24-.24Z"/>
      </g>
      <g>
        <rect class="cls-6" x="3000.49" y="770.04" width="78.3" height="12"/>
        <line class="cls-3" x1="3000.49" y1="770.49" x2="3078.79" y2="770.49"/>
        <line class="cls-4" x1="3000.49" y1="782.49" x2="3078.79" y2="782.49"/>
        <path class="cls-4" d="M3048.78,786.96h-18.28c-.69,0-1.13-.65-.98-1.44l1.17-6.43c.11-.6.67-1.07,1.24-1.07h15.41c.58,0,1.14.47,1.24,1.07l1.17,6.43c.14.79-.3,1.44-.98,1.44Z"/>
        <path class="cls-7" d="M3040.63,776.08h-.42v-.28h-1.14v.28h-.42c-.13,0-.24.11-.24.24v1.09c0,.13.11.24.24.24h1.98c.13,0,.24-.11.24-.24v-1.09c0-.13-.11-.24-.24-.24Z"/>
      </g>
      <g>
        <rect class="cls-6" x="3078.79" y="770.04" width="78.3" height="12"/>
        <line class="cls-3" x1="3078.79" y1="770.49" x2="3157.09" y2="770.49"/>
        <line class="cls-4" x1="3078.79" y1="782.49" x2="3157.09" y2="782.49"/>
        <path class="cls-4" d="M3127.08,786.96h-18.28c-.69,0-1.13-.65-.98-1.44l1.17-6.43c.11-.6.67-1.07,1.24-1.07h15.41c.58,0,1.14.47,1.24,1.07l1.17,6.43c.14.79-.3,1.44-.98,1.44Z"/>
        <path class="cls-7" d="M3118.93,776.08h-.42v-.28h-1.14v.28h-.42c-.13,0-.24.11-.24.24v1.09c0,.13.11.24.24.24h1.98c.13,0,.24-.11.24-.24v-1.09c0-.13-.11-.24-.24-.24Z"/>
      </g>
      <g>
        <rect class="cls-6" x="3157.09" y="770.04" width="78.3" height="12"/>
        <line class="cls-3" x1="3157.09" y1="770.49" x2="3235.39" y2="770.49"/>
        <line class="cls-4" x1="3157.09" y1="782.49" x2="3235.39" y2="782.49"/>
        <path class="cls-4" d="M3205.38,786.96h-18.28c-.69,0-1.13-.65-.98-1.44l1.17-6.43c.11-.6.67-1.07,1.24-1.07h15.41c.58,0,1.14.47,1.24,1.07l1.17,6.43c.14.79-.3,1.44-.98,1.44Z"/>
        <path class="cls-7" d="M3197.23,776.08h-.42v-.28h-1.14v.28h-.42c-.13,0-.24.11-.24.24v1.09c0,.13.11.24.24.24h1.98c.13,0,.24-.11.24-.24v-1.09c0-.13-.11-.24-.24-.24Z"/>
      </g>
      <g>
        <rect class="cls-6" x="3235.39" y="770.04" width="78.3" height="12"/>
        <line class="cls-3" x1="3235.39" y1="770.49" x2="3313.69" y2="770.49"/>
        <line class="cls-4" x1="3235.39" y1="782.49" x2="3313.69" y2="782.49"/>
        <path class="cls-4" d="M3283.68,786.96h-18.28c-.69,0-1.13-.65-.98-1.44l1.17-6.43c.11-.6.67-1.07,1.24-1.07h15.41c.58,0,1.14.47,1.24,1.07l1.17,6.43c.14.79-.3,1.44-.98,1.44Z"/>
        <path class="cls-7" d="M3275.53,776.08h-.42v-.28h-1.14v.28h-.42c-.13,0-.24.11-.24.24v1.09c0,.13.11.24.24.24h1.98c.13,0,.24-.11.24-.24v-1.09c0-.13-.11-.24-.24-.24Z"/>
      </g>
      <g>
        <rect class="cls-6" x="3313.69" y="770.04" width="78.3" height="12"/>
        <line class="cls-3" x1="3313.69" y1="770.49" x2="3391.99" y2="770.49"/>
        <line class="cls-4" x1="3313.69" y1="782.49" x2="3391.99" y2="782.49"/>
        <path class="cls-4" d="M3361.98,786.96h-18.28c-.69,0-1.13-.65-.98-1.44l1.17-6.43c.11-.6.67-1.07,1.24-1.07h15.41c.58,0,1.14.47,1.24,1.07l1.17,6.43c.14.79-.3,1.44-.98,1.44Z"/>
        <path class="cls-7" d="M3353.83,776.08h-.42v-.28h-1.14v.28h-.42c-.13,0-.24.11-.24.24v1.09c0,.13.11.24.24.24h1.98c.13,0,.24-.11.24-.24v-1.09c0-.13-.11-.24-.24-.24Z"/>
      </g>
      <g>
        <rect class="cls-6" x="3391.99" y="770.04" width="78.3" height="12"/>
        <line class="cls-3" x1="3391.99" y1="770.49" x2="3470.29" y2="770.49"/>
        <line class="cls-4" x1="3391.99" y1="782.49" x2="3470.29" y2="782.49"/>
        <path class="cls-4" d="M3440.28,786.96h-18.28c-.69,0-1.13-.65-.98-1.44l1.17-6.43c.11-.6.67-1.07,1.24-1.07h15.41c.58,0,1.14.47,1.24,1.07l1.17,6.43c.14.79-.3,1.44-.98,1.44Z"/>
        <path class="cls-7" d="M3432.13,776.08h-.42v-.28h-1.14v.28h-.42c-.13,0-.24.11-.24.24v1.09c0,.13.11.24.24.24h1.98c.13,0,.24-.11.24-.24v-1.09c0-.13-.11-.24-.24-.24Z"/>
      </g>
      <g>
        <rect class="cls-6" x="3470.29" y="770.04" width="78.3" height="12"/>
        <line class="cls-3" x1="3470.29" y1="770.49" x2="3548.59" y2="770.49"/>
        <line class="cls-4" x1="3470.29" y1="782.49" x2="3548.59" y2="782.49"/>
        <path class="cls-4" d="M3518.58,786.96h-18.28c-.69,0-1.13-.65-.98-1.44l1.17-6.43c.11-.6.67-1.07,1.24-1.07h15.41c.58,0,1.14.47,1.24,1.07l1.17,6.43c.14.79-.3,1.44-.98,1.44Z"/>
        <path class="cls-7" d="M3510.43,776.08h-.42v-.28h-1.14v.28h-.42c-.13,0-.24.11-.24.24v1.09c0,.13.11.24.24.24h1.98c.13,0,.24-.11.24-.24v-1.09c0-.13-.11-.24-.24-.24Z"/>
      </g>
      <g>
        <rect class="cls-6" x="3548.59" y="770.04" width="78.3" height="12"/>
        <line class="cls-3" x1="3548.59" y1="770.49" x2="3626.89" y2="770.49"/>
        <line class="cls-4" x1="3548.59" y1="782.49" x2="3626.89" y2="782.49"/>
        <path class="cls-4" d="M3596.88,786.96h-18.28c-.69,0-1.13-.65-.98-1.44l1.17-6.43c.11-.6.67-1.07,1.24-1.07h15.41c.58,0,1.14.47,1.24,1.07l1.17,6.43c.14.79-.3,1.44-.98,1.44Z"/>
        <path class="cls-7" d="M3588.73,776.08h-.42v-.28h-1.14v.28h-.42c-.13,0-.24.11-.24.24v1.09c0,.13.11.24.24.24h1.98c.13,0,.24-.11.24-.24v-1.09c0-.13-.11-.24-.24-.24Z"/>
      </g>
      <g>
        <rect class="cls-6" x="3626.89" y="770.04" width="78.3" height="12"/>
        <line class="cls-3" x1="3626.89" y1="770.49" x2="3705.19" y2="770.49"/>
        <line class="cls-4" x1="3626.89" y1="782.49" x2="3705.19" y2="782.49"/>
        <path class="cls-4" d="M3675.18,786.96h-18.28c-.69,0-1.13-.65-.98-1.44l1.17-6.43c.11-.6.67-1.07,1.24-1.07h15.41c.58,0,1.14.47,1.24,1.07l1.17,6.43c.14.79-.3,1.44-.98,1.44Z"/>
        <path class="cls-7" d="M3667.03,776.08h-.42v-.28h-1.14v.28h-.42c-.13,0-.24.11-.24.24v1.09c0,.13.11.24.24.24h1.98c.13,0,.24-.11.24-.24v-1.09c0-.13-.11-.24-.24-.24Z"/>
      </g>
      <g>
        <rect class="cls-6" x="3705.19" y="770.04" width="78.3" height="12"/>
        <line class="cls-3" x1="3705.19" y1="770.49" x2="3783.49" y2="770.49"/>
        <line class="cls-4" x1="3705.19" y1="782.49" x2="3783.49" y2="782.49"/>
        <path class="cls-4" d="M3753.48,786.96h-18.28c-.69,0-1.13-.65-.98-1.44l1.17-6.43c.11-.6.67-1.07,1.24-1.07h15.41c.58,0,1.14.47,1.24,1.07l1.17,6.43c.14.79-.3,1.44-.98,1.44Z"/>
        <path class="cls-7" d="M3745.33,776.08h-.42v-.28h-1.14v.28h-.42c-.13,0-.24.11-.24.24v1.09c0,.13.11.24.24.24h1.98c.13,0,.24-.11.24-.24v-1.09c0-.13-.11-.24-.24-.24Z"/>
      </g>
      <g>
        <rect class="cls-6" x="3783.49" y="770.04" width="78.3" height="12"/>
        <line class="cls-3" x1="3783.49" y1="770.49" x2="3861.79" y2="770.49"/>
        <line class="cls-4" x1="3783.49" y1="782.49" x2="3861.79" y2="782.49"/>
        <path class="cls-4" d="M3831.78,786.96h-18.28c-.69,0-1.13-.65-.98-1.44l1.17-6.43c.11-.6.67-1.07,1.24-1.07h15.41c.58,0,1.14.47,1.24,1.07l1.17,6.43c.14.79-.3,1.44-.98,1.44Z"/>
        <path class="cls-7" d="M3823.63,776.08h-.42v-.28h-1.14v.28h-.42c-.13,0-.24.11-.24.24v1.09c0,.13.11.24.24.24h1.98c.13,0,.24-.11.24-.24v-1.09c0-.13-.11-.24-.24-.24Z"/>
      </g>
      <g>
        <rect class="cls-6" x="3861.79" y="770.04" width="78.3" height="12"/>
        <line class="cls-3" x1="3861.79" y1="770.49" x2="3940.09" y2="770.49"/>
        <line class="cls-4" x1="3861.79" y1="782.49" x2="3940.09" y2="782.49"/>
        <path class="cls-4" d="M3910.08,786.96h-18.28c-.69,0-1.13-.65-.98-1.44l1.17-6.43c.11-.6.67-1.07,1.24-1.07h15.41c.58,0,1.14.47,1.24,1.07l1.17,6.43c.14.79-.3,1.44-.98,1.44Z"/>
        <path class="cls-7" d="M3901.93,776.08h-.42v-.28h-1.14v.28h-.42c-.13,0-.24.11-.24.24v1.09c0,.13.11.24.24.24h1.98c.13,0,.24-.11.24-.24v-1.09c0-.13-.11-.24-.24-.24Z"/>
      </g>
      <g>
        <rect class="cls-6" x="3940.09" y="770.04" width="78.3" height="12"/>
        <line class="cls-3" x1="3940.09" y1="770.49" x2="4018.39" y2="770.49"/>
        <line class="cls-4" x1="3940.09" y1="782.49" x2="4018.39" y2="782.49"/>
        <path class="cls-4" d="M3988.38,786.96h-18.28c-.69,0-1.13-.65-.98-1.44l1.17-6.43c.11-.6.67-1.07,1.24-1.07h15.41c.58,0,1.14.47,1.24,1.07l1.17,6.43c.14.79-.3,1.44-.98,1.44Z"/>
        <path class="cls-7" d="M3980.23,776.08h-.42v-.28h-1.14v.28h-.42c-.13,0-.24.11-.24.24v1.09c0,.13.11.24.24.24h1.98c.13,0,.24-.11.24-.24v-1.09c0-.13-.11-.24-.24-.24Z"/>
      </g>
      <g>
        <rect class="cls-6" x="4018.39" y="770.04" width="78.3" height="12"/>
        <line class="cls-3" x1="4018.39" y1="770.49" x2="4096.69" y2="770.49"/>
        <line class="cls-4" x1="4018.39" y1="782.49" x2="4096.69" y2="782.49"/>
        <path class="cls-4" d="M4066.68,786.96h-18.28c-.69,0-1.13-.65-.98-1.44l1.17-6.43c.11-.6.67-1.07,1.24-1.07h15.41c.58,0,1.14.47,1.24,1.07l1.17,6.43c.14.79-.3,1.44-.98,1.44Z"/>
        <path class="cls-7" d="M4058.53,776.08h-.42v-.28h-1.14v.28h-.42c-.13,0-.24.11-.24.24v1.09c0,.13.11.24.24.24h1.98c.13,0,.24-.11.24-.24v-1.09c0-.13-.11-.24-.24-.24Z"/>
      </g>
      <g>
        <rect class="cls-6" x="4096.69" y="770.04" width="78.3" height="12"/>
        <line class="cls-3" x1="4096.69" y1="770.49" x2="4174.99" y2="770.49"/>
        <line class="cls-4" x1="4096.69" y1="782.49" x2="4174.99" y2="782.49"/>
        <path class="cls-4" d="M4144.98,786.96h-18.28c-.69,0-1.13-.65-.98-1.44l1.17-6.43c.11-.6.67-1.07,1.24-1.07h15.41c.58,0,1.14.47,1.24,1.07l1.17,6.43c.14.79-.3,1.44-.98,1.44Z"/>
        <path class="cls-7" d="M4136.83,776.08h-.42v-.28h-1.14v.28h-.42c-.13,0-.24.11-.24.24v1.09c0,.13.11.24.24.24h1.98c.13,0,.24-.11.24-.24v-1.09c0-.13-.11-.24-.24-.24Z"/>
      </g>
      <g>
        <rect class="cls-6" x="4174.99" y="770.04" width="78.3" height="12"/>
        <line class="cls-3" x1="4174.99" y1="770.49" x2="4253.29" y2="770.49"/>
        <line class="cls-4" x1="4174.99" y1="782.49" x2="4253.29" y2="782.49"/>
        <path class="cls-4" d="M4223.28,786.96h-18.28c-.69,0-1.13-.65-.98-1.44l1.17-6.43c.11-.6.67-1.07,1.24-1.07h15.41c.58,0,1.14.47,1.24,1.07l1.17,6.43c.14.79-.3,1.44-.98,1.44Z"/>
        <path class="cls-7" d="M4215.13,776.08h-.42v-.28h-1.14v.28h-.42c-.13,0-.24.11-.24.24v1.09c0,.13.11.24.24.24h1.98c.13,0,.24-.11.24-.24v-1.09c0-.13-.11-.24-.24-.24Z"/>
      </g>
      <g>
        <rect class="cls-6" x="4253.29" y="770.04" width="78.3" height="12"/>
        <line class="cls-3" x1="4253.29" y1="770.49" x2="4331.59" y2="770.49"/>
        <line class="cls-4" x1="4253.29" y1="782.49" x2="4331.59" y2="782.49"/>
        <path class="cls-4" d="M4301.58,786.96h-18.28c-.69,0-1.13-.65-.98-1.44l1.17-6.43c.11-.6.67-1.07,1.24-1.07h15.41c.58,0,1.14.47,1.24,1.07l1.17,6.43c.14.79-.3,1.44-.98,1.44Z"/>
        <path class="cls-7" d="M4293.43,776.08h-.42v-.28h-1.14v.28h-.42c-.13,0-.24.11-.24.24v1.09c0,.13.11.24.24.24h1.98c.13,0,.24-.11.24-.24v-1.09c0-.13-.11-.24-.24-.24Z"/>
      </g>
      <g>
        <rect class="cls-6" x="4331.59" y="770.04" width="78.3" height="12"/>
        <line class="cls-3" x1="4331.59" y1="770.49" x2="4409.89" y2="770.49"/>
        <line class="cls-4" x1="4331.59" y1="782.49" x2="4409.89" y2="782.49"/>
        <path class="cls-4" d="M4379.88,786.96h-18.28c-.69,0-1.13-.65-.98-1.44l1.17-6.43c.11-.6.67-1.07,1.24-1.07h15.41c.58,0,1.14.47,1.24,1.07l1.17,6.43c.14.79-.3,1.44-.98,1.44Z"/>
        <path class="cls-7" d="M4371.73,776.08h-.42v-.28h-1.14v.28h-.42c-.13,0-.24.11-.24.24v1.09c0,.13.11.24.24.24h1.98c.13,0,.24-.11.24-.24v-1.09c0-.13-.11-.24-.24-.24Z"/>
      </g>
      <g>
        <rect class="cls-6" x="4409.89" y="770.04" width="78.3" height="12"/>
        <line class="cls-3" x1="4409.89" y1="770.49" x2="4488.19" y2="770.49"/>
        <line class="cls-4" x1="4409.89" y1="782.49" x2="4488.19" y2="782.49"/>
        <path class="cls-4" d="M4458.18,786.96h-18.28c-.69,0-1.13-.65-.98-1.44l1.17-6.43c.11-.6.67-1.07,1.24-1.07h15.41c.58,0,1.14.47,1.24,1.07l1.17,6.43c.14.79-.3,1.44-.98,1.44Z"/>
        <path class="cls-7" d="M4450.03,776.08h-.42v-.28h-1.14v.28h-.42c-.13,0-.24.11-.24.24v1.09c0,.13.11.24.24.24h1.98c.13,0,.24-.11.24-.24v-1.09c0-.13-.11-.24-.24-.24Z"/>
      </g>
      <g>
        <rect class="cls-6" x="4488.19" y="770.04" width="78.3" height="12"/>
        <line class="cls-3" x1="4488.19" y1="770.49" x2="4566.49" y2="770.49"/>
        <line class="cls-4" x1="4488.19" y1="782.49" x2="4566.49" y2="782.49"/>
        <path class="cls-4" d="M4536.48,786.96h-18.28c-.69,0-1.13-.65-.98-1.44l1.17-6.43c.11-.6.67-1.07,1.24-1.07h15.41c.58,0,1.14.47,1.24,1.07l1.17,6.43c.14.79-.3,1.44-.98,1.44Z"/>
        <path class="cls-7" d="M4528.33,776.08h-.42v-.28h-1.14v.28h-.42c-.13,0-.24.11-.24.24v1.09c0,.13.11.24.24.24h1.98c.13,0,.24-.11.24-.24v-1.09c0-.13-.11-.24-.24-.24Z"/>
      </g>
      <g>
        <rect class="cls-6" x="4566.49" y="770.04" width="78.3" height="12"/>
        <line class="cls-3" x1="4566.49" y1="770.49" x2="4644.79" y2="770.49"/>
        <line class="cls-4" x1="4566.49" y1="782.49" x2="4644.79" y2="782.49"/>
        <path class="cls-4" d="M4614.78,786.96h-18.28c-.69,0-1.13-.65-.98-1.44l1.17-6.43c.11-.6.67-1.07,1.24-1.07h15.41c.58,0,1.14.47,1.24,1.07l1.17,6.43c.14.79-.3,1.44-.98,1.44Z"/>
        <path class="cls-7" d="M4606.63,776.08h-.42v-.28h-1.14v.28h-.42c-.13,0-.24.11-.24.24v1.09c0,.13.11.24.24.24h1.98c.13,0,.24-.11.24-.24v-1.09c0-.13-.11-.24-.24-.24Z"/>
      </g>
      <g>
        <rect class="cls-6" x="4644.79" y="770.04" width="78.3" height="12"/>
        <line class="cls-3" x1="4644.79" y1="770.49" x2="4723.09" y2="770.49"/>
        <line class="cls-4" x1="4644.79" y1="782.49" x2="4723.09" y2="782.49"/>
        <path class="cls-4" d="M4693.08,786.96h-18.28c-.69,0-1.13-.65-.98-1.44l1.17-6.43c.11-.6.67-1.07,1.24-1.07h15.41c.58,0,1.14.47,1.24,1.07l1.17,6.43c.14.79-.3,1.44-.98,1.44Z"/>
        <path class="cls-7" d="M4684.93,776.08h-.42v-.28h-1.14v.28h-.42c-.13,0-.24.11-.24.24v1.09c0,.13.11.24.24.24h1.98c.13,0,.24-.11.24-.24v-1.09c0-.13-.11-.24-.24-.24Z"/>
      </g>
      <g>
        <rect class="cls-6" x="4723.09" y="770.04" width="78.3" height="12"/>
        <line class="cls-3" x1="4723.09" y1="770.49" x2="4801.39" y2="770.49"/>
        <line class="cls-4" x1="4723.09" y1="782.49" x2="4801.39" y2="782.49"/>
        <path class="cls-4" d="M4771.38,786.96h-18.28c-.69,0-1.13-.65-.98-1.44l1.17-6.43c.11-.6.67-1.07,1.24-1.07h15.41c.58,0,1.14.47,1.24,1.07l1.17,6.43c.14.79-.3,1.44-.98,1.44Z"/>
        <path class="cls-7" d="M4763.23,776.08h-.42v-.28h-1.14v.28h-.42c-.13,0-.24.11-.24.24v1.09c0,.13.11.24.24.24h1.98c.13,0,.24-.11.24-.24v-1.09c0-.13-.11-.24-.24-.24Z"/>
      </g>
      <g>
        <rect class="cls-6" x="4801.39" y="770.04" width="78.3" height="12"/>
        <line class="cls-3" x1="4801.39" y1="770.49" x2="4879.69" y2="770.49"/>
        <line class="cls-4" x1="4801.39" y1="782.49" x2="4879.69" y2="782.49"/>
        <path class="cls-4" d="M4849.68,786.96h-18.28c-.69,0-1.13-.65-.98-1.44l1.17-6.43c.11-.6.67-1.07,1.24-1.07h15.41c.58,0,1.14.47,1.24,1.07l1.17,6.43c.14.79-.3,1.44-.98,1.44Z"/>
        <path class="cls-7" d="M4841.53,776.08h-.42v-.28h-1.14v.28h-.42c-.13,0-.24.11-.24.24v1.09c0,.13.11.24.24.24h1.98c.13,0,.24-.11.24-.24v-1.09c0-.13-.11-.24-.24-.24Z"/>
      </g>
      <g>
        <rect class="cls-6" x="4879.69" y="770.04" width="78.3" height="12"/>
        <line class="cls-3" x1="4879.69" y1="770.49" x2="4957.99" y2="770.49"/>
        <line class="cls-4" x1="4879.69" y1="782.49" x2="4957.99" y2="782.49"/>
        <path class="cls-4" d="M4927.98,786.96h-18.28c-.69,0-1.13-.65-.98-1.44l1.17-6.43c.11-.6.67-1.07,1.24-1.07h15.41c.58,0,1.14.47,1.24,1.07l1.17,6.43c.14.79-.3,1.44-.98,1.44Z"/>
        <path class="cls-7" d="M4919.83,776.08h-.42v-.28h-1.14v.28h-.42c-.13,0-.24.11-.24.24v1.09c0,.13.11.24.24.24h1.98c.13,0,.24-.11.24-.24v-1.09c0-.13-.11-.24-.24-.24Z"/>
      </g>
      <g>
        <rect class="cls-6" x="4957.99" y="770.04" width="78.3" height="12"/>
        <line class="cls-3" x1="4957.99" y1="770.49" x2="5036.29" y2="770.49"/>
        <line class="cls-4" x1="4957.99" y1="782.49" x2="5036.29" y2="782.49"/>
        <path class="cls-4" d="M5006.28,786.96h-18.28c-.69,0-1.13-.65-.98-1.44l1.17-6.43c.11-.6.67-1.07,1.24-1.07h15.41c.58,0,1.14.47,1.24,1.07l1.17,6.43c.14.79-.3,1.44-.98,1.44Z"/>
        <path class="cls-7" d="M4998.13,776.08h-.42v-.28h-1.14v.28h-.42c-.13,0-.24.11-.24.24v1.09c0,.13.11.24.24.24h1.98c.13,0,.24-.11.24-.24v-1.09c0-.13-.11-.24-.24-.24Z"/>
      </g>
      <g>
        <rect class="cls-6" x="5036.29" y="770.04" width="78.3" height="12"/>
        <line class="cls-3" x1="5036.29" y1="770.49" x2="5114.59" y2="770.49"/>
        <line class="cls-4" x1="5036.29" y1="782.49" x2="5114.59" y2="782.49"/>
        <path class="cls-4" d="M5084.58,786.96h-18.28c-.69,0-1.13-.65-.98-1.44l1.17-6.43c.11-.6.67-1.07,1.24-1.07h15.41c.58,0,1.14.47,1.24,1.07l1.17,6.43c.14.79-.3,1.44-.98,1.44Z"/>
        <path class="cls-7" d="M5076.43,776.08h-.42v-.28h-1.14v.28h-.42c-.13,0-.24.11-.24.24v1.09c0,.13.11.24.24.24h1.98c.13,0,.24-.11.24-.24v-1.09c0-.13-.11-.24-.24-.24Z"/>
      </g>
      <g>
        <rect class="cls-6" x="5114.59" y="770.04" width="78.3" height="12"/>
        <line class="cls-3" x1="5114.59" y1="770.49" x2="5192.89" y2="770.49"/>
        <line class="cls-4" x1="5114.59" y1="782.49" x2="5192.89" y2="782.49"/>
        <path class="cls-4" d="M5162.88,786.96h-18.28c-.69,0-1.13-.65-.98-1.44l1.17-6.43c.11-.6.67-1.07,1.24-1.07h15.41c.58,0,1.14.47,1.24,1.07l1.17,6.43c.14.79-.3,1.44-.98,1.44Z"/>
        <path class="cls-7" d="M5154.73,776.08h-.42v-.28h-1.14v.28h-.42c-.13,0-.24.11-.24.24v1.09c0,.13.11.24.24.24h1.98c.13,0,.24-.11.24-.24v-1.09c0-.13-.11-.24-.24-.24Z"/>
      </g>
      <g>
        <rect class="cls-6" x="5192.89" y="770.04" width="78.3" height="12"/>
        <line class="cls-3" x1="5192.89" y1="770.49" x2="5271.19" y2="770.49"/>
        <line class="cls-4" x1="5192.89" y1="782.49" x2="5271.19" y2="782.49"/>
        <path class="cls-4" d="M5241.18,786.96h-18.28c-.69,0-1.13-.65-.98-1.44l1.17-6.43c.11-.6.67-1.07,1.24-1.07h15.41c.58,0,1.14.47,1.24,1.07l1.17,6.43c.14.79-.3,1.44-.98,1.44Z"/>
        <path class="cls-7" d="M5233.03,776.08h-.42v-.28h-1.14v.28h-.42c-.13,0-.24.11-.24.24v1.09c0,.13.11.24.24.24h1.98c.13,0,.24-.11.24-.24v-1.09c0-.13-.11-.24-.24-.24Z"/>
      </g>
      <g>
        <rect class="cls-6" x="5271.19" y="770.04" width="78.3" height="12"/>
        <line class="cls-3" x1="5271.19" y1="770.49" x2="5349.5" y2="770.49"/>
        <line class="cls-4" x1="5271.19" y1="782.49" x2="5349.5" y2="782.49"/>
        <path class="cls-4" d="M5319.48,786.96h-18.28c-.69,0-1.13-.65-.98-1.44l1.17-6.43c.11-.6.67-1.07,1.24-1.07h15.41c.58,0,1.14.47,1.24,1.07l1.17,6.43c.14.79-.3,1.44-.98,1.44Z"/>
        <path class="cls-7" d="M5311.33,776.08h-.42v-.28h-1.14v.28h-.42c-.13,0-.24.11-.24.24v1.09c0,.13.11.24.24.24h1.98c.13,0,.24-.11.24-.24v-1.09c0-.13-.11-.24-.24-.24Z"/>
      </g>
      <g>
        <rect class="cls-6" x="5349.5" y="770.04" width="78.3" height="12"/>
        <line class="cls-3" x1="5349.5" y1="770.49" x2="5427.8" y2="770.49"/>
        <line class="cls-4" x1="5349.5" y1="782.49" x2="5427.8" y2="782.49"/>
        <path class="cls-4" d="M5397.78,786.96h-18.28c-.69,0-1.13-.65-.98-1.44l1.17-6.43c.11-.6.67-1.07,1.24-1.07h15.41c.58,0,1.14.47,1.24,1.07l1.17,6.43c.14.79-.3,1.44-.98,1.44Z"/>
        <path class="cls-7" d="M5389.63,776.08h-.42v-.28h-1.14v.28h-.42c-.13,0-.24.11-.24.24v1.09c0,.13.11.24.24.24h1.98c.13,0,.24-.11.24-.24v-1.09c0-.13-.11-.24-.24-.24Z"/>
      </g>
      <g>
        <rect class="cls-6" x="5427.8" y="770.04" width="78.3" height="12"/>
        <line class="cls-3" x1="5427.8" y1="770.49" x2="5506.1" y2="770.49"/>
        <line class="cls-4" x1="5427.8" y1="782.49" x2="5506.1" y2="782.49"/>
        <path class="cls-4" d="M5476.08,786.96h-18.28c-.69,0-1.13-.65-.98-1.44l1.17-6.43c.11-.6.67-1.07,1.24-1.07h15.41c.58,0,1.14.47,1.24,1.07l1.17,6.43c.14.79-.3,1.44-.98,1.44Z"/>
        <path class="cls-7" d="M5467.93,776.08h-.42v-.28h-1.14v.28h-.42c-.13,0-.24.11-.24.24v1.09c0,.13.11.24.24.24h1.98c.13,0,.24-.11.24-.24v-1.09c0-.13-.11-.24-.24-.24Z"/>
      </g>
      <g>
        <rect class="cls-6" x="5506.1" y="770.04" width="78.3" height="12"/>
        <line class="cls-3" x1="5506.1" y1="770.49" x2="5584.4" y2="770.49"/>
        <line class="cls-4" x1="5506.1" y1="782.49" x2="5584.4" y2="782.49"/>
        <path class="cls-4" d="M5554.38,786.96h-18.28c-.69,0-1.13-.65-.98-1.44l1.17-6.43c.11-.6.67-1.07,1.24-1.07h15.41c.58,0,1.14.47,1.24,1.07l1.17,6.43c.14.79-.3,1.44-.98,1.44Z"/>
        <path class="cls-7" d="M5546.23,776.08h-.42v-.28h-1.14v.28h-.42c-.13,0-.24.11-.24.24v1.09c0,.13.11.24.24.24h1.98c.13,0,.24-.11.24-.24v-1.09c0-.13-.11-.24-.24-.24Z"/>
      </g>
      <g>
        <rect class="cls-6" x="5584.4" y="770.04" width="78.3" height="12"/>
        <line class="cls-3" x1="5584.4" y1="770.49" x2="5662.7" y2="770.49"/>
        <line class="cls-4" x1="5584.4" y1="782.49" x2="5662.7" y2="782.49"/>
        <path class="cls-4" d="M5632.68,786.96h-18.28c-.69,0-1.13-.65-.98-1.44l1.17-6.43c.11-.6.67-1.07,1.24-1.07h15.41c.58,0,1.14.47,1.24,1.07l1.17,6.43c.14.79-.3,1.44-.98,1.44Z"/>
        <path class="cls-7" d="M5624.53,776.08h-.42v-.28h-1.14v.28h-.42c-.13,0-.24.11-.24.24v1.09c0,.13.11.24.24.24h1.98c.13,0,.24-.11.24-.24v-1.09c0-.13-.11-.24-.24-.24Z"/>
      </g>
      <g>
        <rect class="cls-6" x="5662.7" y="770.04" width="78.3" height="12"/>
        <line class="cls-3" x1="5662.7" y1="770.49" x2="5741" y2="770.49"/>
        <line class="cls-4" x1="5662.7" y1="782.49" x2="5741" y2="782.49"/>
        <path class="cls-4" d="M5710.98,786.96h-18.28c-.69,0-1.13-.65-.98-1.44l1.17-6.43c.11-.6.67-1.07,1.24-1.07h15.41c.58,0,1.14.47,1.24,1.07l1.17,6.43c.14.79-.3,1.44-.98,1.44Z"/>
        <path class="cls-7" d="M5702.83,776.08h-.42v-.28h-1.14v.28h-.42c-.13,0-.24.11-.24.24v1.09c0,.13.11.24.24.24h1.98c.13,0,.24-.11.24-.24v-1.09c0-.13-.11-.24-.24-.24Z"/>
      </g>
      <g>
        <rect class="cls-6" x="5741" y="770.04" width="78.3" height="12"/>
        <line class="cls-3" x1="5741" y1="770.49" x2="5819.3" y2="770.49"/>
        <line class="cls-4" x1="5741" y1="782.49" x2="5819.3" y2="782.49"/>
        <path class="cls-4" d="M5789.28,786.96h-18.28c-.69,0-1.13-.65-.98-1.44l1.17-6.43c.11-.6.67-1.07,1.24-1.07h15.41c.58,0,1.14.47,1.24,1.07l1.17,6.43c.14.79-.3,1.44-.98,1.44Z"/>
        <path class="cls-7" d="M5781.13,776.08h-.42v-.28h-1.14v.28h-.42c-.13,0-.24.11-.24.24v1.09c0,.13.11.24.24.24h1.98c.13,0,.24-.11.24-.24v-1.09c0-.13-.11-.24-.24-.24Z"/>
      </g>
      <g>
        <rect class="cls-6" x="5819.3" y="770.04" width="78.3" height="12"/>
        <line class="cls-3" x1="5819.3" y1="770.49" x2="5897.6" y2="770.49"/>
        <line class="cls-4" x1="5819.3" y1="782.49" x2="5897.6" y2="782.49"/>
        <path class="cls-4" d="M5867.58,786.96h-18.28c-.69,0-1.13-.65-.98-1.44l1.17-6.43c.11-.6.67-1.07,1.24-1.07h15.41c.58,0,1.14.47,1.24,1.07l1.17,6.43c.14.79-.3,1.44-.98,1.44Z"/>
        <path class="cls-7" d="M5859.43,776.08h-.42v-.28h-1.14v.28h-.42c-.13,0-.24.11-.24.24v1.09c0,.13.11.24.24.24h1.98c.13,0,.24-.11.24-.24v-1.09c0-.13-.11-.24-.24-.24Z"/>
      </g>
      <g>
        <rect class="cls-6" x="5897.6" y="770.04" width="78.3" height="12"/>
        <line class="cls-3" x1="5897.6" y1="770.49" x2="5975.9" y2="770.49"/>
        <line class="cls-4" x1="5897.6" y1="782.49" x2="5975.9" y2="782.49"/>
        <path class="cls-4" d="M5945.89,786.96h-18.28c-.69,0-1.13-.65-.98-1.44l1.17-6.43c.11-.6.67-1.07,1.24-1.07h15.41c.58,0,1.14.47,1.24,1.07l1.17,6.43c.14.79-.3,1.44-.98,1.44Z"/>
        <path class="cls-7" d="M5937.73,776.08h-.42v-.28h-1.14v.28h-.42c-.13,0-.24.11-.24.24v1.09c0,.13.11.24.24.24h1.98c.13,0,.24-.11.24-.24v-1.09c0-.13-.11-.24-.24-.24Z"/>
      </g>
      <g>
        <rect class="cls-6" x="5975.9" y="770.04" width="78.3" height="12"/>
        <line class="cls-3" x1="5975.9" y1="770.49" x2="6054.2" y2="770.49"/>
        <line class="cls-4" x1="5975.9" y1="782.49" x2="6054.2" y2="782.49"/>
        <path class="cls-4" d="M6024.19,786.96h-18.28c-.69,0-1.13-.65-.98-1.44l1.17-6.43c.11-.6.67-1.07,1.24-1.07h15.41c.58,0,1.14.47,1.24,1.07l1.17,6.43c.14.79-.3,1.44-.98,1.44Z"/>
        <path class="cls-7" d="M6016.03,776.08h-.42v-.28h-1.14v.28h-.42c-.13,0-.24.11-.24.24v1.09c0,.13.11.24.24.24h1.98c.13,0,.24-.11.24-.24v-1.09c0-.13-.11-.24-.24-.24Z"/>
      </g>
      <g>
        <rect class="cls-6" x="6054.2" y="770.04" width="78.3" height="12"/>
        <line class="cls-3" x1="6054.2" y1="770.49" x2="6132.5" y2="770.49"/>
        <line class="cls-4" x1="6054.2" y1="782.49" x2="6132.5" y2="782.49"/>
        <path class="cls-4" d="M6102.49,786.96h-18.28c-.69,0-1.13-.65-.98-1.44l1.17-6.43c.11-.6.67-1.07,1.24-1.07h15.41c.58,0,1.14.47,1.24,1.07l1.17,6.43c.14.79-.3,1.44-.98,1.44Z"/>
        <path class="cls-7" d="M6094.33,776.08h-.42v-.28h-1.14v.28h-.42c-.13,0-.24.11-.24.24v1.09c0,.13.11.24.24.24h1.98c.13,0,.24-.11.24-.24v-1.09c0-.13-.11-.24-.24-.24Z"/>
      </g>
      <g>
        <rect class="cls-6" x="6132.5" y="770.04" width="78.3" height="12"/>
        <line class="cls-3" x1="6132.5" y1="770.49" x2="6210.8" y2="770.49"/>
        <line class="cls-4" x1="6132.5" y1="782.49" x2="6210.8" y2="782.49"/>
        <path class="cls-4" d="M6180.79,786.96h-18.28c-.69,0-1.13-.65-.98-1.44l1.17-6.43c.11-.6.67-1.07,1.24-1.07h15.41c.58,0,1.14.47,1.24,1.07l1.17,6.43c.14.79-.3,1.44-.98,1.44Z"/>
        <path class="cls-7" d="M6172.63,776.08h-.42v-.28h-1.14v.28h-.42c-.13,0-.24.11-.24.24v1.09c0,.13.11.24.24.24h1.98c.13,0,.24-.11.24-.24v-1.09c0-.13-.11-.24-.24-.24Z"/>
      </g>
      <g>
        <rect class="cls-6" x="6210.8" y="770.04" width="78.3" height="12"/>
        <line class="cls-3" x1="6210.8" y1="770.49" x2="6289.1" y2="770.49"/>
        <line class="cls-4" x1="6210.8" y1="782.49" x2="6289.1" y2="782.49"/>
        <path class="cls-4" d="M6259.09,786.96h-18.28c-.69,0-1.13-.65-.98-1.44l1.17-6.43c.11-.6.67-1.07,1.24-1.07h15.41c.58,0,1.14.47,1.24,1.07l1.17,6.43c.14.79-.3,1.44-.98,1.44Z"/>
        <path class="cls-7" d="M6250.94,776.08h-.42v-.28h-1.14v.28h-.42c-.13,0-.24.11-.24.24v1.09c0,.13.11.24.24.24h1.98c.13,0,.24-.11.24-.24v-1.09c0-.13-.11-.24-.24-.24Z"/>
      </g>
      <g>
        <rect class="cls-6" x="6289.1" y="770.04" width="78.3" height="12"/>
        <line class="cls-3" x1="6289.1" y1="770.49" x2="6367.4" y2="770.49"/>
        <line class="cls-4" x1="6289.1" y1="782.49" x2="6367.4" y2="782.49"/>
        <path class="cls-4" d="M6337.39,786.96h-18.28c-.69,0-1.13-.65-.98-1.44l1.17-6.43c.11-.6.67-1.07,1.24-1.07h15.41c.58,0,1.14.47,1.24,1.07l1.17,6.43c.14.79-.3,1.44-.98,1.44Z"/>
        <path class="cls-7" d="M6329.24,776.08h-.42v-.28h-1.14v.28h-.42c-.13,0-.24.11-.24.24v1.09c0,.13.11.24.24.24h1.98c.13,0,.24-.11.24-.24v-1.09c0-.13-.11-.24-.24-.24Z"/>
      </g>
      <g>
        <rect class="cls-6" x="6367.4" y="770.04" width="78.3" height="12"/>
        <line class="cls-3" x1="6367.4" y1="770.49" x2="6445.7" y2="770.49"/>
        <line class="cls-4" x1="6367.4" y1="782.49" x2="6445.7" y2="782.49"/>
        <path class="cls-4" d="M6415.69,786.96h-18.28c-.69,0-1.13-.65-.98-1.44l1.17-6.43c.11-.6.67-1.07,1.24-1.07h15.41c.58,0,1.14.47,1.24,1.07l1.17,6.43c.14.79-.3,1.44-.98,1.44Z"/>
        <path class="cls-7" d="M6407.54,776.08h-.42v-.28h-1.14v.28h-.42c-.13,0-.24.11-.24.24v1.09c0,.13.11.24.24.24h1.98c.13,0,.24-.11.24-.24v-1.09c0-.13-.11-.24-.24-.24Z"/>
      </g>
      <g>
        <rect class="cls-6" x="6445.7" y="770.04" width="78.3" height="12"/>
        <line class="cls-3" x1="6445.7" y1="770.49" x2="6524" y2="770.49"/>
        <line class="cls-4" x1="6445.7" y1="782.49" x2="6524" y2="782.49"/>
        <path class="cls-4" d="M6493.99,786.96h-18.28c-.69,0-1.13-.65-.98-1.44l1.17-6.43c.11-.6.67-1.07,1.24-1.07h15.41c.58,0,1.14.47,1.24,1.07l1.17,6.43c.14.79-.3,1.44-.98,1.44Z"/>
        <path class="cls-7" d="M6485.84,776.08h-.42v-.28h-1.14v.28h-.42c-.13,0-.24.11-.24.24v1.09c0,.13.11.24.24.24h1.98c.13,0,.24-.11.24-.24v-1.09c0-.13-.11-.24-.24-.24Z"/>
      </g>
      <g>
        <rect class="cls-6" x="6524" y="770.04" width="78.3" height="12"/>
        <line class="cls-3" x1="6524" y1="770.49" x2="6602.3" y2="770.49"/>
        <line class="cls-4" x1="6524" y1="782.49" x2="6602.3" y2="782.49"/>
        <path class="cls-4" d="M6572.29,786.96h-18.28c-.69,0-1.13-.65-.98-1.44l1.17-6.43c.11-.6.67-1.07,1.24-1.07h15.41c.58,0,1.14.47,1.24,1.07l1.17,6.43c.14.79-.3,1.44-.98,1.44Z"/>
        <path class="cls-7" d="M6564.14,776.08h-.42v-.28h-1.14v.28h-.42c-.13,0-.24.11-.24.24v1.09c0,.13.11.24.24.24h1.98c.13,0,.24-.11.24-.24v-1.09c0-.13-.11-.24-.24-.24Z"/>
      </g>
      <g>
        <rect class="cls-6" x="6602.3" y="770.04" width="78.3" height="12"/>
        <line class="cls-3" x1="6602.3" y1="770.49" x2="6680.6" y2="770.49"/>
        <line class="cls-4" x1="6602.3" y1="782.49" x2="6680.6" y2="782.49"/>
        <path class="cls-4" d="M6650.59,786.96h-18.28c-.69,0-1.13-.65-.98-1.44l1.17-6.43c.11-.6.67-1.07,1.24-1.07h15.41c.58,0,1.14.47,1.24,1.07l1.17,6.43c.14.79-.3,1.44-.98,1.44Z"/>
        <path class="cls-7" d="M6642.44,776.08h-.42v-.28h-1.14v.28h-.42c-.13,0-.24.11-.24.24v1.09c0,.13.11.24.24.24h1.98c.13,0,.24-.11.24-.24v-1.09c0-.13-.11-.24-.24-.24Z"/>
      </g>
    </g>
    <g id="Train">
      <g>
        <g>
          <path class="cls-7" d="M953.97,703.46c-18.51,0-33.52,15.01-33.52,33.52s15.01,33.52,33.52,33.52,33.52-15.01,33.52-33.52-15.01-33.52-33.52-33.52ZM953.97,764.01c-14.93,0-27.04-12.11-27.04-27.04s12.11-27.04,27.04-27.04,27.04,12.11,27.04,27.04-12.11,27.04-27.04,27.04Z"/>
          <g>
            <g>
              <g>
                <polyline class="cls-2" points="956.21 710.03 953.98 719 951.8 727.73"/>
                <polyline class="cls-2" points="951.74 710.03 953.98 719 956.15 727.74"/>
              </g>
              <g>
                <polyline class="cls-2" points="980.92 739.21 971.95 736.98 963.21 734.79"/>
                <polyline class="cls-2" points="980.92 734.74 971.95 736.98 963.22 739.15"/>
              </g>
              <g>
                <polyline class="cls-2" points="951.74 763.92 953.98 754.96 956.16 746.2"/>
                <polyline class="cls-2" points="956.21 763.92 953.98 754.96 951.79 746.21"/>
              </g>
              <g>
                <polyline class="cls-2" points="927.02 734.74 935.99 736.98 944.73 739.16"/>
                <polyline class="cls-2" points="927.02 739.21 935.99 736.98 944.74 734.79"/>
              </g>
            </g>
            <g>
              <g>
                <polyline class="cls-2" points="974.61 719.5 966.69 724.25 958.97 728.9"/>
                <polyline class="cls-2" points="971.45 716.34 966.69 724.25 962.05 731.98"/>
              </g>
              <g>
                <polyline class="cls-2" points="971.45 757.61 966.69 749.69 962.06 741.96"/>
                <polyline class="cls-2" points="974.61 754.45 966.69 749.69 958.97 745.05"/>
              </g>
              <g>
                <polyline class="cls-2" points="933.33 754.45 941.26 749.69 948.99 745.05"/>
                <polyline class="cls-2" points="936.5 757.61 941.26 749.69 945.89 741.96"/>
              </g>
              <g>
                <polyline class="cls-2" points="936.5 716.34 941.26 724.25 945.9 731.98"/>
                <path class="cls-7" d="M963.47,736.98c0,.74-.09,1.48-.25,2.17-.24,1.01-.64,1.96-1.16,2.81-.78,1.26-1.84,2.31-3.09,3.08-.85.53-1.8.93-2.8,1.16-.71.17-1.44.26-2.19.26s-1.49-.09-2.18-.25c-1-.24-1.95-.64-2.8-1.17-1.26-.77-2.31-1.83-3.09-3.08-.52-.85-.92-1.8-1.16-2.8-.16-.7-.25-1.43-.25-2.18s.09-1.49.26-2.19c.23-1,.63-1.95,1.16-2.8.77-1.26,1.83-2.31,3.08-3.08.85-.53,1.8-.93,2.81-1.17.7-.16,1.43-.25,2.17-.25s1.49.09,2.18.26c1,.23,1.95.63,2.81,1.16,1.26.77,2.31,1.83,3.08,3.08.53.86.93,1.81,1.16,2.81.17.7.26,1.43.26,2.18Z"/>
                <polyline class="cls-2" points="933.33 719.5 941.26 724.25 948.99 728.9"/>
              </g>
            </g>
          </g>
        </g>
        <g>
          <path class="cls-7" d="M1170.96,703.46c-18.51,0-33.52,15.01-33.52,33.52s15.01,33.52,33.52,33.52,33.52-15.01,33.52-33.52-15.01-33.52-33.52-33.52ZM1170.96,764.01c-14.93,0-27.04-12.11-27.04-27.04s12.11-27.04,27.04-27.04,27.04,12.11,27.04,27.04-12.11,27.04-27.04,27.04Z"/>
          <g>
            <g>
              <g>
                <polyline class="cls-2" points="1173.2 710.03 1170.97 719 1168.78 727.73"/>
                <polyline class="cls-2" points="1168.73 710.03 1170.97 719 1173.14 727.74"/>
              </g>
              <g>
                <polyline class="cls-2" points="1197.9 739.21 1188.94 736.98 1180.19 734.79"/>
                <polyline class="cls-2" points="1197.9 734.74 1188.94 736.98 1180.2 739.15"/>
              </g>
              <g>
                <polyline class="cls-2" points="1168.73 763.92 1170.97 754.96 1173.15 746.2"/>
                <polyline class="cls-2" points="1173.2 763.92 1170.97 754.96 1168.77 746.21"/>
              </g>
              <g>
                <polyline class="cls-2" points="1144.01 734.74 1152.98 736.98 1161.72 739.16"/>
                <polyline class="cls-2" points="1144.01 739.21 1152.98 736.98 1161.73 734.79"/>
              </g>
            </g>
            <g>
              <g>
                <polyline class="cls-2" points="1191.59 719.5 1183.68 724.25 1175.95 728.9"/>
                <polyline class="cls-2" points="1188.43 716.34 1183.68 724.25 1179.03 731.98"/>
              </g>
              <g>
                <polyline class="cls-2" points="1188.43 757.61 1183.68 749.69 1179.04 741.96"/>
                <polyline class="cls-2" points="1191.59 754.45 1183.68 749.69 1175.95 745.05"/>
              </g>
              <g>
                <polyline class="cls-2" points="1150.32 754.45 1158.24 749.69 1165.97 745.05"/>
                <polyline class="cls-2" points="1153.49 757.61 1158.24 749.69 1162.88 741.96"/>
              </g>
              <g>
                <polyline class="cls-2" points="1153.49 716.34 1158.24 724.25 1162.89 731.98"/>
                <path class="cls-7" d="M1180.45,736.98c0,.74-.09,1.48-.25,2.17-.24,1.01-.64,1.96-1.16,2.81-.78,1.26-1.84,2.31-3.09,3.08-.85.53-1.8.93-2.8,1.16-.71.17-1.44.26-2.19.26s-1.49-.09-2.18-.25c-1-.24-1.95-.64-2.8-1.17-1.26-.77-2.31-1.83-3.09-3.08-.52-.85-.92-1.8-1.16-2.8-.16-.7-.25-1.43-.25-2.18s.09-1.49.26-2.19c.23-1,.63-1.95,1.16-2.8.77-1.26,1.83-2.31,3.08-3.08.85-.53,1.8-.93,2.81-1.17.7-.16,1.43-.25,2.17-.25s1.49.09,2.18.26c1,.23,1.95.63,2.81,1.16,1.26.77,2.31,1.83,3.08,3.08.53.86.93,1.81,1.16,2.81.17.7.26,1.43.26,2.18Z"/>
                <polyline class="cls-2" points="1150.32 719.5 1158.24 724.25 1165.97 728.9"/>
              </g>
            </g>
          </g>
        </g>
        <g>
          <path class="cls-7" d="M738.8,703.46c-18.51,0-33.52,15.01-33.52,33.52s15.01,33.52,33.52,33.52,33.52-15.01,33.52-33.52-15.01-33.52-33.52-33.52ZM738.8,764.01c-14.93,0-27.04-12.11-27.04-27.04s12.11-27.04,27.04-27.04,27.04,12.11,27.04,27.04-12.11,27.04-27.04,27.04Z"/>
          <g>
            <g>
              <g>
                <polyline class="cls-2" points="741.04 710.03 738.81 719 736.63 727.73"/>
                <polyline class="cls-2" points="736.57 710.03 738.81 719 740.98 727.74"/>
              </g>
              <g>
                <polyline class="cls-2" points="765.74 739.21 756.78 736.98 748.04 734.79"/>
                <polyline class="cls-2" points="765.74 734.74 756.78 736.98 748.05 739.15"/>
              </g>
              <g>
                <polyline class="cls-2" points="736.57 763.92 738.81 754.96 740.99 746.2"/>
                <polyline class="cls-2" points="741.04 763.92 738.81 754.96 736.62 746.21"/>
              </g>
              <g>
                <polyline class="cls-2" points="711.85 734.74 720.82 736.98 729.56 739.16"/>
                <polyline class="cls-2" points="711.85 739.21 720.82 736.98 729.57 734.79"/>
              </g>
            </g>
            <g>
              <g>
                <polyline class="cls-2" points="759.44 719.5 751.52 724.25 743.79 728.9"/>
                <polyline class="cls-2" points="756.28 716.34 751.52 724.25 746.88 731.98"/>
              </g>
              <g>
                <polyline class="cls-2" points="756.28 757.61 751.52 749.69 746.89 741.96"/>
                <polyline class="cls-2" points="759.44 754.45 751.52 749.69 743.79 745.05"/>
              </g>
              <g>
                <polyline class="cls-2" points="718.16 754.45 726.08 749.69 733.81 745.05"/>
                <polyline class="cls-2" points="721.33 757.61 726.08 749.69 730.72 741.96"/>
              </g>
              <g>
                <polyline class="cls-2" points="721.33 716.34 726.08 724.25 730.73 731.98"/>
                <path class="cls-7" d="M748.3,736.98c0,.74-.09,1.48-.25,2.17-.24,1.01-.64,1.96-1.16,2.81-.78,1.26-1.84,2.31-3.09,3.08-.85.53-1.8.93-2.8,1.16-.71.17-1.44.26-2.19.26s-1.49-.09-2.18-.25c-1-.24-1.95-.64-2.8-1.17-1.26-.77-2.31-1.83-3.09-3.08-.52-.85-.92-1.8-1.16-2.8-.16-.7-.25-1.43-.25-2.18s.09-1.49.26-2.19c.23-1,.63-1.95,1.16-2.8.77-1.26,1.83-2.31,3.08-3.08.85-.53,1.8-.93,2.81-1.17.7-.16,1.43-.25,2.17-.25s1.49.09,2.18.26c1,.23,1.95.63,2.81,1.16,1.26.77,2.31,1.83,3.08,3.08.53.86.93,1.81,1.16,2.81.17.7.26,1.43.26,2.18Z"/>
                <polyline class="cls-2" points="718.16 719.5 726.08 724.25 733.81 728.9"/>
              </g>
            </g>
          </g>
        </g>
      </g>
      <path class="cls-7" d="M1306.47,710.03h-707.36v16.81c0,1.14.92,2.06,2.06,2.06h226.75c-1.63,3.44-2.3,7.43-1.51,11.65,1.53,8.18,8.44,14.5,16.72,15.3,11.31,1.09,20.83-7.77,20.83-18.85,0-2.9-.67-5.64-1.84-8.1h184.49c-1.63,3.44-2.3,7.43-1.51,11.65,1.53,8.18,8.44,14.5,16.72,15.3,11.31,1.09,20.83-7.77,20.83-18.85,0-2.9-.67-5.64-1.84-8.1h223.56c1.15,0,2.08-.93,2.08-2.08v-16.79Z"/>
      <g>
        <path class="cls-1" d="M596.04,529.78v26.66h693.08v83.93l13.59-.68,24.41-3.74v-106.17h-731.09ZM685.87,553.39c-.04.39-.37.69-.77.69h-59.87c-.46,0-.82-.4-.77-.85l1.82-17.29c.04-.39.37-.69.77-.69h59.87c.46,0,.82.4.77.85l-1.82,17.29ZM757.54,553.38c-.03.4-.37.71-.77.71h-59.87c-.45,0-.81-.39-.77-.84l1.51-17.29c.03-.4.37-.71.77-.71h59.87c.45,0,.81.39.77.84l-1.51,17.29ZM829.2,553.37c-.03.41-.37.72-.77.72h-59.88c-.45,0-.8-.38-.77-.83l1.21-17.29c.03-.41.37-.72.77-.72h59.88c.45,0,.8.38.77.83l-1.21,17.29ZM900.86,553.35c-.02.41-.36.73-.77.73h-59.88c-.44,0-.8-.37-.77-.81l.91-17.29c.02-.41.36-.73.77-.73h59.88c.44,0,.8.37.77.81l-.91,17.29ZM972.82,553.31c0,.43-.35.77-.77.77h-59.88c-.43,0-.77-.35-.77-.77v-17.29c0-.43.35-.77.77-.77h59.88c.43,0,.77.35.77.77v17.29ZM1044.01,554.08h-59.88c-.41,0-.75-.32-.77-.73l-.91-17.29c-.02-.44.33-.81.77-.81h59.88c.41,0,.75.32.77.73l.91,17.29c.02.44-.33.81-.77.81ZM1115.67,554.08h-59.88c-.41,0-.74-.31-.77-.72l-1.21-17.29c-.03-.45.32-.83.77-.83h59.88c.41,0,.74.31.77.72l1.21,17.29c.03.45-.32.83-.77.83ZM1187.33,554.08h-59.87c-.4,0-.74-.31-.77-.71l-1.51-17.29c-.04-.45.32-.84.77-.84h59.87c.4,0,.74.31.77.71l1.51,17.29c.04.45-.32.84-.77.84ZM1258.99,554.08h-59.87c-.4,0-.73-.3-.77-.69l-1.82-17.29c-.05-.46.31-.85.77-.85h59.87c.4,0,.73.3.77.69l1.82,17.29c.05.46-.31.85-.77.85ZM1316.27,569.15c0,1.08-.87,1.95-1.95,1.95h-15.69c-1.08,0-1.95-.87-1.95-1.95v-26.6c0-1.08.87-1.95,1.95-1.95h15.69c1.08,0,1.95.87,1.95,1.95v26.6Z"/>
        <rect class="cls-1" x="594.36" y="527.73" width="734.44" height="2.04" rx=".92" ry=".92"/>
        <rect class="cls-2" x="1296.68" y="540.59" width="19.58" height="30.5" rx="1.76" ry="1.76"/>
        <g>
          <path class="cls-7" d="M626.28,535.94l-1.82,17.29c-.05.46.31.85.77.85h59.87c.4,0,.73-.3.77-.69l1.82-17.29c.05-.46-.31-.85-.77-.85h-59.87c-.4,0-.73.3-.77.69ZM682.55,551.7h-54.25c-.46,0-.82-.4-.77-.85l1.32-12.52c.04-.39.37-.69.77-.69h54.25c.46,0,.82.4.77.85l-1.32,12.52c-.04.39-.37.69-.77.69Z"/>
          <path class="cls-7" d="M697.63,535.95l-1.51,17.29c-.04.45.32.84.77.84h59.87c.4,0,.74-.31.77-.71l1.51-17.29c.04-.45-.32-.84-.77-.84h-59.87c-.4,0-.74.31-.77.71ZM754.17,551.7h-54.26c-.45,0-.81-.39-.77-.84l1.1-12.52c.03-.4.37-.71.77-.71h54.26c.45,0,.81.39.77.84l-1.1,12.52c-.03.4-.37.71-.77.71Z"/>
          <path class="cls-7" d="M768.99,535.97l-1.21,17.29c-.03.45.32.83.77.83h59.88c.41,0,.74-.31.77-.72l1.21-17.29c.03-.45-.32-.83-.77-.83h-59.88c-.41,0-.74.31-.77.72ZM825.79,551.7h-54.26c-.45,0-.8-.38-.77-.83l.88-12.52c.03-.41.37-.72.77-.72h54.26c.45,0,.8.38.77.83l-.88,12.52c-.03.41-.37.72-.77.72Z"/>
          <path class="cls-7" d="M840.34,535.98l-.91,17.29c-.02.44.33.81.77.81h59.88c.41,0,.75-.32.77-.73l.91-17.29c.02-.44-.33-.81-.77-.81h-59.88c-.41,0-.75.32-.77.73ZM897.4,551.7h-54.26c-.44,0-.8-.37-.77-.81l.66-12.52c.02-.41.36-.73.77-.73h54.26c.44,0,.8.37.77.81l-.66,12.52c-.02.41-.36.73-.77.73Z"/>
          <path class="cls-7" d="M1196.53,536.1l1.82,17.29c.04.39.37.69.77.69h59.87c.46,0,.82-.4.77-.85l-1.82-17.29c-.04-.39-.37-.69-.77-.69h-59.87c-.46,0-.82.4-.77.85ZM1200.36,537.63h54.25c.4,0,.73.3.77.69l1.32,12.52c.05.46-.31.85-.77.85h-54.25c-.4,0-.73-.3-.77-.69l-1.32-12.52c-.05-.46.31-.85.77-.85Z"/>
          <path class="cls-7" d="M1125.17,536.09l1.51,17.29c.03.4.37.71.77.71h59.87c.45,0,.81-.39.77-.84l-1.51-17.29c-.03-.4-.37-.71-.77-.71h-59.87c-.45,0-.81.39-.77.84ZM1128.96,537.63h54.26c.4,0,.74.31.77.71l1.1,12.52c.04.45-.32.84-.77.84h-54.26c-.4,0-.74-.31-.77-.71l-1.1-12.52c-.04-.45.32-.84.77-.84Z"/>
          <path class="cls-7" d="M1053.81,536.08l1.21,17.29c.03.41.37.72.77.72h59.88c.45,0,.8-.38.77-.83l-1.21-17.29c-.03-.41-.37-.72-.77-.72h-59.88c-.45,0-.8.38-.77.83ZM1057.56,537.63h54.26c.41,0,.74.31.77.72l.88,12.52c.03.45-.32.83-.77.83h-54.26c-.41,0-.74-.31-.77-.72l-.88-12.52c-.03-.45.32-.83.77-.83Z"/>
          <path class="cls-7" d="M982.46,536.06l.91,17.29c.02.41.36.73.77.73h59.88c.44,0,.8-.37.77-.81l-.91-17.29c-.02-.41-.36-.73-.77-.73h-59.88c-.44,0-.8.37-.77.81ZM986.16,537.63h54.26c.41,0,.75.32.77.73l.66,12.52c.02.44-.33.81-.77.81h-54.26c-.41,0-.75-.32-.77-.73l-.66-12.52c-.02-.44.33-.81.77-.81Z"/>
          <path class="cls-7" d="M911.4,536.02v17.29c0,.43.35.77.77.77h59.88c.43,0,.77-.35.77-.77v-17.29c0-.43-.35-.77-.77-.77h-59.88c-.43,0-.77.35-.77.77ZM969.24,551.7h-54.26c-.43,0-.77-.35-.77-.77v-12.52c0-.43.35-.77.77-.77h54.26c.43,0,.77.35.77.77v12.52c0,.43-.35.77-.77.77Z"/>
        </g>
        <g>
          <line class="cls-2" x1="599.11" y1="521.36" x2="1322.87" y2="521.36"/>
          <line class="cls-2" x1="601.85" y1="521.36" x2="601.85" y2="527.73"/>
          <line class="cls-2" x1="746.03" y1="521.36" x2="746.03" y2="527.73"/>
          <line class="cls-2" x1="888.68" y1="521.36" x2="888.68" y2="527.73"/>
          <line class="cls-2" x1="1031.17" y1="521.36" x2="1031.17" y2="527.73"/>
          <line class="cls-2" x1="1174.74" y1="521.36" x2="1174.74" y2="527.73"/>
          <line class="cls-2" x1="1319.84" y1="521.36" x2="1319.84" y2="527.73"/>
        </g>
        <polygon class="cls-1" points="1289.12 556.44 588.46 556.44 570.38 569.47 1307.19 569.47 1289.12 556.44"/>
        <g>
          <line class="cls-2" x1="1316.94" y1="637.51" x2="1325.75" y2="678.64"/>
          <line class="cls-2" x1="1325.27" y1="676.44" x2="1302.71" y2="676.44"/>
          <line class="cls-2" x1="1320.67" y1="654.93" x2="1302.71" y2="654.93"/>
        </g>
      </g>
      <g>
        <path class="cls-4" d="M577.91,569.47v126.21c0,2.9,2.35,5.25,5.25,5.25h323.41v-122.29h64.13v122.29h327.49c2.5,0,4.53-2.03,4.53-4.53v-126.93h-724.81ZM635.31,586.74v45.86h-30.37v-45.86h0c0-.92.74-1.66,1.66-1.66h27.07c.91,0,1.64.74,1.64,1.64v.02ZM674.02,586.74v45.86h-30.37v-45.86h0c0-.92.74-1.66,1.66-1.66h27.07c.91,0,1.64.74,1.64,1.64v.02ZM823.32,586.74v45.86h-63.7v-45.86h0c0-.92.74-1.66,1.66-1.66h60.4c.91,0,1.64.74,1.64,1.64v.02ZM1113.68,600.24v32.36h-63.7v-45.86c0-.92.74-1.66,1.66-1.66h60.37c.92,0,1.66.74,1.66,1.66v13.5ZM1267.92,586.74v45.86h-63.7v-45.86h0c0-.92.74-1.66,1.66-1.66h60.4c.91,0,1.64.74,1.64,1.64v.02Z"/>
        <line class="cls-2" x1="970.69" y1="648.47" x2="1304.19" y2="648.47"/>
        <line class="cls-2" x1="576.43" y1="648.47" x2="906.56" y2="648.47"/>
        <path class="cls-7" d="M1338.4,708.16l-20.33-7.24h-722.04l-20.33,7.24c-1.53.55-1.39,2.76.2,3.11l20.13,4.41h722.04l20.13-4.41c1.59-.35,1.73-2.56.2-3.11Z"/>
      </g>
      <g>
        <g>
          <path class="cls-1" d="M761.11,585.08h60.72c.82,0,1.49.67,1.49,1.49v2.28h-63.7v-2.26c0-.83.67-1.5,1.5-1.5Z"/>
          <rect class="cls-2" x="756.85" y="632.6" width="69.23" height="3.76" rx="1.7" ry="1.7"/>
          <path class="cls-2" d="M761.12,585.08h60.69c.83,0,1.5.67,1.5,1.5v46.02h-63.7v-46.02c0-.83.67-1.5,1.5-1.5Z"/>
        </g>
        <g>
          <path class="cls-1" d="M645.15,585.08h27.38c.82,0,1.49.67,1.49,1.49v2.28h-30.37v-2.26c0-.83.67-1.5,1.5-1.5Z"/>
          <rect class="cls-2" x="642.34" y="632.6" width="33" height="3.76" rx="1.7" ry="1.7"/>
          <path class="cls-2" d="M645.16,585.08h27.36c.83,0,1.5.67,1.5,1.5v46.02h-30.37v-46.02c0-.83.67-1.5,1.5-1.5Z"/>
        </g>
        <g>
          <path class="cls-1" d="M606.44,585.08h27.38c.82,0,1.49.67,1.49,1.49v2.28h-30.37v-2.26c0-.83.67-1.5,1.5-1.5Z"/>
          <rect class="cls-2" x="603.62" y="632.6" width="33" height="3.76" rx="1.7" ry="1.7"/>
          <path class="cls-2" d="M606.44,585.08h27.36c.83,0,1.5.67,1.5,1.5v46.02h-30.37v-46.02c0-.83.67-1.5,1.5-1.5Z"/>
        </g>
        <g>
          <path class="cls-1" d="M1205.72,585.08h60.72c.82,0,1.49.67,1.49,1.49v2.28h-63.7v-2.26c0-.83.67-1.5,1.5-1.5Z"/>
          <rect class="cls-1" x="1201.46" y="632.6" width="69.23" height="3.76" rx="1.7" ry="1.7"/>
          <path class="cls-2" d="M1205.73,585.08h60.69c.83,0,1.5.67,1.5,1.5v46.02h-63.7v-46.02c0-.83.67-1.5,1.5-1.5Z"/>
        </g>
        <g>
          <rect class="cls-1" x="1049.98" y="600.24" width="63.7" height="3.76"/>
          <rect class="cls-2" x="1047.22" y="632.6" width="69.23" height="3.76" rx="1.7" ry="1.7"/>
          <path class="cls-2" d="M1051.48,585.08h60.69c.83,0,1.5.67,1.5,1.5v46.02h-63.7v-46.02c0-.83.67-1.5,1.5-1.5Z"/>
        </g>
      </g>
      <g>
        <path class="cls-1" d="M906.56,578.64v122.29h64.13v-122.29h-64.13ZM934.01,633.67h-22.84v-40.9c0-4.25,3.44-7.69,7.69-7.69h7.45c4.25,0,7.69,3.44,7.69,7.69v40.9ZM966.08,633.67h-22.84v-40.9c0-4.25,3.44-7.69,7.69-7.69h7.45c4.25,0,7.69,3.44,7.69,7.69v40.9Z"/>
        <line class="cls-2" x1="938.63" y1="641.56" x2="938.63" y2="651.46"/>
        <line class="cls-2" x1="938.63" y1="660.13" x2="938.63" y2="685.88"/>
        <line class="cls-2" x1="938.63" y1="689.21" x2="938.63" y2="700.93"/>
        <line class="cls-2" x1="938.63" y1="612.14" x2="938.63" y2="615.65"/>
        <line class="cls-2" x1="938.63" y1="589.15" x2="938.63" y2="609.58"/>
        <g>
          <rect class="cls-2" x="932.56" y="649.12" width="3.85" height="12.75" rx=".95" ry=".95"/>
          <rect class="cls-2" x="930.92" y="652.97" width="10.12" height="2.53" rx="1.14" ry="1.14"/>
        </g>
      </g>
      <g>
        <path class="cls-1" d="M683.94,561.46c0,.37-.14.72-.42,1.04-.94,1.18-3.47,2.02-6.44,2.02s-5.5-.84-6.44-2.02c-.28-.32-.42-.67-.42-1.04,0-1.69,3.07-3.07,6.86-3.07s6.86,1.38,6.86,3.07Z"/>
        <path class="cls-1" d="M683.52,562.49c-.94,1.18-3.47,2.02-6.44,2.02s-5.5-.84-6.44-2.02"/>
        <path class="cls-1" d="M680.78,550.88v10.06c0,.92-1.66,1.66-3.71,1.66s-3.71-.74-3.71-1.66v-10.06h7.41Z"/>
        <rect class="cls-1" x="668.36" y="545.88" width="17.44" height="5"/>
        <rect class="cls-1" x="666.66" y="544.8" width="1.7" height="7.31" rx=".77" ry=".77"/>
        <rect class="cls-1" x="685.8" y="544.8" width="1.7" height="7.31" rx=".77" ry=".77"/>
        <path class="cls-1" d="M683.94,561.46v2.09c0,1.7-3.07,3.07-6.86,3.07s-6.86-1.37-6.86-3.07v-2.09c0,.37.14.72.42,1.04.94,1.18,3.47,2.02,6.44,2.02s5.5-.84,6.44-2.02c.28-.32.42-.67.42-1.04Z"/>
      </g>
      <g>
        <rect class="cls-4" x="563.74" y="733.79" width="786.42" height="5.48" rx="2.48" ry="2.48"/>
        <line class="cls-4" x1="709.04" y1="733.79" x2="709.04" y2="715.68"/>
        <line class="cls-4" x1="823.32" y1="733.79" x2="823.32" y2="715.68"/>
        <line class="cls-4" x1="982.45" y1="733.79" x2="982.45" y2="715.68"/>
        <line class="cls-4" x1="1085.13" y1="733.79" x2="1085.13" y2="715.68"/>
        <line class="cls-4" x1="1199.59" y1="733.79" x2="1199.59" y2="715.68"/>
      </g>
      <g>
        <g>
          <g>
            <line class="cls-2" x1="577.91" y1="687.65" x2="585.73" y2="687.65"/>
            <circle class="cls-7" cx="581.82" cy="689.49" r=".5"/>
          </g>
          <g>
            <line class="cls-2" x1="585.73" y1="687.65" x2="593.56" y2="687.65"/>
            <circle class="cls-7" cx="589.65" cy="689.49" r=".5"/>
          </g>
          <g>
            <line class="cls-2" x1="593.56" y1="687.65" x2="601.38" y2="687.65"/>
            <circle class="cls-7" cx="597.47" cy="689.49" r=".5"/>
          </g>
          <g>
            <line class="cls-2" x1="601.38" y1="687.65" x2="609.21" y2="687.65"/>
            <circle class="cls-7" cx="605.3" cy="689.49" r=".5"/>
          </g>
          <g>
            <line class="cls-2" x1="609.21" y1="687.65" x2="617.03" y2="687.65"/>
            <circle class="cls-7" cx="613.12" cy="689.49" r=".5"/>
          </g>
          <g>
            <line class="cls-2" x1="617.03" y1="687.65" x2="624.86" y2="687.65"/>
            <path class="cls-7" d="M621.45,689.49c0,.28-.23.5-.5.5s-.5-.23-.5-.5.23-.5.5-.5.5.23.5.5Z"/>
          </g>
          <g>
            <line class="cls-2" x1="624.86" y1="687.65" x2="632.68" y2="687.65"/>
            <path class="cls-7" d="M629.28,689.49c0,.28-.23.5-.5.5s-.5-.23-.5-.5.23-.5.5-.5.5.23.5.5Z"/>
          </g>
          <g>
            <line class="cls-2" x1="632.68" y1="687.65" x2="640.51" y2="687.65"/>
            <path class="cls-7" d="M637.1,689.49c0,.28-.23.5-.5.5s-.5-.23-.5-.5.23-.5.5-.5.5.23.5.5Z"/>
          </g>
          <g>
            <line class="cls-2" x1="640.51" y1="687.65" x2="648.33" y2="687.65"/>
            <path class="cls-7" d="M644.93,689.49c0,.28-.23.5-.5.5s-.5-.23-.5-.5.23-.5.5-.5.5.23.5.5Z"/>
          </g>
          <g>
            <line class="cls-2" x1="648.33" y1="687.65" x2="656.16" y2="687.65"/>
            <circle class="cls-7" cx="652.25" cy="689.49" r=".5"/>
          </g>
          <g>
            <line class="cls-2" x1="656.16" y1="687.65" x2="663.98" y2="687.65"/>
            <circle class="cls-7" cx="660.07" cy="689.49" r=".5"/>
          </g>
          <g>
            <line class="cls-2" x1="663.98" y1="687.65" x2="671.81" y2="687.65"/>
            <circle class="cls-7" cx="667.9" cy="689.49" r=".5"/>
          </g>
          <g>
            <line class="cls-2" x1="671.81" y1="687.65" x2="679.63" y2="687.65"/>
            <circle class="cls-7" cx="675.72" cy="689.49" r=".5"/>
          </g>
          <g>
            <line class="cls-2" x1="679.63" y1="687.65" x2="687.46" y2="687.65"/>
            <circle class="cls-7" cx="683.55" cy="689.49" r=".5"/>
          </g>
          <g>
            <line class="cls-2" x1="687.46" y1="687.65" x2="695.28" y2="687.65"/>
            <circle class="cls-7" cx="691.37" cy="689.49" r=".5"/>
          </g>
          <g>
            <line class="cls-2" x1="695.28" y1="687.65" x2="703.11" y2="687.65"/>
            <circle class="cls-7" cx="699.2" cy="689.49" r=".5"/>
          </g>
          <g>
            <line class="cls-2" x1="703.11" y1="687.65" x2="710.93" y2="687.65"/>
            <circle class="cls-7" cx="707.02" cy="689.49" r=".5"/>
          </g>
          <g>
            <line class="cls-2" x1="710.93" y1="687.65" x2="718.76" y2="687.65"/>
            <circle class="cls-7" cx="714.85" cy="689.49" r=".5"/>
          </g>
          <g>
            <line class="cls-2" x1="718.76" y1="687.65" x2="726.58" y2="687.65"/>
            <circle class="cls-7" cx="722.67" cy="689.49" r=".5"/>
          </g>
          <g>
            <line class="cls-2" x1="726.58" y1="687.65" x2="734.41" y2="687.65"/>
            <circle class="cls-7" cx="730.5" cy="689.49" r=".5"/>
          </g>
          <g>
            <line class="cls-2" x1="734.41" y1="687.65" x2="742.23" y2="687.65"/>
            <circle class="cls-7" cx="738.32" cy="689.49" r=".5"/>
          </g>
          <g>
            <line class="cls-2" x1="742.23" y1="687.65" x2="750.06" y2="687.65"/>
            <circle class="cls-7" cx="746.15" cy="689.49" r=".5"/>
          </g>
          <g>
            <line class="cls-2" x1="750.06" y1="687.65" x2="757.88" y2="687.65"/>
            <circle class="cls-7" cx="753.97" cy="689.49" r=".5"/>
          </g>
          <g>
            <line class="cls-2" x1="757.88" y1="687.65" x2="765.71" y2="687.65"/>
            <circle class="cls-7" cx="761.8" cy="689.49" r=".5"/>
          </g>
          <g>
            <line class="cls-2" x1="765.71" y1="687.65" x2="773.53" y2="687.65"/>
            <circle class="cls-7" cx="769.62" cy="689.49" r=".5"/>
          </g>
          <g>
            <line class="cls-2" x1="773.53" y1="687.65" x2="781.36" y2="687.65"/>
            <circle class="cls-7" cx="777.45" cy="689.49" r=".5"/>
          </g>
          <g>
            <line class="cls-2" x1="781.36" y1="687.65" x2="789.18" y2="687.65"/>
            <circle class="cls-7" cx="785.27" cy="689.49" r=".5"/>
          </g>
          <g>
            <line class="cls-2" x1="789.18" y1="687.65" x2="797.01" y2="687.65"/>
            <circle class="cls-7" cx="793.1" cy="689.49" r=".5"/>
          </g>
          <g>
            <line class="cls-2" x1="797.01" y1="687.65" x2="804.83" y2="687.65"/>
            <circle class="cls-7" cx="800.92" cy="689.49" r=".5"/>
          </g>
          <g>
            <line class="cls-2" x1="804.83" y1="687.65" x2="812.66" y2="687.65"/>
            <circle class="cls-7" cx="808.75" cy="689.49" r=".5"/>
          </g>
          <g>
            <line class="cls-2" x1="812.66" y1="687.65" x2="820.48" y2="687.65"/>
            <circle class="cls-7" cx="816.57" cy="689.49" r=".5"/>
          </g>
          <g>
            <line class="cls-2" x1="820.48" y1="687.65" x2="828.31" y2="687.65"/>
            <circle class="cls-7" cx="824.4" cy="689.49" r=".5"/>
          </g>
          <g>
            <line class="cls-2" x1="828.31" y1="687.65" x2="836.14" y2="687.65"/>
            <circle class="cls-7" cx="832.22" cy="689.49" r=".5"/>
          </g>
          <g>
            <line class="cls-2" x1="836.14" y1="687.65" x2="843.96" y2="687.65"/>
            <circle class="cls-7" cx="840.05" cy="689.49" r=".5"/>
          </g>
          <g>
            <line class="cls-2" x1="843.96" y1="687.65" x2="851.79" y2="687.65"/>
            <circle class="cls-7" cx="847.87" cy="689.49" r=".5"/>
          </g>
          <g>
            <line class="cls-2" x1="851.79" y1="687.65" x2="859.61" y2="687.65"/>
            <circle class="cls-7" cx="855.7" cy="689.49" r=".5"/>
          </g>
          <g>
            <line class="cls-2" x1="859.61" y1="687.65" x2="867.44" y2="687.65"/>
            <path class="cls-7" d="M864.03,689.49c0,.28-.23.5-.5.5s-.51-.23-.51-.5.23-.5.51-.5.5.23.5.5Z"/>
          </g>
          <g>
            <line class="cls-2" x1="867.44" y1="687.65" x2="875.26" y2="687.65"/>
            <path class="cls-7" d="M871.85,689.49c0,.28-.23.5-.5.5s-.51-.23-.51-.5.23-.5.51-.5.5.23.5.5Z"/>
          </g>
          <g>
            <line class="cls-2" x1="875.26" y1="687.65" x2="883.09" y2="687.65"/>
            <path class="cls-7" d="M879.68,689.49c0,.28-.23.5-.5.5s-.51-.23-.51-.5.23-.5.51-.5.5.23.5.5Z"/>
          </g>
          <g>
            <line class="cls-2" x1="883.09" y1="687.65" x2="890.91" y2="687.65"/>
            <path class="cls-7" d="M887.5,689.49c0,.28-.23.5-.5.5s-.51-.23-.51-.5.23-.5.51-.5.5.23.5.5Z"/>
          </g>
          <g>
            <line class="cls-2" x1="890.91" y1="687.65" x2="898.74" y2="687.65"/>
            <path class="cls-7" d="M895.33,689.49c0,.28-.23.5-.51.5s-.5-.23-.5-.5.23-.5.5-.5.51.23.51.5Z"/>
          </g>
          <g>
            <line class="cls-2" x1="898.74" y1="687.65" x2="906.56" y2="687.65"/>
            <path class="cls-7" d="M903.15,689.49c0,.28-.23.5-.51.5s-.5-.23-.5-.5.23-.5.5-.5.51.23.51.5Z"/>
          </g>
        </g>
        <g>
          <g>
            <line class="cls-2" x1="970.69" y1="687.65" x2="978.41" y2="687.65"/>
            <path class="cls-7" d="M975.05,689.49c0,.28-.22.5-.5.5s-.5-.23-.5-.5.22-.5.5-.5.5.23.5.5Z"/>
          </g>
          <g>
            <line class="cls-2" x1="978.41" y1="687.65" x2="986.14" y2="687.65"/>
            <path class="cls-7" d="M982.77,689.49c0,.28-.22.5-.5.5s-.5-.23-.5-.5.22-.5.5-.5.5.23.5.5Z"/>
          </g>
          <g>
            <line class="cls-2" x1="986.14" y1="687.65" x2="993.86" y2="687.65"/>
            <path class="cls-7" d="M990.5,689.49c0,.28-.22.5-.5.5s-.5-.23-.5-.5.22-.5.5-.5.5.23.5.5Z"/>
          </g>
          <g>
            <line class="cls-2" x1="993.86" y1="687.65" x2="1001.58" y2="687.65"/>
            <path class="cls-7" d="M998.22,689.49c0,.28-.22.5-.5.5s-.5-.23-.5-.5.22-.5.5-.5.5.23.5.5Z"/>
          </g>
          <g>
            <line class="cls-2" x1="1001.58" y1="687.65" x2="1009.3" y2="687.65"/>
            <path class="cls-7" d="M1005.94,689.49c0,.28-.22.5-.5.5s-.5-.23-.5-.5.22-.5.5-.5.5.23.5.5Z"/>
          </g>
          <g>
            <line class="cls-2" x1="1009.3" y1="687.65" x2="1017.02" y2="687.65"/>
            <path class="cls-7" d="M1013.66,689.49c0,.28-.22.5-.5.5s-.5-.23-.5-.5.22-.5.5-.5.5.23.5.5Z"/>
          </g>
          <g>
            <line class="cls-2" x1="1017.02" y1="687.65" x2="1024.74" y2="687.65"/>
            <ellipse class="cls-7" cx="1020.88" cy="689.49" rx=".5" ry=".5"/>
          </g>
          <g>
            <line class="cls-2" x1="1024.74" y1="687.65" x2="1032.46" y2="687.65"/>
            <path class="cls-7" d="M1029.1,689.49c0,.28-.22.5-.5.5s-.5-.23-.5-.5.22-.5.5-.5.5.23.5.5Z"/>
          </g>
          <g>
            <line class="cls-2" x1="1032.46" y1="687.65" x2="1040.19" y2="687.65"/>
            <path class="cls-7" d="M1036.82,689.49c0,.28-.22.5-.5.5s-.5-.23-.5-.5.22-.5.5-.5.5.23.5.5Z"/>
          </g>
          <g>
            <line class="cls-2" x1="1040.19" y1="687.65" x2="1047.91" y2="687.65"/>
            <path class="cls-7" d="M1044.54,689.49c0,.28-.22.5-.5.5s-.5-.23-.5-.5.22-.5.5-.5.5.23.5.5Z"/>
          </g>
          <g>
            <line class="cls-2" x1="1047.91" y1="687.65" x2="1055.63" y2="687.65"/>
            <path class="cls-7" d="M1052.27,689.49c0,.28-.22.5-.5.5s-.5-.23-.5-.5.22-.5.5-.5.5.23.5.5Z"/>
          </g>
          <g>
            <line class="cls-2" x1="1055.63" y1="687.65" x2="1063.35" y2="687.65"/>
            <ellipse class="cls-7" cx="1059.49" cy="689.49" rx=".5" ry=".5"/>
          </g>
          <g>
            <line class="cls-2" x1="1063.35" y1="687.65" x2="1071.07" y2="687.65"/>
            <path class="cls-7" d="M1067.71,689.49c0,.28-.22.5-.5.5s-.5-.23-.5-.5.22-.5.5-.5.5.23.5.5Z"/>
          </g>
          <g>
            <line class="cls-2" x1="1071.07" y1="687.65" x2="1078.79" y2="687.65"/>
            <path class="cls-7" d="M1075.43,689.49c0,.28-.22.5-.5.5s-.5-.23-.5-.5.22-.5.5-.5.5.23.5.5Z"/>
          </g>
          <g>
            <line class="cls-2" x1="1078.79" y1="687.65" x2="1086.51" y2="687.65"/>
            <path class="cls-7" d="M1083.15,689.49c0,.28-.22.5-.5.5s-.5-.23-.5-.5.22-.5.5-.5.5.23.5.5Z"/>
          </g>
          <g>
            <line class="cls-2" x1="1086.51" y1="687.65" x2="1094.24" y2="687.65"/>
            <path class="cls-7" d="M1090.87,689.49c0,.28-.22.5-.5.5s-.5-.23-.5-.5.22-.5.5-.5.5.23.5.5Z"/>
          </g>
          <g>
            <line class="cls-2" x1="1094.24" y1="687.65" x2="1101.96" y2="687.65"/>
            <path class="cls-7" d="M1098.59,689.49c0,.28-.22.5-.5.5s-.5-.23-.5-.5.22-.5.5-.5.5.23.5.5Z"/>
          </g>
          <g>
            <line class="cls-2" x1="1101.96" y1="687.65" x2="1109.68" y2="687.65"/>
            <path class="cls-7" d="M1106.32,689.49c0,.28-.22.5-.5.5s-.5-.23-.5-.5.22-.5.5-.5.5.23.5.5Z"/>
          </g>
          <g>
            <line class="cls-2" x1="1109.68" y1="687.65" x2="1117.4" y2="687.65"/>
            <path class="cls-7" d="M1114.04,689.49c0,.28-.22.5-.5.5s-.5-.23-.5-.5.22-.5.5-.5.5.23.5.5Z"/>
          </g>
          <g>
            <line class="cls-2" x1="1117.4" y1="687.65" x2="1125.12" y2="687.65"/>
            <ellipse class="cls-7" cx="1121.26" cy="689.49" rx=".5" ry=".5"/>
          </g>
          <g>
            <line class="cls-2" x1="1125.12" y1="687.65" x2="1132.84" y2="687.65"/>
            <path class="cls-7" d="M1129.48,689.49c0,.28-.22.5-.5.5s-.5-.23-.5-.5.22-.5.5-.5.5.23.5.5Z"/>
          </g>
          <g>
            <line class="cls-2" x1="1132.84" y1="687.65" x2="1140.56" y2="687.65"/>
            <path class="cls-7" d="M1137.2,689.49c0,.28-.22.5-.5.5s-.5-.23-.5-.5.22-.5.5-.5.5.23.5.5Z"/>
          </g>
          <g>
            <line class="cls-2" x1="1140.56" y1="687.65" x2="1148.29" y2="687.65"/>
            <path class="cls-7" d="M1144.92,689.49c0,.28-.22.5-.5.5s-.5-.23-.5-.5.22-.5.5-.5.5.23.5.5Z"/>
          </g>
          <g>
            <line class="cls-2" x1="1148.29" y1="687.65" x2="1156.01" y2="687.65"/>
            <path class="cls-7" d="M1152.64,689.49c0,.28-.22.5-.5.5s-.5-.23-.5-.5.22-.5.5-.5.5.23.5.5Z"/>
          </g>
          <g>
            <line class="cls-2" x1="1156.01" y1="687.65" x2="1163.73" y2="687.65"/>
            <ellipse class="cls-7" cx="1159.87" cy="689.49" rx=".5" ry=".5"/>
          </g>
          <g>
            <line class="cls-2" x1="1163.73" y1="687.65" x2="1171.45" y2="687.65"/>
            <path class="cls-7" d="M1168.09,689.49c0,.28-.22.5-.5.5s-.5-.23-.5-.5.22-.5.5-.5.5.23.5.5Z"/>
          </g>
          <g>
            <line class="cls-2" x1="1171.45" y1="687.65" x2="1179.17" y2="687.65"/>
            <path class="cls-7" d="M1175.81,689.49c0,.28-.22.5-.5.5s-.5-.23-.5-.5.22-.5.5-.5.5.23.5.5Z"/>
          </g>
          <g>
            <line class="cls-2" x1="1179.17" y1="687.65" x2="1186.89" y2="687.65"/>
            <path class="cls-7" d="M1183.53,689.49c0,.28-.22.5-.5.5s-.5-.23-.5-.5.22-.5.5-.5.5.23.5.5Z"/>
          </g>
          <g>
            <line class="cls-2" x1="1186.89" y1="687.65" x2="1194.61" y2="687.65"/>
            <path class="cls-7" d="M1191.25,689.49c0,.28-.22.5-.5.5s-.5-.23-.5-.5.22-.5.5-.5.5.23.5.5Z"/>
          </g>
          <g>
            <line class="cls-2" x1="1194.61" y1="687.65" x2="1202.33" y2="687.65"/>
            <path class="cls-7" d="M1198.97,689.49c0,.28-.22.5-.5.5s-.5-.23-.5-.5.22-.5.5-.5.5.23.5.5Z"/>
          </g>
          <g>
            <line class="cls-2" x1="1202.33" y1="687.65" x2="1210.06" y2="687.65"/>
            <path class="cls-7" d="M1206.69,689.49c0,.28-.22.5-.5.5s-.5-.23-.5-.5.22-.5.5-.5.5.23.5.5Z"/>
          </g>
          <g>
            <line class="cls-2" x1="1210.06" y1="687.65" x2="1217.78" y2="687.65"/>
            <path class="cls-7" d="M1214.42,689.49c0,.28-.22.5-.5.5s-.5-.23-.5-.5.22-.5.5-.5.5.23.5.5Z"/>
          </g>
          <g>
            <line class="cls-2" x1="1217.78" y1="687.65" x2="1225.5" y2="687.65"/>
            <ellipse class="cls-7" cx="1221.64" cy="689.49" rx=".5" ry=".5"/>
          </g>
          <g>
            <line class="cls-2" x1="1225.5" y1="687.65" x2="1233.22" y2="687.65"/>
            <path class="cls-7" d="M1229.86,689.49c0,.28-.22.5-.5.5s-.5-.23-.5-.5.22-.5.5-.5.5.23.5.5Z"/>
          </g>
          <g>
            <line class="cls-2" x1="1233.22" y1="687.65" x2="1240.94" y2="687.65"/>
            <path class="cls-7" d="M1237.58,689.49c0,.28-.22.5-.5.5s-.5-.23-.5-.5.22-.5.5-.5.5.23.5.5Z"/>
          </g>
          <g>
            <line class="cls-2" x1="1240.94" y1="687.65" x2="1248.66" y2="687.65"/>
            <path class="cls-7" d="M1245.3,689.49c0,.28-.22.5-.5.5s-.5-.23-.5-.5.22-.5.5-.5.5.23.5.5Z"/>
          </g>
          <g>
            <line class="cls-2" x1="1248.66" y1="687.65" x2="1256.38" y2="687.65"/>
            <path class="cls-7" d="M1253.02,689.49c0,.28-.22.5-.5.5s-.5-.23-.5-.5.22-.5.5-.5.5.23.5.5Z"/>
          </g>
          <g>
            <line class="cls-2" x1="1256.38" y1="687.65" x2="1264.11" y2="687.65"/>
            <ellipse class="cls-7" cx="1260.25" cy="689.49" rx=".5" ry=".5"/>
          </g>
          <g>
            <line class="cls-2" x1="1264.11" y1="687.65" x2="1271.83" y2="687.65"/>
            <path class="cls-7" d="M1268.46,689.49c0,.28-.22.5-.5.5s-.5-.23-.5-.5.22-.5.5-.5.5.23.5.5Z"/>
          </g>
          <g>
            <line class="cls-2" x1="1271.83" y1="687.65" x2="1279.55" y2="687.65"/>
            <path class="cls-7" d="M1276.19,689.49c0,.28-.22.5-.5.5s-.5-.23-.5-.5.22-.5.5-.5.5.23.5.5Z"/>
          </g>
          <g>
            <line class="cls-2" x1="1279.55" y1="687.65" x2="1287.27" y2="687.65"/>
            <path class="cls-7" d="M1283.91,689.49c0,.28-.22.5-.5.5s-.5-.23-.5-.5.22-.5.5-.5.5.23.5.5Z"/>
          </g>
          <g>
            <line class="cls-2" x1="1287.27" y1="687.65" x2="1294.99" y2="687.65"/>
            <path class="cls-7" d="M1291.63,689.49c0,.28-.22.5-.5.5s-.5-.23-.5-.5.22-.5.5-.5.5.23.5.5Z"/>
          </g>
          <g>
            <line class="cls-2" x1="1294.99" y1="687.65" x2="1302.71" y2="687.65"/>
            <path class="cls-7" d="M1299.35,689.49c0,.28-.22.5-.5.5s-.5-.23-.5-.5.22-.5.5-.5.5.23.5.5Z"/>
          </g>
        </g>
      </g>
    </g>
  </g>
</svg>