<?xml version="1.0" encoding="UTF-8"?>
<svg id="Layer_1" data-name="Layer 1" xmlns="http://www.w3.org/2000/svg" viewBox="0 0 6560 750">
  <defs>
    <style>
      .cls-1, .cls-2 {
        stroke-linecap: round;
        stroke-linejoin: round;
      }

      .cls-1, .cls-2, .cls-3, .cls-4, .cls-5 {
        stroke: #cb352c;
      }

      .cls-1, .cls-3, .cls-4, .cls-6 {
        fill: #e5dbc6;
      }

      .cls-2, .cls-5 {
        fill: none;
      }

      .cls-3 {
        stroke-width: 2px;
      }

      .cls-3, .cls-4, .cls-5 {
        stroke-miterlimit: 10;
      }

      .cls-7 {
        fill: #cb352c;
      }

      .cls-7, .cls-6 {
        stroke-width: 0px;
      }
    </style>
  </defs>
  <rect class="cls-6" y="0" width="6560" height="750"/>
  <g id="Cloud-3">
    <path class="cls-2" d="M5729.21,54.02c-6.18-1.3-12.59-1.99-19.16-1.99-51.03,0-92.4,41.37-92.4,92.4,0,18.24,5.28,35.24,14.4,49.56"/>
    <path class="cls-2" d="M5980.53,15.3c-15.94-57.51-68.67-99.73-131.26-99.73-75.22,0-136.2,60.98-136.2,136.2,0,.1,0,.2,0,.31"/>
    <path class="cls-2" d="M5941.69,17.85c8.53-2.1,17.45-3.21,26.63-3.21,43.28,0,80.78,24.75,99.12,60.87"/>
    <path class="cls-2" d="M6058.15,85.82c6.77-10.99,18.91-18.31,32.76-18.31,17.85,0,32.85,12.16,37.19,28.64"/>
    <path class="cls-2" d="M6123.4,104.72c14.81-30.85,46.35-52.15,82.86-52.15,50.74,0,91.87,41.13,91.87,91.87,0,11.03-1.94,21.6-5.51,31.4"/>
    <path class="cls-2" d="M6295.85,164.85c7.57-5.49,16.88-8.73,26.95-8.73,25.37,0,45.93,20.56,45.93,45.93,0,4.18-.56,8.23-1.61,12.08"/>
    <path class="cls-2" d="M5647,194.37c-3.03-.41-6.11-.62-9.25-.62-38.05,0-68.9,30.85-68.9,68.9s30.85,68.9,68.9,68.9c0,0,761.21,0,761.21,0,34.81,0,63.02-28.22,63.02-63.02s-28.22-63.02-63.02-63.02c-20.85,0-39.34,10.13-50.81,25.74"/>
    <path class="cls-2" d="M5568.85,261.45c7.47,29.97,34.57,52.17,66.85,52.17,0,0,761.21,0,761.21,0,34.19,0,62.02-27.23,63-61.18,1.35,5.13,2.07,10.53,2.07,16.08,0,34.81-28.22,63.02-63.02,63.02,0,0-761.21,0-761.21,0-38.05,0-68.9-30.85-68.9-68.9,0-.39,0-.77,0-1.16"/>
    <path class="cls-2" d="M6105.68,251.12c-8.96,9.88-21.4,16.69-35.69,18.36-30.4,3.54-58-17.45-62.98-47.31-1.08.25-2.19.44-3.32.57-16.81,1.96-32.02-10.08-33.98-26.88-.43-3.7-.19-7.32.64-10.74,3.01,17.77,18.27,30.73,35.99,31.15-.37-5.83.15-11.53,1.46-16.96.99,5.83,2.68,11.37,4.98,16.56.53,1.2,1.09,2.37,1.68,3.53,12.9,25.21,40.5,41.03,70.29,37.56,7.44-.87,14.47-2.88,20.94-5.83Z"/>
    <path class="cls-2" d="M6075.83,70.43c-4.06,1.7-7.89,4.13-11.29,7.3-15.48,14.42-16.34,38.66-1.92,54.14,6.57,7.06,15.19,11.08,24.08,11.99-4.16-2.32-8.04-5.32-11.46-8.99-17.06-18.32-16.62-46.66.59-64.44Z"/>
    <path class="cls-2" d="M5791.61-70.19c-13.56,5.68-26.36,13.81-37.75,24.42-51.76,48.2-54.63,129.24-6.43,180.99,21.98,23.6,50.78,37.03,80.52,40.1-13.91-7.76-26.88-17.78-38.32-30.07-57.03-61.23-55.56-156,1.98-215.44Z"/>
  </g>
  <g id="Cloud-2">
    <path class="cls-2" d="M1463.22,432.75c-3.12-6.65-4.86-14.07-4.86-21.9,0-22.79,14.77-42.13,35.26-48.97"/>
    <path class="cls-2" d="M1529.77,381.55c-35.1-8.48-61.18-40.1-61.18-77.81,0-44.21,35.84-80.05,80.05-80.05,3.59,0,7.13.24,10.6.7"/>
    <path class="cls-2" d="M1706.64,85.61c-4.76-.48-9.59-.72-14.48-.72-77.69,0-140.96,61.73-143.44,138.81"/>
    <path class="cls-2" d="M1641.67,94.02c-6.29-14.8-9.77-31.08-9.77-48.18,0-61.02,44.35-111.69,102.57-121.53"/>
    <path class="cls-2" d="M2061.57,30.28c2.75-8.43,4.23-17.43,4.23-26.78,0-47.67-38.65-86.32-86.32-86.32-18.6,0-35.82,5.88-49.91,15.88"/>
    <path class="cls-2" d="M2050.82,24.17c8.96,4.49,17.26,10.09,24.73,16.61"/>
    <path class="cls-2" d="M2129.16,5.28c-4.22-1.16-8.67-1.77-13.26-1.77-21.31,0-39.52,13.31-46.75,32.07"/>
    <path class="cls-2" d="M2260.39,49.2c2.69-7.85,4.15-16.27,4.15-25.03,0-42.62-34.55-77.18-77.18-77.18-35.46,0-65.34,23.92-74.38,56.51"/>
    <path class="cls-2" d="M2253.29,46.89c47.92,13.92,83.34,57.22,85.46,109.11"/>
    <path class="cls-2" d="M2338.75,156c56.63,25.1,96.13,81.81,96.13,147.74,0,17.07-2.65,33.52-7.56,48.97"/>
    <path class="cls-2" d="M2387.97,324.84c42.67,18.87,72.44,61.57,72.44,111.23,0,15.55-2.92,30.41-8.24,44.07"/>
    <path class="cls-2" d="M1459.97,423.67c-64.12,1.73-115.56,54.24-115.56,118.78s53.2,118.82,118.82,118.82h1006.38c54.56,0,98.8-44.23,98.8-98.8s-44.23-98.8-98.8-98.8c-4.24,0-8.42.27-12.52.79"/>
    <path class="cls-2" d="M1473.49,277.15c-3.17,8.59-4.9,17.88-4.9,27.57,0,44.05,35.71,79.76,79.76,79.76,20.08,0,38.43-7.42,52.45-19.68-9.44,3.05-19.51,4.7-29.97,4.7-52.12,0-94.68-40.9-97.35-92.35Z"/>
    <path class="cls-2" d="M2066.67,532.25c-18.41,12.9-41.39,19.45-65.49,16.86-51.27-5.5-88.79-50.29-85.85-101.21-1.87,0-3.76-.09-5.67-.3-28.35-3.05-48.86-28.49-45.82-56.84.67-6.24,2.42-12.09,5.05-17.4-1.68,30.32,18.56,57.31,47.52,64.6,1.56-9.72,4.55-18.89,8.73-27.33-.55,9.94.16,19.68,2.01,29.07.42,2.16.9,4.3,1.45,6.42,11.8,46.24,51.25,82.51,101.49,87.91,12.55,1.35,24.85.66,36.58-1.78Z"/>
    <path class="cls-2" d="M1458.66,406.31c-.61,5.42-.3,11.04,1.07,16.65,6.24,25.49,31.96,41.09,57.45,34.85,11.62-2.84,21.19-9.74,27.56-18.81-5.03,3.1-10.62,5.48-16.68,6.96-30.16,7.38-60.58-10.26-69.41-39.65Z"/>
    <path class="cls-2" d="M1701.86,85.21c-3.2-.22-6.44-.32-9.7-.32-17.77,0-34.79,3.23-50.49,9.13-3.3-7.76-5.83-15.93-7.48-24.41,5.42-1.11,11.04-1.69,16.78-1.69,19.15,0,36.8,6.45,50.89,17.29Z"/>
    <path class="cls-2" d="M2568.39,562.48c0,54.56-44.23,98.79-98.79,98.79h-1006.38c-65.62,0-118.82-53.19-118.82-118.82,0-3.67.17-7.31.5-10.9,13.71,50.47,59.85,87.59,114.67,87.59h1006.38c50.26,0,91.76-37.54,97.98-86.11,2.9,9.3,4.46,19.19,4.46,29.44Z"/>
  </g>
  <g id="Cloud-1">
    <path class="cls-2" d="M3695.27,298.14c-4.17-10.68-6.46-22.3-6.46-34.45,0-52.34,42.43-94.77,94.77-94.77,16.36,0,31.74,4.14,45.17,11.44"/>
    <path class="cls-2" d="M3824.15,178.02c20.37-41.84,63.29-70.67,112.95-70.67s93.32,29.33,113.47,71.74"/>
    <path class="cls-2" d="M4047.86,173.74c11.19-13.07,27.8-21.35,46.35-21.35,11.5,0,22.26,3.18,31.44,8.71"/>
    <path class="cls-2" d="M4121.56,195.21c0-79.14,64.16-143.3,143.3-143.3,64.58,0,119.18,42.72,137.09,101.44"/>
    <path class="cls-2" d="M4389.45,158.47c11.35-5.78,24.2-9.03,37.8-9.03,31.09,0,58.22,17,72.58,42.22"/>
    <path class="cls-2" d="M4496.71,186.59c4.36-1.64,9.08-2.54,14.02-2.54,5.94,0,11.58,1.3,16.64,3.64"/>
    <path class="cls-2" d="M4525.17,203.63c1.84-44.71,38.67-80.39,83.83-80.39s83.9,37.56,83.9,83.9c0,13.46-3.17,26.18-8.8,37.45"/>
    <path class="cls-2" d="M3693.35,292.74c-9.48-7.05-21.23-11.22-33.95-11.22-31.47,0-56.98,25.51-56.98,56.98s25.51,56.98,56.98,56.98h1033.5c41.81,0,75.7-33.89,75.7-75.7s-33.89-75.7-75.7-75.7c-10.79,0-21.06,2.26-30.35,6.33"/>
    <path class="cls-2" d="M4768.6,319.78c0,41.81-33.89,75.7-75.7,75.7h-1033.5c-31.47,0-56.98-25.51-56.98-56.97,0-3.45.3-6.82.89-10.1,4.78,26.64,28.07,46.87,56.09,46.87h1033.5c38.37,0,70.08-28.56,75.02-65.59.44,3.3.67,6.67.67,10.09Z"/>
    <path class="cls-2" d="M4079.63,273.7c-3.68-.83-7.33-2.01-10.89-3.57-2.02-.88-4.01-1.87-5.96-2.99-11.4-6.52-19.89-16.16-25.02-27.23-8.05-17.32-7.84-38.16,2.36-56,5.68-9.94,13.74-17.67,23.05-22.89-.34.57-.67,1.14-1,1.71-10.78,18.85-13.98,39.96-10.55,59.81,2.84,16.4,10.19,31.93,21.53,44.61,2.03,2.28,4.19,4.46,6.49,6.54Z"/>
    <path class="cls-2" d="M3925.11,320.59c-2.55,2.79-5.39,5.36-8.5,7.68-1.76,1.32-3.61,2.55-5.55,3.69-11.32,6.66-23.9,9.25-36.05,8.21-19.03-1.61-37.02-12.13-47.44-29.84-5.81-9.87-8.53-20.7-8.44-31.37.32.58.65,1.15.99,1.72,11.02,18.72,27.76,31.97,46.69,38.84,15.65,5.67,32.78,7,49.41,3.45,2.99-.63,5.95-1.43,8.9-2.39Z"/>
    <path class="cls-2" d="M4443.83,314.72c-5.36,1.08-10.9,1.65-16.58,1.65-7.42,0-14.6-.97-21.45-2.79-13.86-3.67-26.31-10.82-36.34-20.46-15.83-15.19-25.68-36.56-25.68-60.22s10.11-45.61,26.32-60.84c-3.61,11.04-5.57,22.83-5.57,35.08,0,24.4,7.77,46.99,20.96,65.43,9.05,12.65,20.65,23.35,34.06,31.34,7.56,4.51,15.7,8.16,24.28,10.81Z"/>
  </g>
  <g id="Background">
    <path class="cls-6" d="M6560,311.4c-231.03,26.94-462.07,53.89-693.1,80.83-280.42,32.7-562.38,65.46-844.37,51.76-285.99-13.9-568.07-75.45-854.07-89.06-247.3-11.77-494.72,12.42-742.15,21.18-693.28,24.56-1388.49-71.99-2080.02-16.96C896.89,394.9,450.09,494.56,0,468.84v281.16h6560v-438.6Z"/>
    <path class="cls-5" d="M0,468.84c450.09,25.71,896.89-73.94,1346.29-109.7,691.53-55.02,1386.74,41.52,2080.02,16.96,247.43-8.76,494.84-32.95,742.15-21.18,286,13.61,568.09,75.16,854.07,89.06,281.99,13.71,563.94-19.05,844.37-51.76,231.03-26.94,462.07-53.89,693.1-80.83"/>
  </g>
  <g id="Tracks">
    <g>
      <rect class="cls-6" y="614.11" width="78.1" height="11.97"/>
      <line class="cls-3" y1="614.56" x2="78.1" y2="614.56"/>
      <line class="cls-4" y1="626.53" x2="78.1" y2="626.53"/>
      <path class="cls-4" d="M48.16,630.99h-18.23c-.69,0-1.12-.65-.98-1.43l1.17-6.41c.11-.6.66-1.07,1.24-1.07h15.37c.58,0,1.13.47,1.24,1.07l1.17,6.41c.14.78-.29,1.43-.98,1.43Z"/>
      <path class="cls-7" d="M40.03,620.14h-.42v-.28h-1.14v.28h-.42c-.13,0-.24.11-.24.24v1.09c0,.13.11.24.24.24h1.97c.13,0,.24-.11.24-.24v-1.09c0-.13-.11-.24-.24-.24Z"/>
    </g>
    <g>
      <rect class="cls-6" x="78.1" y="614.11" width="78.1" height="11.97"/>
      <line class="cls-3" x1="78.1" y1="614.56" x2="156.19" y2="614.56"/>
      <line class="cls-4" x1="78.1" y1="626.53" x2="156.19" y2="626.53"/>
      <path class="cls-4" d="M126.26,630.99h-18.23c-.69,0-1.12-.65-.98-1.43l1.17-6.41c.11-.6.66-1.07,1.24-1.07h15.37c.58,0,1.13.47,1.24,1.07l1.17,6.41c.14.78-.29,1.43-.98,1.43Z"/>
      <path class="cls-7" d="M118.13,620.14h-.42v-.28h-1.14v.28h-.42c-.13,0-.24.11-.24.24v1.09c0,.13.11.24.24.24h1.97c.13,0,.24-.11.24-.24v-1.09c0-.13-.11-.24-.24-.24Z"/>
    </g>
    <g>
      <rect class="cls-6" x="156.19" y="614.11" width="78.1" height="11.97"/>
      <line class="cls-3" x1="156.19" y1="614.56" x2="234.29" y2="614.56"/>
      <line class="cls-4" x1="156.19" y1="626.53" x2="234.29" y2="626.53"/>
      <path class="cls-4" d="M204.35,630.99h-18.23c-.69,0-1.12-.65-.98-1.43l1.17-6.41c.11-.6.66-1.07,1.24-1.07h15.37c.58,0,1.13.47,1.24,1.07l1.17,6.41c.14.78-.29,1.43-.98,1.43Z"/>
      <path class="cls-7" d="M196.22,620.14h-.42v-.28h-1.14v.28h-.42c-.13,0-.24.11-.24.24v1.09c0,.13.11.24.24.24h1.97c.13,0,.24-.11.24-.24v-1.09c0-.13-.11-.24-.24-.24Z"/>
    </g>
    <g>
      <rect class="cls-6" x="234.29" y="614.11" width="78.1" height="11.97"/>
      <line class="cls-3" x1="234.29" y1="614.56" x2="312.38" y2="614.56"/>
      <line class="cls-4" x1="234.29" y1="626.53" x2="312.38" y2="626.53"/>
      <path class="cls-4" d="M282.45,630.99h-18.23c-.69,0-1.12-.65-.98-1.43l1.17-6.41c.11-.6.66-1.07,1.24-1.07h15.37c.58,0,1.13.47,1.24,1.07l1.17,6.41c.14.78-.29,1.43-.98,1.43Z"/>
      <path class="cls-7" d="M274.32,620.14h-.42v-.28h-1.14v.28h-.42c-.13,0-.24.11-.24.24v1.09c0,.13.11.24.24.24h1.97c.13,0,.24-.11.24-.24v-1.09c0-.13-.11-.24-.24-.24Z"/>
    </g>
    <g>
      <rect class="cls-6" x="312.38" y="614.11" width="78.1" height="11.97"/>
      <line class="cls-3" x1="312.38" y1="614.56" x2="390.48" y2="614.56"/>
      <line class="cls-4" x1="312.38" y1="626.53" x2="390.48" y2="626.53"/>
      <path class="cls-4" d="M360.54,630.99h-18.23c-.69,0-1.12-.65-.98-1.43l1.17-6.41c.11-.6.66-1.07,1.24-1.07h15.37c.58,0,1.13.47,1.24,1.07l1.17,6.41c.14.78-.29,1.43-.98,1.43Z"/>
      <path class="cls-7" d="M352.41,620.14h-.42v-.28h-1.14v.28h-.42c-.13,0-.24.11-.24.24v1.09c0,.13.11.24.24.24h1.97c.13,0,.24-.11.24-.24v-1.09c0-.13-.11-.24-.24-.24Z"/>
    </g>
    <g>
      <rect class="cls-6" x="390.48" y="614.11" width="78.1" height="11.97"/>
      <line class="cls-3" x1="390.48" y1="614.56" x2="468.57" y2="614.56"/>
      <line class="cls-4" x1="390.48" y1="626.53" x2="468.57" y2="626.53"/>
      <path class="cls-4" d="M438.64,630.99h-18.23c-.69,0-1.12-.65-.98-1.43l1.17-6.41c.11-.6.66-1.07,1.24-1.07h15.37c.58,0,1.13.47,1.24,1.07l1.17,6.41c.14.78-.29,1.43-.98,1.43Z"/>
      <path class="cls-7" d="M430.51,620.14h-.42v-.28h-1.14v.28h-.42c-.13,0-.24.11-.24.24v1.09c0,.13.11.24.24.24h1.97c.13,0,.24-.11.24-.24v-1.09c0-.13-.11-.24-.24-.24Z"/>
    </g>
    <g>
      <rect class="cls-6" x="468.57" y="614.11" width="78.1" height="11.97"/>
      <line class="cls-3" x1="468.57" y1="614.56" x2="546.67" y2="614.56"/>
      <line class="cls-4" x1="468.57" y1="626.53" x2="546.67" y2="626.53"/>
      <path class="cls-4" d="M516.73,630.99h-18.23c-.69,0-1.12-.65-.98-1.43l1.17-6.41c.11-.6.66-1.07,1.24-1.07h15.37c.58,0,1.13.47,1.24,1.07l1.17,6.41c.14.78-.29,1.43-.98,1.43Z"/>
      <path class="cls-7" d="M508.6,620.14h-.42v-.28h-1.14v.28h-.42c-.13,0-.24.11-.24.24v1.09c0,.13.11.24.24.24h1.97c.13,0,.24-.11.24-.24v-1.09c0-.13-.11-.24-.24-.24Z"/>
    </g>
    <g>
      <rect class="cls-6" x="546.67" y="614.11" width="78.1" height="11.97"/>
      <line class="cls-3" x1="546.67" y1="614.56" x2="624.76" y2="614.56"/>
      <line class="cls-4" x1="546.67" y1="626.53" x2="624.76" y2="626.53"/>
      <path class="cls-4" d="M594.83,630.99h-18.23c-.69,0-1.12-.65-.98-1.43l1.17-6.41c.11-.6.66-1.07,1.24-1.07h15.37c.58,0,1.13.47,1.24,1.07l1.17,6.41c.14.78-.29,1.43-.98,1.43Z"/>
      <path class="cls-7" d="M586.7,620.14h-.42v-.28h-1.14v.28h-.42c-.13,0-.24.11-.24.24v1.09c0,.13.11.24.24.24h1.97c.13,0,.24-.11.24-.24v-1.09c0-.13-.11-.24-.24-.24Z"/>
    </g>
    <g>
      <rect class="cls-6" x="624.76" y="614.11" width="78.1" height="11.97"/>
      <line class="cls-3" x1="624.76" y1="614.56" x2="702.86" y2="614.56"/>
      <line class="cls-4" x1="624.76" y1="626.53" x2="702.86" y2="626.53"/>
      <path class="cls-4" d="M672.92,630.99h-18.23c-.69,0-1.12-.65-.98-1.43l1.17-6.41c.11-.6.66-1.07,1.24-1.07h15.37c.58,0,1.13.47,1.24,1.07l1.17,6.41c.14.78-.29,1.43-.98,1.43Z"/>
      <path class="cls-7" d="M664.8,620.14h-.42v-.28h-1.14v.28h-.42c-.13,0-.24.11-.24.24v1.09c0,.13.11.24.24.24h1.97c.13,0,.24-.11.24-.24v-1.09c0-.13-.11-.24-.24-.24Z"/>
    </g>
    <g>
      <rect class="cls-6" x="702.86" y="614.11" width="78.1" height="11.97"/>
      <line class="cls-3" x1="702.86" y1="614.56" x2="780.95" y2="614.56"/>
      <line class="cls-4" x1="702.86" y1="626.53" x2="780.95" y2="626.53"/>
      <path class="cls-4" d="M751.02,630.99h-18.23c-.69,0-1.12-.65-.98-1.43l1.17-6.41c.11-.6.66-1.07,1.24-1.07h15.37c.58,0,1.13.47,1.24,1.07l1.17,6.41c.14.78-.29,1.43-.98,1.43Z"/>
      <path class="cls-7" d="M742.89,620.14h-.42v-.28h-1.14v.28h-.42c-.13,0-.24.11-.24.24v1.09c0,.13.11.24.24.24h1.97c.13,0,.24-.11.24-.24v-1.09c0-.13-.11-.24-.24-.24Z"/>
    </g>
    <g>
      <rect class="cls-6" x="780.95" y="614.11" width="78.1" height="11.97"/>
      <line class="cls-3" x1="780.95" y1="614.56" x2="859.05" y2="614.56"/>
      <line class="cls-4" x1="780.95" y1="626.53" x2="859.05" y2="626.53"/>
      <path class="cls-4" d="M829.12,630.99h-18.23c-.69,0-1.12-.65-.98-1.43l1.17-6.41c.11-.6.66-1.07,1.24-1.07h15.37c.58,0,1.13.47,1.24,1.07l1.17,6.41c.14.78-.29,1.43-.98,1.43Z"/>
      <path class="cls-7" d="M820.99,620.14h-.42v-.28h-1.14v.28h-.42c-.13,0-.24.11-.24.24v1.09c0,.13.11.24.24.24h1.97c.13,0,.24-.11.24-.24v-1.09c0-.13-.11-.24-.24-.24Z"/>
    </g>
    <g>
      <rect class="cls-6" x="859.05" y="614.11" width="78.1" height="11.97"/>
      <line class="cls-3" x1="859.05" y1="614.56" x2="937.14" y2="614.56"/>
      <line class="cls-4" x1="859.05" y1="626.53" x2="937.14" y2="626.53"/>
      <path class="cls-4" d="M907.21,630.99h-18.23c-.69,0-1.12-.65-.98-1.43l1.17-6.41c.11-.6.66-1.07,1.24-1.07h15.37c.58,0,1.13.47,1.24,1.07l1.17,6.41c.14.78-.29,1.43-.98,1.43Z"/>
      <path class="cls-7" d="M899.08,620.14h-.42v-.28h-1.14v.28h-.42c-.13,0-.24.11-.24.24v1.09c0,.13.11.24.24.24h1.97c.13,0,.24-.11.24-.24v-1.09c0-.13-.11-.24-.24-.24Z"/>
    </g>
    <g>
      <rect class="cls-6" x="937.14" y="614.11" width="78.1" height="11.97"/>
      <line class="cls-3" x1="937.14" y1="614.56" x2="1015.24" y2="614.56"/>
      <line class="cls-4" x1="937.14" y1="626.53" x2="1015.24" y2="626.53"/>
      <path class="cls-4" d="M985.31,630.99h-18.23c-.69,0-1.12-.65-.98-1.43l1.17-6.41c.11-.6.66-1.07,1.24-1.07h15.37c.58,0,1.13.47,1.24,1.07l1.17,6.41c.14.78-.29,1.43-.98,1.43Z"/>
      <path class="cls-7" d="M977.18,620.14h-.42v-.28h-1.14v.28h-.42c-.13,0-.24.11-.24.24v1.09c0,.13.11.24.24.24h1.97c.13,0,.24-.11.24-.24v-1.09c0-.13-.11-.24-.24-.24Z"/>
    </g>
    <g>
      <rect class="cls-6" x="1015.24" y="614.11" width="78.1" height="11.97"/>
      <line class="cls-3" x1="1015.24" y1="614.56" x2="1093.33" y2="614.56"/>
      <line class="cls-4" x1="1015.24" y1="626.53" x2="1093.33" y2="626.53"/>
      <path class="cls-4" d="M1063.4,630.99h-18.23c-.69,0-1.12-.65-.98-1.43l1.17-6.41c.11-.6.66-1.07,1.24-1.07h15.37c.58,0,1.13.47,1.24,1.07l1.17,6.41c.14.78-.29,1.43-.98,1.43Z"/>
      <path class="cls-7" d="M1055.27,620.14h-.42v-.28h-1.14v.28h-.42c-.13,0-.24.11-.24.24v1.09c0,.13.11.24.24.24h1.97c.13,0,.24-.11.24-.24v-1.09c0-.13-.11-.24-.24-.24Z"/>
    </g>
    <g>
      <rect class="cls-6" x="1093.33" y="614.11" width="78.1" height="11.97"/>
      <line class="cls-3" x1="1093.33" y1="614.56" x2="1171.43" y2="614.56"/>
      <line class="cls-4" x1="1093.33" y1="626.53" x2="1171.43" y2="626.53"/>
      <path class="cls-4" d="M1141.5,630.99h-18.23c-.69,0-1.12-.65-.98-1.43l1.17-6.41c.11-.6.66-1.07,1.24-1.07h15.37c.58,0,1.13.47,1.24,1.07l1.17,6.41c.14.78-.29,1.43-.98,1.43Z"/>
      <path class="cls-7" d="M1133.37,620.14h-.42v-.28h-1.14v.28h-.42c-.13,0-.24.11-.24.24v1.09c0,.13.11.24.24.24h1.97c.13,0,.24-.11.24-.24v-1.09c0-.13-.11-.24-.24-.24Z"/>
    </g>
    <g>
      <rect class="cls-6" x="1171.43" y="614.11" width="78.1" height="11.97"/>
      <line class="cls-3" x1="1171.43" y1="614.56" x2="1249.52" y2="614.56"/>
      <line class="cls-4" x1="1171.43" y1="626.53" x2="1249.52" y2="626.53"/>
      <path class="cls-4" d="M1219.59,630.99h-18.23c-.69,0-1.12-.65-.98-1.43l1.17-6.41c.11-.6.66-1.07,1.24-1.07h15.37c.58,0,1.13.47,1.24,1.07l1.17,6.41c.14.78-.29,1.43-.98,1.43Z"/>
      <path class="cls-7" d="M1211.46,620.14h-.42v-.28h-1.14v.28h-.42c-.13,0-.24.11-.24.24v1.09c0,.13.11.24.24.24h1.97c.13,0,.24-.11.24-.24v-1.09c0-.13-.11-.24-.24-.24Z"/>
    </g>
    <g>
      <rect class="cls-6" x="1249.52" y="614.11" width="78.1" height="11.97"/>
      <line class="cls-3" x1="1249.52" y1="614.56" x2="1327.62" y2="614.56"/>
      <line class="cls-4" x1="1249.52" y1="626.53" x2="1327.62" y2="626.53"/>
      <path class="cls-4" d="M1297.69,630.99h-18.23c-.69,0-1.12-.65-.98-1.43l1.17-6.41c.11-.6.66-1.07,1.24-1.07h15.37c.58,0,1.13.47,1.24,1.07l1.17,6.41c.14.78-.29,1.43-.98,1.43Z"/>
      <path class="cls-7" d="M1289.56,620.14h-.42v-.28h-1.14v.28h-.42c-.13,0-.24.11-.24.24v1.09c0,.13.11.24.24.24h1.97c.13,0,.24-.11.24-.24v-1.09c0-.13-.11-.24-.24-.24Z"/>
    </g>
    <g>
      <rect class="cls-6" x="1327.62" y="614.11" width="78.1" height="11.97"/>
      <line class="cls-3" x1="1327.62" y1="614.56" x2="1405.71" y2="614.56"/>
      <line class="cls-4" x1="1327.62" y1="626.53" x2="1405.71" y2="626.53"/>
      <path class="cls-4" d="M1375.78,630.99h-18.23c-.69,0-1.12-.65-.98-1.43l1.17-6.41c.11-.6.66-1.07,1.24-1.07h15.37c.58,0,1.13.47,1.24,1.07l1.17,6.41c.14.78-.29,1.43-.98,1.43Z"/>
      <path class="cls-7" d="M1367.65,620.14h-.42v-.28h-1.14v.28h-.42c-.13,0-.24.11-.24.24v1.09c0,.13.11.24.24.24h1.97c.13,0,.24-.11.24-.24v-1.09c0-.13-.11-.24-.24-.24Z"/>
    </g>
    <g>
      <rect class="cls-6" x="1405.71" y="614.11" width="78.1" height="11.97"/>
      <line class="cls-3" x1="1405.71" y1="614.56" x2="1483.81" y2="614.56"/>
      <line class="cls-4" x1="1405.71" y1="626.53" x2="1483.81" y2="626.53"/>
      <path class="cls-4" d="M1453.88,630.99h-18.23c-.69,0-1.12-.65-.98-1.43l1.17-6.41c.11-.6.66-1.07,1.24-1.07h15.37c.58,0,1.13.47,1.24,1.07l1.17,6.41c.14.78-.29,1.43-.98,1.43Z"/>
      <path class="cls-7" d="M1445.75,620.14h-.42v-.28h-1.14v.28h-.42c-.13,0-.24.11-.24.24v1.09c0,.13.11.24.24.24h1.97c.13,0,.24-.11.24-.24v-1.09c0-.13-.11-.24-.24-.24Z"/>
    </g>
    <g>
      <rect class="cls-6" x="1483.81" y="614.11" width="78.1" height="11.97"/>
      <line class="cls-3" x1="1483.81" y1="614.56" x2="1561.9" y2="614.56"/>
      <line class="cls-4" x1="1483.81" y1="626.53" x2="1561.9" y2="626.53"/>
      <path class="cls-4" d="M1531.97,630.99h-18.23c-.69,0-1.12-.65-.98-1.43l1.17-6.41c.11-.6.66-1.07,1.24-1.07h15.37c.58,0,1.13.47,1.24,1.07l1.17,6.41c.14.78-.29,1.43-.98,1.43Z"/>
      <path class="cls-7" d="M1523.84,620.14h-.42v-.28h-1.14v.28h-.42c-.13,0-.24.11-.24.24v1.09c0,.13.11.24.24.24h1.97c.13,0,.24-.11.24-.24v-1.09c0-.13-.11-.24-.24-.24Z"/>
    </g>
    <g>
      <rect class="cls-6" x="1561.9" y="614.11" width="78.1" height="11.97"/>
      <line class="cls-3" x1="1561.9" y1="614.56" x2="1640" y2="614.56"/>
      <line class="cls-4" x1="1561.9" y1="626.53" x2="1640" y2="626.53"/>
      <path class="cls-4" d="M1610.07,630.99h-18.23c-.69,0-1.12-.65-.98-1.43l1.17-6.41c.11-.6.66-1.07,1.24-1.07h15.37c.58,0,1.13.47,1.24,1.07l1.17,6.41c.14.78-.29,1.43-.98,1.43Z"/>
      <path class="cls-7" d="M1601.94,620.14h-.42v-.28h-1.14v.28h-.42c-.13,0-.24.11-.24.24v1.09c0,.13.11.24.24.24h1.97c.13,0,.24-.11.24-.24v-1.09c0-.13-.11-.24-.24-.24Z"/>
    </g>
    <g>
      <rect class="cls-6" x="1640" y="614.11" width="78.1" height="11.97"/>
      <line class="cls-3" x1="1640" y1="614.56" x2="1718.1" y2="614.56"/>
      <line class="cls-4" x1="1640" y1="626.53" x2="1718.1" y2="626.53"/>
      <path class="cls-4" d="M1688.16,630.99h-18.23c-.69,0-1.12-.65-.98-1.43l1.17-6.41c.11-.6.66-1.07,1.24-1.07h15.37c.58,0,1.13.47,1.24,1.07l1.17,6.41c.14.78-.29,1.43-.98,1.43Z"/>
      <path class="cls-7" d="M1680.03,620.14h-.42v-.28h-1.14v.28h-.42c-.13,0-.24.11-.24.24v1.09c0,.13.11.24.24.24h1.97c.13,0,.24-.11.24-.24v-1.09c0-.13-.11-.24-.24-.24Z"/>
    </g>
    <g>
      <rect class="cls-6" x="1718.1" y="614.11" width="78.1" height="11.97"/>
      <line class="cls-3" x1="1718.1" y1="614.56" x2="1796.19" y2="614.56"/>
      <line class="cls-4" x1="1718.1" y1="626.53" x2="1796.19" y2="626.53"/>
      <path class="cls-4" d="M1766.26,630.99h-18.23c-.69,0-1.12-.65-.98-1.43l1.17-6.41c.11-.6.66-1.07,1.24-1.07h15.37c.58,0,1.13.47,1.24,1.07l1.17,6.41c.14.78-.29,1.43-.98,1.43Z"/>
      <path class="cls-7" d="M1758.13,620.14h-.42v-.28h-1.14v.28h-.42c-.13,0-.24.11-.24.24v1.09c0,.13.11.24.24.24h1.97c.13,0,.24-.11.24-.24v-1.09c0-.13-.11-.24-.24-.24Z"/>
    </g>
    <g>
      <rect class="cls-6" x="1796.19" y="614.11" width="78.1" height="11.97"/>
      <line class="cls-3" x1="1796.19" y1="614.56" x2="1874.29" y2="614.56"/>
      <line class="cls-4" x1="1796.19" y1="626.53" x2="1874.29" y2="626.53"/>
      <path class="cls-4" d="M1844.35,630.99h-18.23c-.69,0-1.12-.65-.98-1.43l1.17-6.41c.11-.6.66-1.07,1.24-1.07h15.37c.58,0,1.13.47,1.24,1.07l1.17,6.41c.14.78-.29,1.43-.98,1.43Z"/>
      <path class="cls-7" d="M1836.22,620.14h-.42v-.28h-1.14v.28h-.42c-.13,0-.24.11-.24.24v1.09c0,.13.11.24.24.24h1.97c.13,0,.24-.11.24-.24v-1.09c0-.13-.11-.24-.24-.24Z"/>
    </g>
    <g>
      <rect class="cls-6" x="1874.29" y="614.11" width="78.1" height="11.97"/>
      <line class="cls-3" x1="1874.29" y1="614.56" x2="1952.38" y2="614.56"/>
      <line class="cls-4" x1="1874.29" y1="626.53" x2="1952.38" y2="626.53"/>
      <path class="cls-4" d="M1922.45,630.99h-18.23c-.69,0-1.12-.65-.98-1.43l1.17-6.41c.11-.6.66-1.07,1.24-1.07h15.37c.58,0,1.13.47,1.24,1.07l1.17,6.41c.14.78-.29,1.43-.98,1.43Z"/>
      <path class="cls-7" d="M1914.32,620.14h-.42v-.28h-1.14v.28h-.42c-.13,0-.24.11-.24.24v1.09c0,.13.11.24.24.24h1.97c.13,0,.24-.11.24-.24v-1.09c0-.13-.11-.24-.24-.24Z"/>
    </g>
    <g>
      <rect class="cls-6" x="1952.38" y="614.11" width="78.1" height="11.97"/>
      <line class="cls-3" x1="1952.38" y1="614.56" x2="2030.48" y2="614.56"/>
      <line class="cls-4" x1="1952.38" y1="626.53" x2="2030.48" y2="626.53"/>
      <path class="cls-4" d="M2000.54,630.99h-18.23c-.69,0-1.12-.65-.98-1.43l1.17-6.41c.11-.6.66-1.07,1.24-1.07h15.37c.58,0,1.13.47,1.24,1.07l1.17,6.41c.14.78-.29,1.43-.98,1.43Z"/>
      <path class="cls-7" d="M1992.41,620.14h-.42v-.28h-1.14v.28h-.42c-.13,0-.24.11-.24.24v1.09c0,.13.11.24.24.24h1.97c.13,0,.24-.11.24-.24v-1.09c0-.13-.11-.24-.24-.24Z"/>
    </g>
    <g>
      <rect class="cls-6" x="2030.48" y="614.11" width="78.1" height="11.97"/>
      <line class="cls-3" x1="2030.48" y1="614.56" x2="2108.57" y2="614.56"/>
      <line class="cls-4" x1="2030.48" y1="626.53" x2="2108.57" y2="626.53"/>
      <path class="cls-4" d="M2078.64,630.99h-18.23c-.69,0-1.12-.65-.98-1.43l1.17-6.41c.11-.6.66-1.07,1.24-1.07h15.37c.58,0,1.13.47,1.24,1.07l1.17,6.41c.14.78-.29,1.43-.98,1.43Z"/>
      <path class="cls-7" d="M2070.51,620.14h-.42v-.28h-1.14v.28h-.42c-.13,0-.24.11-.24.24v1.09c0,.13.11.24.24.24h1.97c.13,0,.24-.11.24-.24v-1.09c0-.13-.11-.24-.24-.24Z"/>
    </g>
    <g>
      <rect class="cls-6" x="2108.57" y="614.11" width="78.1" height="11.97"/>
      <line class="cls-3" x1="2108.57" y1="614.56" x2="2186.67" y2="614.56"/>
      <line class="cls-4" x1="2108.57" y1="626.53" x2="2186.67" y2="626.53"/>
      <path class="cls-4" d="M2156.73,630.99h-18.23c-.69,0-1.12-.65-.98-1.43l1.17-6.41c.11-.6.66-1.07,1.24-1.07h15.37c.58,0,1.13.47,1.24,1.07l1.17,6.41c.14.78-.29,1.43-.98,1.43Z"/>
      <path class="cls-7" d="M2148.6,620.14h-.42v-.28h-1.14v.28h-.42c-.13,0-.24.11-.24.24v1.09c0,.13.11.24.24.24h1.97c.13,0,.24-.11.24-.24v-1.09c0-.13-.11-.24-.24-.24Z"/>
    </g>
    <g>
      <rect class="cls-6" x="2186.67" y="614.11" width="78.1" height="11.97"/>
      <line class="cls-3" x1="2186.67" y1="614.56" x2="2264.76" y2="614.56"/>
      <line class="cls-4" x1="2186.67" y1="626.53" x2="2264.76" y2="626.53"/>
      <path class="cls-4" d="M2234.83,630.99h-18.23c-.69,0-1.12-.65-.98-1.43l1.17-6.41c.11-.6.66-1.07,1.24-1.07h15.37c.58,0,1.13.47,1.24,1.07l1.17,6.41c.14.78-.29,1.43-.98,1.43Z"/>
      <path class="cls-7" d="M2226.7,620.14h-.42v-.28h-1.14v.28h-.42c-.13,0-.24.11-.24.24v1.09c0,.13.11.24.24.24h1.97c.13,0,.24-.11.24-.24v-1.09c0-.13-.11-.24-.24-.24Z"/>
    </g>
    <g>
      <rect class="cls-6" x="2264.76" y="614.11" width="78.1" height="11.97"/>
      <line class="cls-3" x1="2264.76" y1="614.56" x2="2342.86" y2="614.56"/>
      <line class="cls-4" x1="2264.76" y1="626.53" x2="2342.86" y2="626.53"/>
      <path class="cls-4" d="M2312.92,630.99h-18.23c-.69,0-1.12-.65-.98-1.43l1.17-6.41c.11-.6.66-1.07,1.24-1.07h15.37c.58,0,1.13.47,1.24,1.07l1.17,6.41c.14.78-.29,1.43-.98,1.43Z"/>
      <path class="cls-7" d="M2304.8,620.14h-.42v-.28h-1.14v.28h-.42c-.13,0-.24.11-.24.24v1.09c0,.13.11.24.24.24h1.97c.13,0,.24-.11.24-.24v-1.09c0-.13-.11-.24-.24-.24Z"/>
    </g>
    <g>
      <rect class="cls-6" x="2342.86" y="614.11" width="78.1" height="11.97"/>
      <line class="cls-3" x1="2342.86" y1="614.56" x2="2420.95" y2="614.56"/>
      <line class="cls-4" x1="2342.86" y1="626.53" x2="2420.95" y2="626.53"/>
      <path class="cls-4" d="M2391.02,630.99h-18.23c-.69,0-1.12-.65-.98-1.43l1.17-6.41c.11-.6.66-1.07,1.24-1.07h15.37c.58,0,1.13.47,1.24,1.07l1.17,6.41c.14.78-.29,1.43-.98,1.43Z"/>
      <path class="cls-7" d="M2382.89,620.14h-.42v-.28h-1.14v.28h-.42c-.13,0-.24.11-.24.24v1.09c0,.13.11.24.24.24h1.97c.13,0,.24-.11.24-.24v-1.09c0-.13-.11-.24-.24-.24Z"/>
    </g>
    <g>
      <rect class="cls-6" x="2420.95" y="614.11" width="78.1" height="11.97"/>
      <line class="cls-3" x1="2420.95" y1="614.56" x2="2499.05" y2="614.56"/>
      <line class="cls-4" x1="2420.95" y1="626.53" x2="2499.05" y2="626.53"/>
      <path class="cls-4" d="M2469.12,630.99h-18.23c-.69,0-1.12-.65-.98-1.43l1.17-6.41c.11-.6.66-1.07,1.24-1.07h15.37c.58,0,1.13.47,1.24,1.07l1.17,6.41c.14.78-.29,1.43-.98,1.43Z"/>
      <path class="cls-7" d="M2460.99,620.14h-.42v-.28h-1.14v.28h-.42c-.13,0-.24.11-.24.24v1.09c0,.13.11.24.24.24h1.97c.13,0,.24-.11.24-.24v-1.09c0-.13-.11-.24-.24-.24Z"/>
    </g>
    <g>
      <rect class="cls-6" x="2499.05" y="614.11" width="78.1" height="11.97"/>
      <line class="cls-3" x1="2499.05" y1="614.56" x2="2577.14" y2="614.56"/>
      <line class="cls-4" x1="2499.05" y1="626.53" x2="2577.14" y2="626.53"/>
      <path class="cls-4" d="M2547.21,630.99h-18.23c-.69,0-1.12-.65-.98-1.43l1.17-6.41c.11-.6.66-1.07,1.24-1.07h15.37c.58,0,1.13.47,1.24,1.07l1.17,6.41c.14.78-.29,1.43-.98,1.43Z"/>
      <path class="cls-7" d="M2539.08,620.14h-.42v-.28h-1.14v.28h-.42c-.13,0-.24.11-.24.24v1.09c0,.13.11.24.24.24h1.97c.13,0,.24-.11.24-.24v-1.09c0-.13-.11-.24-.24-.24Z"/>
    </g>
    <g>
      <rect class="cls-6" x="2577.14" y="614.11" width="78.1" height="11.97"/>
      <line class="cls-3" x1="2577.14" y1="614.56" x2="2655.24" y2="614.56"/>
      <line class="cls-4" x1="2577.14" y1="626.53" x2="2655.24" y2="626.53"/>
      <path class="cls-4" d="M2625.31,630.99h-18.23c-.69,0-1.12-.65-.98-1.43l1.17-6.41c.11-.6.66-1.07,1.24-1.07h15.37c.58,0,1.13.47,1.24,1.07l1.17,6.41c.14.78-.29,1.43-.98,1.43Z"/>
      <path class="cls-7" d="M2617.18,620.14h-.42v-.28h-1.14v.28h-.42c-.13,0-.24.11-.24.24v1.09c0,.13.11.24.24.24h1.97c.13,0,.24-.11.24-.24v-1.09c0-.13-.11-.24-.24-.24Z"/>
    </g>
    <g>
      <rect class="cls-6" x="2655.24" y="614.11" width="78.1" height="11.97"/>
      <line class="cls-3" x1="2655.24" y1="614.56" x2="2733.33" y2="614.56"/>
      <line class="cls-4" x1="2655.24" y1="626.53" x2="2733.33" y2="626.53"/>
      <path class="cls-4" d="M2703.4,630.99h-18.23c-.69,0-1.12-.65-.98-1.43l1.17-6.41c.11-.6.66-1.07,1.24-1.07h15.37c.58,0,1.13.47,1.24,1.07l1.17,6.41c.14.78-.29,1.43-.98,1.43Z"/>
      <path class="cls-7" d="M2695.27,620.14h-.42v-.28h-1.14v.28h-.42c-.13,0-.24.11-.24.24v1.09c0,.13.11.24.24.24h1.97c.13,0,.24-.11.24-.24v-1.09c0-.13-.11-.24-.24-.24Z"/>
    </g>
    <g>
      <rect class="cls-6" x="2733.33" y="614.11" width="78.1" height="11.97"/>
      <line class="cls-3" x1="2733.33" y1="614.56" x2="2811.43" y2="614.56"/>
      <line class="cls-4" x1="2733.33" y1="626.53" x2="2811.43" y2="626.53"/>
      <path class="cls-4" d="M2781.5,630.99h-18.23c-.69,0-1.12-.65-.98-1.43l1.17-6.41c.11-.6.66-1.07,1.24-1.07h15.37c.58,0,1.13.47,1.24,1.07l1.17,6.41c.14.78-.29,1.43-.98,1.43Z"/>
      <path class="cls-7" d="M2773.37,620.14h-.42v-.28h-1.14v.28h-.42c-.13,0-.24.11-.24.24v1.09c0,.13.11.24.24.24h1.97c.13,0,.24-.11.24-.24v-1.09c0-.13-.11-.24-.24-.24Z"/>
    </g>
    <g>
      <rect class="cls-6" x="2811.43" y="614.11" width="78.1" height="11.97"/>
      <line class="cls-3" x1="2811.43" y1="614.56" x2="2889.52" y2="614.56"/>
      <line class="cls-4" x1="2811.43" y1="626.53" x2="2889.52" y2="626.53"/>
      <path class="cls-4" d="M2859.59,630.99h-18.23c-.69,0-1.12-.65-.98-1.43l1.17-6.41c.11-.6.66-1.07,1.24-1.07h15.37c.58,0,1.13.47,1.24,1.07l1.17,6.41c.14.78-.29,1.43-.98,1.43Z"/>
      <path class="cls-7" d="M2851.46,620.14h-.42v-.28h-1.14v.28h-.42c-.13,0-.24.11-.24.24v1.09c0,.13.11.24.24.24h1.97c.13,0,.24-.11.24-.24v-1.09c0-.13-.11-.24-.24-.24Z"/>
    </g>
    <g>
      <rect class="cls-6" x="2889.52" y="614.11" width="78.1" height="11.97"/>
      <line class="cls-3" x1="2889.52" y1="614.56" x2="2967.62" y2="614.56"/>
      <line class="cls-4" x1="2889.52" y1="626.53" x2="2967.62" y2="626.53"/>
      <path class="cls-4" d="M2937.69,630.99h-18.23c-.69,0-1.12-.65-.98-1.43l1.17-6.41c.11-.6.66-1.07,1.24-1.07h15.37c.58,0,1.13.47,1.24,1.07l1.17,6.41c.14.78-.29,1.43-.98,1.43Z"/>
      <path class="cls-7" d="M2929.56,620.14h-.42v-.28h-1.14v.28h-.42c-.13,0-.24.11-.24.24v1.09c0,.13.11.24.24.24h1.97c.13,0,.24-.11.24-.24v-1.09c0-.13-.11-.24-.24-.24Z"/>
    </g>
    <g>
      <rect class="cls-6" x="2967.62" y="614.11" width="78.1" height="11.97"/>
      <line class="cls-3" x1="2967.62" y1="614.56" x2="3045.71" y2="614.56"/>
      <line class="cls-4" x1="2967.62" y1="626.53" x2="3045.71" y2="626.53"/>
      <path class="cls-4" d="M3015.78,630.99h-18.23c-.69,0-1.12-.65-.98-1.43l1.17-6.41c.11-.6.66-1.07,1.24-1.07h15.37c.58,0,1.13.47,1.24,1.07l1.17,6.41c.14.78-.29,1.43-.98,1.43Z"/>
      <path class="cls-7" d="M3007.65,620.14h-.42v-.28h-1.14v.28h-.42c-.13,0-.24.11-.24.24v1.09c0,.13.11.24.24.24h1.97c.13,0,.24-.11.24-.24v-1.09c0-.13-.11-.24-.24-.24Z"/>
    </g>
    <g>
      <rect class="cls-6" x="3045.71" y="614.11" width="78.1" height="11.97"/>
      <line class="cls-3" x1="3045.71" y1="614.56" x2="3123.81" y2="614.56"/>
      <line class="cls-4" x1="3045.71" y1="626.53" x2="3123.81" y2="626.53"/>
      <path class="cls-4" d="M3093.88,630.99h-18.23c-.69,0-1.12-.65-.98-1.43l1.17-6.41c.11-.6.66-1.07,1.24-1.07h15.37c.58,0,1.13.47,1.24,1.07l1.17,6.41c.14.78-.29,1.43-.98,1.43Z"/>
      <path class="cls-7" d="M3085.75,620.14h-.42v-.28h-1.14v.28h-.42c-.13,0-.24.11-.24.24v1.09c0,.13.11.24.24.24h1.97c.13,0,.24-.11.24-.24v-1.09c0-.13-.11-.24-.24-.24Z"/>
    </g>
    <g>
      <rect class="cls-6" x="3123.81" y="614.11" width="78.1" height="11.97"/>
      <line class="cls-3" x1="3123.81" y1="614.56" x2="3201.9" y2="614.56"/>
      <line class="cls-4" x1="3123.81" y1="626.53" x2="3201.9" y2="626.53"/>
      <path class="cls-4" d="M3171.97,630.99h-18.23c-.69,0-1.12-.65-.98-1.43l1.17-6.41c.11-.6.66-1.07,1.24-1.07h15.37c.58,0,1.13.47,1.24,1.07l1.17,6.41c.14.78-.29,1.43-.98,1.43Z"/>
      <path class="cls-7" d="M3163.84,620.14h-.42v-.28h-1.14v.28h-.42c-.13,0-.24.11-.24.24v1.09c0,.13.11.24.24.24h1.97c.13,0,.24-.11.24-.24v-1.09c0-.13-.11-.24-.24-.24Z"/>
    </g>
    <g>
      <rect class="cls-6" x="3201.9" y="614.11" width="78.1" height="11.97"/>
      <line class="cls-3" x1="3201.9" y1="614.56" x2="3280" y2="614.56"/>
      <line class="cls-4" x1="3201.9" y1="626.53" x2="3280" y2="626.53"/>
      <path class="cls-4" d="M3250.07,630.99h-18.23c-.69,0-1.12-.65-.98-1.43l1.17-6.41c.11-.6.66-1.07,1.24-1.07h15.37c.58,0,1.13.47,1.24,1.07l1.17,6.41c.14.78-.29,1.43-.98,1.43Z"/>
      <path class="cls-7" d="M3241.94,620.14h-.42v-.28h-1.14v.28h-.42c-.13,0-.24.11-.24.24v1.09c0,.13.11.24.24.24h1.97c.13,0,.24-.11.24-.24v-1.09c0-.13-.11-.24-.24-.24Z"/>
    </g>
    <g>
      <rect class="cls-6" x="3280" y="614.11" width="78.1" height="11.97"/>
      <line class="cls-3" x1="3280" y1="614.56" x2="3358.1" y2="614.56"/>
      <line class="cls-4" x1="3280" y1="626.53" x2="3358.1" y2="626.53"/>
      <path class="cls-4" d="M3328.16,630.99h-18.23c-.69,0-1.12-.65-.98-1.43l1.17-6.41c.11-.6.66-1.07,1.24-1.07h15.37c.58,0,1.13.47,1.24,1.07l1.17,6.41c.14.78-.29,1.43-.98,1.43Z"/>
      <path class="cls-7" d="M3320.03,620.14h-.42v-.28h-1.14v.28h-.42c-.13,0-.24.11-.24.24v1.09c0,.13.11.24.24.24h1.97c.13,0,.24-.11.24-.24v-1.09c0-.13-.11-.24-.24-.24Z"/>
    </g>
    <g>
      <rect class="cls-6" x="3358.1" y="614.11" width="78.1" height="11.97"/>
      <line class="cls-3" x1="3358.1" y1="614.56" x2="3436.19" y2="614.56"/>
      <line class="cls-4" x1="3358.1" y1="626.53" x2="3436.19" y2="626.53"/>
      <path class="cls-4" d="M3406.26,630.99h-18.23c-.69,0-1.12-.65-.98-1.43l1.17-6.41c.11-.6.66-1.07,1.24-1.07h15.37c.58,0,1.13.47,1.24,1.07l1.17,6.41c.14.78-.29,1.43-.98,1.43Z"/>
      <path class="cls-7" d="M3398.13,620.14h-.42v-.28h-1.14v.28h-.42c-.13,0-.24.11-.24.24v1.09c0,.13.11.24.24.24h1.97c.13,0,.24-.11.24-.24v-1.09c0-.13-.11-.24-.24-.24Z"/>
    </g>
    <g>
      <rect class="cls-6" x="3436.19" y="614.11" width="78.1" height="11.97"/>
      <line class="cls-3" x1="3436.19" y1="614.56" x2="3514.29" y2="614.56"/>
      <line class="cls-4" x1="3436.19" y1="626.53" x2="3514.29" y2="626.53"/>
      <path class="cls-4" d="M3484.35,630.99h-18.23c-.69,0-1.12-.65-.98-1.43l1.17-6.41c.11-.6.66-1.07,1.24-1.07h15.37c.58,0,1.13.47,1.24,1.07l1.17,6.41c.14.78-.29,1.43-.98,1.43Z"/>
      <path class="cls-7" d="M3476.22,620.14h-.42v-.28h-1.14v.28h-.42c-.13,0-.24.11-.24.24v1.09c0,.13.11.24.24.24h1.97c.13,0,.24-.11.24-.24v-1.09c0-.13-.11-.24-.24-.24Z"/>
    </g>
    <g>
      <rect class="cls-6" x="3514.29" y="614.11" width="78.1" height="11.97"/>
      <line class="cls-3" x1="3514.29" y1="614.56" x2="3592.38" y2="614.56"/>
      <line class="cls-4" x1="3514.29" y1="626.53" x2="3592.38" y2="626.53"/>
      <path class="cls-4" d="M3562.45,630.99h-18.23c-.69,0-1.12-.65-.98-1.43l1.17-6.41c.11-.6.66-1.07,1.24-1.07h15.37c.58,0,1.13.47,1.24,1.07l1.17,6.41c.14.78-.29,1.43-.98,1.43Z"/>
      <path class="cls-7" d="M3554.32,620.14h-.42v-.28h-1.14v.28h-.42c-.13,0-.24.11-.24.24v1.09c0,.13.11.24.24.24h1.97c.13,0,.24-.11.24-.24v-1.09c0-.13-.11-.24-.24-.24Z"/>
    </g>
    <g>
      <rect class="cls-6" x="3592.38" y="614.11" width="78.1" height="11.97"/>
      <line class="cls-3" x1="3592.38" y1="614.56" x2="3670.48" y2="614.56"/>
      <line class="cls-4" x1="3592.38" y1="626.53" x2="3670.48" y2="626.53"/>
      <path class="cls-4" d="M3640.54,630.99h-18.23c-.69,0-1.12-.65-.98-1.43l1.17-6.41c.11-.6.66-1.07,1.24-1.07h15.37c.58,0,1.13.47,1.24,1.07l1.17,6.41c.14.78-.29,1.43-.98,1.43Z"/>
      <path class="cls-7" d="M3632.41,620.14h-.42v-.28h-1.14v.28h-.42c-.13,0-.24.11-.24.24v1.09c0,.13.11.24.24.24h1.97c.13,0,.24-.11.24-.24v-1.09c0-.13-.11-.24-.24-.24Z"/>
    </g>
    <g>
      <rect class="cls-6" x="3670.48" y="614.11" width="78.1" height="11.97"/>
      <line class="cls-3" x1="3670.48" y1="614.56" x2="3748.57" y2="614.56"/>
      <line class="cls-4" x1="3670.48" y1="626.53" x2="3748.57" y2="626.53"/>
      <path class="cls-4" d="M3718.64,630.99h-18.23c-.69,0-1.12-.65-.98-1.43l1.17-6.41c.11-.6.66-1.07,1.24-1.07h15.37c.58,0,1.13.47,1.24,1.07l1.17,6.41c.14.78-.29,1.43-.98,1.43Z"/>
      <path class="cls-7" d="M3710.51,620.14h-.42v-.28h-1.14v.28h-.42c-.13,0-.24.11-.24.24v1.09c0,.13.11.24.24.24h1.97c.13,0,.24-.11.24-.24v-1.09c0-.13-.11-.24-.24-.24Z"/>
    </g>
    <g>
      <rect class="cls-6" x="3748.57" y="614.11" width="78.1" height="11.97"/>
      <line class="cls-3" x1="3748.57" y1="614.56" x2="3826.67" y2="614.56"/>
      <line class="cls-4" x1="3748.57" y1="626.53" x2="3826.67" y2="626.53"/>
      <path class="cls-4" d="M3796.73,630.99h-18.23c-.69,0-1.12-.65-.98-1.43l1.17-6.41c.11-.6.66-1.07,1.24-1.07h15.37c.58,0,1.13.47,1.24,1.07l1.17,6.41c.14.78-.29,1.43-.98,1.43Z"/>
      <path class="cls-7" d="M3788.6,620.14h-.42v-.28h-1.14v.28h-.42c-.13,0-.24.11-.24.24v1.09c0,.13.11.24.24.24h1.97c.13,0,.24-.11.24-.24v-1.09c0-.13-.11-.24-.24-.24Z"/>
    </g>
    <g>
      <rect class="cls-6" x="3826.67" y="614.11" width="78.1" height="11.97"/>
      <line class="cls-3" x1="3826.67" y1="614.56" x2="3904.76" y2="614.56"/>
      <line class="cls-4" x1="3826.67" y1="626.53" x2="3904.76" y2="626.53"/>
      <path class="cls-4" d="M3874.83,630.99h-18.23c-.69,0-1.12-.65-.98-1.43l1.17-6.41c.11-.6.66-1.07,1.24-1.07h15.37c.58,0,1.13.47,1.24,1.07l1.17,6.41c.14.78-.29,1.43-.98,1.43Z"/>
      <path class="cls-7" d="M3866.7,620.14h-.42v-.28h-1.14v.28h-.42c-.13,0-.24.11-.24.24v1.09c0,.13.11.24.24.24h1.97c.13,0,.24-.11.24-.24v-1.09c0-.13-.11-.24-.24-.24Z"/>
    </g>
    <g>
      <rect class="cls-6" x="3904.76" y="614.11" width="78.1" height="11.97"/>
      <line class="cls-3" x1="3904.76" y1="614.56" x2="3982.86" y2="614.56"/>
      <line class="cls-4" x1="3904.76" y1="626.53" x2="3982.86" y2="626.53"/>
      <path class="cls-4" d="M3952.92,630.99h-18.23c-.69,0-1.12-.65-.98-1.43l1.17-6.41c.11-.6.66-1.07,1.24-1.07h15.37c.58,0,1.13.47,1.24,1.07l1.17,6.41c.14.78-.29,1.43-.98,1.43Z"/>
      <path class="cls-7" d="M3944.8,620.14h-.42v-.28h-1.14v.28h-.42c-.13,0-.24.11-.24.24v1.09c0,.13.11.24.24.24h1.97c.13,0,.24-.11.24-.24v-1.09c0-.13-.11-.24-.24-.24Z"/>
    </g>
    <g>
      <rect class="cls-6" x="3982.86" y="614.11" width="78.1" height="11.97"/>
      <line class="cls-3" x1="3982.86" y1="614.56" x2="4060.95" y2="614.56"/>
      <line class="cls-4" x1="3982.86" y1="626.53" x2="4060.95" y2="626.53"/>
      <path class="cls-4" d="M4031.02,630.99h-18.23c-.69,0-1.12-.65-.98-1.43l1.17-6.41c.11-.6.66-1.07,1.24-1.07h15.37c.58,0,1.13.47,1.24,1.07l1.17,6.41c.14.78-.29,1.43-.98,1.43Z"/>
      <path class="cls-7" d="M4022.89,620.14h-.42v-.28h-1.14v.28h-.42c-.13,0-.24.11-.24.24v1.09c0,.13.11.24.24.24h1.97c.13,0,.24-.11.24-.24v-1.09c0-.13-.11-.24-.24-.24Z"/>
    </g>
    <g>
      <rect class="cls-6" x="4060.95" y="614.11" width="78.1" height="11.97"/>
      <line class="cls-3" x1="4060.95" y1="614.56" x2="4139.05" y2="614.56"/>
      <line class="cls-4" x1="4060.95" y1="626.53" x2="4139.05" y2="626.53"/>
      <path class="cls-4" d="M4109.12,630.99h-18.23c-.69,0-1.12-.65-.98-1.43l1.17-6.41c.11-.6.66-1.07,1.24-1.07h15.37c.58,0,1.13.47,1.24,1.07l1.17,6.41c.14.78-.29,1.43-.98,1.43Z"/>
      <path class="cls-7" d="M4100.99,620.14h-.42v-.28h-1.14v.28h-.42c-.13,0-.24.11-.24.24v1.09c0,.13.11.24.24.24h1.97c.13,0,.24-.11.24-.24v-1.09c0-.13-.11-.24-.24-.24Z"/>
    </g>
    <g>
      <rect class="cls-6" x="4139.05" y="614.11" width="78.1" height="11.97"/>
      <line class="cls-3" x1="4139.05" y1="614.56" x2="4217.14" y2="614.56"/>
      <line class="cls-4" x1="4139.05" y1="626.53" x2="4217.14" y2="626.53"/>
      <path class="cls-4" d="M4187.21,630.99h-18.23c-.69,0-1.12-.65-.98-1.43l1.17-6.41c.11-.6.66-1.07,1.24-1.07h15.37c.58,0,1.13.47,1.24,1.07l1.17,6.41c.14.78-.29,1.43-.98,1.43Z"/>
      <path class="cls-7" d="M4179.08,620.14h-.42v-.28h-1.14v.28h-.42c-.13,0-.24.11-.24.24v1.09c0,.13.11.24.24.24h1.97c.13,0,.24-.11.24-.24v-1.09c0-.13-.11-.24-.24-.24Z"/>
    </g>
    <g>
      <rect class="cls-6" x="4217.14" y="614.11" width="78.1" height="11.97"/>
      <line class="cls-3" x1="4217.14" y1="614.56" x2="4295.24" y2="614.56"/>
      <line class="cls-4" x1="4217.14" y1="626.53" x2="4295.24" y2="626.53"/>
      <path class="cls-4" d="M4265.31,630.99h-18.23c-.69,0-1.12-.65-.98-1.43l1.17-6.41c.11-.6.66-1.07,1.24-1.07h15.37c.58,0,1.13.47,1.24,1.07l1.17,6.41c.14.78-.29,1.43-.98,1.43Z"/>
      <path class="cls-7" d="M4257.18,620.14h-.42v-.28h-1.14v.28h-.42c-.13,0-.24.11-.24.24v1.09c0,.13.11.24.24.24h1.97c.13,0,.24-.11.24-.24v-1.09c0-.13-.11-.24-.24-.24Z"/>
    </g>
    <g>
      <rect class="cls-6" x="4295.24" y="614.11" width="78.1" height="11.97"/>
      <line class="cls-3" x1="4295.24" y1="614.56" x2="4373.33" y2="614.56"/>
      <line class="cls-4" x1="4295.24" y1="626.53" x2="4373.33" y2="626.53"/>
      <path class="cls-4" d="M4343.4,630.99h-18.23c-.69,0-1.12-.65-.98-1.43l1.17-6.41c.11-.6.66-1.07,1.24-1.07h15.37c.58,0,1.13.47,1.24,1.07l1.17,6.41c.14.78-.29,1.43-.98,1.43Z"/>
      <path class="cls-7" d="M4335.27,620.14h-.42v-.28h-1.14v.28h-.42c-.13,0-.24.11-.24.24v1.09c0,.13.11.24.24.24h1.97c.13,0,.24-.11.24-.24v-1.09c0-.13-.11-.24-.24-.24Z"/>
    </g>
    <g>
      <rect class="cls-6" x="4373.33" y="614.11" width="78.1" height="11.97"/>
      <line class="cls-3" x1="4373.33" y1="614.56" x2="4451.43" y2="614.56"/>
      <line class="cls-4" x1="4373.33" y1="626.53" x2="4451.43" y2="626.53"/>
      <path class="cls-4" d="M4421.5,630.99h-18.23c-.69,0-1.12-.65-.98-1.43l1.17-6.41c.11-.6.66-1.07,1.24-1.07h15.37c.58,0,1.13.47,1.24,1.07l1.17,6.41c.14.78-.29,1.43-.98,1.43Z"/>
      <path class="cls-7" d="M4413.37,620.14h-.42v-.28h-1.14v.28h-.42c-.13,0-.24.11-.24.24v1.09c0,.13.11.24.24.24h1.97c.13,0,.24-.11.24-.24v-1.09c0-.13-.11-.24-.24-.24Z"/>
    </g>
    <g>
      <rect class="cls-6" x="4451.43" y="614.11" width="78.1" height="11.97"/>
      <line class="cls-3" x1="4451.43" y1="614.56" x2="4529.52" y2="614.56"/>
      <line class="cls-4" x1="4451.43" y1="626.53" x2="4529.52" y2="626.53"/>
      <path class="cls-4" d="M4499.59,630.99h-18.23c-.69,0-1.12-.65-.98-1.43l1.17-6.41c.11-.6.66-1.07,1.24-1.07h15.37c.58,0,1.13.47,1.24,1.07l1.17,6.41c.14.78-.29,1.43-.98,1.43Z"/>
      <path class="cls-7" d="M4491.46,620.14h-.42v-.28h-1.14v.28h-.42c-.13,0-.24.11-.24.24v1.09c0,.13.11.24.24.24h1.97c.13,0,.24-.11.24-.24v-1.09c0-.13-.11-.24-.24-.24Z"/>
    </g>
    <g>
      <rect class="cls-6" x="4529.52" y="614.11" width="78.1" height="11.97"/>
      <line class="cls-3" x1="4529.52" y1="614.56" x2="4607.62" y2="614.56"/>
      <line class="cls-4" x1="4529.52" y1="626.53" x2="4607.62" y2="626.53"/>
      <path class="cls-4" d="M4577.69,630.99h-18.23c-.69,0-1.12-.65-.98-1.43l1.17-6.41c.11-.6.66-1.07,1.24-1.07h15.37c.58,0,1.13.47,1.24,1.07l1.17,6.41c.14.78-.29,1.43-.98,1.43Z"/>
      <path class="cls-7" d="M4569.56,620.14h-.42v-.28h-1.14v.28h-.42c-.13,0-.24.11-.24.24v1.09c0,.13.11.24.24.24h1.97c.13,0,.24-.11.24-.24v-1.09c0-.13-.11-.24-.24-.24Z"/>
    </g>
    <g>
      <rect class="cls-6" x="4607.62" y="614.11" width="78.1" height="11.97"/>
      <line class="cls-3" x1="4607.62" y1="614.56" x2="4685.71" y2="614.56"/>
      <line class="cls-4" x1="4607.62" y1="626.53" x2="4685.71" y2="626.53"/>
      <path class="cls-4" d="M4655.78,630.99h-18.23c-.69,0-1.12-.65-.98-1.43l1.17-6.41c.11-.6.66-1.07,1.24-1.07h15.37c.58,0,1.13.47,1.24,1.07l1.17,6.41c.14.78-.29,1.43-.98,1.43Z"/>
      <path class="cls-7" d="M4647.65,620.14h-.42v-.28h-1.14v.28h-.42c-.13,0-.24.11-.24.24v1.09c0,.13.11.24.24.24h1.97c.13,0,.24-.11.24-.24v-1.09c0-.13-.11-.24-.24-.24Z"/>
    </g>
    <g>
      <rect class="cls-6" x="4685.71" y="614.11" width="78.1" height="11.97"/>
      <line class="cls-3" x1="4685.71" y1="614.56" x2="4763.81" y2="614.56"/>
      <line class="cls-4" x1="4685.71" y1="626.53" x2="4763.81" y2="626.53"/>
      <path class="cls-4" d="M4733.88,630.99h-18.23c-.69,0-1.12-.65-.98-1.43l1.17-6.41c.11-.6.66-1.07,1.24-1.07h15.37c.58,0,1.13.47,1.24,1.07l1.17,6.41c.14.78-.29,1.43-.98,1.43Z"/>
      <path class="cls-7" d="M4725.75,620.14h-.42v-.28h-1.14v.28h-.42c-.13,0-.24.11-.24.24v1.09c0,.13.11.24.24.24h1.97c.13,0,.24-.11.24-.24v-1.09c0-.13-.11-.24-.24-.24Z"/>
    </g>
    <g>
      <rect class="cls-6" x="4763.81" y="614.11" width="78.1" height="11.97"/>
      <line class="cls-3" x1="4763.81" y1="614.56" x2="4841.9" y2="614.56"/>
      <line class="cls-4" x1="4763.81" y1="626.53" x2="4841.9" y2="626.53"/>
      <path class="cls-4" d="M4811.97,630.99h-18.23c-.69,0-1.12-.65-.98-1.43l1.17-6.41c.11-.6.66-1.07,1.24-1.07h15.37c.58,0,1.13.47,1.24,1.07l1.17,6.41c.14.78-.29,1.43-.98,1.43Z"/>
      <path class="cls-7" d="M4803.84,620.14h-.42v-.28h-1.14v.28h-.42c-.13,0-.24.11-.24.24v1.09c0,.13.11.24.24.24h1.97c.13,0,.24-.11.24-.24v-1.09c0-.13-.11-.24-.24-.24Z"/>
    </g>
    <g>
      <rect class="cls-6" x="4841.9" y="614.11" width="78.1" height="11.97"/>
      <line class="cls-3" x1="4841.9" y1="614.56" x2="4920" y2="614.56"/>
      <line class="cls-4" x1="4841.9" y1="626.53" x2="4920" y2="626.53"/>
      <path class="cls-4" d="M4890.07,630.99h-18.23c-.69,0-1.12-.65-.98-1.43l1.17-6.41c.11-.6.66-1.07,1.24-1.07h15.37c.58,0,1.13.47,1.24,1.07l1.17,6.41c.14.78-.29,1.43-.98,1.43Z"/>
      <path class="cls-7" d="M4881.94,620.14h-.42v-.28h-1.14v.28h-.42c-.13,0-.24.11-.24.24v1.09c0,.13.11.24.24.24h1.97c.13,0,.24-.11.24-.24v-1.09c0-.13-.11-.24-.24-.24Z"/>
    </g>
    <g>
      <rect class="cls-6" x="4920" y="614.11" width="78.1" height="11.97"/>
      <line class="cls-3" x1="4920" y1="614.56" x2="4998.1" y2="614.56"/>
      <line class="cls-4" x1="4920" y1="626.53" x2="4998.1" y2="626.53"/>
      <path class="cls-4" d="M4968.16,630.99h-18.23c-.69,0-1.12-.65-.98-1.43l1.17-6.41c.11-.6.66-1.07,1.24-1.07h15.37c.58,0,1.13.47,1.24,1.07l1.17,6.41c.14.78-.29,1.43-.98,1.43Z"/>
      <path class="cls-7" d="M4960.03,620.14h-.42v-.28h-1.14v.28h-.42c-.13,0-.24.11-.24.24v1.09c0,.13.11.24.24.24h1.97c.13,0,.24-.11.24-.24v-1.09c0-.13-.11-.24-.24-.24Z"/>
    </g>
    <g>
      <rect class="cls-6" x="4998.1" y="614.11" width="78.1" height="11.97"/>
      <line class="cls-3" x1="4998.1" y1="614.56" x2="5076.19" y2="614.56"/>
      <line class="cls-4" x1="4998.1" y1="626.53" x2="5076.19" y2="626.53"/>
      <path class="cls-4" d="M5046.26,630.99h-18.23c-.69,0-1.12-.65-.98-1.43l1.17-6.41c.11-.6.66-1.07,1.24-1.07h15.37c.58,0,1.13.47,1.24,1.07l1.17,6.41c.14.78-.29,1.43-.98,1.43Z"/>
      <path class="cls-7" d="M5038.13,620.14h-.42v-.28h-1.14v.28h-.42c-.13,0-.24.11-.24.24v1.09c0,.13.11.24.24.24h1.97c.13,0,.24-.11.24-.24v-1.09c0-.13-.11-.24-.24-.24Z"/>
    </g>
    <g>
      <rect class="cls-6" x="5076.19" y="614.11" width="78.1" height="11.97"/>
      <line class="cls-3" x1="5076.19" y1="614.56" x2="5154.29" y2="614.56"/>
      <line class="cls-4" x1="5076.19" y1="626.53" x2="5154.29" y2="626.53"/>
      <path class="cls-4" d="M5124.35,630.99h-18.23c-.69,0-1.12-.65-.98-1.43l1.17-6.41c.11-.6.66-1.07,1.24-1.07h15.37c.58,0,1.13.47,1.24,1.07l1.17,6.41c.14.78-.29,1.43-.98,1.43Z"/>
      <path class="cls-7" d="M5116.22,620.14h-.42v-.28h-1.14v.28h-.42c-.13,0-.24.11-.24.24v1.09c0,.13.11.24.24.24h1.97c.13,0,.24-.11.24-.24v-1.09c0-.13-.11-.24-.24-.24Z"/>
    </g>
    <g>
      <rect class="cls-6" x="5154.29" y="614.11" width="78.1" height="11.97"/>
      <line class="cls-3" x1="5154.29" y1="614.56" x2="5232.38" y2="614.56"/>
      <line class="cls-4" x1="5154.29" y1="626.53" x2="5232.38" y2="626.53"/>
      <path class="cls-4" d="M5202.45,630.99h-18.23c-.69,0-1.12-.65-.98-1.43l1.17-6.41c.11-.6.66-1.07,1.24-1.07h15.37c.58,0,1.13.47,1.24,1.07l1.17,6.41c.14.78-.29,1.43-.98,1.43Z"/>
      <path class="cls-7" d="M5194.32,620.14h-.42v-.28h-1.14v.28h-.42c-.13,0-.24.11-.24.24v1.09c0,.13.11.24.24.24h1.97c.13,0,.24-.11.24-.24v-1.09c0-.13-.11-.24-.24-.24Z"/>
    </g>
    <g>
      <rect class="cls-6" x="5232.38" y="614.11" width="78.1" height="11.97"/>
      <line class="cls-3" x1="5232.38" y1="614.56" x2="5310.48" y2="614.56"/>
      <line class="cls-4" x1="5232.38" y1="626.53" x2="5310.48" y2="626.53"/>
      <path class="cls-4" d="M5280.54,630.99h-18.23c-.69,0-1.12-.65-.98-1.43l1.17-6.41c.11-.6.66-1.07,1.24-1.07h15.37c.58,0,1.13.47,1.24,1.07l1.17,6.41c.14.78-.29,1.43-.98,1.43Z"/>
      <path class="cls-7" d="M5272.41,620.14h-.42v-.28h-1.14v.28h-.42c-.13,0-.24.11-.24.24v1.09c0,.13.11.24.24.24h1.97c.13,0,.24-.11.24-.24v-1.09c0-.13-.11-.24-.24-.24Z"/>
    </g>
    <g>
      <rect class="cls-6" x="5310.48" y="614.11" width="78.1" height="11.97"/>
      <line class="cls-3" x1="5310.48" y1="614.56" x2="5388.57" y2="614.56"/>
      <line class="cls-4" x1="5310.48" y1="626.53" x2="5388.57" y2="626.53"/>
      <path class="cls-4" d="M5358.64,630.99h-18.23c-.69,0-1.12-.65-.98-1.43l1.17-6.41c.11-.6.66-1.07,1.24-1.07h15.37c.58,0,1.13.47,1.24,1.07l1.17,6.41c.14.78-.29,1.43-.98,1.43Z"/>
      <path class="cls-7" d="M5350.51,620.14h-.42v-.28h-1.14v.28h-.42c-.13,0-.24.11-.24.24v1.09c0,.13.11.24.24.24h1.97c.13,0,.24-.11.24-.24v-1.09c0-.13-.11-.24-.24-.24Z"/>
    </g>
    <g>
      <rect class="cls-6" x="5388.57" y="614.11" width="78.1" height="11.97"/>
      <line class="cls-3" x1="5388.57" y1="614.56" x2="5466.67" y2="614.56"/>
      <line class="cls-4" x1="5388.57" y1="626.53" x2="5466.67" y2="626.53"/>
      <path class="cls-4" d="M5436.73,630.99h-18.23c-.69,0-1.12-.65-.98-1.43l1.17-6.41c.11-.6.66-1.07,1.24-1.07h15.37c.58,0,1.13.47,1.24,1.07l1.17,6.41c.14.78-.29,1.43-.98,1.43Z"/>
      <path class="cls-7" d="M5428.6,620.14h-.42v-.28h-1.14v.28h-.42c-.13,0-.24.11-.24.24v1.09c0,.13.11.24.24.24h1.97c.13,0,.24-.11.24-.24v-1.09c0-.13-.11-.24-.24-.24Z"/>
    </g>
    <g>
      <rect class="cls-6" x="5466.67" y="614.11" width="78.1" height="11.97"/>
      <line class="cls-3" x1="5466.67" y1="614.56" x2="5544.76" y2="614.56"/>
      <line class="cls-4" x1="5466.67" y1="626.53" x2="5544.76" y2="626.53"/>
      <path class="cls-4" d="M5514.83,630.99h-18.23c-.69,0-1.12-.65-.98-1.43l1.17-6.41c.11-.6.66-1.07,1.24-1.07h15.37c.58,0,1.13.47,1.24,1.07l1.17,6.41c.14.78-.29,1.43-.98,1.43Z"/>
      <path class="cls-7" d="M5506.7,620.14h-.42v-.28h-1.14v.28h-.42c-.13,0-.24.11-.24.24v1.09c0,.13.11.24.24.24h1.97c.13,0,.24-.11.24-.24v-1.09c0-.13-.11-.24-.24-.24Z"/>
    </g>
    <g>
      <rect class="cls-6" x="5544.76" y="614.11" width="78.1" height="11.97"/>
      <line class="cls-3" x1="5544.76" y1="614.56" x2="5622.86" y2="614.56"/>
      <line class="cls-4" x1="5544.76" y1="626.53" x2="5622.86" y2="626.53"/>
      <path class="cls-4" d="M5592.92,630.99h-18.23c-.69,0-1.12-.65-.98-1.43l1.17-6.41c.11-.6.66-1.07,1.24-1.07h15.37c.58,0,1.13.47,1.24,1.07l1.17,6.41c.14.78-.29,1.43-.98,1.43Z"/>
      <path class="cls-7" d="M5584.8,620.14h-.42v-.28h-1.14v.28h-.42c-.13,0-.24.11-.24.24v1.09c0,.13.11.24.24.24h1.97c.13,0,.24-.11.24-.24v-1.09c0-.13-.11-.24-.24-.24Z"/>
    </g>
    <g>
      <rect class="cls-6" x="5622.86" y="614.11" width="78.1" height="11.97"/>
      <line class="cls-3" x1="5622.86" y1="614.56" x2="5700.95" y2="614.56"/>
      <line class="cls-4" x1="5622.86" y1="626.53" x2="5700.95" y2="626.53"/>
      <path class="cls-4" d="M5671.02,630.99h-18.23c-.69,0-1.12-.65-.98-1.43l1.17-6.41c.11-.6.66-1.07,1.24-1.07h15.37c.58,0,1.13.47,1.24,1.07l1.17,6.41c.14.78-.29,1.43-.98,1.43Z"/>
      <path class="cls-7" d="M5662.89,620.14h-.42v-.28h-1.14v.28h-.42c-.13,0-.24.11-.24.24v1.09c0,.13.11.24.24.24h1.97c.13,0,.24-.11.24-.24v-1.09c0-.13-.11-.24-.24-.24Z"/>
    </g>
    <g>
      <rect class="cls-6" x="5700.95" y="614.11" width="78.1" height="11.97"/>
      <line class="cls-3" x1="5700.95" y1="614.56" x2="5779.05" y2="614.56"/>
      <line class="cls-4" x1="5700.95" y1="626.53" x2="5779.05" y2="626.53"/>
      <path class="cls-4" d="M5749.12,630.99h-18.23c-.69,0-1.12-.65-.98-1.43l1.17-6.41c.11-.6.66-1.07,1.24-1.07h15.37c.58,0,1.13.47,1.24,1.07l1.17,6.41c.14.78-.29,1.43-.98,1.43Z"/>
      <path class="cls-7" d="M5740.99,620.14h-.42v-.28h-1.14v.28h-.42c-.13,0-.24.11-.24.24v1.09c0,.13.11.24.24.24h1.97c.13,0,.24-.11.24-.24v-1.09c0-.13-.11-.24-.24-.24Z"/>
    </g>
    <g>
      <rect class="cls-6" x="5779.05" y="614.11" width="78.1" height="11.97"/>
      <line class="cls-3" x1="5779.05" y1="614.56" x2="5857.14" y2="614.56"/>
      <line class="cls-4" x1="5779.05" y1="626.53" x2="5857.14" y2="626.53"/>
      <path class="cls-4" d="M5827.21,630.99h-18.23c-.69,0-1.12-.65-.98-1.43l1.17-6.41c.11-.6.66-1.07,1.24-1.07h15.37c.58,0,1.13.47,1.24,1.07l1.17,6.41c.14.78-.29,1.43-.98,1.43Z"/>
      <path class="cls-7" d="M5819.08,620.14h-.42v-.28h-1.14v.28h-.42c-.13,0-.24.11-.24.24v1.09c0,.13.11.24.24.24h1.97c.13,0,.24-.11.24-.24v-1.09c0-.13-.11-.24-.24-.24Z"/>
    </g>
    <g>
      <rect class="cls-6" x="5857.14" y="614.11" width="78.1" height="11.97"/>
      <line class="cls-3" x1="5857.14" y1="614.56" x2="5935.24" y2="614.56"/>
      <line class="cls-4" x1="5857.14" y1="626.53" x2="5935.24" y2="626.53"/>
      <path class="cls-4" d="M5905.31,630.99h-18.23c-.69,0-1.12-.65-.98-1.43l1.17-6.41c.11-.6.66-1.07,1.24-1.07h15.37c.58,0,1.13.47,1.24,1.07l1.17,6.41c.14.78-.29,1.43-.98,1.43Z"/>
      <path class="cls-7" d="M5897.18,620.14h-.42v-.28h-1.14v.28h-.42c-.13,0-.24.11-.24.24v1.09c0,.13.11.24.24.24h1.97c.13,0,.24-.11.24-.24v-1.09c0-.13-.11-.24-.24-.24Z"/>
    </g>
    <g>
      <rect class="cls-6" x="5935.24" y="614.11" width="78.1" height="11.97"/>
      <line class="cls-3" x1="5935.24" y1="614.56" x2="6013.33" y2="614.56"/>
      <line class="cls-4" x1="5935.24" y1="626.53" x2="6013.33" y2="626.53"/>
      <path class="cls-4" d="M5983.4,630.99h-18.23c-.69,0-1.12-.65-.98-1.43l1.17-6.41c.11-.6.66-1.07,1.24-1.07h15.37c.58,0,1.13.47,1.24,1.07l1.17,6.41c.14.78-.29,1.43-.98,1.43Z"/>
      <path class="cls-7" d="M5975.27,620.14h-.42v-.28h-1.14v.28h-.42c-.13,0-.24.11-.24.24v1.09c0,.13.11.24.24.24h1.97c.13,0,.24-.11.24-.24v-1.09c0-.13-.11-.24-.24-.24Z"/>
    </g>
    <g>
      <rect class="cls-6" x="6013.33" y="614.11" width="78.1" height="11.97"/>
      <line class="cls-3" x1="6013.33" y1="614.56" x2="6091.43" y2="614.56"/>
      <line class="cls-4" x1="6013.33" y1="626.53" x2="6091.43" y2="626.53"/>
      <path class="cls-4" d="M6061.5,630.99h-18.23c-.69,0-1.12-.65-.98-1.43l1.17-6.41c.11-.6.66-1.07,1.24-1.07h15.37c.58,0,1.13.47,1.24,1.07l1.17,6.41c.14.78-.29,1.43-.98,1.43Z"/>
      <path class="cls-7" d="M6053.37,620.14h-.42v-.28h-1.14v.28h-.42c-.13,0-.24.11-.24.24v1.09c0,.13.11.24.24.24h1.97c.13,0,.24-.11.24-.24v-1.09c0-.13-.11-.24-.24-.24Z"/>
    </g>
    <g>
      <rect class="cls-6" x="6091.43" y="614.11" width="78.1" height="11.97"/>
      <line class="cls-3" x1="6091.43" y1="614.56" x2="6169.52" y2="614.56"/>
      <line class="cls-4" x1="6091.43" y1="626.53" x2="6169.52" y2="626.53"/>
      <path class="cls-4" d="M6139.59,630.99h-18.23c-.69,0-1.12-.65-.98-1.43l1.17-6.41c.11-.6.66-1.07,1.24-1.07h15.37c.58,0,1.13.47,1.24,1.07l1.17,6.41c.14.78-.29,1.43-.98,1.43Z"/>
      <path class="cls-7" d="M6131.46,620.14h-.42v-.28h-1.14v.28h-.42c-.13,0-.24.11-.24.24v1.09c0,.13.11.24.24.24h1.97c.13,0,.24-.11.24-.24v-1.09c0-.13-.11-.24-.24-.24Z"/>
    </g>
    <g>
      <rect class="cls-6" x="6169.52" y="614.11" width="78.1" height="11.97"/>
      <line class="cls-3" x1="6169.52" y1="614.56" x2="6247.62" y2="614.56"/>
      <line class="cls-4" x1="6169.52" y1="626.53" x2="6247.62" y2="626.53"/>
      <path class="cls-4" d="M6217.69,630.99h-18.23c-.69,0-1.12-.65-.98-1.43l1.17-6.41c.11-.6.66-1.07,1.24-1.07h15.37c.58,0,1.13.47,1.24,1.07l1.17,6.41c.14.78-.29,1.43-.98,1.43Z"/>
      <path class="cls-7" d="M6209.56,620.14h-.42v-.28h-1.14v.28h-.42c-.13,0-.24.11-.24.24v1.09c0,.13.11.24.24.24h1.97c.13,0,.24-.11.24-.24v-1.09c0-.13-.11-.24-.24-.24Z"/>
    </g>
    <g>
      <rect class="cls-6" x="6247.62" y="614.11" width="78.1" height="11.97"/>
      <line class="cls-3" x1="6247.62" y1="614.56" x2="6325.71" y2="614.56"/>
      <line class="cls-4" x1="6247.62" y1="626.53" x2="6325.71" y2="626.53"/>
      <path class="cls-4" d="M6295.78,630.99h-18.23c-.69,0-1.12-.65-.98-1.43l1.17-6.41c.11-.6.66-1.07,1.24-1.07h15.37c.58,0,1.13.47,1.24,1.07l1.17,6.41c.14.78-.29,1.43-.98,1.43Z"/>
      <path class="cls-7" d="M6287.65,620.14h-.42v-.28h-1.14v.28h-.42c-.13,0-.24.11-.24.24v1.09c0,.13.11.24.24.24h1.97c.13,0,.24-.11.24-.24v-1.09c0-.13-.11-.24-.24-.24Z"/>
    </g>
    <g>
      <rect class="cls-6" x="6325.71" y="614.11" width="78.1" height="11.97"/>
      <line class="cls-3" x1="6325.71" y1="614.56" x2="6403.81" y2="614.56"/>
      <line class="cls-4" x1="6325.71" y1="626.53" x2="6403.81" y2="626.53"/>
      <path class="cls-4" d="M6373.88,630.99h-18.23c-.69,0-1.12-.65-.98-1.43l1.17-6.41c.11-.6.66-1.07,1.24-1.07h15.37c.58,0,1.13.47,1.24,1.07l1.17,6.41c.14.78-.29,1.43-.98,1.43Z"/>
      <path class="cls-7" d="M6365.75,620.14h-.42v-.28h-1.14v.28h-.42c-.13,0-.24.11-.24.24v1.09c0,.13.11.24.24.24h1.97c.13,0,.24-.11.24-.24v-1.09c0-.13-.11-.24-.24-.24Z"/>
    </g>
    <g>
      <rect class="cls-6" x="6403.81" y="614.11" width="78.1" height="11.97"/>
      <line class="cls-3" x1="6403.81" y1="614.56" x2="6481.9" y2="614.56"/>
      <line class="cls-4" x1="6403.81" y1="626.53" x2="6481.9" y2="626.53"/>
      <path class="cls-4" d="M6451.97,630.99h-18.23c-.69,0-1.12-.65-.98-1.43l1.17-6.41c.11-.6.66-1.07,1.24-1.07h15.37c.58,0,1.13.47,1.24,1.07l1.17,6.41c.14.78-.29,1.43-.98,1.43Z"/>
      <path class="cls-7" d="M6443.84,620.14h-.42v-.28h-1.14v.28h-.42c-.13,0-.24.11-.24.24v1.09c0,.13.11.24.24.24h1.97c.13,0,.24-.11.24-.24v-1.09c0-.13-.11-.24-.24-.24Z"/>
    </g>
    <g>
      <rect class="cls-6" x="6481.9" y="614.11" width="78.1" height="11.97"/>
      <line class="cls-3" x1="6481.9" y1="614.56" x2="6560" y2="614.56"/>
      <line class="cls-4" x1="6481.9" y1="626.53" x2="6560" y2="626.53"/>
      <path class="cls-4" d="M6530.07,630.99h-18.23c-.69,0-1.12-.65-.98-1.43l1.17-6.41c.11-.6.66-1.07,1.24-1.07h15.37c.58,0,1.13.47,1.24,1.07l1.17,6.41c.14.78-.29,1.43-.98,1.43Z"/>
      <path class="cls-7" d="M6521.94,620.14h-.42v-.28h-1.14v.28h-.42c-.13,0-.24.11-.24.24v1.09c0,.13.11.24.24.24h1.97c.13,0,.24-.11.24-.24v-1.09c0-.13-.11-.24-.24-.24Z"/>
    </g>
  </g>
  <g id="Train">
    <g>
      <g>
        <path class="cls-7" d="M836.9,547.5c-18.51,0-33.52,15.01-33.52,33.52s15.01,33.52,33.52,33.52,33.52-15.01,33.52-33.52-15.01-33.52-33.52-33.52ZM836.9,608.06c-14.93,0-27.04-12.11-27.04-27.04s12.11-27.04,27.04-27.04,27.04,12.11,27.04,27.04-12.11,27.04-27.04,27.04Z"/>
        <g>
          <g>
            <g>
              <polyline class="cls-2" points="839.13 554.08 836.9 563.04 834.72 571.78"/>
              <polyline class="cls-2" points="834.66 554.08 836.9 563.04 839.08 571.79"/>
            </g>
            <g>
              <polyline class="cls-2" points="863.84 583.26 854.87 581.02 846.13 578.84"/>
              <polyline class="cls-2" points="863.84 578.78 854.87 581.02 846.14 583.2"/>
            </g>
            <g>
              <polyline class="cls-2" points="834.66 607.97 836.9 599 839.09 590.25"/>
              <polyline class="cls-2" points="839.13 607.97 836.9 599 834.71 590.26"/>
            </g>
            <g>
              <polyline class="cls-2" points="809.95 578.78 818.91 581.02 827.66 583.21"/>
              <polyline class="cls-2" points="809.95 583.26 818.91 581.02 827.67 578.83"/>
            </g>
          </g>
          <g>
            <g>
              <polyline class="cls-2" points="857.53 563.55 849.62 568.3 841.89 572.95"/>
              <polyline class="cls-2" points="854.37 560.39 849.62 568.3 844.97 576.03"/>
            </g>
            <g>
              <polyline class="cls-2" points="854.37 601.65 849.62 593.74 844.98 586.01"/>
              <polyline class="cls-2" points="857.53 598.49 849.62 593.74 841.89 589.09"/>
            </g>
            <g>
              <polyline class="cls-2" points="816.26 598.49 824.18 593.74 831.91 589.09"/>
              <polyline class="cls-2" points="819.43 601.65 824.18 593.74 828.82 586.01"/>
            </g>
            <g>
              <polyline class="cls-2" points="819.43 560.39 824.18 568.3 828.83 576.03"/>
              <path class="cls-7" d="M846.39,581.02c0,.74-.09,1.48-.25,2.17-.24,1.01-.64,1.96-1.16,2.81-.78,1.26-1.84,2.31-3.09,3.08-.85.53-1.8.93-2.8,1.16-.71.17-1.44.26-2.19.26s-1.49-.09-2.18-.25c-1-.24-1.95-.64-2.8-1.17-1.26-.77-2.31-1.83-3.09-3.08-.52-.85-.92-1.8-1.16-2.8-.16-.7-.25-1.43-.25-2.18s.09-1.49.26-2.19c.23-1,.63-1.95,1.16-2.8.77-1.26,1.83-2.31,3.08-3.08.85-.53,1.8-.93,2.81-1.17.7-.16,1.43-.25,2.17-.25s1.49.09,2.18.26c1,.23,1.95.63,2.81,1.16,1.26.77,2.31,1.83,3.08,3.08.53.86.93,1.81,1.16,2.81.17.7.26,1.43.26,2.18Z"/>
              <polyline class="cls-2" points="816.26 563.55 824.18 568.3 831.91 572.95"/>
            </g>
          </g>
        </g>
      </g>
      <g>
        <path class="cls-7" d="M1053.88,547.5c-18.51,0-33.52,15.01-33.52,33.52s15.01,33.52,33.52,33.52,33.52-15.01,33.52-33.52-15.01-33.52-33.52-33.52ZM1053.88,608.06c-14.93,0-27.04-12.11-27.04-27.04s12.11-27.04,27.04-27.04,27.04,12.11,27.04,27.04-12.11,27.04-27.04,27.04Z"/>
        <g>
          <g>
            <g>
              <polyline class="cls-2" points="1056.12 554.08 1053.89 563.04 1051.71 571.78"/>
              <polyline class="cls-2" points="1051.65 554.08 1053.89 563.04 1056.06 571.79"/>
            </g>
            <g>
              <polyline class="cls-2" points="1080.83 583.26 1071.86 581.02 1063.12 578.84"/>
              <polyline class="cls-2" points="1080.83 578.78 1071.86 581.02 1063.13 583.2"/>
            </g>
            <g>
              <polyline class="cls-2" points="1051.65 607.97 1053.89 599 1056.07 590.25"/>
              <polyline class="cls-2" points="1056.12 607.97 1053.89 599 1051.7 590.26"/>
            </g>
            <g>
              <polyline class="cls-2" points="1026.93 578.78 1035.9 581.02 1044.64 583.21"/>
              <polyline class="cls-2" points="1026.93 583.26 1035.9 581.02 1044.65 578.83"/>
            </g>
          </g>
          <g>
            <g>
              <polyline class="cls-2" points="1074.52 563.55 1066.6 568.3 1058.88 572.95"/>
              <polyline class="cls-2" points="1071.36 560.39 1066.6 568.3 1061.96 576.03"/>
            </g>
            <g>
              <polyline class="cls-2" points="1071.36 601.65 1066.6 593.74 1061.97 586.01"/>
              <polyline class="cls-2" points="1074.52 598.49 1066.6 593.74 1058.88 589.09"/>
            </g>
            <g>
              <polyline class="cls-2" points="1033.24 598.49 1041.17 593.74 1048.89 589.09"/>
              <polyline class="cls-2" points="1036.41 601.65 1041.17 593.74 1045.8 586.01"/>
            </g>
            <g>
              <polyline class="cls-2" points="1036.41 560.39 1041.17 568.3 1045.81 576.03"/>
              <path class="cls-7" d="M1063.38,581.02c0,.74-.09,1.48-.25,2.17-.24,1.01-.64,1.96-1.16,2.81-.78,1.26-1.84,2.31-3.09,3.08-.85.53-1.8.93-2.8,1.16-.71.17-1.44.26-2.19.26s-1.49-.09-2.18-.25c-1-.24-1.95-.64-2.8-1.17-1.26-.77-2.31-1.83-3.09-3.08-.52-.85-.92-1.8-1.16-2.8-.16-.7-.25-1.43-.25-2.18s.09-1.49.26-2.19c.23-1,.63-1.95,1.16-2.8.77-1.26,1.83-2.31,3.08-3.08.85-.53,1.8-.93,2.81-1.17.7-.16,1.43-.25,2.17-.25s1.49.09,2.18.26c1,.23,1.95.63,2.81,1.16,1.26.77,2.31,1.83,3.08,3.08.53.86.93,1.81,1.16,2.81.17.7.26,1.43.26,2.18Z"/>
              <polyline class="cls-2" points="1033.24 563.55 1041.17 568.3 1048.89 572.95"/>
            </g>
          </g>
        </g>
      </g>
      <g>
        <path class="cls-7" d="M621.72,547.5c-18.51,0-33.52,15.01-33.52,33.52s15.01,33.52,33.52,33.52,33.52-15.01,33.52-33.52-15.01-33.52-33.52-33.52ZM621.72,608.06c-14.93,0-27.04-12.11-27.04-27.04s12.11-27.04,27.04-27.04,27.04,12.11,27.04,27.04-12.11,27.04-27.04,27.04Z"/>
        <g>
          <g>
            <g>
              <polyline class="cls-2" points="623.96 554.08 621.73 563.04 619.55 571.78"/>
              <polyline class="cls-2" points="619.49 554.08 621.73 563.04 623.91 571.79"/>
            </g>
            <g>
              <polyline class="cls-2" points="648.67 583.26 639.7 581.02 630.96 578.84"/>
              <polyline class="cls-2" points="648.67 578.78 639.7 581.02 630.97 583.2"/>
            </g>
            <g>
              <polyline class="cls-2" points="619.49 607.97 621.73 599 623.92 590.25"/>
              <polyline class="cls-2" points="623.96 607.97 621.73 599 619.54 590.26"/>
            </g>
            <g>
              <polyline class="cls-2" points="594.78 578.78 603.74 581.02 612.49 583.21"/>
              <polyline class="cls-2" points="594.78 583.26 603.74 581.02 612.5 578.83"/>
            </g>
          </g>
          <g>
            <g>
              <polyline class="cls-2" points="642.36 563.55 634.45 568.3 626.72 572.95"/>
              <polyline class="cls-2" points="639.2 560.39 634.45 568.3 629.8 576.03"/>
            </g>
            <g>
              <polyline class="cls-2" points="639.2 601.65 634.45 593.74 629.81 586.01"/>
              <polyline class="cls-2" points="642.36 598.49 634.45 593.74 626.72 589.09"/>
            </g>
            <g>
              <polyline class="cls-2" points="601.09 598.49 609.01 593.74 616.74 589.09"/>
              <polyline class="cls-2" points="604.25 601.65 609.01 593.74 613.65 586.01"/>
            </g>
            <g>
              <polyline class="cls-2" points="604.25 560.39 609.01 568.3 613.65 576.03"/>
              <path class="cls-7" d="M631.22,581.02c0,.74-.09,1.48-.25,2.17-.24,1.01-.64,1.96-1.16,2.81-.78,1.26-1.84,2.31-3.09,3.08-.85.53-1.8.93-2.8,1.16-.71.17-1.44.26-2.19.26s-1.49-.09-2.18-.25c-1-.24-1.95-.64-2.8-1.17-1.26-.77-2.31-1.83-3.09-3.08-.52-.85-.92-1.8-1.16-2.8-.16-.7-.25-1.43-.25-2.18s.09-1.49.26-2.19c.23-1,.63-1.95,1.16-2.8.77-1.26,1.83-2.31,3.08-3.08.85-.53,1.8-.93,2.81-1.17.7-.16,1.43-.25,2.17-.25s1.49.09,2.18.26c1,.23,1.95.63,2.81,1.16,1.26.77,2.31,1.83,3.08,3.08.53.86.93,1.81,1.16,2.81.17.7.26,1.43.26,2.18Z"/>
              <polyline class="cls-2" points="601.09 563.55 609.01 568.3 616.74 572.95"/>
            </g>
          </g>
        </g>
      </g>
    </g>
    <path class="cls-7" d="M1189.4,554.08H482.03v16.81c0,1.14.92,2.06,2.06,2.06h226.75c-1.63,3.44-2.3,7.43-1.51,11.65,1.53,8.18,8.44,14.5,16.72,15.3,11.31,1.09,20.83-7.77,20.83-18.85,0-2.9-.67-5.64-1.84-8.1h184.49c-1.63,3.44-2.3,7.43-1.51,11.65,1.53,8.18,8.44,14.5,16.72,15.3,11.31,1.09,20.83-7.77,20.83-18.85,0-2.9-.67-5.64-1.84-8.1h223.56c1.15,0,2.08-.93,2.08-2.08v-16.79Z"/>
    <g>
      <path class="cls-1" d="M478.96,373.82v26.66h693.08v83.93l13.59-.68,24.41-3.74v-106.17H478.96ZM568.8,397.44c-.04.39-.37.69-.77.69h-59.87c-.46,0-.82-.4-.77-.85l1.82-17.29c.04-.39.37-.69.77-.69h59.87c.46,0,.82.4.77.85l-1.82,17.29ZM640.46,397.43c-.03.4-.37.71-.77.71h-59.87c-.45,0-.81-.39-.77-.84l1.51-17.29c.03-.4.37-.71.77-.71h59.87c.45,0,.81.39.77.84l-1.51,17.29ZM712.12,397.41c-.03.41-.37.72-.77.72h-59.88c-.45,0-.8-.38-.77-.83l1.21-17.29c.03-.41.37-.72.77-.72h59.88c.45,0,.8.38.77.83l-1.21,17.29ZM783.78,397.4c-.02.41-.36.73-.77.73h-59.88c-.44,0-.8-.37-.77-.81l.91-17.29c.02-.41.36-.73.77-.73h59.88c.44,0,.8.37.77.81l-.91,17.29ZM855.75,397.36c0,.43-.35.77-.77.77h-59.88c-.43,0-.77-.35-.77-.77v-17.29c0-.43.35-.77.77-.77h59.88c.43,0,.77.35.77.77v17.29ZM926.93,398.13h-59.88c-.41,0-.75-.32-.77-.73l-.91-17.29c-.02-.44.33-.81.77-.81h59.88c.41,0,.75.32.77.73l.91,17.29c.02.44-.33.81-.77.81ZM998.59,398.13h-59.88c-.41,0-.74-.31-.77-.72l-1.21-17.29c-.03-.45.32-.83.77-.83h59.88c.41,0,.74.31.77.72l1.21,17.29c.03.45-.32.83-.77.83ZM1070.25,398.13h-59.87c-.4,0-.74-.31-.77-.71l-1.51-17.29c-.04-.45.32-.84.77-.84h59.87c.4,0,.74.31.77.71l1.51,17.29c.04.45-.32.84-.77.84ZM1141.91,398.13h-59.87c-.4,0-.73-.3-.77-.69l-1.82-17.29c-.05-.46.31-.85.77-.85h59.87c.4,0,.73.3.77.69l1.82,17.29c.05.46-.31.85-.77.85ZM1199.19,413.19c0,1.08-.87,1.95-1.95,1.95h-15.69c-1.08,0-1.95-.87-1.95-1.95v-26.6c0-1.08.87-1.95,1.95-1.95h15.69c1.08,0,1.95.87,1.95,1.95v26.6Z"/>
      <rect class="cls-1" x="477.28" y="371.78" width="734.44" height="2.04" rx=".92" ry=".92"/>
      <rect class="cls-2" x="1179.6" y="384.64" width="19.58" height="30.5" rx="1.76" ry="1.76"/>
      <g>
        <path class="cls-7" d="M509.2,379.99l-1.82,17.29c-.05.46.31.85.77.85h59.87c.4,0,.73-.3.77-.69l1.82-17.29c.05-.46-.31-.85-.77-.85h-59.87c-.4,0-.73.3-.77.69ZM565.47,395.75h-54.25c-.46,0-.82-.4-.77-.85l1.32-12.52c.04-.39.37-.69.77-.69h54.25c.46,0,.82.4.77.85l-1.32,12.52c-.04.39-.37.69-.77.69Z"/>
        <path class="cls-7" d="M580.56,380l-1.51,17.29c-.04.45.32.84.77.84h59.87c.4,0,.74-.31.77-.71l1.51-17.29c.04-.45-.32-.84-.77-.84h-59.87c-.4,0-.74.31-.77.71ZM637.09,395.75h-54.26c-.45,0-.81-.39-.77-.84l1.1-12.52c.03-.4.37-.71.77-.71h54.26c.45,0,.81.39.77.84l-1.1,12.52c-.03.4-.37.71-.77.71Z"/>
        <path class="cls-7" d="M651.91,380.01l-1.21,17.29c-.03.45.32.83.77.83h59.88c.41,0,.74-.31.77-.72l1.21-17.29c.03-.45-.32-.83-.77-.83h-59.88c-.41,0-.74.31-.77.72ZM708.71,395.75h-54.26c-.45,0-.8-.38-.77-.83l.88-12.52c.03-.41.37-.72.77-.72h54.26c.45,0,.8.38.77.83l-.88,12.52c-.03.41-.37.72-.77.72Z"/>
        <path class="cls-7" d="M723.27,380.03l-.91,17.29c-.02.44.33.81.77.81h59.88c.41,0,.75-.32.77-.73l.91-17.29c.02-.44-.33-.81-.77-.81h-59.88c-.41,0-.75.32-.77.73ZM780.33,395.75h-54.26c-.44,0-.8-.37-.77-.81l.66-12.52c.02-.41.36-.73.77-.73h54.26c.44,0,.8.37.77.81l-.66,12.52c-.02.41-.36.73-.77.73Z"/>
        <path class="cls-7" d="M1079.45,380.15l1.82,17.29c.04.39.37.69.77.69h59.87c.46,0,.82-.4.77-.85l-1.82-17.29c-.04-.39-.37-.69-.77-.69h-59.87c-.46,0-.82.4-.77.85ZM1083.28,381.68h54.25c.4,0,.73.3.77.69l1.32,12.52c.05.46-.31.85-.77.85h-54.25c-.4,0-.73-.3-.77-.69l-1.32-12.52c-.05-.46.31-.85.77-.85Z"/>
        <path class="cls-7" d="M1008.1,380.14l1.51,17.29c.03.4.37.71.77.71h59.87c.45,0,.81-.39.77-.84l-1.51-17.29c-.03-.4-.37-.71-.77-.71h-59.87c-.45,0-.81.39-.77.84ZM1011.88,381.68h54.26c.4,0,.74.31.77.71l1.1,12.52c.04.45-.32.84-.77.84h-54.26c-.4,0-.74-.31-.77-.71l-1.1-12.52c-.04-.45.32-.84.77-.84Z"/>
        <path class="cls-7" d="M936.74,380.12l1.21,17.29c.03.41.37.72.77.72h59.88c.45,0,.8-.38.77-.83l-1.21-17.29c-.03-.41-.37-.72-.77-.72h-59.88c-.45,0-.8.38-.77.83ZM940.48,381.68h54.26c.41,0,.74.31.77.72l.88,12.52c.03.45-.32.83-.77.83h-54.26c-.41,0-.74-.31-.77-.72l-.88-12.52c-.03-.45.32-.83.77-.83Z"/>
        <path class="cls-7" d="M865.38,380.11l.91,17.29c.02.41.36.73.77.73h59.88c.44,0,.8-.37.77-.81l-.91-17.29c-.02-.41-.36-.73-.77-.73h-59.88c-.44,0-.8.37-.77.81ZM869.08,381.68h54.26c.41,0,.75.32.77.73l.66,12.52c.02.44-.33.81-.77.81h-54.26c-.41,0-.75-.32-.77-.73l-.66-12.52c-.02-.44.33-.81.77-.81Z"/>
        <path class="cls-7" d="M794.32,380.07v17.29c0,.43.35.77.77.77h59.88c.43,0,.77-.35.77-.77v-17.29c0-.43-.35-.77-.77-.77h-59.88c-.43,0-.77.35-.77.77ZM852.17,395.75h-54.26c-.43,0-.77-.35-.77-.77v-12.52c0-.43.35-.77.77-.77h54.26c.43,0,.77.35.77.77v12.52c0,.43-.35.77-.77.77Z"/>
      </g>
      <g>
        <line class="cls-2" x1="482.04" y1="365.41" x2="1205.79" y2="365.41"/>
        <line class="cls-2" x1="484.77" y1="365.41" x2="484.77" y2="371.78"/>
        <line class="cls-2" x1="628.95" y1="365.41" x2="628.95" y2="371.78"/>
        <line class="cls-2" x1="771.6" y1="365.41" x2="771.6" y2="371.78"/>
        <line class="cls-2" x1="914.09" y1="365.41" x2="914.09" y2="371.78"/>
        <line class="cls-2" x1="1057.66" y1="365.41" x2="1057.66" y2="371.78"/>
        <line class="cls-2" x1="1202.76" y1="365.41" x2="1202.76" y2="371.78"/>
      </g>
      <polygon class="cls-1" points="1172.04 400.49 471.38 400.49 453.31 413.52 1190.11 413.52 1172.04 400.49"/>
      <g>
        <line class="cls-2" x1="1199.87" y1="481.56" x2="1208.67" y2="522.69"/>
        <line class="cls-2" x1="1208.2" y1="520.48" x2="1185.64" y2="520.48"/>
        <line class="cls-2" x1="1203.59" y1="498.98" x2="1185.64" y2="498.98"/>
      </g>
    </g>
    <g>
      <path class="cls-4" d="M460.83,413.52v126.21c0,2.9,2.35,5.25,5.25,5.25h323.41v-122.29h64.13v122.29h327.49c2.5,0,4.53-2.03,4.53-4.53v-126.93H460.83ZM518.23,430.79v45.86h-30.37v-45.86h0c0-.92.74-1.66,1.66-1.66h27.07c.91,0,1.64.74,1.64,1.64v.02ZM556.95,430.79v45.86h-30.37v-45.86h0c0-.92.74-1.66,1.66-1.66h27.07c.91,0,1.64.74,1.64,1.64v.02ZM706.24,430.79v45.86h-63.7v-45.86h0c0-.92.74-1.66,1.66-1.66h60.4c.91,0,1.64.74,1.64,1.64v.02ZM996.6,444.29v32.36h-63.7v-45.86c0-.92.74-1.66,1.66-1.66h60.37c.92,0,1.66.74,1.66,1.66v13.5ZM1150.85,430.79v45.86h-63.7v-45.86h0c0-.92.74-1.66,1.66-1.66h60.4c.91,0,1.64.74,1.64,1.64v.02Z"/>
      <line class="cls-2" x1="853.62" y1="492.52" x2="1187.12" y2="492.52"/>
      <line class="cls-2" x1="459.35" y1="492.52" x2="789.48" y2="492.52"/>
      <path class="cls-7" d="M1221.32,552.21l-20.33-7.24H478.96l-20.33,7.24c-1.53.55-1.39,2.76.2,3.11l20.13,4.41h722.04l20.13-4.41c1.59-.35,1.73-2.56.2-3.11Z"/>
    </g>
    <g>
      <g>
        <path class="cls-1" d="M644.04,429.12h60.72c.82,0,1.49.67,1.49,1.49v2.28h-63.7v-2.26c0-.83.67-1.5,1.5-1.5Z"/>
        <rect class="cls-2" x="639.78" y="476.65" width="69.23" height="3.76" rx="1.7" ry="1.7"/>
        <path class="cls-2" d="M644.04,429.12h60.69c.83,0,1.5.67,1.5,1.5v46.02h-63.7v-46.02c0-.83.67-1.5,1.5-1.5Z"/>
      </g>
      <g>
        <path class="cls-1" d="M528.07,429.12h27.38c.82,0,1.49.67,1.49,1.49v2.28h-30.37v-2.26c0-.83.67-1.5,1.5-1.5Z"/>
        <rect class="cls-2" x="525.26" y="476.65" width="33" height="3.76" rx="1.7" ry="1.7"/>
        <path class="cls-2" d="M528.08,429.12h27.36c.83,0,1.5.67,1.5,1.5v46.02h-30.37v-46.02c0-.83.67-1.5,1.5-1.5Z"/>
      </g>
      <g>
        <path class="cls-1" d="M489.36,429.12h27.38c.82,0,1.49.67,1.49,1.49v2.28h-30.37v-2.26c0-.83.67-1.5,1.5-1.5Z"/>
        <rect class="cls-2" x="486.54" y="476.65" width="33" height="3.76" rx="1.7" ry="1.7"/>
        <path class="cls-2" d="M489.37,429.12h27.36c.83,0,1.5.67,1.5,1.5v46.02h-30.37v-46.02c0-.83.67-1.5,1.5-1.5Z"/>
      </g>
      <g>
        <path class="cls-1" d="M1088.64,429.12h60.72c.82,0,1.49.67,1.49,1.49v2.28h-63.7v-2.26c0-.83.67-1.5,1.5-1.5Z"/>
        <rect class="cls-1" x="1084.38" y="476.65" width="69.23" height="3.76" rx="1.7" ry="1.7"/>
        <path class="cls-2" d="M1088.65,429.12h60.69c.83,0,1.5.67,1.5,1.5v46.02h-63.7v-46.02c0-.83.67-1.5,1.5-1.5Z"/>
      </g>
      <g>
        <rect class="cls-1" x="932.9" y="444.29" width="63.7" height="3.76"/>
        <rect class="cls-2" x="930.14" y="476.65" width="69.23" height="3.76" rx="1.7" ry="1.7"/>
        <path class="cls-2" d="M934.41,429.12h60.69c.83,0,1.5.67,1.5,1.5v46.02h-63.7v-46.02c0-.83.67-1.5,1.5-1.5Z"/>
      </g>
    </g>
    <g>
      <path class="cls-1" d="M789.48,422.69v122.29h64.13v-122.29h-64.13ZM816.94,477.71h-22.84v-40.9c0-4.25,3.44-7.69,7.69-7.69h7.45c4.25,0,7.69,3.44,7.69,7.69v40.9ZM849,477.71h-22.84v-40.9c0-4.25,3.44-7.69,7.69-7.69h7.45c4.25,0,7.69,3.44,7.69,7.69v40.9Z"/>
      <line class="cls-2" x1="821.55" y1="485.6" x2="821.55" y2="495.5"/>
      <line class="cls-2" x1="821.55" y1="504.18" x2="821.55" y2="529.93"/>
      <line class="cls-2" x1="821.55" y1="533.26" x2="821.55" y2="544.97"/>
      <line class="cls-2" x1="821.55" y1="456.18" x2="821.55" y2="459.7"/>
      <line class="cls-2" x1="821.55" y1="433.2" x2="821.55" y2="453.63"/>
      <g>
        <rect class="cls-2" x="815.48" y="493.17" width="3.85" height="12.75" rx=".95" ry=".95"/>
        <rect class="cls-2" x="813.84" y="497.02" width="10.12" height="2.53" rx="1.14" ry="1.14"/>
      </g>
    </g>
    <g>
      <path class="cls-1" d="M566.86,405.5c0,.37-.14.72-.42,1.04-.94,1.18-3.47,2.02-6.44,2.02s-5.5-.84-6.44-2.02c-.28-.32-.42-.67-.42-1.04,0-1.69,3.07-3.07,6.86-3.07s6.86,1.38,6.86,3.07Z"/>
      <path class="cls-1" d="M566.44,406.54c-.94,1.18-3.47,2.02-6.44,2.02s-5.5-.84-6.44-2.02"/>
      <path class="cls-1" d="M563.71,394.93v10.06c0,.92-1.66,1.66-3.71,1.66s-3.71-.74-3.71-1.66v-10.06h7.41Z"/>
      <rect class="cls-1" x="551.28" y="389.93" width="17.44" height="5"/>
      <rect class="cls-1" x="549.59" y="388.85" width="1.7" height="7.31" rx=".77" ry=".77"/>
      <rect class="cls-1" x="568.72" y="388.85" width="1.7" height="7.31" rx=".77" ry=".77"/>
      <path class="cls-1" d="M566.86,405.5v2.09c0,1.7-3.07,3.07-6.86,3.07s-6.86-1.37-6.86-3.07v-2.09c0,.37.14.72.42,1.04.94,1.18,3.47,2.02,6.44,2.02s5.5-.84,6.44-2.02c.28-.32.42-.67.42-1.04Z"/>
    </g>
    <g>
      <rect class="cls-4" x="446.66" y="577.84" width="786.42" height="5.48" rx="2.48" ry="2.48"/>
      <line class="cls-4" x1="591.96" y1="577.84" x2="591.96" y2="559.73"/>
      <line class="cls-4" x1="706.24" y1="577.84" x2="706.24" y2="559.73"/>
      <line class="cls-4" x1="865.38" y1="577.84" x2="865.38" y2="559.73"/>
      <line class="cls-4" x1="968.05" y1="577.84" x2="968.05" y2="559.73"/>
      <line class="cls-4" x1="1082.51" y1="577.84" x2="1082.51" y2="559.73"/>
    </g>
    <g>
      <g>
        <g>
          <line class="cls-2" x1="460.83" y1="531.7" x2="468.66" y2="531.7"/>
          <circle class="cls-7" cx="464.74" cy="533.54" r=".5"/>
        </g>
        <g>
          <line class="cls-2" x1="468.66" y1="531.7" x2="476.48" y2="531.7"/>
          <circle class="cls-7" cx="472.57" cy="533.54" r=".5"/>
        </g>
        <g>
          <line class="cls-2" x1="476.48" y1="531.7" x2="484.31" y2="531.7"/>
          <circle class="cls-7" cx="480.39" cy="533.54" r=".5"/>
        </g>
        <g>
          <line class="cls-2" x1="484.31" y1="531.7" x2="492.13" y2="531.7"/>
          <circle class="cls-7" cx="488.22" cy="533.54" r=".5"/>
        </g>
        <g>
          <line class="cls-2" x1="492.13" y1="531.7" x2="499.96" y2="531.7"/>
          <circle class="cls-7" cx="496.04" cy="533.54" r=".5"/>
        </g>
        <g>
          <line class="cls-2" x1="499.96" y1="531.7" x2="507.78" y2="531.7"/>
          <path class="cls-7" d="M504.37,533.54c0,.28-.23.5-.5.5s-.5-.23-.5-.5.23-.5.5-.5.5.23.5.5Z"/>
        </g>
        <g>
          <line class="cls-2" x1="507.78" y1="531.7" x2="515.61" y2="531.7"/>
          <path class="cls-7" d="M512.2,533.54c0,.28-.23.5-.5.5s-.5-.23-.5-.5.23-.5.5-.5.5.23.5.5Z"/>
        </g>
        <g>
          <line class="cls-2" x1="515.61" y1="531.7" x2="523.43" y2="531.7"/>
          <path class="cls-7" d="M520.02,533.54c0,.28-.23.5-.5.5s-.5-.23-.5-.5.23-.5.5-.5.5.23.5.5Z"/>
        </g>
        <g>
          <line class="cls-2" x1="523.43" y1="531.7" x2="531.26" y2="531.7"/>
          <path class="cls-7" d="M527.85,533.54c0,.28-.23.5-.5.5s-.5-.23-.5-.5.23-.5.5-.5.5.23.5.5Z"/>
        </g>
        <g>
          <line class="cls-2" x1="531.26" y1="531.7" x2="539.08" y2="531.7"/>
          <circle class="cls-7" cx="535.17" cy="533.54" r=".5"/>
        </g>
        <g>
          <line class="cls-2" x1="539.08" y1="531.7" x2="546.91" y2="531.7"/>
          <circle class="cls-7" cx="542.99" cy="533.54" r=".5"/>
        </g>
        <g>
          <line class="cls-2" x1="546.91" y1="531.7" x2="554.73" y2="531.7"/>
          <circle class="cls-7" cx="550.82" cy="533.54" r=".5"/>
        </g>
        <g>
          <line class="cls-2" x1="554.73" y1="531.7" x2="562.56" y2="531.7"/>
          <circle class="cls-7" cx="558.64" cy="533.54" r=".5"/>
        </g>
        <g>
          <line class="cls-2" x1="562.56" y1="531.7" x2="570.38" y2="531.7"/>
          <circle class="cls-7" cx="566.47" cy="533.54" r=".5"/>
        </g>
        <g>
          <line class="cls-2" x1="570.38" y1="531.7" x2="578.21" y2="531.7"/>
          <circle class="cls-7" cx="574.29" cy="533.54" r=".5"/>
        </g>
        <g>
          <line class="cls-2" x1="578.21" y1="531.7" x2="586.03" y2="531.7"/>
          <circle class="cls-7" cx="582.12" cy="533.54" r=".5"/>
        </g>
        <g>
          <line class="cls-2" x1="586.03" y1="531.7" x2="593.86" y2="531.7"/>
          <circle class="cls-7" cx="589.94" cy="533.54" r=".5"/>
        </g>
        <g>
          <line class="cls-2" x1="593.86" y1="531.7" x2="601.68" y2="531.7"/>
          <circle class="cls-7" cx="597.77" cy="533.54" r=".5"/>
        </g>
        <g>
          <line class="cls-2" x1="601.68" y1="531.7" x2="609.51" y2="531.7"/>
          <circle class="cls-7" cx="605.59" cy="533.54" r=".5"/>
        </g>
        <g>
          <line class="cls-2" x1="609.51" y1="531.7" x2="617.33" y2="531.7"/>
          <circle class="cls-7" cx="613.42" cy="533.54" r=".5"/>
        </g>
        <g>
          <line class="cls-2" x1="617.33" y1="531.7" x2="625.16" y2="531.7"/>
          <circle class="cls-7" cx="621.24" cy="533.54" r=".5"/>
        </g>
        <g>
          <line class="cls-2" x1="625.16" y1="531.7" x2="632.98" y2="531.7"/>
          <circle class="cls-7" cx="629.07" cy="533.54" r=".5"/>
        </g>
        <g>
          <line class="cls-2" x1="632.98" y1="531.7" x2="640.81" y2="531.7"/>
          <circle class="cls-7" cx="636.89" cy="533.54" r=".5"/>
        </g>
        <g>
          <line class="cls-2" x1="640.81" y1="531.7" x2="648.63" y2="531.7"/>
          <circle class="cls-7" cx="644.72" cy="533.54" r=".5"/>
        </g>
        <g>
          <line class="cls-2" x1="648.63" y1="531.7" x2="656.46" y2="531.7"/>
          <circle class="cls-7" cx="652.54" cy="533.54" r=".5"/>
        </g>
        <g>
          <line class="cls-2" x1="656.46" y1="531.7" x2="664.28" y2="531.7"/>
          <circle class="cls-7" cx="660.37" cy="533.54" r=".5"/>
        </g>
        <g>
          <line class="cls-2" x1="664.28" y1="531.7" x2="672.11" y2="531.7"/>
          <circle class="cls-7" cx="668.2" cy="533.54" r=".5"/>
        </g>
        <g>
          <line class="cls-2" x1="672.11" y1="531.7" x2="679.93" y2="531.7"/>
          <circle class="cls-7" cx="676.02" cy="533.54" r=".5"/>
        </g>
        <g>
          <line class="cls-2" x1="679.93" y1="531.7" x2="687.76" y2="531.7"/>
          <circle class="cls-7" cx="683.85" cy="533.54" r=".5"/>
        </g>
        <g>
          <line class="cls-2" x1="687.76" y1="531.7" x2="695.58" y2="531.7"/>
          <circle class="cls-7" cx="691.67" cy="533.54" r=".5"/>
        </g>
        <g>
          <line class="cls-2" x1="695.58" y1="531.7" x2="703.41" y2="531.7"/>
          <circle class="cls-7" cx="699.5" cy="533.54" r=".5"/>
        </g>
        <g>
          <line class="cls-2" x1="703.41" y1="531.7" x2="711.23" y2="531.7"/>
          <circle class="cls-7" cx="707.32" cy="533.54" r=".5"/>
        </g>
        <g>
          <line class="cls-2" x1="711.23" y1="531.7" x2="719.06" y2="531.7"/>
          <circle class="cls-7" cx="715.15" cy="533.54" r=".5"/>
        </g>
        <g>
          <line class="cls-2" x1="719.06" y1="531.7" x2="726.88" y2="531.7"/>
          <circle class="cls-7" cx="722.97" cy="533.54" r=".5"/>
        </g>
        <g>
          <line class="cls-2" x1="726.88" y1="531.7" x2="734.71" y2="531.7"/>
          <circle class="cls-7" cx="730.8" cy="533.54" r=".5"/>
        </g>
        <g>
          <line class="cls-2" x1="734.71" y1="531.7" x2="742.53" y2="531.7"/>
          <circle class="cls-7" cx="738.62" cy="533.54" r=".5"/>
        </g>
        <g>
          <line class="cls-2" x1="742.53" y1="531.7" x2="750.36" y2="531.7"/>
          <path class="cls-7" d="M746.95,533.54c0,.28-.23.5-.5.5s-.51-.23-.51-.5.23-.5.51-.5.5.23.5.5Z"/>
        </g>
        <g>
          <line class="cls-2" x1="750.36" y1="531.7" x2="758.18" y2="531.7"/>
          <path class="cls-7" d="M754.78,533.54c0,.28-.23.5-.5.5s-.51-.23-.51-.5.23-.5.51-.5.5.23.5.5Z"/>
        </g>
        <g>
          <line class="cls-2" x1="758.18" y1="531.7" x2="766.01" y2="531.7"/>
          <path class="cls-7" d="M762.6,533.54c0,.28-.23.5-.5.5s-.51-.23-.51-.5.23-.5.51-.5.5.23.5.5Z"/>
        </g>
        <g>
          <line class="cls-2" x1="766.01" y1="531.7" x2="773.83" y2="531.7"/>
          <path class="cls-7" d="M770.43,533.54c0,.28-.23.5-.5.5s-.51-.23-.51-.5.23-.5.51-.5.5.23.5.5Z"/>
        </g>
        <g>
          <line class="cls-2" x1="773.83" y1="531.7" x2="781.66" y2="531.7"/>
          <path class="cls-7" d="M778.25,533.54c0,.28-.23.5-.51.5s-.5-.23-.5-.5.23-.5.5-.5.51.23.51.5Z"/>
        </g>
        <g>
          <line class="cls-2" x1="781.66" y1="531.7" x2="789.48" y2="531.7"/>
          <path class="cls-7" d="M786.08,533.54c0,.28-.23.5-.51.5s-.5-.23-.5-.5.23-.5.5-.5.51.23.51.5Z"/>
        </g>
      </g>
      <g>
        <g>
          <line class="cls-2" x1="853.62" y1="531.7" x2="861.34" y2="531.7"/>
          <path class="cls-7" d="M857.98,533.54c0,.28-.22.5-.5.5s-.5-.23-.5-.5.22-.5.5-.5.5.23.5.5Z"/>
        </g>
        <g>
          <line class="cls-2" x1="861.34" y1="531.7" x2="869.06" y2="531.7"/>
          <path class="cls-7" d="M865.7,533.54c0,.28-.22.5-.5.5s-.5-.23-.5-.5.22-.5.5-.5.5.23.5.5Z"/>
        </g>
        <g>
          <line class="cls-2" x1="869.06" y1="531.7" x2="876.78" y2="531.7"/>
          <path class="cls-7" d="M873.42,533.54c0,.28-.22.5-.5.5s-.5-.23-.5-.5.22-.5.5-.5.5.23.5.5Z"/>
        </g>
        <g>
          <line class="cls-2" x1="876.78" y1="531.7" x2="884.5" y2="531.7"/>
          <path class="cls-7" d="M881.14,533.54c0,.28-.22.5-.5.5s-.5-.23-.5-.5.22-.5.5-.5.5.23.5.5Z"/>
        </g>
        <g>
          <line class="cls-2" x1="884.5" y1="531.7" x2="892.22" y2="531.7"/>
          <path class="cls-7" d="M888.86,533.54c0,.28-.22.5-.5.5s-.5-.23-.5-.5.22-.5.5-.5.5.23.5.5Z"/>
        </g>
        <g>
          <line class="cls-2" x1="892.22" y1="531.7" x2="899.94" y2="531.7"/>
          <path class="cls-7" d="M896.58,533.54c0,.28-.22.5-.5.5s-.5-.23-.5-.5.22-.5.5-.5.5.23.5.5Z"/>
        </g>
        <g>
          <line class="cls-2" x1="899.94" y1="531.7" x2="907.67" y2="531.7"/>
          <ellipse class="cls-7" cx="903.81" cy="533.54" rx=".5" ry=".5"/>
        </g>
        <g>
          <line class="cls-2" x1="907.67" y1="531.7" x2="915.39" y2="531.7"/>
          <path class="cls-7" d="M912.03,533.54c0,.28-.22.5-.5.5s-.5-.23-.5-.5.22-.5.5-.5.5.23.5.5Z"/>
        </g>
        <g>
          <line class="cls-2" x1="915.39" y1="531.7" x2="923.11" y2="531.7"/>
          <path class="cls-7" d="M919.75,533.54c0,.28-.22.5-.5.5s-.5-.23-.5-.5.22-.5.5-.5.5.23.5.5Z"/>
        </g>
        <g>
          <line class="cls-2" x1="923.11" y1="531.7" x2="930.83" y2="531.7"/>
          <path class="cls-7" d="M927.47,533.54c0,.28-.22.5-.5.5s-.5-.23-.5-.5.22-.5.5-.5.5.23.5.5Z"/>
        </g>
        <g>
          <line class="cls-2" x1="930.83" y1="531.7" x2="938.55" y2="531.7"/>
          <path class="cls-7" d="M935.19,533.54c0,.28-.22.5-.5.5s-.5-.23-.5-.5.22-.5.5-.5.5.23.5.5Z"/>
        </g>
        <g>
          <line class="cls-2" x1="938.55" y1="531.7" x2="946.27" y2="531.7"/>
          <ellipse class="cls-7" cx="942.41" cy="533.54" rx=".5" ry=".5"/>
        </g>
        <g>
          <line class="cls-2" x1="946.27" y1="531.7" x2="953.99" y2="531.7"/>
          <path class="cls-7" d="M950.63,533.54c0,.28-.22.5-.5.5s-.5-.23-.5-.5.22-.5.5-.5.5.23.5.5Z"/>
        </g>
        <g>
          <line class="cls-2" x1="953.99" y1="531.7" x2="961.72" y2="531.7"/>
          <path class="cls-7" d="M958.35,533.54c0,.28-.22.5-.5.5s-.5-.23-.5-.5.22-.5.5-.5.5.23.5.5Z"/>
        </g>
        <g>
          <line class="cls-2" x1="961.72" y1="531.7" x2="969.44" y2="531.7"/>
          <path class="cls-7" d="M966.07,533.54c0,.28-.22.5-.5.5s-.5-.23-.5-.5.22-.5.5-.5.5.23.5.5Z"/>
        </g>
        <g>
          <line class="cls-2" x1="969.44" y1="531.7" x2="977.16" y2="531.7"/>
          <path class="cls-7" d="M973.8,533.54c0,.28-.22.5-.5.5s-.5-.23-.5-.5.22-.5.5-.5.5.23.5.5Z"/>
        </g>
        <g>
          <line class="cls-2" x1="977.16" y1="531.7" x2="984.88" y2="531.7"/>
          <path class="cls-7" d="M981.52,533.54c0,.28-.22.5-.5.5s-.5-.23-.5-.5.22-.5.5-.5.5.23.5.5Z"/>
        </g>
        <g>
          <line class="cls-2" x1="984.88" y1="531.7" x2="992.6" y2="531.7"/>
          <path class="cls-7" d="M989.24,533.54c0,.28-.22.5-.5.5s-.5-.23-.5-.5.22-.5.5-.5.5.23.5.5Z"/>
        </g>
        <g>
          <line class="cls-2" x1="992.6" y1="531.7" x2="1000.32" y2="531.7"/>
          <path class="cls-7" d="M996.96,533.54c0,.28-.22.5-.5.5s-.5-.23-.5-.5.22-.5.5-.5.5.23.5.5Z"/>
        </g>
        <g>
          <line class="cls-2" x1="1000.32" y1="531.7" x2="1008.04" y2="531.7"/>
          <ellipse class="cls-7" cx="1004.18" cy="533.54" rx=".5" ry=".5"/>
        </g>
        <g>
          <line class="cls-2" x1="1008.04" y1="531.7" x2="1015.77" y2="531.7"/>
          <path class="cls-7" d="M1012.4,533.54c0,.28-.22.5-.5.5s-.5-.23-.5-.5.22-.5.5-.5.5.23.5.5Z"/>
        </g>
        <g>
          <line class="cls-2" x1="1015.77" y1="531.7" x2="1023.49" y2="531.7"/>
          <path class="cls-7" d="M1020.12,533.54c0,.28-.22.5-.5.5s-.5-.23-.5-.5.22-.5.5-.5.5.23.5.5Z"/>
        </g>
        <g>
          <line class="cls-2" x1="1023.49" y1="531.7" x2="1031.21" y2="531.7"/>
          <path class="cls-7" d="M1027.85,533.54c0,.28-.22.5-.5.5s-.5-.23-.5-.5.22-.5.5-.5.5.23.5.5Z"/>
        </g>
        <g>
          <line class="cls-2" x1="1031.21" y1="531.7" x2="1038.93" y2="531.7"/>
          <path class="cls-7" d="M1035.57,533.54c0,.28-.22.5-.5.5s-.5-.23-.5-.5.22-.5.5-.5.5.23.5.5Z"/>
        </g>
        <g>
          <line class="cls-2" x1="1038.93" y1="531.7" x2="1046.65" y2="531.7"/>
          <ellipse class="cls-7" cx="1042.79" cy="533.54" rx=".5" ry=".5"/>
        </g>
        <g>
          <line class="cls-2" x1="1046.65" y1="531.7" x2="1054.37" y2="531.7"/>
          <path class="cls-7" d="M1051.01,533.54c0,.28-.22.5-.5.5s-.5-.23-.5-.5.22-.5.5-.5.5.23.5.5Z"/>
        </g>
        <g>
          <line class="cls-2" x1="1054.37" y1="531.7" x2="1062.09" y2="531.7"/>
          <path class="cls-7" d="M1058.73,533.54c0,.28-.22.5-.5.5s-.5-.23-.5-.5.22-.5.5-.5.5.23.5.5Z"/>
        </g>
        <g>
          <line class="cls-2" x1="1062.09" y1="531.7" x2="1069.81" y2="531.7"/>
          <path class="cls-7" d="M1066.45,533.54c0,.28-.22.5-.5.5s-.5-.23-.5-.5.22-.5.5-.5.5.23.5.5Z"/>
        </g>
        <g>
          <line class="cls-2" x1="1069.81" y1="531.7" x2="1077.54" y2="531.7"/>
          <path class="cls-7" d="M1074.17,533.54c0,.28-.22.5-.5.5s-.5-.23-.5-.5.22-.5.5-.5.5.23.5.5Z"/>
        </g>
        <g>
          <line class="cls-2" x1="1077.54" y1="531.7" x2="1085.26" y2="531.7"/>
          <path class="cls-7" d="M1081.9,533.54c0,.28-.22.5-.5.5s-.5-.23-.5-.5.22-.5.5-.5.5.23.5.5Z"/>
        </g>
        <g>
          <line class="cls-2" x1="1085.26" y1="531.7" x2="1092.98" y2="531.7"/>
          <path class="cls-7" d="M1089.62,533.54c0,.28-.22.5-.5.5s-.5-.23-.5-.5.22-.5.5-.5.5.23.5.5Z"/>
        </g>
        <g>
          <line class="cls-2" x1="1092.98" y1="531.7" x2="1100.7" y2="531.7"/>
          <path class="cls-7" d="M1097.34,533.54c0,.28-.22.5-.5.5s-.5-.23-.5-.5.22-.5.5-.5.5.23.5.5Z"/>
        </g>
        <g>
          <line class="cls-2" x1="1100.7" y1="531.7" x2="1108.42" y2="531.7"/>
          <ellipse class="cls-7" cx="1104.56" cy="533.54" rx=".5" ry=".5"/>
        </g>
        <g>
          <line class="cls-2" x1="1108.42" y1="531.7" x2="1116.14" y2="531.7"/>
          <path class="cls-7" d="M1112.78,533.54c0,.28-.22.5-.5.5s-.5-.23-.5-.5.22-.5.5-.5.5.23.5.5Z"/>
        </g>
        <g>
          <line class="cls-2" x1="1116.14" y1="531.7" x2="1123.86" y2="531.7"/>
          <path class="cls-7" d="M1120.5,533.54c0,.28-.22.5-.5.5s-.5-.23-.5-.5.22-.5.5-.5.5.23.5.5Z"/>
        </g>
        <g>
          <line class="cls-2" x1="1123.86" y1="531.7" x2="1131.59" y2="531.7"/>
          <path class="cls-7" d="M1128.22,533.54c0,.28-.22.5-.5.5s-.5-.23-.5-.5.22-.5.5-.5.5.23.5.5Z"/>
        </g>
        <g>
          <line class="cls-2" x1="1131.59" y1="531.7" x2="1139.31" y2="531.7"/>
          <path class="cls-7" d="M1135.94,533.54c0,.28-.22.5-.5.5s-.5-.23-.5-.5.22-.5.5-.5.5.23.5.5Z"/>
        </g>
        <g>
          <line class="cls-2" x1="1139.31" y1="531.7" x2="1147.03" y2="531.7"/>
          <ellipse class="cls-7" cx="1143.17" cy="533.54" rx=".5" ry=".5"/>
        </g>
        <g>
          <line class="cls-2" x1="1147.03" y1="531.7" x2="1154.75" y2="531.7"/>
          <path class="cls-7" d="M1151.39,533.54c0,.28-.22.5-.5.5s-.5-.23-.5-.5.22-.5.5-.5.5.23.5.5Z"/>
        </g>
        <g>
          <line class="cls-2" x1="1154.75" y1="531.7" x2="1162.47" y2="531.7"/>
          <path class="cls-7" d="M1159.11,533.54c0,.28-.22.5-.5.5s-.5-.23-.5-.5.22-.5.5-.5.5.23.5.5Z"/>
        </g>
        <g>
          <line class="cls-2" x1="1162.47" y1="531.7" x2="1170.19" y2="531.7"/>
          <path class="cls-7" d="M1166.83,533.54c0,.28-.22.5-.5.5s-.5-.23-.5-.5.22-.5.5-.5.5.23.5.5Z"/>
        </g>
        <g>
          <line class="cls-2" x1="1170.19" y1="531.7" x2="1177.91" y2="531.7"/>
          <path class="cls-7" d="M1174.55,533.54c0,.28-.22.5-.5.5s-.5-.23-.5-.5.22-.5.5-.5.5.23.5.5Z"/>
        </g>
        <g>
          <line class="cls-2" x1="1177.91" y1="531.7" x2="1185.64" y2="531.7"/>
          <path class="cls-7" d="M1182.27,533.54c0,.28-.22.5-.5.5s-.5-.23-.5-.5.22-.5.5-.5.5.23.5.5Z"/>
        </g>
      </g>
    </g>
  </g>
</svg>