<svg width="713" height="227" viewBox="0 0 713 227" fill="none" xmlns="http://www.w3.org/2000/svg">
<path d="M353.83 166.081C337.09 166.081 323.53 179.651 323.53 196.381C323.53 213.111 337.1 226.681 353.83 226.681C370.56 226.681 384.13 213.111 384.13 196.381C384.13 179.651 370.56 166.081 353.83 166.081ZM353.83 220.831C340.33 220.831 329.38 209.891 329.38 196.381C329.38 182.871 340.32 171.931 353.83 171.931C367.34 171.931 378.28 182.871 378.28 196.381C378.28 209.891 367.34 220.831 353.83 220.831Z" fill="#CB352C"/>
<path d="M355.86 172.021L353.84 180.131L351.86 188.031" stroke="#CB352C" stroke-linecap="round" stroke-linejoin="round"/>
<path d="M351.81 172.021L353.84 180.131L355.8 188.041" stroke="#CB352C" stroke-linecap="round" stroke-linejoin="round"/>
<path d="M378.19 198.41L370.09 196.39L362.18 194.41" stroke="#CB352C" stroke-linecap="round" stroke-linejoin="round"/>
<path d="M378.19 194.36L370.09 196.39L362.19 198.35" stroke="#CB352C" stroke-linecap="round" stroke-linejoin="round"/>
<path d="M351.81 220.75L353.84 212.64L355.81 204.73" stroke="#CB352C" stroke-linecap="round" stroke-linejoin="round"/>
<path d="M355.86 220.75L353.84 212.64L351.86 204.74" stroke="#CB352C" stroke-linecap="round" stroke-linejoin="round"/>
<path d="M329.47 194.36L337.57 196.39L345.48 198.36" stroke="#CB352C" stroke-linecap="round" stroke-linejoin="round"/>
<path d="M329.47 198.41L337.57 196.39L345.49 194.4" stroke="#CB352C" stroke-linecap="round" stroke-linejoin="round"/>
<path d="M372.49 180.59L365.33 184.88L358.35 189.08" stroke="#CB352C" stroke-linecap="round" stroke-linejoin="round"/>
<path d="M369.63 177.73L365.33 184.88L361.13 191.87" stroke="#CB352C" stroke-linecap="round" stroke-linejoin="round"/>
<path d="M369.63 215.041L365.33 207.881L361.14 200.891" stroke="#CB352C" stroke-linecap="round" stroke-linejoin="round"/>
<path d="M372.49 212.181L365.33 207.881L358.35 203.681" stroke="#CB352C" stroke-linecap="round" stroke-linejoin="round"/>
<path d="M335.17 212.181L342.33 207.881L349.32 203.681" stroke="#CB352C" stroke-linecap="round" stroke-linejoin="round"/>
<path d="M338.04 215.041L342.33 207.881L346.53 200.891" stroke="#CB352C" stroke-linecap="round" stroke-linejoin="round"/>
<path d="M338.04 177.73L342.33 184.88L346.54 191.87" stroke="#CB352C" stroke-linecap="round" stroke-linejoin="round"/>
<path d="M362.42 196.391C362.42 197.061 362.34 197.731 362.19 198.361C361.97 199.281 361.61 200.131 361.14 200.901C360.43 202.041 359.48 202.991 358.34 203.691C357.57 204.171 356.72 204.531 355.81 204.741C355.17 204.901 354.51 204.981 353.83 204.981C353.15 204.981 352.48 204.901 351.86 204.751C350.95 204.531 350.1 204.171 349.33 203.691C348.19 202.991 347.24 202.041 346.53 200.901C346.06 200.131 345.7 199.281 345.48 198.371C345.33 197.741 345.25 197.081 345.25 196.401C345.25 195.721 345.33 195.051 345.49 194.421C345.7 193.511 346.06 192.661 346.54 191.891C347.24 190.751 348.19 189.801 349.33 189.101C350.1 188.621 350.95 188.261 351.87 188.041C352.5 187.891 353.16 187.811 353.84 187.811C354.52 187.811 355.19 187.891 355.81 188.051C356.72 188.261 357.57 188.621 358.35 189.101C359.49 189.801 360.44 190.751 361.14 191.891C361.62 192.671 361.98 193.521 362.19 194.431C362.35 195.061 362.43 195.721 362.43 196.401L362.42 196.391Z" fill="#CB352C"/>
<path d="M335.17 180.59L342.33 184.88L349.32 189.08" stroke="#CB352C" stroke-linecap="round" stroke-linejoin="round"/>
<path d="M550.02 166.081C533.28 166.081 519.72 179.651 519.72 196.381C519.72 213.111 533.29 226.681 550.02 226.681C566.75 226.681 580.32 213.111 580.32 196.381C580.32 179.651 566.75 166.081 550.02 166.081ZM550.02 220.831C536.52 220.831 525.57 209.891 525.57 196.381C525.57 182.871 536.51 171.931 550.02 171.931C563.53 171.931 574.47 182.871 574.47 196.381C574.47 209.891 563.53 220.831 550.02 220.831Z" fill="#CB352C"/>
<path d="M552.04 172.021L550.03 180.131L548.05 188.031" stroke="#CB352C" stroke-linecap="round" stroke-linejoin="round"/>
<path d="M548 172.021L550.03 180.131L551.99 188.041" stroke="#CB352C" stroke-linecap="round" stroke-linejoin="round"/>
<path d="M574.38 198.41L566.27 196.39L558.37 194.41" stroke="#CB352C" stroke-linecap="round" stroke-linejoin="round"/>
<path d="M574.38 194.36L566.27 196.39L558.38 198.35" stroke="#CB352C" stroke-linecap="round" stroke-linejoin="round"/>
<path d="M548 220.75L550.03 212.64L552 204.73" stroke="#CB352C" stroke-linecap="round" stroke-linejoin="round"/>
<path d="M552.04 220.75L550.03 212.64L548.04 204.74" stroke="#CB352C" stroke-linecap="round" stroke-linejoin="round"/>
<path d="M525.66 194.36L533.76 196.39L541.67 198.36" stroke="#CB352C" stroke-linecap="round" stroke-linejoin="round"/>
<path d="M525.66 198.41L533.76 196.39L541.68 194.4" stroke="#CB352C" stroke-linecap="round" stroke-linejoin="round"/>
<path d="M568.68 180.59L561.52 184.88L554.53 189.08" stroke="#CB352C" stroke-linecap="round" stroke-linejoin="round"/>
<path d="M565.82 177.73L561.52 184.88L557.32 191.87" stroke="#CB352C" stroke-linecap="round" stroke-linejoin="round"/>
<path d="M565.82 215.041L561.52 207.881L557.33 200.891" stroke="#CB352C" stroke-linecap="round" stroke-linejoin="round"/>
<path d="M568.68 212.181L561.52 207.881L554.53 203.681" stroke="#CB352C" stroke-linecap="round" stroke-linejoin="round"/>
<path d="M531.36 212.181L538.52 207.881L545.51 203.681" stroke="#CB352C" stroke-linecap="round" stroke-linejoin="round"/>
<path d="M534.22 215.041L538.52 207.881L542.72 200.891" stroke="#CB352C" stroke-linecap="round" stroke-linejoin="round"/>
<path d="M534.22 177.73L538.52 184.88L542.72 191.87" stroke="#CB352C" stroke-linecap="round" stroke-linejoin="round"/>
<path d="M558.6 196.391C558.6 197.061 558.52 197.731 558.37 198.361C558.15 199.281 557.79 200.131 557.32 200.901C556.61 202.041 555.66 202.991 554.52 203.691C553.75 204.171 552.9 204.531 551.99 204.741C551.35 204.901 550.69 204.981 550.01 204.981C549.33 204.981 548.66 204.901 548.04 204.751C547.13 204.531 546.28 204.171 545.51 203.691C544.37 202.991 543.42 202.041 542.71 200.901C542.24 200.131 541.88 199.281 541.66 198.371C541.51 197.741 541.43 197.081 541.43 196.401C541.43 195.721 541.51 195.051 541.67 194.421C541.88 193.511 542.24 192.661 542.72 191.891C543.42 190.751 544.37 189.801 545.51 189.101C546.28 188.621 547.13 188.261 548.05 188.041C548.68 187.891 549.34 187.811 550.02 187.811C550.7 187.811 551.37 187.891 551.99 188.051C552.9 188.261 553.75 188.621 554.53 189.101C555.67 189.801 556.62 190.751 557.32 191.891C557.8 192.671 558.16 193.521 558.37 194.431C558.53 195.061 558.61 195.721 558.61 196.401L558.6 196.391Z" fill="#CB352C"/>
<path d="M531.36 180.59L538.52 184.88L545.51 189.08" stroke="#CB352C" stroke-linecap="round" stroke-linejoin="round"/>
<path d="M159.28 166.081C142.54 166.081 128.98 179.651 128.98 196.381C128.98 213.111 142.55 226.681 159.28 226.681C176.01 226.681 189.58 213.111 189.58 196.381C189.58 179.651 176.01 166.081 159.28 166.081ZM159.28 220.831C145.78 220.831 134.83 209.891 134.83 196.381C134.83 182.871 145.77 171.931 159.28 171.931C172.79 171.931 183.73 182.871 183.73 196.381C183.73 209.891 172.79 220.831 159.28 220.831Z" fill="#CB352C"/>
<path d="M161.31 172.021L159.29 180.131L157.32 188.031" stroke="#CB352C" stroke-linecap="round" stroke-linejoin="round"/>
<path d="M157.26 172.021L159.29 180.131L161.26 188.041" stroke="#CB352C" stroke-linecap="round" stroke-linejoin="round"/>
<path d="M183.65 198.41L175.54 196.39L167.63 194.41" stroke="#CB352C" stroke-linecap="round" stroke-linejoin="round"/>
<path d="M183.65 194.36L175.54 196.39L167.64 198.35" stroke="#CB352C" stroke-linecap="round" stroke-linejoin="round"/>
<path d="M157.26 220.75L159.29 212.64L161.27 204.73" stroke="#CB352C" stroke-linecap="round" stroke-linejoin="round"/>
<path d="M161.31 220.75L159.29 212.64L157.31 204.74" stroke="#CB352C" stroke-linecap="round" stroke-linejoin="round"/>
<path d="M134.92 194.36L143.03 196.39L150.93 198.36" stroke="#CB352C" stroke-linecap="round" stroke-linejoin="round"/>
<path d="M134.92 198.41L143.03 196.39L150.94 194.4" stroke="#CB352C" stroke-linecap="round" stroke-linejoin="round"/>
<path d="M177.94 180.59L170.79 184.88L163.8 189.08" stroke="#CB352C" stroke-linecap="round" stroke-linejoin="round"/>
<path d="M175.08 177.73L170.79 184.88L166.59 191.87" stroke="#CB352C" stroke-linecap="round" stroke-linejoin="round"/>
<path d="M175.08 215.041L170.79 207.881L166.59 200.891" stroke="#CB352C" stroke-linecap="round" stroke-linejoin="round"/>
<path d="M177.94 212.181L170.79 207.881L163.8 203.681" stroke="#CB352C" stroke-linecap="round" stroke-linejoin="round"/>
<path d="M140.62 212.181L147.79 207.881L154.77 203.681" stroke="#CB352C" stroke-linecap="round" stroke-linejoin="round"/>
<path d="M143.49 215.041L147.79 207.881L151.98 200.891" stroke="#CB352C" stroke-linecap="round" stroke-linejoin="round"/>
<path d="M143.49 177.73L147.79 184.88L151.99 191.87" stroke="#CB352C" stroke-linecap="round" stroke-linejoin="round"/>
<path d="M167.87 196.391C167.87 197.061 167.79 197.731 167.64 198.361C167.42 199.281 167.06 200.131 166.59 200.901C165.88 202.041 164.93 202.991 163.79 203.691C163.02 204.171 162.17 204.531 161.26 204.741C160.62 204.901 159.96 204.981 159.28 204.981C158.6 204.981 157.93 204.901 157.31 204.751C156.4 204.531 155.55 204.171 154.78 203.691C153.64 202.991 152.69 202.041 151.98 200.901C151.51 200.131 151.15 199.281 150.93 198.371C150.78 197.741 150.7 197.081 150.7 196.401C150.7 195.721 150.78 195.051 150.94 194.421C151.15 193.511 151.51 192.661 151.99 191.891C152.69 190.751 153.64 189.801 154.78 189.101C155.55 188.621 156.4 188.261 157.32 188.041C157.95 187.891 158.61 187.811 159.29 187.811C159.97 187.811 160.64 187.891 161.26 188.051C162.17 188.261 163.02 188.621 163.8 189.101C164.94 189.801 165.89 190.751 166.59 191.891C167.07 192.671 167.43 193.521 167.64 194.431C167.8 195.061 167.88 195.721 167.88 196.401L167.87 196.391Z" fill="#CB352C"/>
<path d="M140.62 180.59L147.79 184.88L154.77 189.08" stroke="#CB352C" stroke-linecap="round" stroke-linejoin="round"/>
<path d="M672.55 172.021H32.98V187.221C32.98 188.251 33.81 189.081 34.84 189.081H239.85C238.37 192.191 237.77 195.8 238.49 199.62C239.88 207.01 246.12 212.731 253.61 213.451C263.84 214.441 272.45 206.431 272.45 196.401C272.45 193.781 271.84 191.301 270.79 189.081H437.6C436.12 192.191 435.52 195.8 436.24 199.62C437.63 207.01 443.87 212.731 451.36 213.451C461.59 214.441 470.2 206.431 470.2 196.401C470.2 193.781 469.59 191.301 468.54 189.081H670.67C671.71 189.081 672.55 188.241 672.55 187.201V172.021Z" fill="#CB352C"/>
<path d="M30.2 9.05029V33.1603H656.85V109.05L669.14 108.44L691.21 105.06V9.05029H30.2ZM111.43 30.4003C111.39 30.7603 111.09 31.0303 110.73 31.0303H56.5999C56.1899 31.0303 55.86 30.6703 55.9 30.2603L57.54 14.6303C57.58 14.2703 57.88 14.0003 58.24 14.0003H112.37C112.78 14.0003 113.11 14.3603 113.07 14.7703L111.43 30.4003ZM176.22 30.3903C176.19 30.7503 175.89 31.0303 175.52 31.0303H121.38C120.97 31.0303 120.65 30.6803 120.68 30.2703L122.05 14.6403C122.08 14.2803 122.38 14.0003 122.75 14.0003H176.89C177.3 14.0003 177.62 14.3503 177.59 14.7603L176.22 30.3903ZM241.02 30.3703C240.99 30.7403 240.69 31.0203 240.32 31.0203H186.18C185.77 31.0203 185.45 30.6803 185.48 30.2703L186.57 14.6403C186.6 14.2703 186.9 13.9903 187.27 13.9903H241.41C241.82 13.9903 242.14 14.3303 242.11 14.7403L241.02 30.3703ZM305.81 30.3603C305.79 30.7303 305.48 31.0203 305.11 31.0203H250.97C250.57 31.0203 250.25 30.6803 250.27 30.2803L251.09 14.6503C251.11 14.2803 251.42 13.9903 251.79 13.9903H305.93C306.33 13.9903 306.65 14.3303 306.63 14.7303L305.81 30.3603ZM370.88 30.3303C370.88 30.7203 370.57 31.0303 370.18 31.0303H316.04C315.65 31.0303 315.34 30.7203 315.34 30.3303V14.7003C315.34 14.3103 315.65 14.0003 316.04 14.0003H370.18C370.57 14.0003 370.88 14.3103 370.88 14.7003V30.3303ZM435.24 31.0203H381.1C380.73 31.0203 380.42 30.7303 380.4 30.3603L379.58 14.7303C379.56 14.3303 379.88 13.9903 380.28 13.9903H434.42C434.79 13.9903 435.1 14.2803 435.12 14.6503L435.94 30.2803C435.96 30.6803 435.64 31.0203 435.24 31.0203ZM500.03 31.0203H445.89C445.52 31.0203 445.22 30.7403 445.19 30.3703L444.1 14.7403C444.07 14.3403 444.39 13.9903 444.8 13.9903H498.94C499.31 13.9903 499.61 14.2703 499.64 14.6403L500.73 30.2703C500.76 30.6703 500.44 31.0203 500.03 31.0203ZM564.82 31.0203H510.68C510.32 31.0203 510.02 30.7403 509.98 30.3803L508.61 14.7503C508.57 14.3403 508.9 13.9903 509.31 13.9903H563.45C563.81 13.9903 564.11 14.2703 564.15 14.6303L565.52 30.2603C565.56 30.6703 565.23 31.0203 564.82 31.0203ZM629.61 31.0203H575.48C575.12 31.0203 574.82 30.7503 574.78 30.3903L573.14 14.7603C573.1 14.3503 573.42 13.9903 573.84 13.9903H627.97C628.33 13.9903 628.63 14.2603 628.67 14.6203L630.31 30.2503C630.35 30.6603 630.03 31.0203 629.61 31.0203ZM681.4 44.6403C681.4 45.6103 680.61 46.4003 679.64 46.4003H665.46C664.49 46.4003 663.7 45.6103 663.7 44.6403V20.5903C663.7 19.6203 664.49 18.8303 665.46 18.8303H679.64C680.61 18.8303 681.4 19.6203 681.4 20.5903V44.6403Z" fill="#E5DBC6" stroke="#CB352C" stroke-linecap="round" stroke-linejoin="round"/>
<path d="M691.82 7.2002H29.6101C29.102 7.2002 28.6901 7.61209 28.6901 8.12019V8.1302C28.6901 8.6383 29.102 9.05019 29.6101 9.05019H691.82C692.328 9.05019 692.74 8.6383 692.74 8.1302V8.12019C692.74 7.61209 692.328 7.2002 691.82 7.2002Z" fill="#E5DBC6" stroke="#CB352C" stroke-linecap="round" stroke-linejoin="round"/>
<path d="M679.64 18.8306H665.45C664.478 18.8306 663.69 19.6185 663.69 20.5906V44.6506C663.69 45.6226 664.478 46.4106 665.45 46.4106H679.64C680.612 46.4106 681.4 45.6226 681.4 44.6506V20.5906C681.4 19.6185 680.612 18.8306 679.64 18.8306Z" stroke="#CB352C" stroke-linecap="round" stroke-linejoin="round"/>
<path d="M57.55 14.6202L55.91 30.2502C55.87 30.6602 56.19 31.0202 56.61 31.0202H110.74C111.1 31.0202 111.4 30.7502 111.44 30.3902L113.08 14.7602C113.12 14.3502 112.8 13.9902 112.38 13.9902H58.25C57.89 13.9902 57.59 14.2602 57.55 14.6202ZM108.42 28.8702H59.37C58.96 28.8702 58.63 28.5102 58.67 28.1002L59.86 16.7802C59.9 16.4202 60.2 16.1502 60.56 16.1502H109.61C110.02 16.1502 110.35 16.5102 110.31 16.9202L109.12 28.2402C109.08 28.6002 108.78 28.8702 108.42 28.8702Z" fill="#CB352C"/>
<path d="M122.06 14.6302L120.69 30.2602C120.65 30.6702 120.98 31.0202 121.39 31.0202H175.53C175.89 31.0202 176.19 30.7402 176.23 30.3802L177.6 14.7502C177.64 14.3402 177.31 13.9902 176.9 13.9902H122.76C122.4 13.9902 122.1 14.2702 122.06 14.6302ZM173.18 28.8702H124.12C123.71 28.8702 123.39 28.5202 123.42 28.1102L124.41 16.7902C124.44 16.4302 124.74 16.1502 125.11 16.1502H174.17C174.58 16.1502 174.9 16.5002 174.87 16.9102L173.88 28.2302C173.85 28.5902 173.55 28.8702 173.18 28.8702Z" fill="#CB352C"/>
<path d="M186.58 14.6402L185.49 30.2702C185.46 30.6702 185.78 31.0202 186.19 31.0202H240.33C240.7 31.0202 241 30.7402 241.03 30.3702L242.12 14.7402C242.15 14.3402 241.83 13.9902 241.42 13.9902H187.28C186.91 13.9902 186.61 14.2702 186.58 14.6402ZM237.93 28.8702H188.87C188.46 28.8702 188.14 28.5302 188.17 28.1202L188.96 16.8002C188.99 16.4302 189.29 16.1502 189.66 16.1502H238.72C239.13 16.1502 239.45 16.4902 239.42 16.9002L238.63 28.2202C238.6 28.5902 238.3 28.8702 237.93 28.8702Z" fill="#CB352C"/>
<path d="M251.09 14.66L250.27 30.29C250.25 30.69 250.57 31.03 250.97 31.03H305.11C305.48 31.03 305.79 30.74 305.81 30.37L306.63 14.74C306.65 14.34 306.33 14 305.93 14H251.79C251.42 14 251.11 14.29 251.09 14.66ZM302.69 28.87H253.63C253.23 28.87 252.91 28.53 252.93 28.13L253.52 16.81C253.54 16.44 253.85 16.15 254.22 16.15H303.28C303.68 16.15 304 16.49 303.98 16.89L303.39 28.21C303.37 28.58 303.06 28.87 302.69 28.87Z" fill="#CB352C"/>
<path d="M573.14 14.77L574.78 30.4C574.82 30.76 575.12 31.03 575.48 31.03H629.61C630.02 31.03 630.35 30.67 630.31 30.26L628.67 14.63C628.63 14.27 628.33 14 627.97 14H573.84C573.43 14 573.1 14.36 573.14 14.77ZM576.6 16.15H625.65C626.01 16.15 626.31 16.42 626.35 16.78L627.54 28.1C627.58 28.51 627.26 28.87 626.84 28.87H577.79C577.43 28.87 577.13 28.6 577.09 28.24L575.9 16.92C575.86 16.51 576.18 16.15 576.6 16.15Z" fill="#CB352C"/>
<path d="M508.62 14.7502L509.99 30.3802C510.02 30.7402 510.32 31.0202 510.69 31.0202H564.83C565.24 31.0202 565.56 30.6702 565.53 30.2602L564.16 14.6302C564.13 14.2702 563.83 13.9902 563.46 13.9902H509.32C508.91 13.9902 508.59 14.3402 508.62 14.7502ZM512.05 16.1502H561.11C561.47 16.1502 561.77 16.4302 561.81 16.7902L562.8 28.1102C562.84 28.5202 562.51 28.8702 562.1 28.8702H513.04C512.68 28.8702 512.38 28.5902 512.34 28.2302L511.35 16.9102C511.31 16.5002 511.64 16.1502 512.05 16.1502Z" fill="#CB352C"/>
<path d="M444.1 14.7402L445.19 30.3702C445.22 30.7402 445.52 31.0202 445.89 31.0202H500.03C500.44 31.0202 500.76 30.6802 500.73 30.2702L499.64 14.6402C499.61 14.2702 499.31 13.9902 498.94 13.9902H444.8C444.39 13.9902 444.07 14.3302 444.1 14.7402ZM447.49 16.1502H496.55C496.92 16.1502 497.22 16.4302 497.25 16.8002L498.04 28.1202C498.07 28.5202 497.75 28.8702 497.34 28.8702H448.28C447.91 28.8702 447.61 28.5902 447.58 28.2202L446.79 16.9002C446.76 16.5002 447.08 16.1502 447.49 16.1502Z" fill="#CB352C"/>
<path d="M379.58 14.7302L380.4 30.3602C380.42 30.7302 380.73 31.0202 381.1 31.0202H435.24C435.64 31.0202 435.96 30.6802 435.94 30.2802L435.12 14.6502C435.1 14.2802 434.79 13.9902 434.42 13.9902H380.28C379.88 13.9902 379.56 14.3302 379.58 14.7302ZM382.93 16.1502H431.99C432.36 16.1502 432.67 16.4402 432.69 16.8102L433.28 28.1302C433.3 28.5302 432.98 28.8702 432.58 28.8702H383.52C383.15 28.8702 382.84 28.5802 382.82 28.2102L382.23 16.8902C382.21 16.4902 382.53 16.1502 382.93 16.1502Z" fill="#CB352C"/>
<path d="M315.34 14.6902V30.3202C315.34 30.7102 315.65 31.0202 316.04 31.0202H370.18C370.57 31.0202 370.88 30.7102 370.88 30.3202V14.6902C370.88 14.3002 370.57 13.9902 370.18 13.9902H316.04C315.65 13.9902 315.34 14.3002 315.34 14.6902ZM367.64 28.8702H318.58C318.19 28.8702 317.88 28.5602 317.88 28.1702V16.8502C317.88 16.4602 318.19 16.1502 318.58 16.1502H367.64C368.03 16.1502 368.34 16.4602 368.34 16.8502V28.1702C368.34 28.5602 368.03 28.8702 367.64 28.8702Z" fill="#CB352C"/>
<path d="M32.98 1.44043H687.37" stroke="#CB352C" stroke-linecap="round" stroke-linejoin="round"/>
<path d="M35.46 1.44043V7.20043" stroke="#CB352C" stroke-linecap="round" stroke-linejoin="round"/>
<path d="M165.82 1.44043V7.20043" stroke="#CB352C" stroke-linecap="round" stroke-linejoin="round"/>
<path d="M294.79 1.44043V7.20043" stroke="#CB352C" stroke-linecap="round" stroke-linejoin="round"/>
<path d="M423.63 1.44043V7.20043" stroke="#CB352C" stroke-linecap="round" stroke-linejoin="round"/>
<path d="M553.43 1.44043V7.20043" stroke="#CB352C" stroke-linecap="round" stroke-linejoin="round"/>
<path d="M684.63 1.44043V7.20043" stroke="#CB352C" stroke-linecap="round" stroke-linejoin="round"/>
<path d="M656.85 33.1504H23.35L7.01001 44.9304H673.19L656.85 33.1504Z" fill="#E5DBC6" stroke="#CB352C" stroke-linecap="round" stroke-linejoin="round"/>
<path d="M682.01 106.46L689.97 143.64" stroke="#CB352C" stroke-linecap="round" stroke-linejoin="round"/>
<path d="M689.54 141.65H669.14" stroke="#CB352C" stroke-linecap="round" stroke-linejoin="round"/>
<path d="M685.38 122.201H669.14" stroke="#CB352C" stroke-linecap="round" stroke-linejoin="round"/>
<path d="M13.8101 44.9307V159.041C13.8101 161.661 15.9301 163.781 18.5501 163.781H310.96V53.2307H368.95V163.791H665.05C667.31 163.791 669.14 161.961 669.14 159.701V44.9307H13.8101ZM65.7101 60.5507V102.021H38.2501V60.5507C38.2501 59.7207 38.9201 59.0507 39.7501 59.0507H64.2201C65.0401 59.0507 65.7101 59.7207 65.7101 60.5407V60.5607V60.5507ZM100.71 60.5507V102.021H73.2501V60.5507C73.2501 59.7207 73.9201 59.0507 74.7501 59.0507H99.2201C100.04 59.0507 100.71 59.7207 100.71 60.5407V60.5607V60.5507ZM235.7 60.5507V102.021H178.1V60.5507C178.1 59.7207 178.77 59.0507 179.6 59.0507H234.21C235.03 59.0507 235.7 59.7207 235.7 60.5407V60.5607V60.5507ZM498.23 72.7507V102.011H440.63V60.5407C440.63 59.7107 441.3 59.0407 442.13 59.0407H496.72C497.55 59.0407 498.22 59.7107 498.22 60.5407V72.7507H498.23ZM637.69 60.5507V102.021H580.09V60.5507C580.09 59.7207 580.76 59.0507 581.59 59.0507H636.2C637.02 59.0507 637.69 59.7207 637.69 60.5407V60.5607V60.5507Z" fill="#E5DBC6" stroke="#CB352C" stroke-miterlimit="10"/>
<path d="M368.95 116.361H670.48" stroke="#CB352C" stroke-linecap="round" stroke-linejoin="round"/>
<path d="M12.47 116.361H310.96" stroke="#CB352C" stroke-linecap="round" stroke-linejoin="round"/>
<path d="M701.41 170.341L683.03 163.801H30.2L11.82 170.341C10.43 170.831 10.56 172.831 12 173.151L30.2 177.141H683.03L701.23 173.151C702.67 172.841 702.79 170.841 701.41 170.341Z" fill="#CB352C"/>
<path d="M179.6 59.0405H234.21C235.03 59.0405 235.7 59.7105 235.7 60.5305V62.4405H178.1V60.5405C178.1 59.7105 178.77 59.0405 179.6 59.0405Z" fill="#E5DBC6" stroke="#CB352C" stroke-linecap="round" stroke-linejoin="round"/>
<path d="M236.5 102.021H177.31C176.371 102.021 175.61 102.782 175.61 103.721C175.61 104.659 176.371 105.421 177.31 105.421H236.5C237.439 105.421 238.2 104.659 238.2 103.721C238.2 102.782 237.439 102.021 236.5 102.021Z" stroke="#CB352C" stroke-linecap="round" stroke-linejoin="round"/>
<path d="M179.61 59.0405H234.2C235.03 59.0405 235.7 59.7105 235.7 60.5405V102.011H178.1V60.5405C178.1 59.7105 178.77 59.0405 179.6 59.0405H179.61Z" stroke="#CB352C" stroke-linecap="round" stroke-linejoin="round"/>
<path d="M74.7501 59.0405H99.2201C100.04 59.0405 100.71 59.7105 100.71 60.5305V62.4405H73.2501V60.5405C73.2501 59.7105 73.9201 59.0405 74.7501 59.0405Z" fill="#E5DBC6" stroke="#CB352C" stroke-linecap="round" stroke-linejoin="round"/>
<path d="M100.21 102.021H73.7701C72.8312 102.021 72.0701 102.782 72.0701 103.721C72.0701 104.659 72.8312 105.421 73.7701 105.421H100.21C101.149 105.421 101.91 104.659 101.91 103.721C101.91 102.782 101.149 102.021 100.21 102.021Z" stroke="#CB352C" stroke-linecap="round" stroke-linejoin="round"/>
<path d="M74.7601 59.0405H99.2101C100.04 59.0405 100.71 59.7105 100.71 60.5405V102.011H73.2501V60.5405C73.2501 59.7105 73.9201 59.0405 74.7501 59.0405H74.7601Z" stroke="#CB352C" stroke-linecap="round" stroke-linejoin="round"/>
<path d="M39.75 59.0405H64.22C65.04 59.0405 65.71 59.7105 65.71 60.5305V62.4405H38.25V60.5405C38.25 59.7105 38.92 59.0405 39.75 59.0405Z" fill="#E5DBC6" stroke="#CB352C" stroke-linecap="round" stroke-linejoin="round"/>
<path d="M65.2001 102.021H38.7601C37.8212 102.021 37.0601 102.782 37.0601 103.721C37.0601 104.659 37.8212 105.421 38.7601 105.421H65.2001C66.1389 105.421 66.9001 104.659 66.9001 103.721C66.9001 102.782 66.1389 102.021 65.2001 102.021Z" stroke="#CB352C" stroke-linecap="round" stroke-linejoin="round"/>
<path d="M39.76 59.0405H64.21C65.04 59.0405 65.71 59.7105 65.71 60.5405V102.011H38.25V60.5405C38.25 59.7105 38.92 59.0405 39.75 59.0405H39.76Z" stroke="#CB352C" stroke-linecap="round" stroke-linejoin="round"/>
<path d="M581.59 59.0405H636.2C637.02 59.0405 637.69 59.7105 637.69 60.5305V62.4405H580.09V60.5405C580.09 59.7105 580.76 59.0405 581.59 59.0405Z" fill="#E5DBC6" stroke="#CB352C" stroke-linecap="round" stroke-linejoin="round"/>
<path d="M638.49 102.021H579.3C578.361 102.021 577.6 102.782 577.6 103.721C577.6 104.659 578.361 105.421 579.3 105.421H638.49C639.429 105.421 640.19 104.659 640.19 103.721C640.19 102.782 639.429 102.021 638.49 102.021Z" fill="#E5DBC6" stroke="#CB352C" stroke-linecap="round" stroke-linejoin="round"/>
<path d="M581.6 59.0405H636.19C637.02 59.0405 637.69 59.7105 637.69 60.5405V102.011H580.09V60.5405C580.09 59.7105 580.76 59.0405 581.59 59.0405H581.6Z" stroke="#CB352C" stroke-linecap="round" stroke-linejoin="round"/>
<path d="M498.24 72.7505H440.64V76.1505H498.24V72.7505Z" fill="#E5DBC6" stroke="#CB352C" stroke-linecap="round" stroke-linejoin="round"/>
<path d="M499.03 102.021H439.84C438.901 102.021 438.14 102.782 438.14 103.721C438.14 104.659 438.901 105.421 439.84 105.421H499.03C499.969 105.421 500.73 104.659 500.73 103.721C500.73 102.782 499.969 102.021 499.03 102.021Z" stroke="#CB352C" stroke-linecap="round" stroke-linejoin="round"/>
<path d="M442.14 59.0405H496.73C497.56 59.0405 498.23 59.7105 498.23 60.5405V102.011H440.63V60.5405C440.63 59.7105 441.3 59.0405 442.13 59.0405H442.14Z" stroke="#CB352C" stroke-linecap="round" stroke-linejoin="round"/>
<path d="M310.96 53.2305V163.79H368.95V53.2305H310.96ZM335.78 102.98H315.13V66.0005C315.13 62.1605 318.24 59.0505 322.08 59.0505H328.82C332.66 59.0505 335.77 62.1605 335.77 66.0005V102.98H335.78ZM364.78 102.98H344.13V66.0005C344.13 62.1605 347.24 59.0505 351.08 59.0505H357.82C361.66 59.0505 364.77 62.1605 364.77 66.0005V102.98H364.78Z" fill="#E5DBC6" stroke="#CB352C" stroke-linecap="round" stroke-linejoin="round"/>
<path d="M339.96 110.11V119.06" stroke="#CB352C" stroke-linecap="round" stroke-linejoin="round"/>
<path d="M339.96 126.911V150.191" stroke="#CB352C" stroke-linecap="round" stroke-linejoin="round"/>
<path d="M339.96 153.201V163.791" stroke="#CB352C" stroke-linecap="round" stroke-linejoin="round"/>
<path d="M339.96 83.5103V86.6903" stroke="#CB352C" stroke-linecap="round" stroke-linejoin="round"/>
<path d="M339.96 62.7305V81.2005" stroke="#CB352C" stroke-linecap="round" stroke-linejoin="round"/>
<path d="M337 116.951H335.42C334.895 116.951 334.47 117.376 334.47 117.901V127.531C334.47 128.055 334.895 128.481 335.42 128.481H337C337.525 128.481 337.95 128.055 337.95 127.531V117.901C337.95 117.376 337.525 116.951 337 116.951Z" stroke="#CB352C" stroke-linecap="round" stroke-linejoin="round"/>
<path d="M341 120.431H334.13C333.5 120.431 332.99 120.941 332.99 121.571V121.581C332.99 122.21 333.5 122.721 334.13 122.721H341C341.63 122.721 342.14 122.21 342.14 121.581V121.571C342.14 120.941 341.63 120.431 341 120.431Z" stroke="#CB352C" stroke-linecap="round" stroke-linejoin="round"/>
<path d="M109.68 37.6902C109.68 38.0202 109.55 38.3402 109.3 38.6302C108.45 39.7002 106.16 40.4602 103.48 40.4602C100.8 40.4602 98.51 39.7002 97.66 38.6302C97.41 38.3402 97.28 38.0202 97.28 37.6902C97.28 36.1602 100.06 34.9102 103.48 34.9102C106.9 34.9102 109.68 36.1602 109.68 37.6902Z" fill="#E5DBC6" stroke="#CB352C" stroke-linecap="round" stroke-linejoin="round"/>
<path d="M109.3 38.6304C108.45 39.7004 106.16 40.4604 103.48 40.4604C100.8 40.4604 98.51 39.7004 97.66 38.6304" fill="#E5DBC6"/>
<path d="M109.3 38.6304C108.45 39.7004 106.16 40.4604 103.48 40.4604C100.8 40.4604 98.51 39.7004 97.66 38.6304" stroke="#CB352C" stroke-linecap="round" stroke-linejoin="round"/>
<path d="M106.83 28.1304V37.2204C106.83 38.0504 105.33 38.7204 103.48 38.7204C101.63 38.7204 100.13 38.0504 100.13 37.2204V28.1304H106.83Z" fill="#E5DBC6" stroke="#CB352C" stroke-linecap="round" stroke-linejoin="round"/>
<path d="M111.36 23.6104H95.5901V28.1304H111.36V23.6104Z" fill="#E5DBC6" stroke="#CB352C" stroke-linecap="round" stroke-linejoin="round"/>
<path d="M95.5901 23.4004C95.5901 22.9751 95.2476 22.6304 94.8251 22.6304C94.4026 22.6304 94.0601 22.9751 94.0601 23.4004V28.4704C94.0601 28.8956 94.4026 29.2404 94.8251 29.2404C95.2476 29.2404 95.5901 28.8956 95.5901 28.4704V23.4004Z" fill="#E5DBC6" stroke="#CB352C" stroke-linecap="round" stroke-linejoin="round"/>
<path d="M112.89 23.4004C112.89 22.9751 112.548 22.6304 112.125 22.6304C111.703 22.6304 111.36 22.9751 111.36 23.4004V28.4704C111.36 28.8956 111.703 29.2404 112.125 29.2404C112.548 29.2404 112.89 28.8956 112.89 28.4704V23.4004Z" fill="#E5DBC6" stroke="#CB352C" stroke-linecap="round" stroke-linejoin="round"/>
<path d="M109.68 37.6904V39.5804C109.68 41.1204 106.9 42.3604 103.48 42.3604C100.06 42.3604 97.28 41.1204 97.28 39.5804V37.6904C97.28 38.0204 97.41 38.3404 97.66 38.6304C98.51 39.7004 100.8 40.4604 103.48 40.4604C106.16 40.4604 108.45 39.7004 109.3 38.6304C109.55 38.3404 109.68 38.0204 109.68 37.6904Z" fill="#E5DBC6" stroke="#CB352C" stroke-linecap="round" stroke-linejoin="round"/>
<path d="M709.56 193.5H3.48C2.11033 193.5 1 194.609 1 195.975C1 197.342 2.11033 198.45 3.48 198.45H709.56C710.93 198.45 712.04 197.342 712.04 195.975C712.04 194.609 710.93 193.5 709.56 193.5Z" fill="#E5DBC6" stroke="#CB352C" stroke-miterlimit="10"/>
<path d="M132.38 193.5V177.13" stroke="#CB352C" stroke-miterlimit="10"/>
<path d="M235.7 193.5V177.13" stroke="#CB352C" stroke-miterlimit="10"/>
<path d="M379.58 193.5V177.13" stroke="#CB352C" stroke-miterlimit="10"/>
<path d="M472.42 193.5V177.13" stroke="#CB352C" stroke-miterlimit="10"/>
<path d="M575.9 193.5V177.13" stroke="#CB352C" stroke-miterlimit="10"/>
<path d="M13.8101 151.791H20.8901" stroke="#CB352C" stroke-linecap="round" stroke-linejoin="round"/>
<path d="M17.35 153.911C17.6041 153.911 17.81 153.705 17.81 153.451C17.81 153.197 17.6041 152.991 17.35 152.991C17.096 152.991 16.89 153.197 16.89 153.451C16.89 153.705 17.096 153.911 17.35 153.911Z" fill="#CB352C"/>
<path d="M20.89 151.791H27.96" stroke="#CB352C" stroke-linecap="round" stroke-linejoin="round"/>
<path d="M24.42 153.911C24.674 153.911 24.88 153.705 24.88 153.451C24.88 153.197 24.674 152.991 24.42 152.991C24.1659 152.991 23.96 153.197 23.96 153.451C23.96 153.705 24.1659 153.911 24.42 153.911Z" fill="#CB352C"/>
<path d="M27.9601 151.791H35.0401" stroke="#CB352C" stroke-linecap="round" stroke-linejoin="round"/>
<path d="M31.5 153.911C31.7541 153.911 31.96 153.705 31.96 153.451C31.96 153.197 31.7541 152.991 31.5 152.991C31.246 152.991 31.04 153.197 31.04 153.451C31.04 153.705 31.246 153.911 31.5 153.911Z" fill="#CB352C"/>
<path d="M35.04 151.791H42.11" stroke="#CB352C" stroke-linecap="round" stroke-linejoin="round"/>
<path d="M38.57 153.911C38.824 153.911 39.03 153.705 39.03 153.451C39.03 153.197 38.824 152.991 38.57 152.991C38.3159 152.991 38.11 153.197 38.11 153.451C38.11 153.705 38.3159 153.911 38.57 153.911Z" fill="#CB352C"/>
<path d="M42.1101 151.791H49.1901" stroke="#CB352C" stroke-linecap="round" stroke-linejoin="round"/>
<path d="M45.6501 153.911C45.9041 153.911 46.1101 153.705 46.1101 153.451C46.1101 153.197 45.9041 152.991 45.6501 152.991C45.396 152.991 45.1901 153.197 45.1901 153.451C45.1901 153.705 45.396 153.911 45.6501 153.911Z" fill="#CB352C"/>
<path d="M49.1901 151.791H56.2601" stroke="#CB352C" stroke-linecap="round" stroke-linejoin="round"/>
<path d="M53.18 153.451C53.18 153.701 52.98 153.911 52.72 153.911C52.46 153.911 52.26 153.711 52.26 153.451C52.26 153.191 52.46 152.991 52.72 152.991C52.98 152.991 53.18 153.191 53.18 153.451Z" fill="#CB352C"/>
<path d="M56.26 151.791H63.34" stroke="#CB352C" stroke-linecap="round" stroke-linejoin="round"/>
<path d="M60.26 153.451C60.26 153.701 60.06 153.911 59.8 153.911C59.54 153.911 59.34 153.711 59.34 153.451C59.34 153.191 59.54 152.991 59.8 152.991C60.06 152.991 60.26 153.191 60.26 153.451Z" fill="#CB352C"/>
<path d="M63.3401 151.791H70.4101" stroke="#CB352C" stroke-linecap="round" stroke-linejoin="round"/>
<path d="M67.33 153.451C67.33 153.701 67.13 153.911 66.87 153.911C66.61 153.911 66.41 153.711 66.41 153.451C66.41 153.191 66.61 152.991 66.87 152.991C67.13 152.991 67.33 153.191 67.33 153.451Z" fill="#CB352C"/>
<path d="M70.41 151.791H77.49" stroke="#CB352C" stroke-linecap="round" stroke-linejoin="round"/>
<path d="M74.41 153.451C74.41 153.701 74.21 153.911 73.95 153.911C73.69 153.911 73.49 153.711 73.49 153.451C73.49 153.191 73.69 152.991 73.95 152.991C74.21 152.991 74.41 153.191 74.41 153.451Z" fill="#CB352C"/>
<path d="M77.4901 151.791H84.5601" stroke="#CB352C" stroke-linecap="round" stroke-linejoin="round"/>
<path d="M81.0301 153.911C81.2841 153.911 81.4901 153.705 81.4901 153.451C81.4901 153.197 81.2841 152.991 81.0301 152.991C80.776 152.991 80.5701 153.197 80.5701 153.451C80.5701 153.705 80.776 153.911 81.0301 153.911Z" fill="#CB352C"/>
<path d="M84.5601 151.791H91.6401" stroke="#CB352C" stroke-linecap="round" stroke-linejoin="round"/>
<path d="M88.1 153.911C88.3541 153.911 88.56 153.705 88.56 153.451C88.56 153.197 88.3541 152.991 88.1 152.991C87.846 152.991 87.64 153.197 87.64 153.451C87.64 153.705 87.846 153.911 88.1 153.911Z" fill="#CB352C"/>
<path d="M91.64 151.791H98.71" stroke="#CB352C" stroke-linecap="round" stroke-linejoin="round"/>
<path d="M95.18 153.911C95.434 153.911 95.64 153.705 95.64 153.451C95.64 153.197 95.434 152.991 95.18 152.991C94.9259 152.991 94.72 153.197 94.72 153.451C94.72 153.705 94.9259 153.911 95.18 153.911Z" fill="#CB352C"/>
<path d="M98.7101 151.791H105.79" stroke="#CB352C" stroke-linecap="round" stroke-linejoin="round"/>
<path d="M102.25 153.911C102.504 153.911 102.71 153.705 102.71 153.451C102.71 153.197 102.504 152.991 102.25 152.991C101.996 152.991 101.79 153.197 101.79 153.451C101.79 153.705 101.996 153.911 102.25 153.911Z" fill="#CB352C"/>
<path d="M105.79 151.791H112.86" stroke="#CB352C" stroke-linecap="round" stroke-linejoin="round"/>
<path d="M109.33 153.911C109.584 153.911 109.79 153.705 109.79 153.451C109.79 153.197 109.584 152.991 109.33 152.991C109.076 152.991 108.87 153.197 108.87 153.451C108.87 153.705 109.076 153.911 109.33 153.911Z" fill="#CB352C"/>
<path d="M112.86 151.791H119.94" stroke="#CB352C" stroke-linecap="round" stroke-linejoin="round"/>
<path d="M116.4 153.911C116.654 153.911 116.86 153.705 116.86 153.451C116.86 153.197 116.654 152.991 116.4 152.991C116.146 152.991 115.94 153.197 115.94 153.451C115.94 153.705 116.146 153.911 116.4 153.911Z" fill="#CB352C"/>
<path d="M119.94 151.791H127.01" stroke="#CB352C" stroke-linecap="round" stroke-linejoin="round"/>
<path d="M123.48 153.911C123.734 153.911 123.94 153.705 123.94 153.451C123.94 153.197 123.734 152.991 123.48 152.991C123.226 152.991 123.02 153.197 123.02 153.451C123.02 153.705 123.226 153.911 123.48 153.911Z" fill="#CB352C"/>
<path d="M127.01 151.791H134.09" stroke="#CB352C" stroke-linecap="round" stroke-linejoin="round"/>
<path d="M130.55 153.911C130.804 153.911 131.01 153.705 131.01 153.451C131.01 153.197 130.804 152.991 130.55 152.991C130.296 152.991 130.09 153.197 130.09 153.451C130.09 153.705 130.296 153.911 130.55 153.911Z" fill="#CB352C"/>
<path d="M134.09 151.791H141.16" stroke="#CB352C" stroke-linecap="round" stroke-linejoin="round"/>
<path d="M137.63 153.911C137.884 153.911 138.09 153.705 138.09 153.451C138.09 153.197 137.884 152.991 137.63 152.991C137.376 152.991 137.17 153.197 137.17 153.451C137.17 153.705 137.376 153.911 137.63 153.911Z" fill="#CB352C"/>
<path d="M141.16 151.791H148.24" stroke="#CB352C" stroke-linecap="round" stroke-linejoin="round"/>
<path d="M144.7 153.911C144.954 153.911 145.16 153.705 145.16 153.451C145.16 153.197 144.954 152.991 144.7 152.991C144.446 152.991 144.24 153.197 144.24 153.451C144.24 153.705 144.446 153.911 144.7 153.911Z" fill="#CB352C"/>
<path d="M148.24 151.791H155.31" stroke="#CB352C" stroke-linecap="round" stroke-linejoin="round"/>
<path d="M151.78 153.911C152.034 153.911 152.24 153.705 152.24 153.451C152.24 153.197 152.034 152.991 151.78 152.991C151.526 152.991 151.32 153.197 151.32 153.451C151.32 153.705 151.526 153.911 151.78 153.911Z" fill="#CB352C"/>
<path d="M155.31 151.791H162.39" stroke="#CB352C" stroke-linecap="round" stroke-linejoin="round"/>
<path d="M158.85 153.911C159.104 153.911 159.31 153.705 159.31 153.451C159.31 153.197 159.104 152.991 158.85 152.991C158.596 152.991 158.39 153.197 158.39 153.451C158.39 153.705 158.596 153.911 158.85 153.911Z" fill="#CB352C"/>
<path d="M162.39 151.791H169.46" stroke="#CB352C" stroke-linecap="round" stroke-linejoin="round"/>
<path d="M165.93 153.911C166.184 153.911 166.39 153.705 166.39 153.451C166.39 153.197 166.184 152.991 165.93 152.991C165.676 152.991 165.47 153.197 165.47 153.451C165.47 153.705 165.676 153.911 165.93 153.911Z" fill="#CB352C"/>
<path d="M169.46 151.791H176.54" stroke="#CB352C" stroke-linecap="round" stroke-linejoin="round"/>
<path d="M173 153.911C173.254 153.911 173.46 153.705 173.46 153.451C173.46 153.197 173.254 152.991 173 152.991C172.746 152.991 172.54 153.197 172.54 153.451C172.54 153.705 172.746 153.911 173 153.911Z" fill="#CB352C"/>
<path d="M176.54 151.791H183.61" stroke="#CB352C" stroke-linecap="round" stroke-linejoin="round"/>
<path d="M180.08 153.911C180.334 153.911 180.54 153.705 180.54 153.451C180.54 153.197 180.334 152.991 180.08 152.991C179.826 152.991 179.62 153.197 179.62 153.451C179.62 153.705 179.826 153.911 180.08 153.911Z" fill="#CB352C"/>
<path d="M183.61 151.791H190.69" stroke="#CB352C" stroke-linecap="round" stroke-linejoin="round"/>
<path d="M187.15 153.911C187.404 153.911 187.61 153.705 187.61 153.451C187.61 153.197 187.404 152.991 187.15 152.991C186.896 152.991 186.69 153.197 186.69 153.451C186.69 153.705 186.896 153.911 187.15 153.911Z" fill="#CB352C"/>
<path d="M190.69 151.791H197.76" stroke="#CB352C" stroke-linecap="round" stroke-linejoin="round"/>
<path d="M194.23 153.911C194.484 153.911 194.69 153.705 194.69 153.451C194.69 153.197 194.484 152.991 194.23 152.991C193.976 152.991 193.77 153.197 193.77 153.451C193.77 153.705 193.976 153.911 194.23 153.911Z" fill="#CB352C"/>
<path d="M197.76 151.791H204.84" stroke="#CB352C" stroke-linecap="round" stroke-linejoin="round"/>
<path d="M201.3 153.911C201.554 153.911 201.76 153.705 201.76 153.451C201.76 153.197 201.554 152.991 201.3 152.991C201.046 152.991 200.84 153.197 200.84 153.451C200.84 153.705 201.046 153.911 201.3 153.911Z" fill="#CB352C"/>
<path d="M204.84 151.791H211.91" stroke="#CB352C" stroke-linecap="round" stroke-linejoin="round"/>
<path d="M208.38 153.911C208.634 153.911 208.84 153.705 208.84 153.451C208.84 153.197 208.634 152.991 208.38 152.991C208.126 152.991 207.92 153.197 207.92 153.451C207.92 153.705 208.126 153.911 208.38 153.911Z" fill="#CB352C"/>
<path d="M211.91 151.791H218.99" stroke="#CB352C" stroke-linecap="round" stroke-linejoin="round"/>
<path d="M215.45 153.911C215.704 153.911 215.91 153.705 215.91 153.451C215.91 153.197 215.704 152.991 215.45 152.991C215.196 152.991 214.99 153.197 214.99 153.451C214.99 153.705 215.196 153.911 215.45 153.911Z" fill="#CB352C"/>
<path d="M218.99 151.791H226.06" stroke="#CB352C" stroke-linecap="round" stroke-linejoin="round"/>
<path d="M222.53 153.911C222.784 153.911 222.99 153.705 222.99 153.451C222.99 153.197 222.784 152.991 222.53 152.991C222.276 152.991 222.07 153.197 222.07 153.451C222.07 153.705 222.276 153.911 222.53 153.911Z" fill="#CB352C"/>
<path d="M226.06 151.791H233.14" stroke="#CB352C" stroke-linecap="round" stroke-linejoin="round"/>
<path d="M229.6 153.911C229.854 153.911 230.06 153.705 230.06 153.451C230.06 153.197 229.854 152.991 229.6 152.991C229.346 152.991 229.14 153.197 229.14 153.451C229.14 153.705 229.346 153.911 229.6 153.911Z" fill="#CB352C"/>
<path d="M233.14 151.791H240.21" stroke="#CB352C" stroke-linecap="round" stroke-linejoin="round"/>
<path d="M236.68 153.911C236.934 153.911 237.14 153.705 237.14 153.451C237.14 153.197 236.934 152.991 236.68 152.991C236.426 152.991 236.22 153.197 236.22 153.451C236.22 153.705 236.426 153.911 236.68 153.911Z" fill="#CB352C"/>
<path d="M240.21 151.791H247.29" stroke="#CB352C" stroke-linecap="round" stroke-linejoin="round"/>
<path d="M243.75 153.911C244.004 153.911 244.21 153.705 244.21 153.451C244.21 153.197 244.004 152.991 243.75 152.991C243.496 152.991 243.29 153.197 243.29 153.451C243.29 153.705 243.496 153.911 243.75 153.911Z" fill="#CB352C"/>
<path d="M247.29 151.791H254.36" stroke="#CB352C" stroke-linecap="round" stroke-linejoin="round"/>
<path d="M250.83 153.911C251.084 153.911 251.29 153.705 251.29 153.451C251.29 153.197 251.084 152.991 250.83 152.991C250.576 152.991 250.37 153.197 250.37 153.451C250.37 153.705 250.576 153.911 250.83 153.911Z" fill="#CB352C"/>
<path d="M254.36 151.791H261.44" stroke="#CB352C" stroke-linecap="round" stroke-linejoin="round"/>
<path d="M257.9 153.911C258.154 153.911 258.36 153.705 258.36 153.451C258.36 153.197 258.154 152.991 257.9 152.991C257.646 152.991 257.44 153.197 257.44 153.451C257.44 153.705 257.646 153.911 257.9 153.911Z" fill="#CB352C"/>
<path d="M261.44 151.791H268.51" stroke="#CB352C" stroke-linecap="round" stroke-linejoin="round"/>
<path d="M264.98 153.911C265.234 153.911 265.44 153.705 265.44 153.451C265.44 153.197 265.234 152.991 264.98 152.991C264.726 152.991 264.52 153.197 264.52 153.451C264.52 153.705 264.726 153.911 264.98 153.911Z" fill="#CB352C"/>
<path d="M268.51 151.791H275.59" stroke="#CB352C" stroke-linecap="round" stroke-linejoin="round"/>
<path d="M272.51 153.451C272.51 153.701 272.31 153.911 272.05 153.911C271.79 153.911 271.59 153.711 271.59 153.451C271.59 153.191 271.79 152.991 272.05 152.991C272.31 152.991 272.51 153.191 272.51 153.451Z" fill="#CB352C"/>
<path d="M275.59 151.791H282.66" stroke="#CB352C" stroke-linecap="round" stroke-linejoin="round"/>
<path d="M279.58 153.451C279.58 153.701 279.38 153.911 279.12 153.911C278.86 153.911 278.66 153.711 278.66 153.451C278.66 153.191 278.86 152.991 279.12 152.991C279.38 152.991 279.58 153.191 279.58 153.451Z" fill="#CB352C"/>
<path d="M282.66 151.791H289.74" stroke="#CB352C" stroke-linecap="round" stroke-linejoin="round"/>
<path d="M286.66 153.451C286.66 153.701 286.46 153.911 286.2 153.911C285.94 153.911 285.74 153.711 285.74 153.451C285.74 153.191 285.94 152.991 286.2 152.991C286.46 152.991 286.66 153.191 286.66 153.451Z" fill="#CB352C"/>
<path d="M289.74 151.791H296.81" stroke="#CB352C" stroke-linecap="round" stroke-linejoin="round"/>
<path d="M293.73 153.451C293.73 153.701 293.53 153.911 293.27 153.911C293.01 153.911 292.81 153.711 292.81 153.451C292.81 153.191 293.01 152.991 293.27 152.991C293.53 152.991 293.73 153.191 293.73 153.451Z" fill="#CB352C"/>
<path d="M296.81 151.791H303.89" stroke="#CB352C" stroke-linecap="round" stroke-linejoin="round"/>
<path d="M300.81 153.451C300.81 153.701 300.61 153.911 300.35 153.911C300.09 153.911 299.89 153.711 299.89 153.451C299.89 153.191 300.09 152.991 300.35 152.991C300.61 152.991 300.81 153.191 300.81 153.451Z" fill="#CB352C"/>
<path d="M303.89 151.791H310.96" stroke="#CB352C" stroke-linecap="round" stroke-linejoin="round"/>
<path d="M307.88 153.451C307.88 153.701 307.68 153.911 307.42 153.911C307.16 153.911 306.96 153.711 306.96 153.451C306.96 153.191 307.16 152.991 307.42 152.991C307.68 152.991 307.88 153.191 307.88 153.451Z" fill="#CB352C"/>
<path d="M368.95 151.791H375.93" stroke="#CB352C" stroke-linecap="round" stroke-linejoin="round"/>
<path d="M372.89 153.451C372.89 153.701 372.69 153.911 372.44 153.911C372.19 153.911 371.99 153.711 371.99 153.451C371.99 153.191 372.19 152.991 372.44 152.991C372.69 152.991 372.89 153.191 372.89 153.451Z" fill="#CB352C"/>
<path d="M375.93 151.791H382.91" stroke="#CB352C" stroke-linecap="round" stroke-linejoin="round"/>
<path d="M379.87 153.451C379.87 153.701 379.67 153.911 379.42 153.911C379.17 153.911 378.97 153.711 378.97 153.451C378.97 153.191 379.17 152.991 379.42 152.991C379.67 152.991 379.87 153.191 379.87 153.451Z" fill="#CB352C"/>
<path d="M382.91 151.791H389.89" stroke="#CB352C" stroke-linecap="round" stroke-linejoin="round"/>
<path d="M386.85 153.451C386.85 153.701 386.65 153.911 386.4 153.911C386.15 153.911 385.95 153.711 385.95 153.451C385.95 153.191 386.15 152.991 386.4 152.991C386.65 152.991 386.85 153.191 386.85 153.451Z" fill="#CB352C"/>
<path d="M389.89 151.791H396.87" stroke="#CB352C" stroke-linecap="round" stroke-linejoin="round"/>
<path d="M393.83 153.451C393.83 153.701 393.63 153.911 393.38 153.911C393.13 153.911 392.93 153.711 392.93 153.451C392.93 153.191 393.13 152.991 393.38 152.991C393.63 152.991 393.83 153.191 393.83 153.451Z" fill="#CB352C"/>
<path d="M396.87 151.791H403.86" stroke="#CB352C" stroke-linecap="round" stroke-linejoin="round"/>
<path d="M400.82 153.451C400.82 153.701 400.62 153.911 400.37 153.911C400.12 153.911 399.92 153.711 399.92 153.451C399.92 153.191 400.12 152.991 400.37 152.991C400.62 152.991 400.82 153.191 400.82 153.451Z" fill="#CB352C"/>
<path d="M403.86 151.791H410.84" stroke="#CB352C" stroke-linecap="round" stroke-linejoin="round"/>
<path d="M407.8 153.451C407.8 153.701 407.6 153.911 407.35 153.911C407.1 153.911 406.9 153.711 406.9 153.451C406.9 153.191 407.1 152.991 407.35 152.991C407.6 152.991 407.8 153.191 407.8 153.451Z" fill="#CB352C"/>
<path d="M410.84 151.791H417.82" stroke="#CB352C" stroke-linecap="round" stroke-linejoin="round"/>
<path d="M414.33 153.911C414.579 153.911 414.78 153.705 414.78 153.451C414.78 153.197 414.579 152.991 414.33 152.991C414.082 152.991 413.88 153.197 413.88 153.451C413.88 153.705 414.082 153.911 414.33 153.911Z" fill="#CB352C"/>
<path d="M417.82 151.791H424.8" stroke="#CB352C" stroke-linecap="round" stroke-linejoin="round"/>
<path d="M421.76 153.451C421.76 153.701 421.56 153.911 421.31 153.911C421.06 153.911 420.86 153.711 420.86 153.451C420.86 153.191 421.06 152.991 421.31 152.991C421.56 152.991 421.76 153.191 421.76 153.451Z" fill="#CB352C"/>
<path d="M424.8 151.791H431.78" stroke="#CB352C" stroke-linecap="round" stroke-linejoin="round"/>
<path d="M428.74 153.451C428.74 153.701 428.54 153.911 428.29 153.911C428.04 153.911 427.84 153.711 427.84 153.451C427.84 153.191 428.04 152.991 428.29 152.991C428.54 152.991 428.74 153.191 428.74 153.451Z" fill="#CB352C"/>
<path d="M431.78 151.791H438.76" stroke="#CB352C" stroke-linecap="round" stroke-linejoin="round"/>
<path d="M435.72 153.451C435.72 153.701 435.52 153.911 435.27 153.911C435.02 153.911 434.82 153.711 434.82 153.451C434.82 153.191 435.02 152.991 435.27 152.991C435.52 152.991 435.72 153.191 435.72 153.451Z" fill="#CB352C"/>
<path d="M438.76 151.791H445.74" stroke="#CB352C" stroke-linecap="round" stroke-linejoin="round"/>
<path d="M442.7 153.451C442.7 153.701 442.5 153.911 442.25 153.911C442 153.911 441.8 153.711 441.8 153.451C441.8 153.191 442 152.991 442.25 152.991C442.5 152.991 442.7 153.191 442.7 153.451Z" fill="#CB352C"/>
<path d="M445.74 151.791H452.73" stroke="#CB352C" stroke-linecap="round" stroke-linejoin="round"/>
<path d="M449.23 153.911C449.479 153.911 449.68 153.705 449.68 153.451C449.68 153.197 449.479 152.991 449.23 152.991C448.982 152.991 448.78 153.197 448.78 153.451C448.78 153.705 448.982 153.911 449.23 153.911Z" fill="#CB352C"/>
<path d="M452.73 151.791H459.71" stroke="#CB352C" stroke-linecap="round" stroke-linejoin="round"/>
<path d="M456.67 153.451C456.67 153.701 456.47 153.911 456.22 153.911C455.97 153.911 455.77 153.711 455.77 153.451C455.77 153.191 455.97 152.991 456.22 152.991C456.47 152.991 456.67 153.191 456.67 153.451Z" fill="#CB352C"/>
<path d="M459.71 151.791H466.69" stroke="#CB352C" stroke-linecap="round" stroke-linejoin="round"/>
<path d="M463.65 153.451C463.65 153.701 463.45 153.911 463.2 153.911C462.95 153.911 462.75 153.711 462.75 153.451C462.75 153.191 462.95 152.991 463.2 152.991C463.45 152.991 463.65 153.191 463.65 153.451Z" fill="#CB352C"/>
<path d="M466.69 151.791H473.67" stroke="#CB352C" stroke-linecap="round" stroke-linejoin="round"/>
<path d="M470.63 153.451C470.63 153.701 470.43 153.911 470.18 153.911C469.93 153.911 469.73 153.711 469.73 153.451C469.73 153.191 469.93 152.991 470.18 152.991C470.43 152.991 470.63 153.191 470.63 153.451Z" fill="#CB352C"/>
<path d="M473.67 151.791H480.65" stroke="#CB352C" stroke-linecap="round" stroke-linejoin="round"/>
<path d="M477.61 153.451C477.61 153.701 477.41 153.911 477.16 153.911C476.91 153.911 476.71 153.711 476.71 153.451C476.71 153.191 476.91 152.991 477.16 152.991C477.41 152.991 477.61 153.191 477.61 153.451Z" fill="#CB352C"/>
<path d="M480.65 151.791H487.63" stroke="#CB352C" stroke-linecap="round" stroke-linejoin="round"/>
<path d="M484.59 153.451C484.59 153.701 484.39 153.911 484.14 153.911C483.89 153.911 483.69 153.711 483.69 153.451C483.69 153.191 483.89 152.991 484.14 152.991C484.39 152.991 484.59 153.191 484.59 153.451Z" fill="#CB352C"/>
<path d="M487.63 151.791H494.61" stroke="#CB352C" stroke-linecap="round" stroke-linejoin="round"/>
<path d="M491.57 153.451C491.57 153.701 491.37 153.911 491.12 153.911C490.87 153.911 490.67 153.711 490.67 153.451C490.67 153.191 490.87 152.991 491.12 152.991C491.37 152.991 491.57 153.191 491.57 153.451Z" fill="#CB352C"/>
<path d="M494.61 151.791H501.59" stroke="#CB352C" stroke-linecap="round" stroke-linejoin="round"/>
<path d="M498.55 153.451C498.55 153.701 498.35 153.911 498.1 153.911C497.85 153.911 497.65 153.711 497.65 153.451C497.65 153.191 497.85 152.991 498.1 152.991C498.35 152.991 498.55 153.191 498.55 153.451Z" fill="#CB352C"/>
<path d="M501.59 151.791H508.58" stroke="#CB352C" stroke-linecap="round" stroke-linejoin="round"/>
<path d="M505.08 153.911C505.329 153.911 505.53 153.705 505.53 153.451C505.53 153.197 505.329 152.991 505.08 152.991C504.832 152.991 504.63 153.197 504.63 153.451C504.63 153.705 504.832 153.911 505.08 153.911Z" fill="#CB352C"/>
<path d="M508.58 151.791H515.56" stroke="#CB352C" stroke-linecap="round" stroke-linejoin="round"/>
<path d="M512.52 153.451C512.52 153.701 512.32 153.911 512.07 153.911C511.82 153.911 511.62 153.711 511.62 153.451C511.62 153.191 511.82 152.991 512.07 152.991C512.32 152.991 512.52 153.191 512.52 153.451Z" fill="#CB352C"/>
<path d="M515.56 151.791H522.54" stroke="#CB352C" stroke-linecap="round" stroke-linejoin="round"/>
<path d="M519.5 153.451C519.5 153.701 519.3 153.911 519.05 153.911C518.8 153.911 518.6 153.711 518.6 153.451C518.6 153.191 518.8 152.991 519.05 152.991C519.3 152.991 519.5 153.191 519.5 153.451Z" fill="#CB352C"/>
<path d="M522.54 151.791H529.52" stroke="#CB352C" stroke-linecap="round" stroke-linejoin="round"/>
<path d="M526.48 153.451C526.48 153.701 526.28 153.911 526.03 153.911C525.78 153.911 525.58 153.711 525.58 153.451C525.58 153.191 525.78 152.991 526.03 152.991C526.28 152.991 526.48 153.191 526.48 153.451Z" fill="#CB352C"/>
<path d="M529.52 151.791H536.5" stroke="#CB352C" stroke-linecap="round" stroke-linejoin="round"/>
<path d="M533.46 153.451C533.46 153.701 533.26 153.911 533.01 153.911C532.76 153.911 532.56 153.711 532.56 153.451C532.56 153.191 532.76 152.991 533.01 152.991C533.26 152.991 533.46 153.191 533.46 153.451Z" fill="#CB352C"/>
<path d="M536.5 151.791H543.48" stroke="#CB352C" stroke-linecap="round" stroke-linejoin="round"/>
<path d="M539.99 153.911C540.239 153.911 540.44 153.705 540.44 153.451C540.44 153.197 540.239 152.991 539.99 152.991C539.742 152.991 539.54 153.197 539.54 153.451C539.54 153.705 539.742 153.911 539.99 153.911Z" fill="#CB352C"/>
<path d="M543.48 151.791H550.46" stroke="#CB352C" stroke-linecap="round" stroke-linejoin="round"/>
<path d="M547.42 153.451C547.42 153.701 547.22 153.911 546.97 153.911C546.72 153.911 546.52 153.711 546.52 153.451C546.52 153.191 546.72 152.991 546.97 152.991C547.22 152.991 547.42 153.191 547.42 153.451Z" fill="#CB352C"/>
<path d="M550.46 151.791H557.44" stroke="#CB352C" stroke-linecap="round" stroke-linejoin="round"/>
<path d="M554.4 153.451C554.4 153.701 554.2 153.911 553.95 153.911C553.7 153.911 553.5 153.711 553.5 153.451C553.5 153.191 553.7 152.991 553.95 152.991C554.2 152.991 554.4 153.191 554.4 153.451Z" fill="#CB352C"/>
<path d="M557.44 151.791H564.43" stroke="#CB352C" stroke-linecap="round" stroke-linejoin="round"/>
<path d="M561.39 153.451C561.39 153.701 561.19 153.911 560.94 153.911C560.69 153.911 560.49 153.711 560.49 153.451C560.49 153.191 560.69 152.991 560.94 152.991C561.19 152.991 561.39 153.191 561.39 153.451Z" fill="#CB352C"/>
<path d="M564.43 151.791H571.41" stroke="#CB352C" stroke-linecap="round" stroke-linejoin="round"/>
<path d="M568.37 153.451C568.37 153.701 568.17 153.911 567.92 153.911C567.67 153.911 567.47 153.711 567.47 153.451C567.47 153.191 567.67 152.991 567.92 152.991C568.17 152.991 568.37 153.191 568.37 153.451Z" fill="#CB352C"/>
<path d="M571.41 151.791H578.39" stroke="#CB352C" stroke-linecap="round" stroke-linejoin="round"/>
<path d="M575.35 153.451C575.35 153.701 575.15 153.911 574.9 153.911C574.65 153.911 574.45 153.711 574.45 153.451C574.45 153.191 574.65 152.991 574.9 152.991C575.15 152.991 575.35 153.191 575.35 153.451Z" fill="#CB352C"/>
<path d="M578.39 151.791H585.37" stroke="#CB352C" stroke-linecap="round" stroke-linejoin="round"/>
<path d="M582.33 153.451C582.33 153.701 582.13 153.911 581.88 153.911C581.63 153.911 581.43 153.711 581.43 153.451C581.43 153.191 581.63 152.991 581.88 152.991C582.13 152.991 582.33 153.191 582.33 153.451Z" fill="#CB352C"/>
<path d="M585.37 151.791H592.35" stroke="#CB352C" stroke-linecap="round" stroke-linejoin="round"/>
<path d="M589.31 153.451C589.31 153.701 589.11 153.911 588.86 153.911C588.61 153.911 588.41 153.711 588.41 153.451C588.41 153.191 588.61 152.991 588.86 152.991C589.11 152.991 589.31 153.191 589.31 153.451Z" fill="#CB352C"/>
<path d="M592.35 151.791H599.33" stroke="#CB352C" stroke-linecap="round" stroke-linejoin="round"/>
<path d="M595.84 153.911C596.089 153.911 596.29 153.705 596.29 153.451C596.29 153.197 596.089 152.991 595.84 152.991C595.592 152.991 595.39 153.197 595.39 153.451C595.39 153.705 595.592 153.911 595.84 153.911Z" fill="#CB352C"/>
<path d="M599.33 151.791H606.31" stroke="#CB352C" stroke-linecap="round" stroke-linejoin="round"/>
<path d="M603.27 153.451C603.27 153.701 603.07 153.911 602.82 153.911C602.57 153.911 602.37 153.711 602.37 153.451C602.37 153.191 602.57 152.991 602.82 152.991C603.07 152.991 603.27 153.191 603.27 153.451Z" fill="#CB352C"/>
<path d="M606.31 151.791H613.29" stroke="#CB352C" stroke-linecap="round" stroke-linejoin="round"/>
<path d="M610.25 153.451C610.25 153.701 610.05 153.911 609.8 153.911C609.55 153.911 609.35 153.711 609.35 153.451C609.35 153.191 609.55 152.991 609.8 152.991C610.05 152.991 610.25 153.191 610.25 153.451Z" fill="#CB352C"/>
<path d="M613.29 151.791H620.28" stroke="#CB352C" stroke-linecap="round" stroke-linejoin="round"/>
<path d="M617.24 153.451C617.24 153.701 617.04 153.911 616.79 153.911C616.54 153.911 616.34 153.711 616.34 153.451C616.34 153.191 616.54 152.991 616.79 152.991C617.04 152.991 617.24 153.191 617.24 153.451Z" fill="#CB352C"/>
<path d="M620.28 151.791H627.26" stroke="#CB352C" stroke-linecap="round" stroke-linejoin="round"/>
<path d="M624.22 153.451C624.22 153.701 624.02 153.911 623.77 153.911C623.52 153.911 623.32 153.711 623.32 153.451C623.32 153.191 623.52 152.991 623.77 152.991C624.02 152.991 624.22 153.191 624.22 153.451Z" fill="#CB352C"/>
<path d="M627.26 151.791H634.24" stroke="#CB352C" stroke-linecap="round" stroke-linejoin="round"/>
<path d="M630.75 153.911C630.999 153.911 631.2 153.705 631.2 153.451C631.2 153.197 630.999 152.991 630.75 152.991C630.502 152.991 630.3 153.197 630.3 153.451C630.3 153.705 630.502 153.911 630.75 153.911Z" fill="#CB352C"/>
<path d="M634.24 151.791H641.22" stroke="#CB352C" stroke-linecap="round" stroke-linejoin="round"/>
<path d="M638.18 153.451C638.18 153.701 637.98 153.911 637.73 153.911C637.48 153.911 637.28 153.711 637.28 153.451C637.28 153.191 637.48 152.991 637.73 152.991C637.98 152.991 638.18 153.191 638.18 153.451Z" fill="#CB352C"/>
<path d="M641.22 151.791H648.2" stroke="#CB352C" stroke-linecap="round" stroke-linejoin="round"/>
<path d="M645.16 153.451C645.16 153.701 644.96 153.911 644.71 153.911C644.46 153.911 644.26 153.711 644.26 153.451C644.26 153.191 644.46 152.991 644.71 152.991C644.96 152.991 645.16 153.191 645.16 153.451Z" fill="#CB352C"/>
<path d="M648.2 151.791H655.18" stroke="#CB352C" stroke-linecap="round" stroke-linejoin="round"/>
<path d="M652.14 153.451C652.14 153.701 651.94 153.911 651.69 153.911C651.44 153.911 651.24 153.711 651.24 153.451C651.24 153.191 651.44 152.991 651.69 152.991C651.94 152.991 652.14 153.191 652.14 153.451Z" fill="#CB352C"/>
<path d="M655.18 151.791H662.16" stroke="#CB352C" stroke-linecap="round" stroke-linejoin="round"/>
<path d="M659.12 153.451C659.12 153.701 658.92 153.911 658.67 153.911C658.42 153.911 658.22 153.711 658.22 153.451C658.22 153.191 658.42 152.991 658.67 152.991C658.92 152.991 659.12 153.191 659.12 153.451Z" fill="#CB352C"/>
<path d="M662.16 151.791H669.14" stroke="#CB352C" stroke-linecap="round" stroke-linejoin="round"/>
<path d="M666.1 153.451C666.1 153.701 665.9 153.911 665.65 153.911C665.4 153.911 665.2 153.711 665.2 153.451C665.2 153.191 665.4 152.991 665.65 152.991C665.9 152.991 666.1 153.191 666.1 153.451Z" fill="#CB352C"/>
</svg>
