<svg width="63" height="130" viewBox="0 0 63 130" fill="none" xmlns="http://www.w3.org/2000/svg">
<path d="M24.4888 42.3426C24.2501 42.2234 24.0274 42.0694 23.7874 41.9556C23.7104 41.9194 23.6349 41.9007 23.5553 41.8726C23.4399 41.8311 23.3445 41.7628 23.2344 41.7119C22.8432 41.5338 22.4269 41.5111 22.0079 41.4495C21.8275 41.4227 21.6591 41.3986 21.4761 41.3999C21.313 41.3999 21.1433 41.4173 20.9815 41.3919C20.597 41.3316 20.2072 41.4053 19.8239 41.3531C19.4049 41.2955 18.9833 41.2754 18.5642 41.2406C18.12 41.2031 17.6785 41.2031 17.2303 41.2058C17.0552 41.2071 16.8868 41.171 16.7131 41.1629C16.5169 41.1549 16.3339 41.1643 16.139 41.1348C15.8022 41.0826 15.4309 41.1254 15.0888 41.1254C14.5716 41.1254 14.0054 41.1509 13.5612 41.4388C13.2059 41.6677 12.8359 41.8793 12.5137 42.1578C12.3479 42.3011 12.1703 42.4202 11.9886 42.5407C11.9024 42.5983 11.8122 42.6492 11.7261 42.7054C11.624 42.771 11.551 42.8554 11.4582 42.9331C11.2739 43.0857 11.0684 43.2169 10.8801 43.3642C10.7408 43.474 10.6228 43.6079 10.4836 43.719C10.1269 44.0029 9.78346 44.3015 9.46257 44.6255C9.20135 44.8893 8.92819 45.1424 8.66564 45.4062C8.38453 45.6873 8.15646 46.0114 7.93502 46.3408C7.71358 46.6702 7.51865 47.037 7.33434 47.4093C7.14074 47.8016 6.91665 48.1899 6.76018 48.5983C6.63819 48.913 6.50692 49.2504 6.34912 49.549C6.26028 49.7163 6.1489 49.8717 6.05873 50.039C5.97386 50.1957 5.9606 50.4273 5.828 50.5505" stroke="#CB352C" stroke-miterlimit="10"/>
<path d="M5.93543 50.4272C5.78294 50.6576 5.61852 50.8986 5.48725 51.1423C5.37056 51.3592 5.21144 51.5413 5.06823 51.7421C5.00856 51.8265 4.97674 51.9229 4.91972 52.0099C4.84811 52.1184 4.77916 52.2242 4.71419 52.338C4.58424 52.5656 4.46092 52.7986 4.32567 53.0235C4.19042 53.2485 4.0618 53.4614 3.95306 53.6997C3.8019 54.0278 3.56454 54.3036 3.41073 54.633C3.27017 54.9329 3.10442 55.2181 2.95458 55.5127C2.85248 55.7122 2.76364 55.9131 2.65623 56.1099C2.56739 56.2732 2.48783 56.4406 2.39899 56.604C2.18418 56.9896 2.00649 57.398 1.80892 57.793C1.65776 58.0969 1.50261 58.3969 1.36206 58.7062C1.25863 58.9338 1.14459 59.1721 1.08227 59.4158C1.0531 59.527 1.06769 59.6207 1.08227 59.7318C1.11012 59.934 1.12736 60.1362 1.15785 60.3384C1.18835 60.5406 1.23078 60.7468 1.24272 60.957C1.252 61.1217 1.30504 61.2743 1.32758 61.4377C1.36869 61.7376 1.44957 62.0255 1.49598 62.3241C1.55035 62.6722 1.63124 63.0164 1.72803 63.3565C1.8182 63.6725 1.96274 64.0112 1.9508 64.3446" stroke="#CB352C" stroke-miterlimit="10"/>
<path d="M1.98262 64.3125C1.97997 64.6995 2.04759 65.0744 2.13511 65.4506C2.21467 65.7894 2.3486 66.1389 2.54352 66.4281C2.68805 66.641 2.83259 66.8539 2.96386 67.0762C3.06596 67.2476 3.19193 67.3935 3.29934 67.5582C3.36299 67.6546 3.43724 67.7122 3.5168 67.7952C3.59636 67.8782 3.66001 67.9773 3.74222 68.059C3.90665 68.2237 4.083 68.3683 4.26864 68.5075C4.43572 68.6334 4.59351 68.7633 4.75661 68.8945C4.8375 68.9588 4.91573 69.0284 4.99794 69.0913C5.11065 69.177 5.24325 69.2359 5.36127 69.3163C5.58669 69.4689 5.81741 69.6149 6.03885 69.7729C6.12372 69.8331 6.2046 69.888 6.29345 69.9402C6.43135 70.0219 6.54671 70.1384 6.68064 70.2281C6.91401 70.3848 7.1633 70.5093 7.40596 70.6499C7.68707 70.8119 7.9894 70.9579 8.25991 71.1386C8.35538 71.2016 8.44024 71.2551 8.545 71.2993C8.68423 71.3582 8.79694 71.4586 8.93749 71.5135C9.19606 71.6126 9.4427 71.7626 9.69066 71.8858C9.9121 71.9956 10.1349 72.1214 10.3775 72.179C10.6056 72.2326 10.8231 72.242 11.0564 72.2433C11.6903 72.246 12.3201 72.1067 12.9566 72.1134" stroke="#CB352C" stroke-miterlimit="10"/>
<path d="M13.1223 72.1361C13.3597 72.0839 13.5983 72.0437 13.8357 71.9942C13.9497 71.9701 14.0664 71.9526 14.1831 71.9352C14.333 71.9125 14.4775 71.867 14.626 71.8442C14.9641 71.7933 15.2996 71.7277 15.6377 71.6822C15.9759 71.6366 16.3047 71.5469 16.6428 71.5161C17.1759 71.4693 17.7103 71.4304 18.2367 71.322C18.3229 71.3046 18.4091 71.3006 18.4939 71.2791C18.5788 71.2577 18.6517 71.2095 18.7366 71.1881C18.9647 71.1318 19.1596 70.9819 19.3638 70.8681C19.6343 70.7181 19.869 70.5333 20.1156 70.3472C20.4034 70.1289 20.7084 69.9455 20.9736 69.6978C21.1937 69.4943 21.4164 69.3028 21.6512 69.118C21.7625 69.0296 21.8514 68.9332 21.9508 68.8342C22.0436 68.7418 22.163 68.6762 22.2624 68.5905C22.3672 68.5007 22.4613 68.3963 22.5581 68.2972C22.6629 68.1901 22.7875 68.1044 22.8857 67.9919C22.9665 67.8995 23.0368 67.7964 23.1044 67.6947C23.1628 67.6063 23.1973 67.5099 23.2503 67.4202C23.3763 67.2046 23.4386 66.9636 23.5473 66.74C23.6017 66.6288 23.6402 66.5164 23.6879 66.4026C23.7065 66.3597 23.725 66.2754 23.7754 66.2646" stroke="#CB352C" stroke-miterlimit="10"/>
<path d="M25.2792 42.7734C25.4131 42.8605 25.5285 42.9609 25.6531 43.06C25.7141 43.1082 25.7724 43.1537 25.8268 43.2086" stroke="#CB352C" stroke-miterlimit="10"/>
<path d="M26.7297 43.9009C26.7815 43.9477 26.8345 43.9919 26.8862 44.0388" stroke="#CB352C" stroke-miterlimit="10"/>
<path d="M15.3673 40.8746C15.3235 40.7019 15.2943 40.5292 15.2665 40.3524C15.2453 40.2158 15.1936 40.1114 15.1538 39.9829C15.0755 39.7244 14.9721 39.4848 14.8594 39.2397C14.7997 39.1085 14.7573 38.9679 14.7056 38.8327C14.6459 38.6774 14.5597 38.5354 14.4908 38.3855C14.3741 38.1297 14.3051 37.8459 14.2256 37.5767C14.1871 37.4455 14.1407 37.317 14.1062 37.1844C14.0558 36.9916 14.0399 36.7961 14.0147 36.5979C13.967 36.2243 13.9312 35.8601 13.9325 35.4825C13.9339 34.9496 13.9445 34.4248 13.9776 33.8932C13.9949 33.6147 14.028 33.3375 14.0532 33.0603C14.0718 32.8541 14.0691 32.6439 14.1009 32.4404C14.1699 32.0092 14.3171 31.6035 14.4377 31.1858C14.5876 30.6662 14.7666 30.1547 14.935 29.6419C15.1684 28.9322 15.4747 28.2574 15.7704 27.5732C15.8579 27.3697 15.9679 27.1809 16.0767 26.988C16.2053 26.7564 16.3034 26.5127 16.4254 26.277C16.5262 26.0829 16.6588 25.9061 16.7596 25.7133C16.8391 25.5607 16.9067 25.408 16.9956 25.2608C17.1401 25.0197 17.2595 24.7653 17.3987 24.5216C17.4822 24.3757 17.5446 24.2284 17.6135 24.0758C17.6387 24.0209 17.6798 23.8829 17.7594 23.8937" stroke="#CB352C" stroke-miterlimit="10"/>
<path d="M19.6582 26.4085C19.4301 26.2358 19.2127 26.0604 18.9992 25.8703C18.8573 25.7431 18.6995 25.6373 18.559 25.5087C18.4582 25.4164 18.3614 25.3213 18.2659 25.2249C18.1983 25.1579 18.1028 25.024 17.9994 25.02" stroke="#CB352C" stroke-miterlimit="10"/>
<path d="M17.2489 24.2929C17.1442 24.1537 17.0845 24.0131 16.9983 23.8645C16.9386 23.7627 16.8657 23.6676 16.8087 23.5645C16.7397 23.4387 16.7013 23.3262 16.6774 23.1842C16.6297 22.895 16.6655 22.6179 16.6933 22.33C16.745 21.8185 16.7503 21.299 16.7782 20.7861" stroke="#CB352C" stroke-miterlimit="10"/>
<path d="M16.8246 20.6775C16.8697 20.4418 16.8697 20.1995 16.9174 19.9665C16.9532 19.787 16.9731 19.6103 16.997 19.4295C17.0275 19.2006 17.0845 18.9716 17.1216 18.7426C17.164 18.4762 17.1972 18.2071 17.2396 17.9406C17.3033 17.5335 17.4014 17.1292 17.4902 16.7275C17.538 16.5146 17.5671 16.303 17.6613 16.1035C17.7249 15.9683 17.8125 15.8478 17.8761 15.7125C17.953 15.5505 18.0153 15.3938 18.1108 15.2399C18.2792 14.9667 18.4569 14.7056 18.6054 14.4204C18.7022 14.2343 18.8255 14.0442 18.9528 13.8768C19.0417 13.7616 19.1278 13.6451 19.2193 13.5327C19.393 13.3157 19.6079 13.1336 19.7908 12.9221C19.9937 12.6891 20.2244 12.4601 20.3836 12.195C20.5162 11.9741 20.6766 11.7732 20.8132 11.555C20.9856 11.2792 21.154 11.0006 21.3237 10.7221C21.3966 10.6016 21.4682 10.4784 21.5359 10.3539C21.5796 10.2736 21.6128 10.1812 21.6685 10.1089" stroke="#CB352C" stroke-miterlimit="10"/>
<path d="M21.699 10.0742C22.0875 9.49709 22.4601 8.91464 22.8632 8.34825C23.0595 8.07242 23.3048 7.83274 23.4692 7.53816C23.6336 7.24359 23.8431 6.98115 24.0155 6.6946C24.1879 6.40806 24.3934 6.12688 24.5684 5.8323C24.7634 5.50291 24.9822 5.18959 25.2076 4.88028C25.3972 4.62052 25.547 4.338 25.7565 4.09162C25.9965 3.81044 26.2936 3.57344 26.5879 3.35384C27.0945 2.97625 27.7071 2.76737 28.3051 2.59598C28.5053 2.5384 28.7162 2.53037 28.9177 2.47413C29.1577 2.40718 29.3991 2.30542 29.6324 2.21705C30.0103 2.07244 30.375 1.89435 30.7595 1.76849C31.0937 1.65869 31.4159 1.51542 31.7448 1.38956C32.4409 1.12444 33.1543 1.01063 33.8929 1.09766" stroke="#CB352C" stroke-miterlimit="10"/>
<path d="M34.0944 1.16211C34.5479 1.25584 35.0159 1.42991 35.4283 1.64414C36.1589 2.02307 36.8471 2.46762 37.4969 2.97241C38.0684 3.41696 38.6757 3.80794 39.2578 4.23641C39.5084 4.42119 39.6967 4.69702 39.8903 4.93804C40.1369 5.246 40.4287 5.51246 40.6793 5.81641C40.9697 6.16722 41.2853 6.48858 41.5531 6.85948C41.9628 7.42855 42.3673 8.00297 42.7903 8.56132C43.1589 9.04871 43.5845 9.52137 43.871 10.0663C44.0341 10.377 44.1693 10.6876 44.2847 11.0184C44.4358 11.4482 44.6414 11.8566 44.7939 12.285C44.9463 12.7135 45.1081 13.1688 45.246 13.6133C45.3216 13.8543 45.4118 14.09 45.4993 14.327C45.5484 14.4569 45.6186 14.5988 45.6186 14.7407" stroke="#CB352C" stroke-miterlimit="10"/>
<path d="M45.6598 14.9067C45.7446 15.3406 45.8374 15.7677 45.8931 16.2056C45.9488 16.6434 45.9806 17.0638 45.982 17.503C45.9833 17.9851 45.9051 18.4644 45.8573 18.9438C45.8043 19.466 45.6863 19.9761 45.5882 20.4916C45.4078 21.441 45.262 22.3983 45.0326 23.3356C44.9702 23.5927 44.896 23.8498 44.8562 24.1122C44.8217 24.3412 44.7859 24.5621 44.7263 24.7871C44.6719 24.9933 44.6454 25.1941 44.6109 25.4044C44.5923 25.5168 44.5313 25.6481 44.5486 25.7619" stroke="#CB352C" stroke-miterlimit="10"/>
<path d="M44.5141 26.7002C44.5049 26.8435 44.4969 26.9921 44.4744 27.1354C44.4637 27.2063 44.4332 27.2786 44.4425 27.3523" stroke="#CB352C" stroke-miterlimit="10"/>
<path d="M45.4622 23.0757C46.1557 23.7706 46.7298 24.562 47.3239 25.3439C47.6156 25.7282 47.906 26.1513 48.1473 26.5691C48.3886 26.9869 48.7228 27.3859 48.9986 27.8076C49.232 28.1638 49.5224 28.4637 49.712 28.8427C49.8446 29.1078 50.0806 29.3261 50.1787 29.6005C50.3591 30.1067 50.4546 30.6516 50.5726 31.1738C50.7251 31.846 50.8828 32.5115 51.0486 33.1796C51.2793 34.1062 51.3934 35.0837 51.5246 36.029C51.6678 37.0587 52.0444 38.0361 52.2738 39.0444C52.3454 39.3577 52.4144 39.6643 52.4581 39.983C52.5284 40.4891 52.4329 40.9886 52.4024 41.4907C52.3759 41.9406 52.3136 42.3878 52.2553 42.8337C52.177 43.4188 52.006 43.9732 51.8548 44.5463C51.4093 46.228 50.6826 47.7933 49.8724 49.3224C49.6099 49.8178 49.3938 50.3427 49.1232 50.8314C49.0344 50.9908 48.923 51.1582 48.8793 51.3349C48.8501 51.4541 48.8355 51.5478 48.7506 51.6442" stroke="#CB352C" stroke-miterlimit="10"/>
<path d="M49.9785 49.5889C50.1827 49.8446 50.3312 50.1204 50.5142 50.3896C50.6574 50.5998 50.7993 50.81 50.9412 51.0216C51.225 51.446 51.5909 51.8089 51.8813 52.2267C52.1306 52.5855 52.4436 52.8908 52.7061 53.2376C52.8387 53.413 52.958 53.5991 53.0973 53.7665C53.1835 53.8709 53.2723 53.978 53.328 54.1012C53.4593 54.3945 53.5998 54.673 53.694 54.9809C53.7881 55.2889 53.9287 55.5768 54.0202 55.8834C54.1289 56.2503 54.2655 56.6078 54.3702 56.976C54.4153 57.134 54.4326 57.3001 54.467 57.4594C54.4896 57.5625 54.5333 57.6629 54.5519 57.766C54.5784 57.9133 54.5598 58.0713 54.524 58.2146C54.4458 58.5212 54.3676 58.8037 54.2496 59.0983C54.0812 59.5147 53.9075 59.9245 53.7072 60.3262C53.6781 60.3864 53.6051 60.6971 53.5044 60.7091" stroke="#CB352C" stroke-miterlimit="10"/>
<path d="M52.9222 61.5552L52.8135 61.7025" stroke="#CB352C" stroke-miterlimit="10"/>
<path d="M37.6176 72.7762C37.774 72.7843 37.9504 73.0226 38.0578 73.1043C38.3933 73.3574 38.7314 73.6131 39.0722 73.8581C39.2711 74.0014 39.4832 74.1219 39.6927 74.2478C39.9023 74.3736 40.1224 74.5156 40.3544 74.6214C40.7244 74.7901 41.1089 74.9253 41.4775 75.0954C41.7401 75.2172 42.0066 75.3243 42.2837 75.41C42.4468 75.4596 42.6086 75.5131 42.7717 75.568C42.9534 75.6283 43.1218 75.7126 43.3008 75.7782C43.6588 75.9108 44.0235 76.0206 44.3735 76.1759C44.7435 76.3393 45.1201 76.4812 45.498 76.6272C45.9448 76.7999 46.3745 76.994 46.8518 77.0583C47.2311 77.1105 47.601 77.1266 47.9816 77.0931C48.6234 77.0382 49.224 76.8494 49.8234 76.6178C50.1151 76.5053 50.4188 76.4236 50.7039 76.2964C50.9558 76.1853 51.2263 76.1291 51.4782 76.0179C51.7302 75.9068 51.9927 75.8104 52.2526 75.718C52.5125 75.6256 52.7631 75.4663 53.0217 75.3578L53.0045 75.41C53.0761 75.327 53.1967 75.2868 53.2935 75.2413C53.4407 75.1717 53.5892 75.1087 53.7417 75.0539C54.044 74.9454 54.3358 74.8061 54.6328 74.6843C55.2282 74.4406 55.7453 74.0443 56.2863 73.7028C56.7265 73.4243 57.1416 73.1244 57.485 72.724C57.6494 72.5325 57.782 72.3089 57.9146 72.0947C58.0658 71.8483 58.2316 71.6194 58.396 71.3837C58.579 71.1226 58.7381 70.8494 58.9091 70.579C59.0099 70.4183 59.1266 70.267 59.23 70.109C59.3335 69.951 59.425 69.7769 59.5257 69.6122C59.6491 69.4087 59.8002 69.2427 59.905 69.0258C60.0376 68.7499 60.1954 68.4808 60.3452 68.2143C60.495 67.9479 60.6833 67.6747 60.8345 67.3922C60.9936 67.0949 61.1501 66.7977 61.3092 66.5004C61.5492 66.0519 61.7587 65.5819 61.8542 65.0811L61.8926 64.8401C61.9841 64.6058 61.8993 64.3527 61.8926 64.1103C61.882 63.7461 61.8476 63.386 61.821 63.0218C61.7587 62.1581 61.7428 61.3025 61.5505 60.4549C61.4816 60.1496 61.353 59.8765 61.2323 59.5899C61.166 59.4306 61.0652 59.294 60.9883 59.14C60.8955 58.9539 60.8159 58.7625 60.7138 58.5804C60.5282 58.2523 60.3319 57.9296 60.145 57.6029C59.9143 57.2012 59.6716 56.8008 59.421 56.4125C59.1531 55.9975 58.9065 55.581 58.5975 55.1954C58.4344 54.9919 58.2859 54.7776 58.1281 54.5714C58.0327 54.4456 57.9451 54.2983 57.8232 54.1979C57.676 54.076 57.5328 53.9502 57.3591 53.8671C57.2556 53.8176 57.1933 53.8283 57.0832 53.827C56.9559 53.8256 56.8273 53.7962 56.7014 53.7801C56.407 53.7426 56.11 53.7252 55.8169 53.681C55.4735 53.6288 55.1327 53.5444 54.7906 53.4869C54.528 53.4427 54.2655 53.4012 54.0043 53.3476C53.6688 53.2793 53.3267 53.2606 52.9899 53.2017" stroke="#CB352C" stroke-miterlimit="10"/>
<path d="M17.0474 62.8076C17.6122 62.7634 18.1771 62.7634 18.7367 62.8638C18.8666 62.8866 18.9846 62.8906 19.1159 62.8906C19.2472 62.8906 19.3745 62.9 19.5018 62.8651C19.6291 62.8303 19.7498 62.7567 19.8717 62.7004C19.9937 62.6442 20.0919 62.5759 20.2032 62.5103C20.3239 62.4393 20.4539 62.3684 20.5798 62.3135" stroke="#CB352C" stroke-miterlimit="10"/>
<path d="M21.1234 61.8743C21.2839 61.7846 21.4456 61.7016 21.6127 61.6279" stroke="#CB352C" stroke-miterlimit="10"/>
<path d="M23.6521 67.1147C23.9146 67.2125 24.1785 67.3035 24.445 67.3906C24.6837 67.4682 24.9264 67.5151 25.169 67.5767C25.3454 67.6209 25.5072 67.6972 25.6835 67.7387C25.8599 67.7802 26.0349 67.8217 26.21 67.8646C26.3094 67.8887 26.4102 67.8967 26.5096 67.9181C26.6595 67.9503 26.7907 68.0373 26.918 68.1176C27.2376 68.3198 27.5452 68.5367 27.8608 68.7429C27.9775 68.8193 28.0982 68.8742 28.2069 68.9625C28.2865 69.0268 28.366 69.0589 28.4549 69.1031C28.5503 69.1527 28.6166 69.1795 28.7307 69.1902C28.9203 69.2076 29.1192 69.2143 29.3101 69.2183C29.692 69.2277 30.0607 69.1326 30.4213 69.0121C30.6375 68.9398 30.8483 68.8019 31.0817 68.8045" stroke="#CB352C" stroke-miterlimit="10"/>
<path d="M29.2147 65.7974C29.4998 65.8817 29.7929 65.9286 30.0753 66.0143C30.2583 66.0705 30.4426 66.1201 30.6282 66.1696C31.0101 66.2727 31.3735 66.4093 31.7341 66.57C32.1836 66.7695 32.6504 66.9409 33.1158 67.0948C33.3068 67.1578 33.5043 67.1926 33.694 67.2555C33.8478 67.3064 33.9963 67.3559 34.1541 67.3961C34.4524 67.4711 34.764 67.447 35.0677 67.4189C35.4721 67.3814 35.8739 67.3439 36.277 67.2863C36.6801 67.2287 37.1084 67.1712 37.5234 67.1002C37.6799 67.0734 37.8351 67.0359 37.9928 67.0132C38.087 66.9998 38.2063 66.965 38.3018 66.9757" stroke="#CB352C" stroke-miterlimit="10"/>
<path d="M39.0696 66.9141C39.1531 66.9195 39.2353 66.9101 39.3149 66.8833" stroke="#CB352C" stroke-miterlimit="10"/>
<path d="M35.8474 69.4769C36.4865 69.7099 37.0899 70.1571 37.7794 70.2281C38.0433 70.2548 38.3257 70.2923 38.5909 70.2722C38.8853 70.2495 39.173 70.2495 39.4687 70.2441C39.6013 70.2415 39.7313 70.216 39.8639 70.216C40.0084 70.216 40.1609 70.2361 40.3054 70.2495C40.5905 70.2763 40.8783 70.3097 41.158 70.37C41.3158 70.4048 41.4736 70.4195 41.6341 70.441C41.7945 70.4624 41.9444 70.5026 42.1022 70.524C42.3528 70.5561 42.6166 70.5883 42.8686 70.5963C43.0542 70.6016 43.2412 70.5936 43.4268 70.5949C43.5117 70.5949 43.6032 70.6043 43.6881 70.5909C43.7809 70.5762 43.8697 70.5333 43.9599 70.5079C44.42 70.3767 44.7847 70.0165 45.1745 69.7581C45.4251 69.592 45.6691 69.4099 45.9011 69.2158C46.1531 69.0056 46.4302 68.8409 46.6941 68.6481C46.9208 68.482 47.1516 68.2999 47.4048 68.1741C47.4579 68.1473 47.5136 68.1299 47.5666 68.1058C47.6104 68.0857 47.6554 68.0455 47.7045 68.0415" stroke="#CB352C" stroke-miterlimit="10"/>
<path d="M48.3661 67.625C48.4854 67.5085 48.6194 67.4335 48.7546 67.3384C48.8368 67.2808 48.9071 67.2206 48.9986 67.1777" stroke="#CB352C" stroke-miterlimit="10"/>
<path d="M49.7584 66.2527C49.8207 66.167 49.8804 66.0786 49.9494 65.9983C49.9759 65.9675 50.0104 65.9434 50.0104 65.9019" stroke="#CB352C" stroke-miterlimit="10"/>
<path d="M35.9932 67.605C35.9906 68.2182 36.0158 68.8302 36.0158 69.4434C36.0158 69.9643 36.0025 70.4851 36.0158 71.006C36.0224 71.2671 36.041 71.5242 36.0396 71.7853C36.0396 71.8415 36.0317 71.9018 36.041 71.958C36.0463 71.9942 36.0648 72.0263 36.0622 72.0624" stroke="#CB352C" stroke-miterlimit="10"/>
<path d="M36.1099 73.9678C36.1231 74.5596 36.1616 75.1501 36.1377 75.7433C36.1258 76.0419 36.1576 76.3418 36.1576 76.6404C36.1576 76.8131 36.1549 76.9845 36.1563 77.1572C36.1589 77.6071 36.2212 78.0557 36.2292 78.5056C36.2372 78.9555 36.2637 79.4388 36.2637 79.9048C36.2637 80.5917 36.2902 81.28 36.3101 81.9669C36.3366 82.9175 36.4042 83.8655 36.4188 84.8162C36.4294 85.5058 36.5302 86.1927 36.5687 86.8796C36.5872 87.2063 36.5766 87.533 36.5859 87.8611C36.5952 88.1891 36.6164 88.5305 36.6283 88.8653" stroke="#CB352C" stroke-miterlimit="10"/>
<path d="M36.5899 88.9282C36.6562 89.6473 36.643 90.3837 36.6324 91.1054C36.6218 91.7749 36.5952 92.4484 36.5594 93.1166C36.5117 93.9936 36.5409 94.8867 36.5488 95.7664C36.5528 96.2163 36.5793 96.6649 36.6019 97.1134C36.6337 97.7213 36.6324 98.3265 36.6324 98.9344C36.6324 99.9561 36.5753 100.976 36.5899 101.998C36.5979 102.531 36.6297 103.061 36.6337 103.593C36.6403 104.428 36.631 105.265 36.6297 106.102C36.6284 107.359 36.6841 108.613 36.7915 109.865C36.8803 110.897 36.9599 111.923 36.9519 112.96" stroke="#CB352C" stroke-miterlimit="10"/>
<path d="M36.875 113.003C36.9294 113.659 36.9572 114.31 36.9546 114.969C36.9532 115.477 36.9824 115.982 36.993 116.491C37.0049 117.039 37.0368 117.592 37.0739 118.138C37.0951 118.446 37.1203 118.749 37.0938 119.058C37.0713 119.312 37.1004 119.557 37.1084 119.812C37.1495 121.026 37.2357 122.234 37.2317 123.45C37.2304 124.079 37.2728 124.704 37.2728 125.334C37.2728 125.85 37.2728 126.367 37.2728 126.884" stroke="#CB352C" stroke-miterlimit="10"/>
<path d="M27.5691 127.744C27.6778 127.736 27.7826 127.709 27.882 127.666C27.939 127.632 27.9961 127.594 28.0518 127.555C28.1711 127.484 28.309 127.452 28.4429 127.423C28.5649 127.395 28.6896 127.378 28.8155 127.37C28.9203 127.364 28.9879 127.33 29.0834 127.29C29.2969 127.199 29.513 127.14 29.7199 127.03C29.8737 126.949 30.0461 126.85 30.2184 126.817C30.367 126.789 30.5009 126.817 30.6428 126.751C30.9013 126.629 31.0896 126.504 31.3893 126.566C31.6717 126.623 31.9648 126.721 32.2565 126.7C32.6039 126.674 32.9235 126.518 33.2656 126.467C33.5613 126.424 33.8543 126.417 34.1248 126.278C34.2177 126.23 34.3092 126.18 34.402 126.133C34.5319 126.066 34.6287 126.064 34.7719 126.062C35.0835 126.058 35.3898 125.938 35.7001 125.973C35.8592 125.99 35.9918 126.005 36.1523 125.989C36.257 125.978 36.3631 125.971 36.4679 125.962C36.623 125.947 36.7861 125.931 36.9413 125.946C37.0964 125.961 37.2237 126.025 37.3682 126.065C37.6626 126.147 37.9848 126.065 38.2673 126.202C38.3508 126.242 38.4105 126.307 38.4808 126.365C38.5775 126.444 38.6903 126.495 38.795 126.563C38.8998 126.631 38.97 126.716 39.0443 126.811C39.1411 126.933 39.2061 127.005 39.3533 127.061C39.4925 127.113 39.633 127.145 39.7749 127.187C39.8598 127.211 39.9765 127.233 40.0441 127.294" stroke="#CB352C" stroke-miterlimit="10"/>
<path d="M26.6687 128.065C26.5852 128.099 26.4645 128.127 26.385 128.173C26.3425 128.197 26.316 128.231 26.2722 128.253C26.1967 128.292 26.1171 128.308 26.0336 128.305" stroke="#CB352C" stroke-miterlimit="10"/>
<path d="M25.2646 128.68C25.1638 128.7 25.0603 128.717 24.9622 128.747C24.8986 128.765 24.8336 128.798 24.7673 128.808C24.7222 128.816 24.6745 128.811 24.6294 128.818C24.5551 128.83 24.4915 128.859 24.4172 128.866" stroke="#CB352C" stroke-miterlimit="10"/>
<path d="M40.2046 127.376C40.4022 127.451 40.617 127.486 40.8092 127.573C40.9432 127.633 41.0559 127.712 41.1792 127.786C41.3025 127.859 41.4497 127.91 41.5942 127.938C41.6765 127.954 41.7613 127.964 41.8409 127.992C41.8966 128.011 41.9483 128.043 42.0026 128.067" stroke="#CB352C" stroke-miterlimit="10"/>
<path d="M42.8818 128.521C43.0065 128.583 43.1099 128.634 43.2491 128.64C43.3313 128.642 43.4056 128.672 43.4878 128.679" stroke="#CB352C" stroke-miterlimit="10"/>
<path d="M44.4054 128.857C44.5088 128.857 44.6123 128.851 44.7157 128.859C44.8085 128.866 44.8867 128.896 44.9756 128.918C45.0777 128.945 45.1851 128.933 45.2845 128.896" stroke="#CB352C" stroke-miterlimit="10"/>
<path d="M31.3668 126.328C31.2779 125.687 31.3177 125.033 31.3177 124.387C31.3177 123.834 31.2899 123.272 31.3283 122.719C31.3999 121.701 31.3668 120.676 31.3668 119.655C31.3668 119.14 31.3814 118.623 31.3562 118.108C31.3204 117.382 31.3283 116.66 31.319 115.933C31.3111 115.312 31.2793 114.69 31.2673 114.069C31.2554 113.448 31.2819 112.827 31.2713 112.207C31.258 111.492 31.2169 110.779 31.2169 110.063C31.2169 109.136 31.2885 108.215 31.2647 107.287C31.213 105.297 31.1334 103.313 31.2196 101.323C31.2779 99.9844 31.2965 98.6468 31.2328 97.3078C31.1917 96.4562 31.1984 95.6046 31.1599 94.7543C31.1029 93.5158 31.0154 92.2638 31.0233 91.0239" stroke="#CB352C" stroke-miterlimit="10"/>
<path d="M31.0061 90.9635C31.0114 90.2338 30.9345 89.5134 30.9053 88.7863C30.8934 88.4703 30.9066 88.1543 30.8907 87.8383C30.8748 87.5223 30.8602 87.2237 30.8629 86.9144C30.8668 86.348 30.8085 85.787 30.7939 85.222C30.786 84.9073 30.7913 84.594 30.7939 84.2793C30.7939 84.0115 30.77 83.7477 30.7594 83.4813C30.7435 83.0568 30.7714 82.6324 30.7488 82.2092C30.7236 81.7326 30.6746 81.2572 30.656 80.7806C30.6481 80.5851 30.6706 80.3963 30.6587 80.2008C30.6494 80.0455 30.6481 79.8928 30.6494 79.7375C30.6494 79.6772 30.6096 79.38 30.6852 79.3706" stroke="#CB352C" stroke-miterlimit="10"/>
<path d="M30.6057 75.6828C30.6389 75.4083 30.6256 75.1298 30.6256 74.8526C30.6256 74.7214 30.6389 74.5929 30.6323 74.4603C30.6269 74.3626 30.6269 74.2662 30.6269 74.1684C30.6269 73.7855 30.6269 73.4025 30.6269 73.0196C30.6269 72.8026 30.6495 72.5871 30.6482 72.3702C30.6482 72.176 30.6482 71.9818 30.6482 71.7877V71.2133C30.6482 71.0071 30.6601 70.7955 30.6468 70.5906C30.6309 70.355 30.6269 70.1247 30.6283 69.889C30.6283 69.6801 30.6124 69.4739 30.6084 69.2664C30.6044 69.0589 30.5779 68.854 30.5673 68.6478C30.5567 68.4416 30.5461 68.2595 30.5474 68.0613C30.5474 67.981 30.5421 67.9033 30.5368 67.8243C30.5288 67.7212 30.5381 67.6181 30.5328 67.5137C30.5209 67.3088 30.5262 67.1039 30.5275 66.8991C30.5275 66.7986 30.5209 66.7089 30.5116 66.6099C30.501 66.4987 30.5089 66.3876 30.5076 66.2764C30.5076 66.16 30.4877 66.0435 30.4851 65.927C30.4824 65.8105 30.4851 65.6886 30.4851 65.5708" stroke="#CB352C" stroke-miterlimit="10"/>
<path d="M31.978 80.9155L32.0828 81.0481" stroke="#CB352C" stroke-miterlimit="10"/>
<path d="M31.1679 79.9129C30.7674 79.5541 30.3338 79.2434 29.9135 78.91C29.7093 78.748 29.4772 78.6248 29.277 78.4574C29.1523 78.353 29.0556 78.2231 28.9322 78.1173C28.8089 78.0116 28.6975 77.9205 28.5755 77.8268C28.4005 77.6929 28.2679 77.5202 28.0823 77.3996C27.8449 77.2443 27.642 77.0569 27.4285 76.8707C27.2151 76.6846 26.9432 76.5601 26.7178 76.3767C26.629 76.3044 26.5613 76.2187 26.4831 76.1343C26.3399 75.9817 26.1901 75.8237 26.0336 75.6858C25.8214 75.4996 25.5894 75.3671 25.3401 75.2412C25.2367 75.189 25.1531 75.1327 25.0696 75.0524C24.9423 74.9306 24.8017 74.8261 24.6744 74.7043C24.5405 74.5744 24.4092 74.4311 24.2581 74.32C24.1401 74.233 24.0035 74.1861 23.8696 74.1325C23.6256 74.0348 23.3869 73.9049 23.1761 73.7469C23.0594 73.6585 22.948 73.5527 22.8485 73.4456C22.7769 73.3693 22.7186 73.2769 22.639 73.2073C22.5515 73.131 22.4415 73.0868 22.3486 73.0198C22.2266 72.9315 22.1245 72.8324 21.9906 72.7601C21.7612 72.6369 21.565 72.4749 21.3886 72.2847C21.2467 72.1321 21.0823 72.0035 20.9192 71.875C20.6752 71.6822 20.4856 71.4385 20.3676 71.1479C20.2164 70.7703 20.0812 70.3914 19.9645 70.0018C19.8916 69.7541 19.7974 69.5157 19.7404 69.2627C19.6874 69.0257 19.6595 68.782 19.6158 68.5436C19.572 68.3053 19.5349 68.0683 19.4712 67.8313C19.4288 67.6733 19.4142 67.5006 19.3479 67.3506" stroke="#CB352C" stroke-miterlimit="10"/>
<path d="M31.3774 76.2696C31.0698 76.0179 30.7317 75.8157 30.4108 75.584C30.0899 75.3524 29.8578 75.0792 29.5754 74.8221C29.3129 74.5851 29.0158 74.3709 28.7069 74.2035C28.3701 74.0214 28.0571 73.83 27.7694 73.5729C27.6089 73.4296 27.4684 73.2663 27.3133 73.1163C27.1899 72.9971 27.056 72.8927 26.9234 72.7856C26.6529 72.5673 26.3572 72.4709 26.0456 72.3316C25.7539 72.2018 25.4966 72.0036 25.2248 71.8362C24.953 71.6688 24.7169 71.4774 24.4226 71.3716C24.3244 71.3368 24.2356 71.2886 24.1441 71.239C23.9982 71.1587 23.8431 71.0998 23.6866 71.0435C23.5302 70.9873 23.3843 70.9445 23.2517 70.8561C23.1191 70.7677 23.0037 70.6552 22.8725 70.5655C22.663 70.4222 22.4495 70.2937 22.2784 70.1022C22.0835 69.884 21.9734 69.6349 21.8594 69.3685C21.7162 69.0324 21.6168 68.6869 21.4895 68.3455C21.3622 68.004 21.211 67.668 21.0797 67.3265C20.9644 67.0253 20.9233 66.7026 20.8158 66.3986C20.7628 66.2473 20.7071 66.0973 20.6501 65.9474C20.609 65.855 20.5758 65.7599 20.5506 65.6608C20.548 65.618 20.5308 65.5818 20.5016 65.5537" stroke="#CB352C" stroke-miterlimit="10"/>
<path d="M19.3082 67.2326C19.1411 66.8189 18.9992 66.4025 18.9409 65.9579C18.8826 65.5134 18.7248 65.1492 18.62 64.7381C18.5776 64.5707 18.5471 64.4047 18.5298 64.2333C18.5086 64.0218 18.441 63.8356 18.388 63.6321C18.3389 63.4447 18.3217 63.2532 18.2885 63.0617C18.2739 62.98 18.2514 62.901 18.2447 62.818C18.2394 62.7551 18.2408 62.7109 18.2156 62.6533" stroke="#CB352C" stroke-miterlimit="10"/>
<path d="M20.4817 65.4547C20.3544 65.207 20.2151 64.9726 20.1091 64.7142C20.0123 64.4799 19.9924 64.2282 19.9221 63.9858C19.8452 63.722 19.7882 63.4529 19.7139 63.1878C19.6595 62.995 19.6237 62.7981 19.6012 62.5986" stroke="#CB352C" stroke-miterlimit="10"/>
<path d="M36.3433 74.5476C36.5236 74.3709 36.7079 74.1968 36.8922 74.0254C36.9957 73.929 37.1084 73.8473 37.2105 73.7496C37.2913 73.6719 37.3709 73.5956 37.4491 73.5152C37.6732 73.2876 37.9252 73.0894 38.1678 72.8832C38.4105 72.677 38.6359 72.4548 38.864 72.2352C39.0921 72.0156 39.3453 71.8121 39.5628 71.5791C39.7418 71.3876 39.9314 71.2095 40.1157 71.0234C40.3107 70.8266 40.5361 70.6619 40.723 70.457C40.8053 70.366 40.8914 70.2789 40.9776 70.1919" stroke="#CB352C" stroke-miterlimit="10"/>
<path d="M36.1166 71.1798C36.2996 71.0981 36.4905 71.0285 36.6655 70.9294C36.818 70.8424 36.9467 70.7245 37.0938 70.6295C37.2052 70.5572 37.3179 70.4982 37.4253 70.4179C37.5115 70.355 37.6017 70.3081 37.6998 70.2666" stroke="#CB352C" stroke-miterlimit="10"/>
<path d="M5.51238 51.4394C5.60785 51.8251 5.6821 52.216 5.7736 52.6017C5.84785 52.9123 5.94067 53.2712 6.12764 53.5349C6.31461 53.7987 6.58909 53.9714 6.82379 54.1776C7.07838 54.4013 7.29982 54.6316 7.58889 54.8137C7.91244 55.0172 8.22405 55.1926 8.57544 55.3412C8.92683 55.4898 9.30871 55.6519 9.66276 55.8353C9.98232 56.0013 10.2939 56.1781 10.6334 56.2973C10.9728 56.4164 11.3468 56.4994 11.7114 56.561C12.458 56.6856 13.2005 56.8047 13.9351 56.9975C14.6697 57.1904 15.3632 57.4849 16.0793 57.7393C16.4333 57.8652 16.7966 57.9683 17.1692 58.0165C17.5419 58.0647 17.8946 58.0821 18.2566 58.1263C18.6544 58.1745 19.0535 58.1732 19.4539 58.1892C19.8544 58.2053 20.2853 58.2575 20.6991 58.3097C21.0703 58.3566 21.4403 58.3995 21.8129 58.4329C22.1855 58.4664 22.5422 58.5334 22.871 58.7221C23.1999 58.9109 23.4744 59.1466 23.7794 59.3555C23.9239 59.4546 24.079 59.5363 24.2289 59.626C24.3787 59.7157 24.5206 59.8322 24.6744 59.9246C24.9807 60.1093 25.3387 60.1816 25.6384 60.3852C25.9593 60.6048 26.2404 60.8833 26.5374 61.1337C26.8093 61.3613 27.0904 61.5541 27.4007 61.7215C27.5505 61.8018 27.7003 61.8808 27.8435 61.9732C27.9987 62.0723 28.1419 62.1928 28.3143 62.2611C28.4548 62.3173 28.6047 62.3347 28.7532 62.3588C28.9428 62.3896 29.1231 62.4445 29.3048 62.5048C29.6522 62.6186 29.9917 62.7538 30.3378 62.869C30.6653 62.9774 31.0008 63.0712 31.3442 63.1113C31.7287 63.1569 32.1 63.1113 32.4819 63.0591C33.2841 62.9507 34.1142 63.0444 34.9058 63.1957C35.2519 63.2626 35.6205 63.2693 35.9348 63.4434C36.2491 63.6175 36.5302 63.817 36.8617 63.9562C37.5645 64.2521 38.2911 64.4865 38.9806 64.8145C39.6701 65.1426 40.239 65.5844 40.7946 66.0839C41.3502 66.5833 41.7917 67.1765 42.2665 67.7442C42.4998 68.0241 42.7345 68.2945 43.005 68.5382C43.253 68.7618 43.5089 68.9841 43.6959 69.2653C43.7927 69.4112 43.863 69.5706 43.9438 69.7246C44.034 69.8986 44.0778 70.0767 44.1507 70.2561L44.1958 70.1731L44.1295 70.1905C44.0473 70.212 44.0844 70.3405 44.1666 70.3191L44.2329 70.3017C44.2647 70.2936 44.2913 70.2508 44.278 70.2187C44.2197 70.074 44.1892 69.9214 44.1215 69.7795C44.0446 69.6188 43.9651 69.4527 43.8749 69.2988C43.7197 69.0336 43.5063 68.8141 43.2822 68.6079C42.7345 68.1044 42.228 67.546 41.7745 66.9515C41.321 66.357 40.78 65.867 40.1952 65.405C39.6516 64.9765 39.0416 64.6766 38.4051 64.4142C37.7024 64.1249 36.9426 63.9241 36.2995 63.5117C36.013 63.3269 35.7584 63.193 35.4177 63.1448C35.057 63.0939 34.699 63.0283 34.3383 62.9761C33.9776 62.9239 33.5918 62.881 33.2139 62.8757C32.8174 62.8703 32.4355 62.9426 32.043 62.9815C31.2779 63.0591 30.5645 62.8141 29.8538 62.557C29.505 62.4311 29.1523 62.2892 28.785 62.2289C28.6047 62.1995 28.4257 62.1781 28.2626 62.0897C28.0995 62.0013 27.9523 61.8795 27.7918 61.7857C27.4617 61.5916 27.1209 61.4323 26.8172 61.1926C26.5136 60.9529 26.2523 60.7052 25.962 60.4695C25.6954 60.2526 25.4196 60.104 25.1027 59.9754C24.7619 59.8375 24.4874 59.6206 24.1705 59.4398C23.5592 59.0904 23.0487 58.536 22.3459 58.3754C22.029 58.303 21.7002 58.2937 21.378 58.2589C20.9828 58.216 20.5903 58.1584 20.1952 58.1142C19.8 58.0701 19.4009 58.0527 19.0018 58.0406C18.6027 58.0286 18.2168 57.9777 17.823 57.9429C17.4291 57.908 17.0327 57.8786 16.6441 57.7755C16.2556 57.6724 15.9122 57.5372 15.5555 57.3966C14.8434 57.1154 14.1208 56.8891 13.3742 56.723C12.6277 56.557 11.905 56.4914 11.1837 56.3173C10.4093 56.1299 9.74497 55.7027 9.01965 55.3867C8.6656 55.2328 8.2983 55.1029 7.96945 54.898C7.64061 54.6932 7.34889 54.5057 7.08501 54.2433C6.84633 54.0063 6.56257 53.8201 6.33317 53.5738C6.08786 53.3113 5.98311 52.9056 5.90089 52.5628C5.8094 52.1759 5.73382 51.7862 5.63967 51.4006C5.61846 51.3176 5.49249 51.3551 5.51238 51.4381V51.4394Z" fill="#E5DBC6"/>
<path d="M30.8178 74.5566C31.4742 74.9261 32.218 75.0627 32.9195 75.3104C33.1038 75.376 33.2377 75.4952 33.3942 75.6077C33.5401 75.7121 33.7138 75.7804 33.8795 75.8447C34.2415 75.9853 34.6128 76.0723 34.996 76.1312C35.1936 76.1607 35.4084 76.2183 35.6086 76.1861C35.7028 76.17 35.7943 76.1446 35.8897 76.1406C36.0011 76.1366 36.1112 76.1473 36.2226 76.1486C36.3074 76.1486 36.3048 76.0161 36.2199 76.0147C36.0409 76.0134 35.8685 75.996 35.6908 76.0335C35.606 76.0509 35.5251 76.0683 35.4376 76.0603C35.3355 76.0509 35.2347 76.0321 35.1339 76.0174C34.7587 75.9625 34.394 75.8902 34.036 75.7617C33.8636 75.7001 33.6859 75.6331 33.5281 75.538C33.3703 75.443 33.2457 75.3064 33.0746 75.2301C32.9036 75.1538 32.7378 75.1122 32.5694 75.06C32.401 75.0078 32.218 74.9556 32.043 74.902C31.6439 74.7802 31.2461 74.6463 30.8801 74.4414C30.8059 74.3999 30.7409 74.5164 30.8151 74.5579L30.8178 74.5566Z" fill="#E5DBC6"/>
<path d="M14.2666 31.7616C14.3939 31.929 14.5252 32.095 14.6286 32.2798C14.7321 32.4645 14.7864 32.6788 14.8607 32.8823C15.0105 33.2934 15.224 33.687 15.4958 34.0285C15.7677 34.3699 16.1138 34.6725 16.4174 35.0006C16.7211 35.3286 16.9067 35.6794 17.0976 36.0624C17.2886 36.4453 17.4756 36.7975 17.7633 37.1014C18.0961 37.4523 18.4568 37.7736 18.8201 38.0896C19.1834 38.4056 19.5534 38.7042 19.8889 39.0443C20.0546 39.2117 20.2151 39.3857 20.3967 39.5344C20.5638 39.6709 20.7468 39.7861 20.9404 39.8798C21.1685 39.991 21.4178 40.0593 21.6352 40.1918C21.8527 40.3244 22.0503 40.5292 22.2266 40.7207C22.3102 40.8118 22.3804 40.9149 22.46 41.0099C22.5396 41.105 22.631 41.1719 22.7292 41.2429C22.9175 41.3795 22.9785 41.6178 23.1548 41.7651C23.2211 41.82 23.3126 41.7236 23.2463 41.6687C23.0951 41.5442 23.0368 41.342 22.8949 41.2081C22.8193 41.1358 22.7252 41.0889 22.6483 41.018C22.5608 40.939 22.4945 40.8399 22.4215 40.7475C22.277 40.5627 22.1033 40.3953 21.9243 40.244C21.7585 40.1048 21.5822 40.0057 21.3833 39.9254C21.1844 39.845 20.9722 39.758 20.78 39.6442C20.5757 39.5223 20.3967 39.3683 20.227 39.201C20.0573 39.0336 19.9127 38.8756 19.7443 38.7229C19.5614 38.5569 19.3757 38.3962 19.1888 38.2356C18.8321 37.9276 18.4727 37.6196 18.1346 37.2916C17.9662 37.1282 17.7925 36.9608 17.6519 36.7707C17.5326 36.6087 17.4318 36.432 17.339 36.2539C17.148 35.887 16.9849 35.5027 16.7343 35.172C16.4678 34.8212 16.1283 34.5346 15.8287 34.2133C15.4866 33.8464 15.2107 33.4192 15.0251 32.9506C14.9363 32.7283 14.8846 32.4927 14.7745 32.2784C14.6644 32.0642 14.5186 31.8807 14.3767 31.6933C14.325 31.625 14.2109 31.6933 14.264 31.7629L14.2666 31.7616Z" fill="#E5DBC6"/>
<path d="M46.0748 69.2559C46.3068 69.5518 46.5362 69.8531 46.8028 70.1182C47.0693 70.3833 47.3968 70.6069 47.7548 70.7636C48.142 70.9323 48.5491 71.0474 48.9548 71.1666C49.1591 71.2269 49.3646 71.2884 49.5635 71.3674C49.773 71.4505 49.9732 71.5562 50.1734 71.6567C50.55 71.8468 50.9293 72.0276 51.3363 72.1427C51.7434 72.2579 52.1505 72.3181 52.5642 72.3462C53.0031 72.3757 53.4394 72.3556 53.8783 72.3489C54.3172 72.3422 54.7747 72.4293 55.2255 72.4426C55.7188 72.4574 56.2001 72.3315 56.6881 72.278C56.9374 72.2512 57.188 72.2324 57.4373 72.2056C57.5513 72.1936 57.6614 72.1802 57.7688 72.1374C57.8762 72.0945 57.9756 72.0436 58.0817 72.0035C58.1613 71.974 58.1241 71.8441 58.0446 71.8749C57.9557 71.9084 57.8696 71.9512 57.782 71.9874C57.6786 72.0316 57.5778 72.0543 57.4664 72.0664C57.2503 72.0905 57.0328 72.1079 56.8154 72.1293C56.3871 72.1708 55.9667 72.2686 55.5384 72.2994C55.1101 72.3302 54.6673 72.2431 54.2297 72.219C53.7921 72.1949 53.3598 72.2364 52.9249 72.2271C52.5152 72.2177 52.1054 72.1815 51.7036 72.0958C51.3019 72.0101 50.9001 71.8642 50.5209 71.6794C50.1416 71.4946 49.769 71.2884 49.3659 71.1519C48.9628 71.0153 48.5637 70.9216 48.1699 70.7823C47.7455 70.6323 47.3477 70.4368 47.0109 70.1316C46.7006 69.849 46.4447 69.5143 46.1875 69.1849C46.1358 69.118 46.0217 69.1876 46.0748 69.2545V69.2559Z" fill="#E5DBC6"/>
<path d="M24.0896 74.4911C24.7208 74.4911 25.3639 74.613 25.9938 74.5206C26.2988 74.4751 26.5971 74.3853 26.9034 74.3465C27.2097 74.3077 27.5306 74.3264 27.8436 74.3184C28.1127 74.3104 28.3872 74.2126 28.5649 73.9997C28.6193 73.9341 28.5251 73.8404 28.4694 73.9073C28.3037 74.1055 28.0584 74.1805 27.8091 74.1858C27.5121 74.1925 27.2124 74.1765 26.9167 74.2113C26.621 74.2461 26.3385 74.3291 26.0481 74.3773C25.7578 74.4255 25.4461 74.4215 25.1425 74.4054C24.7911 74.3867 24.4397 74.3572 24.087 74.3572C24.0021 74.3572 24.0048 74.4911 24.0896 74.4911Z" fill="#E5DBC6"/>
</svg>
